<?xml version="1.0" encoding="utf-8"?>
<!-- Generator: Adobe Illustrator 24.1.2, SVG Export Plug-In . SVG Version: 6.00 Build 0)  -->
<svg version="1.1" id="Layer_1" xmlns="http://www.w3.org/2000/svg" xmlns:xlink="http://www.w3.org/1999/xlink" x="0px" y="0px"
	 viewBox="0 0 98 98" style="enable-background:new 0 0 98 98;" xml:space="preserve">
<style type="text/css">
	.st0{fill:url(#SVGID_1_);}
	.st1{fill:#FFFFFF;}
</style>
<g>
	<linearGradient id="SVGID_1_" gradientUnits="userSpaceOnUse" x1="127.423" y1="-48.3528" x2="-4.1843" y2="130.4916">
		<stop  offset="0.2808" style="stop-color:#FE00FF"/>
		<stop  offset="0.7316" style="stop-color:#8229F1"/>
		<stop  offset="0.7585" style="stop-color:#7E28EE"/>
		<stop  offset="0.7847" style="stop-color:#7225E4"/>
		<stop  offset="0.8106" style="stop-color:#5F21D4"/>
		<stop  offset="0.8364" style="stop-color:#431ABD"/>
		<stop  offset="0.8618" style="stop-color:#2012A0"/>
		<stop  offset="0.8683" style="stop-color:#161097"/>
	</linearGradient>
	<path class="st0" d="M78.16,25.33c-0.04-0.78-1.02-1.11-1.52-0.51c-0.7,0.83-1.92,0.97-2.8,0.33l-1.69-1.24v-2.09
		c0-9.08-7.36-16.44-16.44-16.44H42.37c-9.08,0-16.44,7.36-16.44,16.44v2.09l-1.69,1.24c-0.87,0.64-2.1,0.5-2.8-0.33l-0.86-1.01
		c-0.51-0.6-1.49-0.26-1.52,0.53l-2.54,62.56c-0.12,3.13,2.39,5.74,5.53,5.74h53.93c3.16,0,5.68-2.65,5.52-5.81L78.16,25.33z
		 M68.95,23.28l-3.59,2.63c-0.3,0.22-0.71,0.22-1.01,0l-3.8-2.78c-0.53-0.39-1.24-0.39-1.78-0.02l-3.96,2.8
		c-0.3,0.22-0.71,0.22-1.01,0l-3.8-2.78c-0.53-0.39-1.24-0.39-1.78-0.02l-3.96,2.8c-0.3,0.22-0.71,0.22-1.01,0l-3.8-2.78
		c-0.53-0.39-1.24-0.39-1.78-0.02l-3.96,2.8c-0.3,0.22-0.71,0.22-1.01,0c0,0-3.59-2.63-3.59-2.63v-1.46
		c0-7.31,5.93-13.24,13.24-13.24H55.7c7.32,0,13.25,5.93,13.25,13.25V23.28z"/>
	<g>
		<path class="st1" d="M48.14,52.41l-3.73-5.34c-0.4-0.57-1.06-0.92-1.76-0.92h-3.4h-3.74l2.24,3.28l3.81,0.03l2.77,3.94h3.29
			C48.13,53.41,48.43,52.83,48.14,52.41z"/>
		<path class="st1" d="M53.56,60.16l2.21,3.16l3.82-5.57h-4.19l2.63-3.69h7.13c0.46,0,0.73,0.52,0.46,0.89l-7.87,11.23
			c-1.08,1.54-3.36,1.54-4.44,0l-1.97-2.8L53.56,60.16z"/>
		<path class="st1" d="M30.07,46.15l14.06,20.02c1.08,1.54,3.36,1.54,4.44,0l7.87-11.24c0.26-0.37,0-0.89-0.46-0.89L52.81,54
			l-6.3,9.19L34.59,46.15H30.07z"/>
		<g>
			<circle class="st1" cx="46.28" cy="69.87" r="1.86"/>
		</g>
		<g>
			<circle class="st1" cx="27.53" cy="32.92" r="2.17"/>
		</g>
		<g>
			<circle class="st1" cx="70.97" cy="32.92" r="2.17"/>
		</g>
		<circle class="st1" cx="55.73" cy="69.87" r="1.86"/>
		<path class="st1" d="M40.87,54.05l2.69,3.69h5.59l2.02-2.95c0.22-0.32-0.01-0.75-0.39-0.75H40.87z"/>
	</g>
</g>
<g>
</g>
<g>
</g>
<g>
</g>
<g>
</g>
<g>
</g>
<g>
</g>
</svg>
