<?xml version="1.0" encoding="utf-8"?>
<!-- Generator: Adobe Illustrator 24.1.2, SVG Export Plug-In . SVG Version: 6.00 Build 0)  -->
<svg version="1.1" id="Layer_1" xmlns="http://www.w3.org/2000/svg" xmlns:xlink="http://www.w3.org/1999/xlink" x="0px" y="0px"
	 viewBox="0 0 98 98" style="enable-background:new 0 0 98 98;" xml:space="preserve">
<style type="text/css">
	.st0{fill:url(#SVGID_1_);}
</style>
<g>
	<linearGradient id="SVGID_1_" gradientUnits="userSpaceOnUse" x1="132.8259" y1="-59.3621" x2="-1.22" y2="104.7666">
		<stop  offset="0.2808" style="stop-color:#FE00FF"/>
		<stop  offset="0.7316" style="stop-color:#8229F1"/>
		<stop  offset="0.7585" style="stop-color:#7E28EE"/>
		<stop  offset="0.7847" style="stop-color:#7225E4"/>
		<stop  offset="0.8106" style="stop-color:#5F21D4"/>
		<stop  offset="0.8364" style="stop-color:#431ABD"/>
		<stop  offset="0.8618" style="stop-color:#2012A0"/>
		<stop  offset="0.8683" style="stop-color:#161097"/>
	</linearGradient>
	<path class="st0" d="M95.67,53.38c0-7.6-5.39-13.83-12.19-14.36c-0.81-2.72-2.99-4.85-5.73-5.59C75.92,18.37,63.69,6.89,49,6.89
		S22.08,18.37,20.25,33.42c-2.75,0.74-4.93,2.87-5.73,5.59c-0.24,0.02-0.47,0.04-0.7,0.08v-17.8c0-1.51-1.22-2.73-2.73-2.73
		s-2.73,1.22-2.73,2.73v19.99c-3.62,2.57-6.02,7.03-6.02,12.1c0,7.6,5.39,13.83,12.19,14.36c0.8,2.71,2.97,4.84,5.71,5.58
		c1.16,6.78,7.08,11.96,14.19,11.96h0.63c1.14,3.39,4.35,5.83,8.12,5.83h11.67c4.72,0,8.57-3.84,8.57-8.57
		c0-4.72-3.84-8.57-8.57-8.57H43.17c-3.77,0-6.97,2.45-8.12,5.83h-0.63c-4.14,0-7.62-2.83-8.64-6.65c3.22-1.11,5.54-4.17,5.54-7.76
		V41.34c0-3.6-2.33-6.67-5.57-7.77C27.45,21.5,37.26,12.35,49,12.35s21.55,9.14,23.25,21.22c-3.23,1.1-5.57,4.17-5.57,7.77v24.07
		c0,4.52,3.68,8.2,8.2,8.2h0.73c3.71,0,6.86-2.48,7.87-5.87C90.29,67.21,95.67,60.97,95.67,53.38z M54.83,79.45
		c1.71,0,3.1,1.39,3.1,3.1c0,1.71-1.39,3.1-3.1,3.1H43.17c-1.71,0-3.1-1.39-3.1-3.1c0-1.71,1.39-3.1,3.1-3.1 M25.85,65.41
		c0,1.51-1.23,2.73-2.73,2.73h-0.73c-1.51,0-2.73-1.23-2.73-2.73c0-8.78,0-15.95,0-24.07c0-1.51,1.23-2.73,2.73-2.73h0.73
		c1.51,0,2.73,1.23,2.73,2.73V65.41z M78.35,65.41c0,1.51-1.23,2.73-2.73,2.73h-0.73c-1.51,0-2.73-1.23-2.73-2.73V41.34
		c0-1.51,1.23-2.73,2.73-2.73h0.73c1.51,0,2.73,1.23,2.73,2.73V65.41z"/>
</g>
<g>
</g>
<g>
</g>
<g>
</g>
<g>
</g>
<g>
</g>
<g>
</g>
</svg>
