<?xml version="1.0" encoding="utf-8"?>
<!-- Generator: Adobe Illustrator 24.1.2, SVG Export Plug-In . SVG Version: 6.00 Build 0)  -->
<svg version="1.1" xmlns="http://www.w3.org/2000/svg" xmlns:xlink="http://www.w3.org/1999/xlink" x="0px" y="0px"
	 viewBox="0 0 130.99 145.78" style="enable-background:new 0 0 130.99 145.78;" xml:space="preserve">
<style type="text/css">
	.st0{display:none;fill:none;stroke:#00BFF2;stroke-width:0.25;stroke-miterlimit:10;}
	.st1{fill:#005EB8;}
	.st2{fill:#00C0F3;}
	.st3{fill:#009E9C;}
	.st4{fill:#2CD5C4;}
	.st5{fill:#005151;}
	.st6{fill:#007473;}
	.st7{fill:#FFFFFF;}
</style>
<g id="Capa_2">
</g>
<g id="Capa_1">
	<rect x="68.07" y="-117.57" class="st0" width="10.66" height="10.66"/>
	<rect x="93.43" y="-158.3" class="st0" width="10.66" height="10.66"/>
	<rect x="130.42" y="-94.58" class="st0" width="10.66" height="10.66"/>
	<rect x="130.42" y="-83.92" class="st0" width="10.66" height="10.66"/>
	<g>
		<g>
			<path class="st1" d="M110.11,107.3c-0.63,0.61-1.39,0.92-2.28,0.92c-0.91,0-1.69-0.32-2.31-0.95c-0.62-0.62-0.95-1.39-0.95-2.31
				c0-0.94,0.35-1.74,1.03-2.37c0.63-0.58,1.38-0.88,2.23-0.88c0.9,0,1.67,0.32,2.3,0.96c0.63,0.63,0.95,1.39,0.95,2.29
				C111.08,105.89,110.76,106.67,110.11,107.3 M105.93,103.07c-0.51,0.54-0.78,1.17-0.78,1.89c0,0.76,0.26,1.39,0.79,1.92
				c0.53,0.53,1.17,0.78,1.9,0.78c0.74,0,1.37-0.26,1.89-0.78c0.52-0.53,0.8-1.17,0.8-1.92c0-0.72-0.27-1.35-0.79-1.89
				c-0.52-0.54-1.16-0.8-1.9-0.8C107.09,102.27,106.46,102.53,105.93,103.07 M106.42,106.77v-3.61c0.22,0,0.56,0,1.01,0.01
				c0.44,0,0.69,0,0.73,0.01c0.28,0.01,0.53,0.09,0.71,0.17c0.32,0.18,0.48,0.47,0.48,0.87c0,0.3-0.08,0.52-0.25,0.65
				c-0.16,0.13-0.38,0.22-0.63,0.25c0.23,0.04,0.4,0.1,0.51,0.2c0.21,0.17,0.32,0.45,0.32,0.81v0.32c0,0.05,0,0.07,0.01,0.1
				c0,0.04,0.01,0.08,0.02,0.11l0.04,0.09h-0.9c-0.03-0.1-0.04-0.26-0.06-0.49c-0.01-0.22-0.02-0.36-0.05-0.44
				c-0.06-0.12-0.14-0.23-0.27-0.26c-0.07-0.04-0.18-0.06-0.32-0.06l-0.21-0.01h-0.2v1.27H106.42z M108.13,103.88
				c-0.13-0.05-0.31-0.08-0.55-0.08h-0.23v1.05h0.36c0.23,0,0.4-0.05,0.52-0.14c0.12-0.09,0.19-0.22,0.19-0.42
				C108.43,104.09,108.33,103.95,108.13,103.88"/>
			<path class="st1" d="M40.86,109.64c-0.8,0-1.6-0.16-2.38-0.48c-0.77-0.32-1.41-0.84-1.91-1.56c-0.5-0.72-0.75-1.64-0.75-2.75
				c0-0.97,0.16-1.85,0.48-2.61c0.32-0.76,0.76-1.41,1.32-1.92c0.56-0.51,1.2-0.9,1.9-1.16c0.71-0.26,1.47-0.39,2.26-0.39
				c0.93,0,1.78,0.2,2.53,0.59c0.74,0.38,1.33,0.95,1.75,1.67c0.42,0.73,0.63,1.59,0.63,2.56c0,0.86-0.14,1.67-0.41,2.4
				c-0.27,0.73-0.67,1.38-1.18,1.93c-0.51,0.54-1.13,0.97-1.84,1.27C42.56,109.49,41.75,109.64,40.86,109.64 M41.65,100.92
				c-0.69,0-1.29,0.2-1.8,0.58c-0.5,0.38-0.89,0.87-1.15,1.45c-0.26,0.58-0.39,1.17-0.39,1.76c0,0.76,0.23,1.43,0.69,1.96
				c0.46,0.54,1.1,0.82,1.9,0.82c0.5,0,0.96-0.1,1.37-0.3c0.4-0.2,0.76-0.48,1.05-0.84c0.29-0.35,0.51-0.76,0.66-1.2
				c0.14-0.44,0.22-0.9,0.22-1.37c0-0.56-0.11-1.07-0.32-1.5c-0.22-0.43-0.52-0.77-0.9-1C42.6,101.04,42.15,100.92,41.65,100.92"/>
			<path class="st1" d="M61.49,109.54l1.28-8.6h-3.51l0.17-1.11l0,0l0.01-0.03c0.06-0.53,0.5-0.92,1.02-0.92h8.56l-0.17,1.19
				l-0.01,0.02c-0.08,0.5-0.51,0.86-1.01,0.86h-2.65l-1.26,8.6H61.49z"/>
			<path class="st1" d="M76.33,99.77c-0.58-0.59-1.52-0.89-2.82-0.89h-3.42l-1.56,10.66h1.27l0.01,0l0.05,0
				c0.61,0,1.14-0.46,1.22-1.07l0.01-0.02l0.42-2.83h1.94c0.85,0,1.57-0.17,2.13-0.5c0.56-0.33,0.97-0.76,1.23-1.29
				c0.26-0.53,0.39-1.13,0.39-1.77C77.19,101.15,76.9,100.36,76.33,99.77 M74.66,102.17c-0.13,1.43-1.3,1.93-1.77,1.93h-1.17
				l0.54-3.64c0,0,0.47-0.09,0.99-0.05C73.91,100.46,74.8,100.66,74.66,102.17"/>
			<path class="st1" d="M56.12,98.86l-1.01,6.9l-3.04-4.9c-0.72-1.26-2.01-1.99-3.42-1.99l-0.04-0.01h-0.1h0l-1.58,10.67h2.41
				l1.02-6.9l3.04,4.91c0.72,1.26,2.01,1.99,3.42,1.99l0.04,0h0.1l1.57-10.67H56.12z M55.12,105.76L55.12,105.76L55.12,105.76
				L55.12,105.76z"/>
			<path class="st1" d="M83.08,98.88h-0.82c-1.07,0.01-2.05,0.57-2.6,1.53l-0.09,0.14c-0.02,0.05-0.04,0.07-0.04,0.07l-4.56,8.92
				h2.51l1.19-2.46h3.48l0.29,2.46h2.6L83.08,98.88z M79.39,105.59l2.05-4.22l0.58,4.22H79.39z"/>
			<path class="st1" d="M95.77,107.26l-0.34-0.33c0.17-0.3,0.32-0.61,0.44-0.94c0.27-0.73,0.41-1.54,0.41-2.4
				c0-0.97-0.21-1.84-0.63-2.56c-0.42-0.73-1.01-1.29-1.75-1.67c-0.75-0.39-1.6-0.59-2.53-0.59c-0.79,0-1.55,0.13-2.26,0.39
				c-0.7,0.26-1.34,0.65-1.9,1.16c-0.56,0.51-1,1.16-1.32,1.92c-0.32,0.76-0.48,1.64-0.48,2.61c0,1.11,0.25,2.03,0.75,2.75
				c0.5,0.72,1.15,1.24,1.91,1.56c0.77,0.32,1.57,0.48,2.37,0.48c0.89,0,1.7-0.15,2.41-0.45c0.25-0.1,0.48-0.22,0.71-0.36l0.32,0.32
				c0.24,0.24,0.58,0.39,0.95,0.39h1.33v-1.33v0C96.16,107.84,96.01,107.5,95.77,107.26 M90.49,107.49c-0.8,0-1.44-0.27-1.9-0.82
				c-0.46-0.54-0.69-1.2-0.69-1.96c0-0.59,0.13-1.18,0.39-1.76c0.26-0.58,0.64-1.07,1.15-1.45c0.51-0.38,1.11-0.58,1.8-0.58
				c0.5,0,0.94,0.12,1.32,0.36c0.38,0.24,0.68,0.57,0.9,1c0.21,0.43,0.32,0.93,0.32,1.5c0,0.47-0.07,0.93-0.22,1.37
				c-0.15,0.44-0.37,0.85-0.66,1.2c-0.29,0.36-0.65,0.64-1.05,0.84C91.45,107.39,90.99,107.49,90.49,107.49"/>
			<path class="st1" d="M34.91,101.28c0,0-3.47-1.08-5.14,0.55c-1.68,1.63-1.71,4.21,0.13,5.23c1.84,1.03,4.79-0.31,5-0.63
				c0,0,0.27,0.97-0.23,2.01c-0.5,1.03-3.36,1.62-5.67,0.83c-2.32-0.8-3.31-2.82-3.06-5.07c0.25-2.25,1.56-4.46,4.62-5.21
				c2.54-0.62,5.42,0.25,5.42,0.25L34.91,101.28z"/>
			<path class="st1" d="M102.94,101.71h-1.81c-0.69,0-1.26,0.49-1.4,1.13l-1,6.7h0.02c0.26-0.09,0.93-0.43,1.94-1.66
				c1.22-1.49,1.6-2.52,1.83-3.2L102.94,101.71z"/>
			<path class="st1" d="M101.77,100.76c0.84,0,1.52-0.68,1.52-1.52c0-0.84-0.68-1.52-1.52-1.52c-0.84,0-1.52,0.68-1.52,1.52
				C100.25,100.08,100.93,100.76,101.77,100.76"/>
			<path class="st2" d="M100.68,107.88c-1.01,1.24-1.68,1.57-1.94,1.66h1.82c0.68,0,1.26-0.48,1.4-1.12l0.54-3.75
				C102.27,105.35,101.89,106.39,100.68,107.88"/>
		</g>
	</g>
	<g>
		<path class="st3" d="M4.4,123.5c0-3.95,2.94-6.47,7-6.47s6.94,2.37,6.94,5.61v1.01h-2.17v-0.59c0-2.4-1.96-3.94-4.78-3.94
			s-4.78,1.69-4.78,4.8v7.83c0,3.12,1.96,4.81,4.78,4.81s4.78-1.54,4.78-3.95v-0.89h2.17v1.3c0,3.23-2.88,5.61-6.94,5.61
			s-7-2.52-7-6.47V123.5z"/>
		<path class="st3" d="M21.49,127.36c0-3.77,2.4-6.05,6.26-6.05c3.86,0,6.26,2.28,6.26,6.05v5.1c0,3.77-2.4,6.05-6.26,6.05
			c-3.86,0-6.26-2.28-6.26-6.05V127.36z M23.59,132.1c0,2.97,1.48,4.51,4.15,4.51c2.67,0,4.15-1.54,4.15-4.51v-4.39
			c0-2.97-1.48-4.51-4.15-4.51c-2.67,0-4.15,1.54-4.15,4.51V132.1z"/>
		<path class="st3" d="M37.68,121.6h1.87l0.15,1.81c1.28-1.28,2.55-2.11,4.3-2.11c2.37,0,3.77,0.89,4.54,2.49
			c1.25-1.39,2.64-2.49,4.66-2.49c3.71,0,5.16,1.84,5.16,5.61v11.3h-2.11V127.3c0-2.85-0.53-4.09-3.2-4.09c-1.75,0-3.08,1.16-4,2.31
			c0.06,0.53,0.12,1.1,0.12,1.69v11h-2.11V127.6c0-2.85-0.53-4.39-3.2-4.39c-1.78,0-3.14,1.19-4.06,2.37v12.64h-2.11V121.6z"/>
		<path class="st3" d="M61.97,127.36c0-3.77,2.4-6.05,6.26-6.05c3.86,0,6.26,2.28,6.26,6.05v3.03H64.07v1.72
			c0,2.97,1.48,4.51,4.15,4.51c2.94,0,4.12-1.72,4.12-3.56v-0.18h2.05v0.47c0,2.61-2.22,5.16-6.17,5.16c-3.86,0-6.26-2.28-6.26-6.05
			V127.36z M72.38,128.51v-0.8c0-2.97-1.48-4.51-4.15-4.51c-2.67,0-4.15,1.54-4.15,4.51v0.8H72.38z"/>
		<path class="st3" d="M78.1,121.6h1.84l0.18,2.08c0.95-1.39,2.85-2.37,4.54-2.37h0.18v1.96h-0.33c-1.69,0-3.53,1.19-4.3,2.58v12.37
			H78.1V121.6z"/>
		<path class="st3" d="M85.99,127.36c0-3.77,2.4-6.05,6.26-6.05c3.95,0,6.17,2.2,6.17,5.13v0.47h-2.05v-0.18
			c0-2.08-1.19-3.53-4.12-3.53c-2.67,0-4.15,1.54-4.15,4.51v4.39c0,2.97,1.48,4.51,4.15,4.51c2.94,0,4.12-1.48,4.12-3.56v-0.18h2.05
			v0.47c0,2.85-2.22,5.16-6.17,5.16c-3.86,0-6.26-2.28-6.26-6.05V127.36z"/>
		<path class="st3" d="M102.03,123.47l-1.87-0.18v-1.69h3.98v16.61h-2.11V123.47z M101.68,117.57c0-1.1,0.53-1.6,1.33-1.6
			c0.86,0,1.42,0.5,1.42,1.6c0,1.04-0.56,1.51-1.42,1.51C102.21,119.08,101.68,118.61,101.68,117.57z"/>
		<path class="st3" d="M107.82,127.21c0-3.77,1.93-5.9,5.64-5.9c1.75,0,3.56,0.92,4.72,2.11l0.15-1.81h1.87v16.61h-1.87l-0.15-1.81
			c-1.28,1.28-2.97,2.11-4.72,2.11c-3.71,0-5.64-2.14-5.64-5.9V127.21z M109.92,132.22c0,2.85,1.01,4.39,3.68,4.39
			c1.78,0,3.56-1.19,4.48-2.37v-8.66c-0.95-1.19-2.76-2.37-4.48-2.37c-2.67,0-3.68,1.54-3.68,4.39V132.22z"/>
		<path class="st3" d="M124.04,115.97h2.11v19.13c0,0.83,0.12,1.36,1.1,1.36c0.24,0,0.47,0,0.74-0.06v1.63
			c-0.33,0.09-1.25,0.18-1.72,0.18c-1.48,0-2.23-0.68-2.23-2.34V115.97z"/>
	</g>
	<g>
		<g>
			<path class="st3" d="M49.91,88.04h39.42c4.79,0,8.68-3.89,8.68-8.68V59.7H41.23v19.66C41.23,84.15,45.12,88.04,49.91,88.04z"/>
			<path class="st4" d="M88.48,12.5L78.96,3h0H53.31h-3.48c-4.75,0-8.6,3.84-8.6,8.58v9.15v10.34v0.27v28.35h56.78V31.35v-0.27
				v-9.05v0L88.48,12.5z"/>
			<g>
				<path class="st3" d="M88.55,53.59h2.11c0.91,0,1.64-0.73,1.64-1.64V20.28c0-0.91-0.73-1.64-1.64-1.64h-2.11
					c-0.91,0-1.64,0.73-1.64,1.64v31.67C86.91,52.86,87.64,53.59,88.55,53.59z"/>
				<path class="st3" d="M83.37,53.59L83.37,53.59c0.91,0,1.64-0.73,1.64-1.64V20.28c0-0.91-0.73-1.64-1.64-1.64h0
					c-0.91,0-1.64,0.73-1.64,1.64v31.67C81.74,52.86,82.47,53.59,83.37,53.59z"/>
				<path class="st3" d="M78.2,53.59L78.2,53.59c0.91,0,1.64-0.73,1.64-1.64V20.28c0-0.91-0.73-1.64-1.64-1.64h0
					c-0.91,0-1.64,0.73-1.64,1.64v31.67C76.56,52.86,77.3,53.59,78.2,53.59z"/>
				<path class="st3" d="M73.03,53.59L73.03,53.59c0.91,0,1.64-0.73,1.64-1.64V20.28c0-0.91-0.73-1.64-1.64-1.64h0
					c-0.91,0-1.64,0.73-1.64,1.64v31.67C71.39,52.86,72.12,53.59,73.03,53.59z"/>
				<path class="st3" d="M59.89,53.59L59.89,53.59c0.91,0,1.64-0.73,1.64-1.64V20.28c0-0.91-0.73-1.64-1.64-1.64h0
					c-0.91,0-1.64,0.73-1.64,1.64v31.67C58.25,52.86,58.99,53.59,59.89,53.59z"/>
				<path class="st3" d="M52.83,53.59h1.93c0.91,0,1.64-0.73,1.64-1.64V20.28c0-0.91-0.73-1.64-1.64-1.64h-1.93
					c-0.91,0-1.64,0.73-1.64,1.64v31.67C51.2,52.86,51.93,53.59,52.83,53.59z"/>
				<path class="st3" d="M64.52,53.59h3.34c0.91,0,1.64-0.73,1.64-1.64V20.28c0-0.91-0.73-1.64-1.64-1.64h-3.34
					c-0.91,0-1.64,0.73-1.64,1.64v31.67C62.88,52.86,63.61,53.59,64.52,53.59z"/>
			</g>
			<path class="st5" d="M85.02,24.3l13-2.28L78.96,3l-1.42,14.29C76.88,22.21,80.23,25.35,85.02,24.3z"/>
			<path class="st3" d="M87.63,22.02h10.39L78.96,3v10.37C78.96,18.15,82.84,22.02,87.63,22.02z"/>
		</g>
		<path class="st5" d="M64.89,59.7H41.23v19.67c0,0.9,0.14,1.77,0.39,2.58C52.45,79.12,61.48,70.19,64.89,59.7z"/>
		<ellipse class="st6" cx="39.67" cy="50.7" rx="26.69" ry="26.65"/>
		<g>
			<path class="st7" d="M44.57,43.23c0-1.84-1.69-2.72-4.88-2.72c-3.13,0-4.77,0.87-4.77,2.72v0.87c0,1.33,1.23,2.05,2.16,2.36
				l7.7,2.66c2.82,0.97,4.62,2.61,4.62,5.02v2.87c0,2.77-2.1,5.33-7.08,6v3.43c0,0.72-0.26,1.02-0.92,1.02h-3.03
				c-0.67,0-0.98-0.31-0.98-1.02v-3.38c-5.34-0.56-7.44-3.23-7.44-6.05v-1.28c0-0.62,0.26-0.92,0.87-0.92h2.72
				c0.67,0,0.87,0.31,0.87,0.92v1.08c0,1.84,1.95,2.72,5.23,2.72c3.23,0,5.23-0.87,5.23-2.72v-1.38c0-1.23-1.03-1.9-2.72-2.46
				l-7.7-2.66c-1.9-0.67-4-2.61-4-5.18v-1.9c0-2.77,1.8-5.53,6.93-6.15v-3.43c0-0.72,0.31-1.03,0.98-1.03h3.03
				c0.67,0,0.92,0.31,0.92,1.03v3.43c4.93,0.72,6.72,3.43,6.72,6.15v1.23c0,0.67-0.21,0.92-0.92,0.92h-2.67
				c-0.62,0-0.87-0.26-0.87-0.92V43.23z"/>
		</g>
	</g>
	<g>
	</g>
	<g>
	</g>
	<g>
	</g>
	<g>
	</g>
	<g>
	</g>
	<g>
	</g>
</g>
</svg>
