<?xml version="1.0" encoding="utf-8"?>
<!-- Generator: Adobe Illustrator 24.1.2, SVG Export Plug-In . SVG Version: 6.00 Build 0)  -->
<svg version="1.1" id="Capa_1" xmlns="http://www.w3.org/2000/svg" xmlns:xlink="http://www.w3.org/1999/xlink" x="0px" y="0px"
	 viewBox="0 0 185.64 145.78" style="enable-background:new 0 0 185.64 145.78;" xml:space="preserve">
<style type="text/css">
	.st0{display:none;fill:none;stroke:#00BFF2;stroke-width:0.25;stroke-miterlimit:10;}
	.st1{fill:#005EB8;}
	.st2{fill:#00C0F3;}
	.st3{fill:#003A70;}
	.st4{fill:#009CDE;}
</style>
<rect x="-44.6" y="-145.46" class="st0" width="10.66" height="10.66"/>
<rect x="-19.24" y="-186.19" class="st0" width="10.66" height="10.66"/>
<rect x="17.75" y="-122.47" class="st0" width="10.66" height="10.66"/>
<rect x="17.75" y="-111.81" class="st0" width="10.66" height="10.66"/>
<g>
	<path class="st1" d="M90.32-169.46c-0.85,0.82-1.88,1.23-3.07,1.23c-1.23,0-2.27-0.43-3.11-1.27c-0.84-0.83-1.28-1.88-1.28-3.11
		c0-1.27,0.47-2.35,1.38-3.19c0.85-0.78,1.85-1.19,3.01-1.19c1.21,0,2.25,0.43,3.1,1.29c0.84,0.85,1.28,1.88,1.28,3.09
		C91.63-171.37,91.19-170.31,90.32-169.46 M84.67-175.16c-0.69,0.73-1.05,1.58-1.05,2.54c0,1.03,0.35,1.87,1.06,2.58
		c0.71,0.72,1.57,1.06,2.56,1.06c0.99,0,1.84-0.35,2.54-1.06c0.7-0.71,1.07-1.57,1.07-2.58c0-0.97-0.37-1.81-1.06-2.54
		c-0.7-0.73-1.56-1.08-2.56-1.08C86.24-176.23,85.39-175.89,84.67-175.16 M85.33-170.17v-4.86c0.3,0,0.75,0,1.36,0.01
		c0.59,0,0.93,0,0.99,0.01c0.38,0.01,0.71,0.12,0.96,0.23c0.43,0.24,0.65,0.63,0.65,1.18c0,0.41-0.1,0.7-0.34,0.88
		c-0.22,0.17-0.51,0.3-0.84,0.34c0.31,0.05,0.53,0.14,0.69,0.27c0.29,0.22,0.43,0.6,0.43,1.09v0.43c0,0.06,0,0.09,0.01,0.14
		c0,0.05,0.01,0.1,0.03,0.15l0.05,0.12H88.1c-0.04-0.14-0.06-0.35-0.08-0.66c-0.02-0.3-0.03-0.49-0.07-0.59
		c-0.08-0.17-0.19-0.3-0.36-0.35c-0.09-0.06-0.25-0.08-0.44-0.09l-0.28-0.02H86.6v1.71H85.33z M87.65-174.06
		c-0.17-0.07-0.42-0.11-0.74-0.11H86.6v1.41h0.49c0.3,0,0.53-0.07,0.7-0.19c0.17-0.12,0.26-0.3,0.26-0.57
		C88.05-173.79,87.91-173.97,87.65-174.06"/>
	<path class="st1" d="M-3.03-166.3c-1.08,0-2.16-0.22-3.2-0.65c-1.04-0.43-1.9-1.14-2.57-2.11c-0.67-0.97-1.01-2.22-1.01-3.71
		c0-1.31,0.22-2.49,0.65-3.52c0.43-1.02,1.03-1.9,1.78-2.59c0.75-0.69,1.61-1.22,2.56-1.56c0.95-0.35,1.98-0.52,3.05-0.52
		c1.25,0,2.4,0.26,3.41,0.79c1,0.52,1.8,1.28,2.36,2.26c0.57,0.98,0.85,2.14,0.85,3.45c0,1.16-0.18,2.25-0.55,3.24
		c-0.36,0.99-0.9,1.86-1.59,2.6c-0.69,0.73-1.52,1.31-2.48,1.72C-0.75-166.51-1.84-166.3-3.03-166.3 M-1.97-178.06
		c-0.93,0-1.74,0.27-2.43,0.78c-0.68,0.51-1.2,1.17-1.54,1.96c-0.35,0.78-0.52,1.57-0.52,2.37c0,1.03,0.31,1.92,0.93,2.65
		c0.62,0.73,1.48,1.1,2.56,1.1c0.67,0,1.3-0.14,1.84-0.41c0.55-0.27,1.02-0.65,1.42-1.13c0.39-0.48,0.69-1.02,0.89-1.62
		c0.19-0.59,0.29-1.21,0.29-1.84c0-0.76-0.15-1.44-0.43-2.02c-0.29-0.58-0.7-1.03-1.21-1.35C-0.69-177.9-1.29-178.06-1.97-178.06"/>
	<path class="st1" d="M24.77-166.44l1.72-11.59h-4.73l0.23-1.5l0,0l0.01-0.04c0.08-0.71,0.67-1.24,1.38-1.24h11.54l-0.23,1.6
		l-0.01,0.03c-0.11,0.67-0.69,1.16-1.37,1.16h-3.58l-1.7,11.59H24.77z"/>
	<path class="st1" d="M44.77-179.62c-0.78-0.8-2.05-1.2-3.8-1.2h-4.61l-2.1,14.37h1.71l0.01,0l0.07,0c0.82,0,1.53-0.62,1.65-1.45
		l0.01-0.03l0.57-3.81h2.61c1.15,0,2.12-0.23,2.87-0.68c0.75-0.44,1.31-1.03,1.65-1.74c0.35-0.71,0.53-1.52,0.53-2.38
		C45.93-177.75,45.55-178.82,44.77-179.62 M42.53-176.37c-0.17,1.93-1.76,2.61-2.38,2.61h-1.58l0.73-4.9c0,0,0.63-0.13,1.34-0.07
		C41.51-178.68,42.71-178.4,42.53-176.37"/>
	<path class="st1" d="M17.53-180.83l-1.36,9.29l-4.09-6.61c-0.97-1.7-2.7-2.69-4.6-2.69l-0.06-0.01H7.29h0l-2.13,14.38H8.4l1.37-9.3
		l4.09,6.61c0.97,1.7,2.71,2.69,4.61,2.69l0.06,0h0.13l2.12-14.38H17.53z M16.18-171.53L16.18-171.53L16.18-171.53L16.18-171.53z"/>
	<path class="st1" d="M53.88-180.82h-1.11c-1.45,0.01-2.77,0.77-3.51,2.07l-0.12,0.19c-0.03,0.06-0.05,0.09-0.05,0.09l-6.15,12.03
		h3.39l1.6-3.31h4.69l0.39,3.31h3.5L53.88-180.82z M48.9-171.77l2.76-5.69l0.78,5.69H48.9z"/>
	<path class="st1" d="M70.98-169.51l-0.45-0.44c0.23-0.4,0.43-0.82,0.6-1.27c0.36-0.99,0.55-2.08,0.55-3.24
		c0-1.31-0.29-2.47-0.85-3.45c-0.57-0.98-1.36-1.74-2.36-2.26c-1.01-0.53-2.16-0.79-3.41-0.79c-1.07,0-2.09,0.18-3.04,0.52
		c-0.95,0.35-1.81,0.87-2.56,1.56c-0.75,0.69-1.35,1.56-1.78,2.59c-0.43,1.03-0.65,2.21-0.65,3.52c0,1.49,0.34,2.74,1.01,3.71
		c0.68,0.97,1.54,1.68,2.58,2.11c1.04,0.44,2.12,0.65,3.2,0.65c1.2,0,2.29-0.21,3.25-0.61c0.33-0.14,0.65-0.3,0.95-0.48l0.43,0.43
		c0.33,0.33,0.78,0.53,1.28,0.53h1.8v-1.8v0C71.51-168.74,71.31-169.19,70.98-169.51 M63.86-169.2c-1.08,0-1.94-0.37-2.56-1.1
		c-0.62-0.72-0.93-1.61-0.93-2.65c0-0.79,0.17-1.59,0.52-2.37c0.35-0.79,0.87-1.45,1.55-1.96c0.69-0.52,1.5-0.78,2.43-0.78
		c0.67,0,1.27,0.16,1.78,0.48c0.52,0.32,0.92,0.77,1.21,1.35c0.29,0.58,0.43,1.26,0.43,2.02c0,0.63-0.1,1.25-0.29,1.84
		c-0.2,0.6-0.49,1.14-0.89,1.62c-0.39,0.48-0.87,0.86-1.41,1.13C65.16-169.34,64.54-169.2,63.86-169.2"/>
	<path class="st1" d="M-11.05-177.57c0,0-4.68-1.46-6.94,0.73c-2.26,2.19-2.31,5.68,0.17,7.06c2.48,1.38,6.46-0.42,6.74-0.85
		c0,0,0.36,1.31-0.31,2.71c-0.67,1.39-4.53,2.19-7.64,1.11c-3.13-1.08-4.46-3.79-4.12-6.84c0.34-3.04,2.1-6.02,6.22-7.02
		c3.42-0.84,7.31,0.34,7.31,0.34L-11.05-177.57z"/>
	<path class="st1" d="M80.64-176.99H78.2c-0.93,0-1.7,0.65-1.89,1.52l-1.35,9.03h0.03c0.35-0.12,1.25-0.57,2.61-2.24
		c1.64-2.01,2.15-3.4,2.47-4.31L80.64-176.99z"/>
	<path class="st1" d="M79.07-178.28c1.13,0,2.05-0.92,2.05-2.05c0-1.13-0.92-2.05-2.05-2.05c-1.13,0-2.05,0.92-2.05,2.05
		C77.02-179.2,77.94-178.28,79.07-178.28"/>
	<path class="st2" d="M77.6-168.68c-1.36,1.67-2.26,2.12-2.61,2.24h2.45c0.92,0,1.69-0.64,1.89-1.51l0.73-5.05
		C79.75-172.08,79.24-170.69,77.6-168.68"/>
</g>
<g>
	<path class="st2" d="M-23.18-155.63h3.76l13,23.8l-0.08-23.8h3v27.99h-3.84l-12.92-23.76l0.08,23.76h-3V-155.63z"/>
	<path class="st2" d="M1.06-142.27c0-5.08,3.24-8.16,8.44-8.16s8.44,3.08,8.44,8.16v6.88c0,5.08-3.24,8.16-8.44,8.16
		s-8.44-3.08-8.44-8.16V-142.27z M3.9-135.87c0,4,2,6.08,5.6,6.08c3.6,0,5.6-2.08,5.6-6.08v-5.92c0-4-2-6.08-5.6-6.08
		c-3.6,0-5.6,2.08-5.6,6.08V-135.87z M11.18-157.15h3.4l-3.72,4.88H8.1L11.18-157.15z"/>
	<path class="st2" d="M22.9-150.03h2.52l0.2,2.44c1.72-1.72,3.44-2.84,5.8-2.84c3.2,0,5.08,1.2,6.12,3.36
		c1.68-1.88,3.56-3.36,6.28-3.36c5,0,6.96,2.48,6.96,7.56v15.24h-2.84v-14.72c0-3.84-0.72-5.52-4.32-5.52
		c-2.36,0-4.16,1.56-5.4,3.12c0.08,0.72,0.16,1.48,0.16,2.28v14.84h-2.84v-14.32c0-3.84-0.72-5.92-4.32-5.92
		c-2.4,0-4.24,1.6-5.48,3.2v17.04H22.9V-150.03z"/>
	<path class="st2" d="M55.9-147.51l-2.52-0.24v-2.28h5.36v22.4H55.9V-147.51z M55.42-155.47c0-1.48,0.72-2.16,1.8-2.16
		c1.16,0,1.92,0.68,1.92,2.16c0,1.4-0.76,2.04-1.92,2.04C56.14-153.43,55.42-154.07,55.42-155.47z"/>
	<path class="st2" d="M63.94-150.03h2.52l0.2,2.44c1.72-1.72,3.84-2.84,6.2-2.84c5,0,7.44,2.48,7.44,7.56v15.24h-2.84v-14.72
		c0-3.84-1.2-5.52-4.8-5.52c-2.4,0-4.64,1.6-5.88,3.2v17.04h-2.84V-150.03z"/>
	<path class="st2" d="M85.18-142.47c0-5.08,2.6-7.96,7.6-7.96c2.36,0,4.8,1.24,6.36,2.84l0.2-2.44h2.52v22.4h-2.52l-0.2-2.44
		c-1.72,1.72-4,2.84-6.36,2.84c-5,0-7.6-2.88-7.6-7.96V-142.47z M88.02-135.71c0,3.84,1.36,5.92,4.96,5.92c2.4,0,4.8-1.6,6.04-3.2
		v-11.68c-1.28-1.6-3.72-3.2-6.04-3.2c-3.6,0-4.96,2.08-4.96,5.92V-135.71z"/>
	<path class="st2" d="M106.1-134.63h2.84v0.24c0,2.4,1.76,4.76,5.72,4.76c3.6,0,5.2-1.84,5.2-4.04v-0.28c0-2.44-2.04-3.2-5.32-3.56
		c-4-0.44-7.96-1.68-7.96-6.08v-0.68c0-3.56,2.52-6.32,7.72-6.32c5.32,0,7.88,3.36,7.88,6.92v0.64h-2.76v-0.24
		c0-2.4-1.16-4.76-5.12-4.76c-3.48,0-4.88,1.64-4.88,3.84v0.28c0,2.68,2.32,3.44,5.52,3.8c3.68,0.4,7.76,1.36,7.76,5.8v0.8
		c0,3.52-2.84,6.44-8.04,6.44c-5.32,0-8.56-3.08-8.56-6.92V-134.63z"/>
</g>
<g>
	<path class="st1" d="M-129.1-110.82v-33.43c0-5.28,4.54-9.56,10.15-9.56h0.02c5.6,0,10.15,4.28,10.15,9.56v33.43
		c0,5.28-4.55,9.57-10.16,9.57h0C-124.55-101.26-129.1-105.54-129.1-110.82z"/>
	<path class="st3" d="M-118.95-153.81h0.02c5.6,0,10.15,4.28,10.15,9.56v15.28l-10.17-9.58l0,0c-0.06,0.06-4.39,4.14-10.15,9.56
		v-15.26C-129.1-149.54-124.56-153.81-118.95-153.81z"/>
	<path class="st2" d="M-109.27-133.35l-16.86-15.88l0,0c-3.97-3.74-10.4-3.74-14.37,0l7.3-6.88c7.87-7.41,20.63-7.41,28.49,0
		l9.8,9.23L-109.27-133.35z"/>
	<path class="st4" d="M-147.49-128.75c-3.92-3.92-3.83-10.32,0.21-14.12c4.25-4,6.77-6.36,6.77-6.36c3.97-3.74,10.4-3.74,14.37,0h0
		c0,0,5.34,5.03,7.18,6.77c-0.09,0.08-6.41,6.01-14.84,13.93C-137.66-124.9-143.73-124.99-147.49-128.75L-147.49-128.75z"/>
	<path class="st1" d="M-140.5-149.23c3.95-3.72,10.42-3.72,14.37,0l0,0c0,0,5.34,5.03,7.18,6.77l-2.74,2.58l-7.18-6.77l0,0
		c-3.97-3.74-10.4-3.74-14.37,0L-140.5-149.23z"/>
	<path class="st2" d="M-129.91-175.14v0.02c0-6.06,4.9-10.97,10.95-10.97h0.02c6.05,0,10.95,4.91,10.95,10.97v-0.02
		c0,6.06-4.91,10.98-10.96,10.98h0C-125-164.16-129.91-169.07-129.91-175.14z"/>
	<path class="st1" d="M-81.24-110.82v-33.43c0-5.28,4.54-9.56,10.15-9.56h0.02c5.6,0,10.15,4.28,10.15,9.56v33.43
		c0,5.28-4.55,9.57-10.16,9.57h0C-76.69-101.26-81.24-105.54-81.24-110.82z"/>
	<path class="st3" d="M-71.09-153.81h0.02c5.6,0,10.15,4.28,10.15,9.56v15.28l-10.17-9.58l0,0c-0.06,0.06-4.39,4.14-10.15,9.56
		v-15.26C-81.24-149.54-76.7-153.81-71.09-153.81z"/>
	<path class="st2" d="M-82.04-175.14v0.02c0-6.06,4.9-10.97,10.95-10.97h0.02c6.05,0,10.95,4.91,10.95,10.97v-0.02
		c0,6.06-4.91,10.98-10.96,10.98h0C-77.14-164.16-82.04-169.07-82.04-175.14z"/>
	<path class="st4" d="M-85.47-155.98l-16.73,15.75l0,0c-3.97,3.74-10.4,3.74-14.37,0l7.3,6.88c7.87,7.41,20.63,7.41,28.49,0
		l9.67-9.1L-85.47-155.98z"/>
	<path class="st2" d="M-85.34-156.11c7.84-7.38,20.66-7.38,28.49,0l14.01,13.2c4.04,3.81,4.14,10.21,0.21,14.14l0,0
		c-3.77,3.77-9.84,3.86-13.72,0.21l-21.94-20.66h0c-3.97-3.74-10.4-3.74-14.37,0L-85.34-156.11z"/>
	<path class="st1" d="M-92.64-149.23c3.97-3.74,10.4-3.74,14.37,0l0,0c0,0,5.34,5.03,7.18,6.77l-2.74,2.58l-7.18-6.77l0,0
		c-3.97-3.74-10.4-3.74-14.37,0L-92.64-149.23z"/>
</g>
<g>
	<g>
		<path class="st1" d="M135.44,107.3c-0.63,0.61-1.39,0.92-2.28,0.92c-0.91,0-1.69-0.32-2.31-0.95c-0.62-0.62-0.95-1.39-0.95-2.31
			c0-0.94,0.35-1.74,1.03-2.37c0.63-0.58,1.38-0.88,2.23-0.88c0.9,0,1.67,0.32,2.3,0.96c0.63,0.63,0.95,1.39,0.95,2.29
			C136.41,105.89,136.08,106.67,135.44,107.3 M131.25,103.07c-0.51,0.54-0.78,1.17-0.78,1.89c0,0.76,0.26,1.39,0.79,1.92
			c0.53,0.53,1.17,0.78,1.9,0.78c0.74,0,1.37-0.26,1.89-0.78c0.52-0.53,0.8-1.17,0.8-1.92c0-0.72-0.27-1.35-0.79-1.89
			c-0.52-0.54-1.16-0.8-1.9-0.8C132.42,102.27,131.78,102.53,131.25,103.07 M131.74,106.77v-3.61c0.22,0,0.56,0,1.01,0.01
			c0.44,0,0.69,0,0.73,0.01c0.28,0.01,0.53,0.09,0.71,0.17c0.32,0.18,0.48,0.47,0.48,0.87c0,0.3-0.08,0.52-0.25,0.65
			c-0.16,0.13-0.38,0.22-0.63,0.25c0.23,0.04,0.4,0.1,0.51,0.2c0.21,0.17,0.32,0.45,0.32,0.81v0.32c0,0.05,0,0.07,0.01,0.1
			c0,0.04,0.01,0.08,0.02,0.11l0.04,0.09h-0.9c-0.03-0.1-0.04-0.26-0.06-0.49c-0.01-0.22-0.02-0.36-0.05-0.44
			c-0.06-0.12-0.14-0.23-0.27-0.26c-0.07-0.04-0.18-0.06-0.32-0.06l-0.21-0.01h-0.2v1.27H131.74z M133.46,103.88
			c-0.13-0.05-0.31-0.08-0.55-0.08h-0.23v1.05h0.36c0.23,0,0.4-0.05,0.52-0.14c0.12-0.09,0.19-0.22,0.19-0.42
			C133.76,104.09,133.66,103.95,133.46,103.88"/>
		<path class="st1" d="M66.19,109.64c-0.8,0-1.6-0.16-2.38-0.48c-0.77-0.32-1.41-0.84-1.91-1.56c-0.5-0.72-0.75-1.64-0.75-2.75
			c0-0.97,0.16-1.85,0.48-2.61c0.32-0.76,0.76-1.41,1.32-1.92c0.56-0.51,1.2-0.9,1.9-1.16c0.71-0.26,1.47-0.39,2.26-0.39
			c0.93,0,1.78,0.2,2.53,0.59c0.74,0.38,1.33,0.95,1.75,1.67c0.42,0.73,0.63,1.59,0.63,2.56c0,0.86-0.14,1.67-0.41,2.4
			c-0.27,0.73-0.67,1.38-1.18,1.93c-0.51,0.54-1.13,0.97-1.84,1.27C67.89,109.49,67.07,109.64,66.19,109.64 M66.98,100.92
			c-0.69,0-1.29,0.2-1.8,0.58c-0.5,0.38-0.89,0.87-1.15,1.45c-0.26,0.58-0.39,1.17-0.39,1.76c0,0.76,0.23,1.43,0.69,1.96
			c0.46,0.54,1.1,0.82,1.9,0.82c0.5,0,0.96-0.1,1.37-0.3c0.4-0.2,0.76-0.48,1.05-0.84c0.29-0.35,0.51-0.76,0.66-1.2
			c0.14-0.44,0.22-0.9,0.22-1.37c0-0.56-0.11-1.07-0.32-1.5c-0.22-0.43-0.52-0.77-0.9-1C67.93,101.04,67.48,100.92,66.98,100.92"/>
		<path class="st1" d="M86.81,109.54l1.28-8.6h-3.51l0.17-1.11l0,0l0.01-0.03c0.06-0.53,0.5-0.92,1.02-0.92h8.56l-0.17,1.19
			l-0.01,0.02c-0.08,0.5-0.51,0.86-1.01,0.86H90.5l-1.26,8.6H86.81z"/>
		<path class="st1" d="M101.65,99.77c-0.58-0.59-1.52-0.89-2.82-0.89h-3.42l-1.56,10.66h1.27l0.01,0l0.05,0
			c0.61,0,1.14-0.46,1.22-1.07l0.01-0.02l0.42-2.83h1.94c0.85,0,1.57-0.17,2.13-0.5c0.56-0.33,0.97-0.76,1.23-1.29
			c0.26-0.53,0.39-1.13,0.39-1.77C102.51,101.15,102.23,100.36,101.65,99.77 M99.99,102.17c-0.13,1.43-1.3,1.93-1.77,1.93h-1.17
			l0.54-3.64c0,0,0.47-0.09,0.99-0.05C99.23,100.46,100.12,100.66,99.99,102.17"/>
		<path class="st1" d="M81.45,98.86l-1.01,6.9l-3.04-4.9c-0.72-1.26-2.01-1.99-3.42-1.99l-0.04-0.01h-0.1h0l-1.58,10.67h2.41
			l1.02-6.9l3.04,4.91c0.72,1.26,2.01,1.99,3.42,1.99l0.04,0h0.1l1.57-10.67H81.45z M80.44,105.76L80.44,105.76L80.44,105.76
			L80.44,105.76z"/>
		<path class="st1" d="M108.41,98.88h-0.82c-1.07,0.01-2.05,0.57-2.6,1.53l-0.09,0.14c-0.02,0.05-0.04,0.07-0.04,0.07l-4.56,8.92
			h2.51l1.19-2.46h3.48l0.29,2.46h2.6L108.41,98.88z M104.72,105.59l2.05-4.22l0.58,4.22H104.72z"/>
		<path class="st1" d="M121.1,107.26l-0.34-0.33c0.17-0.3,0.32-0.61,0.44-0.94c0.27-0.73,0.41-1.54,0.41-2.4
			c0-0.97-0.21-1.84-0.63-2.56c-0.42-0.73-1.01-1.29-1.75-1.67c-0.75-0.39-1.6-0.59-2.53-0.59c-0.79,0-1.55,0.13-2.26,0.39
			c-0.7,0.26-1.34,0.65-1.9,1.16c-0.56,0.51-1,1.16-1.32,1.92c-0.32,0.76-0.48,1.64-0.48,2.61c0,1.11,0.25,2.03,0.75,2.75
			c0.5,0.72,1.15,1.24,1.91,1.56c0.77,0.32,1.57,0.48,2.37,0.48c0.89,0,1.7-0.15,2.41-0.45c0.25-0.1,0.48-0.22,0.71-0.36l0.32,0.32
			c0.24,0.24,0.58,0.39,0.95,0.39h1.33v-1.33v0C121.49,107.84,121.34,107.5,121.1,107.26 M115.82,107.49c-0.8,0-1.44-0.27-1.9-0.82
			c-0.46-0.54-0.69-1.2-0.69-1.96c0-0.59,0.13-1.18,0.39-1.76c0.26-0.58,0.64-1.07,1.15-1.45c0.51-0.38,1.11-0.58,1.8-0.58
			c0.5,0,0.94,0.12,1.32,0.36c0.38,0.24,0.68,0.57,0.9,1c0.21,0.43,0.32,0.93,0.32,1.5c0,0.47-0.07,0.93-0.22,1.37
			c-0.15,0.44-0.37,0.85-0.66,1.2c-0.29,0.36-0.65,0.64-1.05,0.84C116.78,107.39,116.32,107.49,115.82,107.49"/>
		<path class="st1" d="M60.24,101.28c0,0-3.47-1.08-5.14,0.55c-1.68,1.63-1.71,4.21,0.13,5.23c1.84,1.03,4.79-0.31,5-0.63
			c0,0,0.27,0.97-0.23,2.01c-0.5,1.03-3.36,1.62-5.67,0.83c-2.32-0.8-3.31-2.82-3.06-5.07c0.25-2.25,1.56-4.46,4.62-5.21
			c2.54-0.62,5.42,0.25,5.42,0.25L60.24,101.28z"/>
		<path class="st1" d="M128.26,101.71h-1.81c-0.69,0-1.26,0.49-1.4,1.13l-1,6.7h0.02c0.26-0.09,0.93-0.43,1.94-1.66
			c1.22-1.49,1.6-2.52,1.83-3.2L128.26,101.71z"/>
		<path class="st1" d="M127.1,100.76c0.84,0,1.52-0.68,1.52-1.52c0-0.84-0.68-1.52-1.52-1.52c-0.84,0-1.52,0.68-1.52,1.52
			C125.58,100.08,126.26,100.76,127.1,100.76"/>
		<path class="st2" d="M126,107.88c-1.01,1.24-1.68,1.57-1.94,1.66h1.82c0.68,0,1.26-0.48,1.4-1.12l0.54-3.75
			C127.6,105.35,127.22,106.39,126,107.88"/>
	</g>
</g>
<g>
	<path class="st2" d="M38.95,117.45h2.79l9.64,17.65l-0.06-17.65h2.22v20.76H50.7l-9.58-17.62l0.06,17.62h-2.22V117.45z"/>
	<path class="st2" d="M56.92,127.36c0-3.77,2.4-6.05,6.26-6.05c3.86,0,6.26,2.28,6.26,6.05v5.1c0,3.77-2.4,6.05-6.26,6.05
		c-3.86,0-6.26-2.28-6.26-6.05V127.36z M59.03,132.1c0,2.97,1.48,4.51,4.15,4.51c2.67,0,4.15-1.54,4.15-4.51v-4.39
		c0-2.97-1.48-4.51-4.15-4.51c-2.67,0-4.15,1.54-4.15,4.51V132.1z M64.43,116.32h2.52l-2.76,3.62h-2.05L64.43,116.32z"/>
	<path class="st2" d="M73.12,121.6h1.87l0.15,1.81c1.28-1.28,2.55-2.11,4.3-2.11c2.37,0,3.77,0.89,4.54,2.49
		c1.25-1.39,2.64-2.49,4.66-2.49c3.71,0,5.16,1.84,5.16,5.61v11.3h-2.11V127.3c0-2.85-0.53-4.09-3.2-4.09c-1.75,0-3.08,1.16-4,2.31
		c0.06,0.53,0.12,1.1,0.12,1.69v11h-2.11V127.6c0-2.85-0.53-4.39-3.2-4.39c-1.78,0-3.14,1.19-4.06,2.37v12.64h-2.11V121.6z"/>
	<path class="st2" d="M97.58,123.47l-1.87-0.18v-1.69h3.98v16.61h-2.11V123.47z M97.23,117.57c0-1.1,0.53-1.6,1.33-1.6
		c0.86,0,1.42,0.5,1.42,1.6c0,1.04-0.56,1.51-1.42,1.51C97.76,119.08,97.23,118.61,97.23,117.57z"/>
	<path class="st2" d="M103.54,121.6h1.87l0.15,1.81c1.28-1.28,2.85-2.11,4.6-2.11c3.71,0,5.52,1.84,5.52,5.61v11.3h-2.11V127.3
		c0-2.85-0.89-4.09-3.56-4.09c-1.78,0-3.44,1.19-4.36,2.37v12.64h-2.11V121.6z"/>
	<path class="st2" d="M119.29,127.21c0-3.77,1.93-5.9,5.64-5.9c1.75,0,3.56,0.92,4.72,2.11l0.15-1.81h1.87v16.61h-1.87l-0.15-1.81
		c-1.28,1.28-2.97,2.11-4.72,2.11c-3.71,0-5.64-2.14-5.64-5.9V127.21z M121.4,132.22c0,2.85,1.01,4.39,3.68,4.39
		c1.78,0,3.56-1.19,4.48-2.37v-8.66c-0.95-1.19-2.76-2.37-4.48-2.37c-2.67,0-3.68,1.54-3.68,4.39V132.22z"/>
	<path class="st2" d="M134.8,133.02h2.11v0.18c0,1.78,1.3,3.53,4.24,3.53c2.67,0,3.86-1.36,3.86-3v-0.21c0-1.81-1.51-2.37-3.95-2.64
		c-2.97-0.33-5.9-1.25-5.9-4.51v-0.5c0-2.64,1.87-4.69,5.72-4.69c3.95,0,5.84,2.49,5.84,5.13v0.47h-2.05v-0.18
		c0-1.78-0.86-3.53-3.8-3.53c-2.58,0-3.62,1.22-3.62,2.85v0.21c0,1.99,1.72,2.55,4.09,2.82c2.73,0.3,5.75,1.01,5.75,4.3v0.59
		c0,2.61-2.11,4.78-5.96,4.78c-3.95,0-6.35-2.28-6.35-5.13V133.02z"/>
</g>
<g>
	<path class="st1" d="M59.3,78.37V44.93c0-5.28,4.54-9.56,10.15-9.56h0.02c5.6,0,10.15,4.28,10.15,9.56v33.43
		c0,5.28-4.55,9.57-10.16,9.57h0C63.84,87.94,59.3,83.65,59.3,78.37z"/>
	<path class="st3" d="M69.44,35.38h0.02c5.6,0,10.15,4.28,10.15,9.56v15.28l-10.17-9.58l0,0c-0.06,0.06-4.39,4.14-10.15,9.56V44.93
		C59.3,39.66,63.84,35.38,69.44,35.38z"/>
	<path class="st2" d="M79.12,55.84L62.26,39.96l0,0c-3.97-3.74-10.4-3.74-14.37,0l7.3-6.88c7.87-7.41,20.63-7.41,28.49,0l9.8,9.23
		L79.12,55.84z"/>
	<path class="st4" d="M40.91,60.44c-3.92-3.92-3.83-10.32,0.21-14.12c4.25-4,6.77-6.36,6.77-6.36c3.97-3.74,10.4-3.74,14.37,0h0
		c0,0,5.34,5.03,7.18,6.77c-0.09,0.08-6.41,6.01-14.84,13.93C50.73,64.29,44.66,64.2,40.91,60.44L40.91,60.44z"/>
	<path class="st1" d="M47.89,39.96c3.95-3.72,10.42-3.72,14.37,0l0,0c0,0,5.34,5.03,7.18,6.77L66.7,49.3l-7.18-6.77l0,0
		c-3.97-3.74-10.4-3.74-14.37,0L47.89,39.96z"/>
	<path class="st2" d="M58.49,14.05v0.02c0-6.06,4.9-10.97,10.95-10.97h0.02c6.05,0,10.95,4.91,10.95,10.97v-0.02
		c0,6.06-4.91,10.98-10.96,10.98h0C63.4,25.03,58.49,20.12,58.49,14.05z"/>
	<path class="st1" d="M107.16,78.37V44.93c0-5.28,4.54-9.56,10.15-9.56h0.02c5.6,0,10.15,4.28,10.15,9.56v33.43
		c0,5.28-4.55,9.57-10.16,9.57h0C111.71,87.94,107.16,83.65,107.16,78.37z"/>
	<path class="st3" d="M117.31,35.38h0.02c5.6,0,10.15,4.28,10.15,9.56v15.28l-10.17-9.58l0,0c-0.06,0.06-4.39,4.14-10.15,9.56V44.93
		C107.16,39.66,111.7,35.38,117.31,35.38z"/>
	<path class="st2" d="M106.35,14.05v0.02c0-6.06,4.9-10.97,10.95-10.97h0.02c6.05,0,10.95,4.91,10.95,10.97v-0.02
		c0,6.06-4.91,10.98-10.96,10.98h0C111.26,25.03,106.35,20.12,106.35,14.05z"/>
	<path class="st4" d="M102.92,33.21L86.2,48.96l0,0c-3.97,3.74-10.4,3.74-14.37,0l7.3,6.88c7.87,7.41,20.63,7.41,28.49,0l9.67-9.1
		L102.92,33.21z"/>
	<path class="st2" d="M103.06,33.08c7.84-7.38,20.66-7.38,28.49,0l14.01,13.2c4.04,3.81,4.14,10.21,0.21,14.14l0,0
		c-3.77,3.77-9.84,3.86-13.72,0.21l-21.94-20.66h0c-3.97-3.74-10.4-3.74-14.37,0L103.06,33.08z"/>
	<path class="st1" d="M95.75,39.96c3.97-3.74,10.4-3.74,14.37,0l0,0c0,0,5.34,5.03,7.18,6.77l-2.74,2.58l-7.18-6.77l0,0
		c-3.97-3.74-10.4-3.74-14.37,0L95.75,39.96z"/>
</g>
<g>
</g>
<g>
</g>
<g>
</g>
<g>
</g>
<g>
</g>
<g>
</g>
</svg>
