<?xml version="1.0" encoding="utf-8"?>
<!-- Generator: Adobe Illustrator 24.1.2, SVG Export Plug-In . SVG Version: 6.00 Build 0)  -->
<svg version="1.1" xmlns="http://www.w3.org/2000/svg" xmlns:xlink="http://www.w3.org/1999/xlink" x="0px" y="0px"
	 viewBox="0 0 185.64 145.78" style="enable-background:new 0 0 185.64 145.78;" xml:space="preserve">
<style type="text/css">
	.st0{display:none;fill:none;stroke:#00BFF2;stroke-width:0.25;stroke-miterlimit:10;}
	.st1{fill:#00C0F3;}
	.st2{fill:#005EB8;}
	.st3{fill:#003A70;}
	.st4{fill:#009CDE;}
</style>
<g id="Capa_2">
</g>
<g id="Capa_1">
	<rect x="-103.36" y="-130.85" class="st0" width="10.66" height="10.66"/>
	<rect x="-78" y="-171.58" class="st0" width="10.66" height="10.66"/>
	<rect x="-41.01" y="-107.87" class="st0" width="10.66" height="10.66"/>
	<rect x="-41.01" y="-97.21" class="st0" width="10.66" height="10.66"/>
	<g>
		<g>
			<g>
				<path class="st1" d="M15.32,123.51c0-3.95,2.94-6.47,7-6.47s6.94,2.37,6.94,5.61v1.01h-2.17v-0.59c0-2.4-1.96-3.95-4.78-3.95
					s-4.78,1.69-4.78,4.81v7.83c0,3.12,1.96,4.81,4.78,4.81s4.78-1.54,4.78-3.95v-0.89h2.17v1.31c0,3.23-2.88,5.61-6.94,5.61
					s-7-2.52-7-6.47V123.51z"/>
				<path class="st1" d="M32.41,127.37c0-3.77,2.4-6.05,6.26-6.05s6.26,2.28,6.26,6.05v5.1c0,3.77-2.4,6.05-6.26,6.05
					s-6.26-2.28-6.26-6.05V127.37z M34.51,132.12c0,2.97,1.48,4.51,4.15,4.51c2.67,0,4.15-1.54,4.15-4.51v-4.39
					c0-2.97-1.48-4.51-4.15-4.51c-2.67,0-4.15,1.54-4.15,4.51V132.12z"/>
				<path class="st1" d="M48.61,121.61h1.87l0.15,1.81c1.28-1.28,2.85-2.11,4.6-2.11c3.71,0,5.52,1.84,5.52,5.61v11.3h-2.11v-10.92
					c0-2.85-0.89-4.09-3.56-4.09c-1.78,0-3.44,1.19-4.36,2.37v12.64h-2.11V121.61z"/>
				<path class="st1" d="M64.54,123.48h-1.9v-1.87h1.9l0.24-4.15h1.87v4.15h5.25v1.87h-5.25v9.41c0,2.67,1.1,3.92,3.53,3.92
					c0.68,0,1.63-0.06,2.34-0.3v1.75c-0.65,0.21-1.6,0.39-2.34,0.39c-3.62,0-5.64-1.69-5.64-5.46V123.48z"/>
				<path class="st1" d="M74.37,127.22c0-3.77,1.93-5.9,5.64-5.9c1.75,0,3.56,0.92,4.72,2.11l0.15-1.81h1.87v16.61h-1.87l-0.15-1.81
					c-1.28,1.28-2.97,2.11-4.72,2.11c-3.71,0-5.64-2.14-5.64-5.9V127.22z M76.47,132.24c0,2.85,1.01,4.39,3.68,4.39
					c1.78,0,3.56-1.19,4.48-2.37v-8.66c-0.95-1.19-2.76-2.37-4.48-2.37c-2.67,0-3.68,1.54-3.68,4.39V132.24z"/>
				<path class="st1" d="M90.6,115.98h2.11v7.39c1.28-1.25,2.88-2.05,4.63-2.05c3.71,0,5.64,2.14,5.64,5.9v5.4
					c0,3.77-1.93,5.9-5.64,5.9c-1.75,0-3.44-0.83-4.72-2.11l-0.15,1.81H90.6V115.98z M92.7,134.25c0.92,1.19,2.7,2.37,4.48,2.37
					c2.67,0,3.68-1.54,3.68-4.39v-4.63c0-2.85-1.01-4.39-3.68-4.39c-1.78,0-3.56,1.19-4.48,2.37V134.25z"/>
				<path class="st1" d="M106.65,123.48l-1.87-0.18v-1.69h3.98v16.61h-2.11V123.48z M106.29,117.58c0-1.1,0.53-1.6,1.33-1.6
					c0.86,0,1.42,0.5,1.42,1.6c0,1.04-0.56,1.51-1.42,1.51C106.83,119.09,106.29,118.62,106.29,117.58z"/>
				<path class="st1" d="M112.61,115.98h2.11v19.14c0,0.83,0.12,1.36,1.1,1.36c0.24,0,0.47,0,0.74-0.06v1.63
					c-0.33,0.09-1.25,0.18-1.72,0.18c-1.48,0-2.23-0.68-2.23-2.34V115.98z"/>
				<path class="st1" d="M120.06,123.48l-1.87-0.18v-1.69h3.98v16.61h-2.11V123.48z M119.71,117.58c0-1.1,0.53-1.6,1.33-1.6
					c0.86,0,1.42,0.5,1.42,1.6c0,1.04-0.56,1.51-1.42,1.51C120.24,119.09,119.71,118.62,119.71,117.58z"/>
				<path class="st1" d="M138.22,138.23h-1.87l-0.15-1.81c-1.28,1.28-2.97,2.11-4.72,2.11c-3.71,0-5.64-2.14-5.64-5.9v-5.4
					c0-3.77,1.93-5.9,5.64-5.9c1.75,0,3.47,0.77,4.63,1.96v-7.3h2.11V138.23z M127.96,132.24c0,2.85,1.01,4.39,3.68,4.39
					c1.78,0,3.56-1.19,4.48-2.37v-8.66c-0.95-1.19-2.76-2.37-4.48-2.37c-2.67,0-3.68,1.54-3.68,4.39V132.24z"/>
				<path class="st1" d="M141.9,127.22c0-3.77,1.93-5.9,5.64-5.9c1.75,0,3.56,0.92,4.72,2.11l0.15-1.81h1.87v16.61h-1.87l-0.15-1.81
					c-1.28,1.28-2.97,2.11-4.72,2.11c-3.71,0-5.64-2.14-5.64-5.9V127.22z M144.01,132.24c0,2.85,1.01,4.39,3.68,4.39
					c1.78,0,3.56-1.19,4.48-2.37v-8.66c-0.95-1.19-2.76-2.37-4.48-2.37c-2.67,0-3.68,1.54-3.68,4.39V132.24z"/>
				<path class="st1" d="M170.33,138.23h-1.87l-0.15-1.81c-1.28,1.28-2.97,2.11-4.72,2.11c-3.71,0-5.64-2.14-5.64-5.9v-5.4
					c0-3.77,1.93-5.9,5.64-5.9c1.75,0,3.47,0.77,4.63,1.96v-7.3h2.11V138.23z M160.06,132.24c0,2.85,1.01,4.39,3.68,4.39
					c1.78,0,3.56-1.19,4.48-2.37v-8.66c-0.95-1.19-2.76-2.37-4.48-2.37c-2.67,0-3.68,1.54-3.68,4.39V132.24z"/>
			</g>
			<g>
				<path class="st2" d="M135.44,107.3c-0.63,0.61-1.39,0.92-2.28,0.92c-0.91,0-1.69-0.32-2.31-0.95c-0.62-0.62-0.95-1.39-0.95-2.31
					c0-0.94,0.35-1.74,1.03-2.37c0.63-0.58,1.38-0.88,2.23-0.88c0.9,0,1.67,0.32,2.3,0.96c0.63,0.63,0.95,1.39,0.95,2.29
					C136.41,105.89,136.08,106.67,135.44,107.3 M131.25,103.07c-0.51,0.54-0.78,1.17-0.78,1.89c0,0.76,0.26,1.39,0.79,1.92
					c0.53,0.53,1.17,0.78,1.9,0.78c0.74,0,1.37-0.26,1.89-0.78c0.52-0.53,0.8-1.17,0.8-1.92c0-0.72-0.27-1.35-0.79-1.89
					c-0.52-0.54-1.16-0.8-1.9-0.8C132.42,102.27,131.78,102.53,131.25,103.07 M131.74,106.77v-3.61c0.22,0,0.56,0,1.01,0.01
					c0.44,0,0.69,0,0.73,0.01c0.28,0.01,0.53,0.09,0.71,0.17c0.32,0.18,0.48,0.47,0.48,0.87c0,0.3-0.08,0.52-0.25,0.65
					c-0.16,0.13-0.38,0.22-0.63,0.25c0.23,0.04,0.4,0.1,0.51,0.2c0.21,0.17,0.32,0.45,0.32,0.81v0.32c0,0.05,0,0.07,0.01,0.1
					c0,0.04,0.01,0.08,0.02,0.11l0.04,0.09h-0.9c-0.03-0.1-0.04-0.26-0.06-0.49c-0.01-0.22-0.02-0.36-0.05-0.44
					c-0.06-0.12-0.14-0.23-0.27-0.26c-0.07-0.04-0.18-0.06-0.32-0.06l-0.21-0.01h-0.2v1.27H131.74z M133.46,103.88
					c-0.13-0.05-0.31-0.08-0.55-0.08h-0.23v1.05h0.36c0.23,0,0.4-0.05,0.52-0.14c0.12-0.09,0.19-0.22,0.19-0.42
					C133.76,104.09,133.66,103.95,133.46,103.88"/>
				<path class="st2" d="M66.19,109.64c-0.8,0-1.6-0.16-2.38-0.48c-0.77-0.32-1.41-0.84-1.91-1.56c-0.5-0.72-0.75-1.64-0.75-2.75
					c0-0.97,0.16-1.85,0.48-2.61c0.32-0.76,0.76-1.41,1.32-1.92c0.56-0.51,1.2-0.9,1.9-1.16c0.71-0.26,1.47-0.39,2.26-0.39
					c0.93,0,1.78,0.2,2.53,0.59c0.74,0.38,1.33,0.95,1.75,1.67c0.42,0.73,0.63,1.59,0.63,2.56c0,0.86-0.14,1.67-0.41,2.4
					c-0.27,0.73-0.67,1.38-1.18,1.93c-0.51,0.54-1.13,0.97-1.84,1.27C67.89,109.49,67.07,109.64,66.19,109.64 M66.98,100.92
					c-0.69,0-1.29,0.2-1.8,0.58c-0.5,0.38-0.89,0.87-1.15,1.45c-0.26,0.58-0.39,1.17-0.39,1.76c0,0.76,0.23,1.43,0.69,1.96
					c0.46,0.54,1.1,0.82,1.9,0.82c0.5,0,0.96-0.1,1.37-0.3c0.4-0.2,0.76-0.48,1.05-0.84c0.29-0.35,0.51-0.76,0.66-1.2
					c0.14-0.44,0.22-0.9,0.22-1.37c0-0.56-0.11-1.07-0.32-1.5c-0.22-0.43-0.52-0.77-0.9-1C67.93,101.04,67.48,100.92,66.98,100.92"
					/>
				<path class="st2" d="M86.81,109.54l1.28-8.6h-3.51l0.17-1.11l0,0l0.01-0.03c0.06-0.53,0.5-0.92,1.02-0.92h8.56l-0.17,1.19
					l-0.01,0.02c-0.08,0.5-0.51,0.86-1.01,0.86H90.5l-1.26,8.6H86.81z"/>
				<path class="st2" d="M101.65,99.77c-0.58-0.59-1.52-0.89-2.82-0.89h-3.42l-1.56,10.66h1.27l0.01,0l0.05,0
					c0.61,0,1.14-0.46,1.22-1.07l0.01-0.02l0.42-2.83h1.94c0.85,0,1.57-0.17,2.13-0.5c0.56-0.33,0.97-0.76,1.23-1.29
					c0.26-0.53,0.39-1.13,0.39-1.77C102.51,101.15,102.23,100.36,101.65,99.77 M99.99,102.17c-0.13,1.43-1.3,1.93-1.77,1.93h-1.17
					l0.54-3.64c0,0,0.47-0.09,0.99-0.05C99.23,100.46,100.12,100.66,99.99,102.17"/>
				<path class="st2" d="M81.45,98.86l-1.01,6.9l-3.04-4.9c-0.72-1.26-2.01-1.99-3.42-1.99l-0.04-0.01h-0.1h0l-1.58,10.67h2.41
					l1.02-6.9l3.04,4.91c0.72,1.26,2.01,1.99,3.42,1.99l0.04,0h0.1l1.57-10.67H81.45z M80.44,105.76L80.44,105.76L80.44,105.76
					L80.44,105.76z"/>
				<path class="st2" d="M108.41,98.88h-0.82c-1.07,0.01-2.05,0.57-2.6,1.53l-0.09,0.14c-0.02,0.05-0.04,0.07-0.04,0.07l-4.56,8.92
					h2.51l1.19-2.46h3.48l0.29,2.46h2.6L108.41,98.88z M104.72,105.59l2.05-4.22l0.58,4.22H104.72z"/>
				<path class="st2" d="M121.1,107.26l-0.34-0.33c0.17-0.3,0.32-0.61,0.44-0.94c0.27-0.73,0.41-1.54,0.41-2.4
					c0-0.97-0.21-1.84-0.63-2.56c-0.42-0.73-1.01-1.29-1.75-1.67c-0.75-0.39-1.6-0.59-2.53-0.59c-0.79,0-1.55,0.13-2.26,0.39
					c-0.7,0.26-1.34,0.65-1.9,1.16c-0.56,0.51-1,1.16-1.32,1.92c-0.32,0.76-0.48,1.64-0.48,2.61c0,1.11,0.25,2.03,0.75,2.75
					c0.5,0.72,1.15,1.24,1.91,1.56c0.77,0.32,1.57,0.48,2.37,0.48c0.89,0,1.7-0.15,2.41-0.45c0.25-0.1,0.48-0.22,0.71-0.36
					l0.32,0.32c0.24,0.24,0.58,0.39,0.95,0.39h1.33v-1.33v0C121.49,107.84,121.34,107.5,121.1,107.26 M115.82,107.49
					c-0.8,0-1.44-0.27-1.9-0.82c-0.46-0.54-0.69-1.2-0.69-1.96c0-0.59,0.13-1.18,0.39-1.76c0.26-0.58,0.64-1.07,1.15-1.45
					c0.51-0.38,1.11-0.58,1.8-0.58c0.5,0,0.94,0.12,1.32,0.36c0.38,0.24,0.68,0.57,0.9,1c0.21,0.43,0.32,0.93,0.32,1.5
					c0,0.47-0.07,0.93-0.22,1.37c-0.15,0.44-0.37,0.85-0.66,1.2c-0.29,0.36-0.65,0.64-1.05,0.84
					C116.78,107.39,116.32,107.49,115.82,107.49"/>
				<path class="st2" d="M60.24,101.28c0,0-3.47-1.08-5.14,0.55c-1.68,1.63-1.71,4.21,0.13,5.23c1.84,1.03,4.79-0.31,5-0.63
					c0,0,0.27,0.97-0.23,2.01c-0.5,1.03-3.36,1.62-5.67,0.83c-2.32-0.8-3.31-2.82-3.06-5.07c0.25-2.25,1.56-4.46,4.62-5.21
					c2.54-0.62,5.42,0.25,5.42,0.25L60.24,101.28z"/>
				<path class="st2" d="M128.26,101.71h-1.81c-0.69,0-1.26,0.49-1.4,1.13l-1,6.7h0.02c0.26-0.09,0.93-0.43,1.94-1.66
					c1.22-1.49,1.6-2.52,1.83-3.2L128.26,101.71z"/>
				<path class="st2" d="M127.1,100.76c0.84,0,1.52-0.68,1.52-1.52c0-0.84-0.68-1.52-1.52-1.52c-0.84,0-1.52,0.68-1.52,1.52
					C125.58,100.08,126.26,100.76,127.1,100.76"/>
				<path class="st1" d="M126,107.88c-1.01,1.24-1.68,1.57-1.94,1.66h1.82c0.68,0,1.26-0.48,1.4-1.12l0.54-3.75
					C127.6,105.35,127.22,106.39,126,107.88"/>
			</g>
		</g>
		<g>
			<path class="st2" d="M116.81,2.55H87.64c-4.75,0-8.61,3.85-8.61,8.61v7.39c0.2-0.01,0.4-0.03,0.61-0.03h11.97
				c4.64,0,8.41,3.77,8.41,8.41v4.05h35.87V30.7v-9.08L116.81,2.55z"/>
			<g>
				<path class="st3" d="M122.87,23.91l13.02-2.28L116.81,2.55l-1.42,14.33C114.73,21.81,118.08,24.96,122.87,23.91"/>
				<path class="st4" d="M125.49,21.63h10.4L116.81,2.55v10.4C116.81,17.74,120.69,21.63,125.49,21.63"/>
			</g>
			<g>
				<path class="st4" d="M100.02,30.98v7.91c0,3.47-2.12,6.46-5.13,7.74c3.01,1.28,5.13,4.27,5.13,7.74v5.03h35.87V30.98H100.02z"/>
				<path class="st1" d="M100.02,59.41v6.93c0,4.64-3.77,8.41-8.41,8.41H79.64c-0.21,0-0.41-0.02-0.61-0.03v4.41
					c0,4.8,3.89,8.7,8.7,8.7h39.46c4.8,0,8.7-3.89,8.7-8.7V59.41H100.02z"/>
				<path class="st3" d="M100.02,66.34c0,4.64-3.77,8.41-8.41,8.41H79.64c-0.21,0-0.41-0.02-0.61-0.03v4.24c0,0,7.68-1.21,7.95-1.25
					c9.55-1.73,13.04-6.64,13.04-11.16L100.02,66.34z"/>
				<path class="st3" d="M91.61,22.1H79.64c-2.66,0-4.83,2.17-4.83,4.83v11.97c0,2.66,2.17,4.83,4.83,4.83h11.97
					c2.66,0,4.83-2.17,4.83-4.83V26.92C96.44,24.26,94.27,22.1,91.61,22.1z"/>
				<path class="st2" d="M64.16,22.1H52.19c-2.66,0-4.83,2.17-4.83,4.83v11.97c0,2.66,2.17,4.83,4.83,4.83h11.97
					c2.66,0,4.83-2.17,4.83-4.83V26.92C68.98,24.26,66.82,22.1,64.16,22.1z"/>
				<path class="st4" d="M64.16,49.55H52.19c-2.66,0-4.83,2.17-4.83,4.83v11.97c0,2.66,2.17,4.83,4.83,4.83h11.97
					c2.66,0,4.83-2.17,4.83-4.83V54.37C68.98,51.71,66.82,49.55,64.16,49.55z"/>
				<path class="st1" d="M91.61,49.55H79.64c-2.66,0-4.83,2.17-4.83,4.83v11.97c0,2.66,2.17,4.83,4.83,4.83h11.97
					c2.66,0,4.83-2.17,4.83-4.83V54.37C96.44,51.71,94.27,49.55,91.61,49.55z"/>
			</g>
		</g>
	</g>
	<g>
	</g>
	<g>
	</g>
	<g>
	</g>
	<g>
	</g>
	<g>
	</g>
	<g>
	</g>
</g>
</svg>
