<?xml version="1.0" encoding="utf-8"?>
<!-- Generator: Adobe Illustrator 24.1.2, SVG Export Plug-In . SVG Version: 6.00 Build 0)  -->
<svg version="1.1" id="Capa_1" xmlns="http://www.w3.org/2000/svg" xmlns:xlink="http://www.w3.org/1999/xlink" x="0px" y="0px"
	 viewBox="0 0 121.32 145.78" style="enable-background:new 0 0 121.32 145.78;" xml:space="preserve">
<style type="text/css">
	.st0{display:none;fill:none;stroke:#00BFF2;stroke-width:0.25;stroke-miterlimit:10;}
	.st1{fill:#005EB8;}
	.st2{fill:#00C0F3;}
	.st3{fill:#1D3F74;}
	.st4{fill:#003A70;}
	.st5{fill:#FFFFFF;}
	.st6{fill:#0074AC;}
	.st7{fill:#00649C;}
	.st8{fill:#009CDE;}
</style>
<rect x="-121.12" y="-133.54" class="st0" width="10.66" height="10.66"/>
<rect x="-95.76" y="-174.27" class="st0" width="10.66" height="10.66"/>
<rect x="-58.77" y="-110.55" class="st0" width="10.66" height="10.66"/>
<rect x="-58.77" y="-99.89" class="st0" width="10.66" height="10.66"/>
<g>
	<g>
		<path class="st1" d="M103.28,107.3c-0.63,0.61-1.39,0.92-2.28,0.92c-0.91,0-1.69-0.32-2.31-0.95c-0.62-0.62-0.95-1.39-0.95-2.31
			c0-0.94,0.35-1.74,1.03-2.37c0.63-0.58,1.38-0.88,2.23-0.88c0.9,0,1.67,0.32,2.3,0.96c0.63,0.63,0.95,1.39,0.95,2.29
			C104.25,105.89,103.92,106.67,103.28,107.3 M99.09,103.07c-0.51,0.54-0.78,1.17-0.78,1.89c0,0.76,0.26,1.39,0.79,1.92
			c0.53,0.53,1.17,0.78,1.9,0.78c0.74,0,1.37-0.26,1.89-0.78c0.52-0.53,0.8-1.17,0.8-1.92c0-0.72-0.27-1.35-0.79-1.89
			c-0.52-0.54-1.16-0.8-1.9-0.8C100.25,102.27,99.62,102.53,99.09,103.07 M99.58,106.77v-3.61c0.22,0,0.56,0,1.01,0.01
			c0.44,0,0.69,0,0.73,0.01c0.28,0.01,0.53,0.09,0.71,0.17c0.32,0.18,0.48,0.47,0.48,0.87c0,0.3-0.08,0.52-0.25,0.65
			c-0.16,0.13-0.38,0.22-0.63,0.25c0.23,0.04,0.4,0.1,0.51,0.2c0.21,0.17,0.32,0.45,0.32,0.81v0.32c0,0.05,0,0.07,0.01,0.1
			c0,0.04,0.01,0.08,0.02,0.11l0.04,0.09h-0.9c-0.03-0.1-0.04-0.26-0.06-0.49c-0.01-0.22-0.02-0.36-0.05-0.44
			c-0.06-0.12-0.14-0.23-0.27-0.26c-0.07-0.04-0.18-0.06-0.32-0.06l-0.21-0.01h-0.2v1.27H99.58z M101.3,103.88
			c-0.13-0.05-0.31-0.08-0.55-0.08h-0.23v1.05h0.36c0.23,0,0.4-0.05,0.52-0.14c0.12-0.09,0.19-0.22,0.19-0.42
			C101.6,104.09,101.5,103.95,101.3,103.88"/>
		<path class="st1" d="M34.03,109.64c-0.8,0-1.6-0.16-2.38-0.48c-0.77-0.32-1.41-0.84-1.91-1.56c-0.5-0.72-0.75-1.64-0.75-2.75
			c0-0.97,0.16-1.85,0.48-2.61c0.32-0.76,0.76-1.41,1.32-1.92c0.56-0.51,1.2-0.9,1.9-1.16c0.71-0.26,1.47-0.39,2.26-0.39
			c0.93,0,1.78,0.2,2.53,0.59c0.74,0.38,1.33,0.95,1.75,1.67c0.42,0.73,0.63,1.59,0.63,2.56c0,0.86-0.14,1.67-0.41,2.4
			c-0.27,0.73-0.67,1.38-1.18,1.93c-0.51,0.54-1.13,0.97-1.84,1.27C35.72,109.49,34.91,109.64,34.03,109.64 M34.82,100.92
			c-0.69,0-1.29,0.2-1.8,0.58c-0.5,0.38-0.89,0.87-1.15,1.45c-0.26,0.58-0.39,1.17-0.39,1.76c0,0.76,0.23,1.43,0.69,1.96
			c0.46,0.54,1.1,0.82,1.9,0.82c0.5,0,0.96-0.1,1.37-0.3c0.4-0.2,0.76-0.48,1.05-0.84c0.29-0.35,0.51-0.76,0.66-1.2
			c0.14-0.44,0.22-0.9,0.22-1.37c0-0.56-0.11-1.07-0.32-1.5c-0.22-0.43-0.52-0.77-0.9-1C35.76,101.04,35.32,100.92,34.82,100.92"/>
		<path class="st1" d="M54.65,109.54l1.28-8.6h-3.51l0.17-1.11l0,0l0.01-0.03c0.06-0.53,0.5-0.92,1.02-0.92h8.56l-0.17,1.19
			L62,100.08c-0.08,0.5-0.51,0.86-1.01,0.86h-2.65l-1.26,8.6H54.65z"/>
		<path class="st1" d="M69.49,99.77c-0.58-0.59-1.52-0.89-2.82-0.89h-3.42l-1.56,10.66h1.27l0.01,0l0.05,0
			c0.61,0,1.14-0.46,1.22-1.07l0.01-0.02l0.42-2.83h1.94c0.85,0,1.57-0.17,2.13-0.5c0.56-0.33,0.97-0.76,1.23-1.29
			c0.26-0.53,0.39-1.13,0.39-1.77C70.35,101.15,70.07,100.36,69.49,99.77 M67.83,102.17c-0.13,1.43-1.3,1.93-1.77,1.93h-1.17
			l0.54-3.64c0,0,0.47-0.09,0.99-0.05C67.07,100.46,67.96,100.66,67.83,102.17"/>
		<path class="st1" d="M49.28,98.86l-1.01,6.9l-3.04-4.9c-0.72-1.26-2.01-1.99-3.42-1.99l-0.04-0.01h-0.1h0l-1.58,10.67h2.41
			l1.02-6.9l3.04,4.91c0.72,1.26,2.01,1.99,3.42,1.99l0.04,0h0.1l1.57-10.67H49.28z M48.28,105.76L48.28,105.76L48.28,105.76
			L48.28,105.76z"/>
		<path class="st1" d="M76.25,98.88h-0.82c-1.07,0.01-2.05,0.57-2.6,1.53l-0.09,0.14c-0.02,0.05-0.04,0.07-0.04,0.07l-4.56,8.92
			h2.51l1.19-2.46h3.48l0.29,2.46h2.6L76.25,98.88z M72.56,105.59l2.05-4.22l0.58,4.22H72.56z"/>
		<path class="st1" d="M88.93,107.26l-0.34-0.33c0.17-0.3,0.32-0.61,0.44-0.94c0.27-0.73,0.41-1.54,0.41-2.4
			c0-0.97-0.21-1.84-0.63-2.56c-0.42-0.73-1.01-1.29-1.75-1.67c-0.75-0.39-1.6-0.59-2.53-0.59c-0.79,0-1.55,0.13-2.26,0.39
			c-0.7,0.26-1.34,0.65-1.9,1.16c-0.56,0.51-1,1.16-1.32,1.92c-0.32,0.76-0.48,1.64-0.48,2.61c0,1.11,0.25,2.03,0.75,2.75
			c0.5,0.72,1.15,1.24,1.91,1.56c0.77,0.32,1.57,0.48,2.37,0.48c0.89,0,1.7-0.15,2.41-0.45c0.25-0.1,0.48-0.22,0.71-0.36l0.32,0.32
			c0.24,0.24,0.58,0.39,0.95,0.39h1.33v-1.33v0C89.32,107.84,89.18,107.5,88.93,107.26 M83.65,107.49c-0.8,0-1.44-0.27-1.9-0.82
			c-0.46-0.54-0.69-1.2-0.69-1.96c0-0.59,0.13-1.18,0.39-1.76c0.26-0.58,0.64-1.07,1.15-1.45c0.51-0.38,1.11-0.58,1.8-0.58
			c0.5,0,0.94,0.12,1.32,0.36c0.38,0.24,0.68,0.57,0.9,1c0.21,0.43,0.32,0.93,0.32,1.5c0,0.47-0.07,0.93-0.22,1.37
			c-0.15,0.44-0.37,0.85-0.66,1.2c-0.29,0.36-0.65,0.64-1.05,0.84C84.62,107.39,84.15,107.49,83.65,107.49"/>
		<path class="st1" d="M28.08,101.28c0,0-3.47-1.08-5.14,0.55c-1.68,1.63-1.71,4.21,0.13,5.23c1.84,1.03,4.79-0.31,5-0.63
			c0,0,0.27,0.97-0.23,2.01c-0.5,1.03-3.36,1.62-5.67,0.83c-2.32-0.8-3.31-2.82-3.06-5.07c0.25-2.25,1.56-4.46,4.62-5.21
			c2.54-0.62,5.42,0.25,5.42,0.25L28.08,101.28z"/>
		<path class="st1" d="M96.1,101.71h-1.81c-0.69,0-1.26,0.49-1.4,1.13l-1,6.7h0.02c0.26-0.09,0.93-0.43,1.94-1.66
			c1.22-1.49,1.6-2.52,1.83-3.2L96.1,101.71z"/>
		<path class="st1" d="M94.94,100.76c0.84,0,1.52-0.68,1.52-1.52c0-0.84-0.68-1.52-1.52-1.52c-0.84,0-1.52,0.68-1.52,1.52
			C93.41,100.08,94.1,100.76,94.94,100.76"/>
		<path class="st2" d="M93.84,107.88c-1.01,1.24-1.68,1.57-1.94,1.66h1.82c0.68,0,1.26-0.48,1.4-1.12l0.54-3.75
			C95.44,105.35,95.06,106.39,93.84,107.88"/>
	</g>
</g>
<g>
	<path class="st2" d="M14.63,117.45h7.3c4.06,0,6.26,1.69,6.26,5.19v1.22c0,1.51-0.53,3.17-2.08,4c1.54,0.65,2.58,2.34,2.58,4.27
		v1.1c0,2.85-1.9,4.98-5.96,4.98h-8.1V117.45z M22.7,127.06c1.99,0,3.26-1.07,3.26-3.59v-0.39c0-2.67-1.25-3.56-3.98-3.56h-5.13
		v7.53H22.7z M22.67,136.17c2.67,0,3.8-1.39,3.8-3.32v-0.33c0-2.11-1.22-3.47-3.47-3.47h-6.14v7.12H22.67z"/>
	<path class="st2" d="M31.48,127.21c0-3.77,1.93-5.9,5.64-5.9c1.75,0,3.56,0.92,4.72,2.11l0.15-1.81h1.87v16.61h-1.87l-0.15-1.81
		c-1.28,1.28-2.97,2.11-4.72,2.11c-3.71,0-5.64-2.14-5.64-5.9V127.21z M33.59,132.22c0,2.85,1.01,4.39,3.68,4.39
		c1.78,0,3.56-1.19,4.48-2.37v-8.66c-0.95-1.19-2.76-2.37-4.48-2.37c-2.67,0-3.68,1.54-3.68,4.39V132.22z"/>
	<path class="st2" d="M47.7,121.6h1.87l0.15,1.81c1.28-1.28,2.85-2.11,4.6-2.11c3.71,0,5.52,1.84,5.52,5.61v11.3h-2.11V127.3
		c0-2.85-0.89-4.09-3.56-4.09c-1.78,0-3.44,1.19-4.36,2.37v12.64H47.7V121.6z"/>
	<path class="st2" d="M63.45,127.36c0-3.77,2.4-6.05,6.26-6.05c3.95,0,6.17,2.2,6.17,5.13v0.47h-2.05v-0.18
		c0-2.08-1.19-3.53-4.12-3.53c-2.67,0-4.15,1.54-4.15,4.51v4.39c0,2.97,1.48,4.51,4.15,4.51c2.94,0,4.12-1.48,4.12-3.56v-0.18h2.05
		v0.47c0,2.85-2.22,5.16-6.17,5.16c-3.86,0-6.26-2.28-6.26-6.05V127.36z"/>
	<path class="st2" d="M79.32,127.36c0-3.77,2.4-6.05,6.26-6.05s6.26,2.28,6.26,6.05v5.1c0,3.77-2.4,6.05-6.26,6.05
		s-6.26-2.28-6.26-6.05V127.36z M81.42,132.1c0,2.97,1.48,4.51,4.15,4.51s4.15-1.54,4.15-4.51v-4.39c0-2.97-1.48-4.51-4.15-4.51
		s-4.15,1.54-4.15,4.51V132.1z"/>
	<path class="st2" d="M94.8,133.02h2.11v0.18c0,1.78,1.31,3.53,4.24,3.53c2.67,0,3.86-1.36,3.86-3v-0.21c0-1.81-1.51-2.37-3.94-2.64
		c-2.97-0.33-5.9-1.25-5.9-4.51v-0.5c0-2.64,1.87-4.69,5.72-4.69c3.95,0,5.84,2.49,5.84,5.13v0.47h-2.05v-0.18
		c0-1.78-0.86-3.53-3.8-3.53c-2.58,0-3.62,1.22-3.62,2.85v0.21c0,1.99,1.72,2.55,4.09,2.82c2.73,0.3,5.75,1.01,5.75,4.3v0.59
		c0,2.61-2.11,4.78-5.96,4.78c-3.95,0-6.35-2.28-6.35-5.13V133.02z"/>
</g>
<g>
	<circle class="st1" cx="60.7" cy="44.96" r="31.01"/>
	<path class="st3" d="M37.41,65.43c-0.18-0.21-0.36-0.41-0.54-0.62C37.04,65.01,37.23,65.22,37.41,65.43z"/>
	<path class="st3" d="M38.43,66.54c-0.21-0.21-0.42-0.43-0.62-0.65C38.02,66.11,38.23,66.32,38.43,66.54z"/>
	<path class="st3" d="M80.19,69.08c-0.03,0.02-0.06,0.05-0.09,0.07C80.13,69.13,80.16,69.1,80.19,69.08z"/>
	<path class="st3" d="M43.25,70.6c-0.24-0.16-0.47-0.33-0.7-0.5C42.78,70.27,43.02,70.44,43.25,70.6z"/>
	<path class="st3" d="M42.08,69.76c-0.25-0.19-0.5-0.39-0.74-0.58C41.58,69.37,41.82,69.57,42.08,69.76z"/>
	<path class="st3" d="M36.46,64.3c-0.17-0.21-0.33-0.42-0.49-0.63C36.13,63.88,36.3,64.09,36.46,64.3z"/>
	<path class="st3" d="M39.68,67.76c-0.3-0.27-0.59-0.55-0.87-0.83C39.1,67.21,39.39,67.49,39.68,67.76z"/>
	<path class="st3" d="M40.94,68.87c-0.37-0.31-0.73-0.62-1.08-0.94C40.21,68.25,40.57,68.56,40.94,68.87z"/>
	<path class="st3" d="M31.03,54.01c-0.08-0.25-0.15-0.51-0.22-0.77C30.88,53.49,30.95,53.75,31.03,54.01z"/>
	<path class="st3" d="M32.62,58.12c-0.11-0.23-0.21-0.47-0.32-0.7C32.4,57.65,32.51,57.89,32.62,58.12z"/>
	<path class="st3" d="M35.58,63.13c-0.15-0.21-0.3-0.42-0.45-0.64C35.27,62.71,35.42,62.92,35.58,63.13z"/>
	<path class="st3" d="M44.47,71.39c-0.23-0.14-0.46-0.3-0.69-0.45C44.01,71.1,44.24,71.25,44.47,71.39z"/>
	<path class="st3" d="M82.15,67.35c-0.04,0.04-0.09,0.08-0.13,0.13C82.06,67.43,82.11,67.39,82.15,67.35z"/>
	<path class="st3" d="M32.03,56.78c-0.1-0.24-0.19-0.48-0.29-0.72C31.83,56.3,31.93,56.54,32.03,56.78z"/>
	<path class="st3" d="M34.75,61.93c-0.14-0.21-0.28-0.43-0.41-0.65C34.47,61.5,34.61,61.72,34.75,61.93z"/>
	<path class="st3" d="M33.98,60.7c-0.13-0.22-0.26-0.44-0.38-0.67C33.72,60.26,33.85,60.48,33.98,60.7z"/>
	<path class="st3" d="M33.27,59.43c-0.12-0.23-0.24-0.45-0.35-0.68C33.03,58.97,33.15,59.2,33.27,59.43z"/>
	<path class="st3" d="M31.5,55.41c-0.09-0.25-0.17-0.5-0.25-0.75C31.33,54.91,31.41,55.16,31.5,55.41z"/>
	<path class="st3" d="M73.75,73.1c-0.1,0.05-0.21,0.1-0.32,0.14C73.54,73.19,73.64,73.15,73.75,73.1z"/>
	<polygon class="st3" points="60.7,75.98 60.7,75.98 60.7,75.98 	"/>
	<path class="st3" d="M60.7,75.98c-0.52,0-1.03-0.01-1.55-0.04C59.67,75.96,60.18,75.98,60.7,75.98z"/>
	<path class="st3" d="M57.02,75.75c-0.3-0.04-0.6-0.07-0.9-0.11C56.42,75.68,56.72,75.72,57.02,75.75z"/>
	<path class="st3" d="M71.24,74.14c-0.05,0.02-0.1,0.03-0.16,0.05C71.14,74.17,71.19,74.15,71.24,74.14z"/>
	<path class="st3" d="M68.87,74.88c-0.08,0.02-0.17,0.05-0.25,0.07C68.7,74.93,68.78,74.9,68.87,74.88z"/>
	<path class="st3" d="M63.58,75.84c-0.13,0.01-0.26,0.02-0.39,0.03C63.32,75.86,63.45,75.85,63.58,75.84z"/>
	<path class="st3" d="M66.33,75.46c-0.14,0.03-0.29,0.05-0.43,0.08C66.05,75.51,66.19,75.48,66.33,75.46z"/>
	<path class="st3" d="M76.06,71.9c-0.08,0.05-0.16,0.1-0.25,0.14C75.89,72,75.98,71.95,76.06,71.9z"/>
	<path class="st3" d="M55.49,75.53c-0.28-0.05-0.57-0.1-0.85-0.15C54.92,75.43,55.2,75.48,55.49,75.53z"/>
	<path class="st3" d="M48.35,73.41c-0.25-0.11-0.49-0.22-0.73-0.33C47.86,73.19,48.1,73.3,48.35,73.41z"/>
	<path class="st3" d="M45.73,72.12c-0.24-0.13-0.47-0.27-0.7-0.4C45.26,71.85,45.49,71.99,45.73,72.12z"/>
	<path class="st3" d="M49.71,73.96c-0.25-0.1-0.5-0.19-0.75-0.29C49.21,73.77,49.46,73.87,49.71,73.96z"/>
	<path class="st3" d="M47.02,72.8c-0.24-0.12-0.48-0.24-0.72-0.37C46.54,72.55,46.78,72.68,47.02,72.8z"/>
	<path class="st3" d="M53.99,75.24c-0.27-0.06-0.55-0.12-0.82-0.19C53.45,75.12,53.72,75.18,53.99,75.24z"/>
	<path class="st3" d="M51.11,74.46c-0.26-0.08-0.51-0.17-0.77-0.26C50.59,74.29,50.85,74.37,51.11,74.46z"/>
	<path class="st3" d="M52.53,74.88c-0.26-0.07-0.53-0.15-0.79-0.22C52,74.74,52.27,74.81,52.53,74.88z"/>
	<path class="st3" d="M58.64,75.9c-0.34-0.02-0.68-0.04-1.02-0.08C57.96,75.86,58.3,75.88,58.64,75.9z"/>
	<path class="st3" d="M91.55,41.77c-0.05-0.49-0.11-0.98-0.19-1.46C91.44,40.79,91.5,41.28,91.55,41.77z"/>
	<polygon class="st3" points="90.93,51.89 90.93,51.89 90.93,51.9 	"/>
	<path class="st3" d="M86.95,61.47C86.95,61.47,86.95,61.48,86.95,61.47C86.95,61.48,86.95,61.47,86.95,61.47z"/>
	<path class="st3" d="M30.3,51.12c-0.06-0.3-0.11-0.6-0.16-0.9C30.19,50.52,30.24,50.82,30.3,51.12z"/>
	<path class="st3" d="M30.63,52.58c-0.07-0.27-0.13-0.54-0.19-0.81C30.51,52.04,30.57,52.31,30.63,52.58z"/>
	<path class="st3" d="M62.76,14.03c0.34,0.02,0.68,0.04,1.02,0.08C63.44,14.07,63.1,14.05,62.76,14.03z"/>
	<path class="st3" d="M65.92,14.4c0.29,0.05,0.57,0.1,0.85,0.15C66.49,14.49,66.2,14.44,65.92,14.4z"/>
	<path class="st3" d="M29.85,48.16L29.85,48.16c0.05,0.49,0.11,0.98,0.19,1.46C29.96,49.13,29.9,48.64,29.85,48.16z"/>
	<path class="st3" d="M74.38,17.13c0.24,0.12,0.48,0.24,0.72,0.37C74.86,17.37,74.62,17.25,74.38,17.13z"/>
	<path class="st3" d="M76.93,18.54c0.23,0.14,0.46,0.29,0.69,0.44C77.39,18.83,77.17,18.68,76.93,18.54z"/>
	<path class="st3" d="M64.38,14.18c0.3,0.04,0.61,0.07,0.91,0.12C64.98,14.25,64.68,14.21,64.38,14.18z"/>
	<path class="st3" d="M91.26,39.67c-0.05-0.29-0.1-0.58-0.15-0.87C91.16,39.09,91.21,39.38,91.26,39.67L91.26,39.67z"/>
	<path class="st3" d="M81.74,22.18c0.29,0.27,0.57,0.54,0.85,0.81C82.31,22.72,82.03,22.45,81.74,22.18z"/>
	<path class="st3" d="M67.41,14.69c0.27,0.06,0.55,0.12,0.82,0.19C67.96,14.81,67.68,14.75,67.41,14.69z"/>
	<path class="st3" d="M88.14,30.5c0.12,0.22,0.23,0.45,0.35,0.68C88.37,30.95,88.25,30.73,88.14,30.5z"/>
	<path class="st3" d="M80.46,21.06c0.37,0.3,0.73,0.62,1.08,0.94C81.19,21.68,80.83,21.37,80.46,21.06z"/>
	<polygon class="st3" points="30.48,38.03 30.48,38.03 30.48,38.03 	"/>
	<path class="st3" d="M71.69,15.96c0.25,0.09,0.5,0.19,0.75,0.29C72.19,16.16,71.95,16.06,71.69,15.96z"/>
	<path class="st3" d="M89.91,34.52c0.09,0.24,0.17,0.49,0.25,0.74C90.08,35.01,89.99,34.77,89.91,34.52z"/>
	<path class="st3" d="M88.79,31.81c0.11,0.23,0.21,0.46,0.32,0.7C89,32.27,88.9,32.04,88.79,31.81z"/>
	<path class="st3" d="M78.15,19.33c0.23,0.16,0.46,0.33,0.69,0.49C78.61,19.65,78.38,19.49,78.15,19.33z"/>
	<path class="st3" d="M73.06,16.52c0.25,0.11,0.49,0.22,0.73,0.33C73.54,16.73,73.3,16.62,73.06,16.52z"/>
	<path class="st3" d="M68.87,15.05c0.27,0.07,0.53,0.15,0.79,0.23C69.4,15.19,69.13,15.12,68.87,15.05z"/>
	<path class="st3" d="M79.33,20.17c0.25,0.19,0.49,0.38,0.73,0.58C79.82,20.55,79.58,20.35,79.33,20.17z"/>
	<path class="st3" d="M89.38,33.15c0.1,0.24,0.19,0.47,0.28,0.71C89.57,33.62,89.48,33.39,89.38,33.15z"/>
	<path class="st3" d="M41.21,20.85c0.03-0.02,0.06-0.05,0.09-0.07C41.27,20.8,41.24,20.82,41.21,20.85z"/>
	<path class="st3" d="M70.3,15.47c0.26,0.08,0.51,0.17,0.77,0.26C70.81,15.64,70.56,15.56,70.3,15.47z"/>
	<path class="st3" d="M90.77,37.35c0.07,0.27,0.13,0.54,0.19,0.81C90.9,37.89,90.84,37.62,90.77,37.35z"/>
	<path class="st3" d="M87.43,29.23c0.13,0.22,0.26,0.44,0.38,0.66C87.68,29.67,87.55,29.45,87.43,29.23z"/>
	<path class="st3" d="M55.07,14.47c0.14-0.03,0.29-0.05,0.43-0.08C55.36,14.42,55.21,14.44,55.07,14.47z"/>
	<path class="st3" d="M90.37,35.92c0.08,0.25,0.15,0.51,0.22,0.77C90.52,36.43,90.45,36.18,90.37,35.92z"/>
	<path class="st3" d="M75.68,17.81c0.24,0.13,0.47,0.27,0.7,0.4C76.15,18.07,75.91,17.94,75.68,17.81z"/>
	<path class="st3" d="M84.95,25.64c0.16,0.21,0.33,0.41,0.49,0.62C85.27,26.05,85.11,25.84,84.95,25.64z"/>
	<path class="st3" d="M45.35,18.02c0.08-0.05,0.16-0.09,0.25-0.14C45.51,17.93,45.43,17.98,45.35,18.02z"/>
	<path class="st3" d="M50.16,15.79c0.05-0.02,0.1-0.03,0.15-0.05C50.26,15.76,50.21,15.77,50.16,15.79z"/>
	<path class="st3" d="M85.83,26.8c0.15,0.21,0.3,0.42,0.45,0.63C86.13,27.21,85.98,27.01,85.83,26.8z"/>
	<path class="st3" d="M52.54,15.05c0.08-0.02,0.16-0.05,0.25-0.07C52.7,15,52.62,15.02,52.54,15.05z"/>
	<path class="st3" d="M82.98,23.4c0.21,0.21,0.41,0.42,0.61,0.64C83.39,23.82,83.18,23.61,82.98,23.4z"/>
	<path class="st3" d="M60.7,13.95L60.7,13.95c0.52,0,1.03,0.01,1.55,0.04C61.74,13.96,61.22,13.95,60.7,13.95z"/>
	<path class="st3" d="M34.45,28.46C34.45,28.45,34.46,28.45,34.45,28.46C34.46,28.45,34.45,28.45,34.45,28.46z"/>
	<path class="st3" d="M84,24.51c0.18,0.2,0.36,0.41,0.53,0.62C84.36,24.92,84.18,24.71,84,24.51z"/>
	<path class="st3" d="M57.82,14.09c0.13-0.01,0.26-0.02,0.39-0.03C58.08,14.07,57.95,14.08,57.82,14.09z"/>
	<path class="st3" d="M47.66,16.83c0.1-0.05,0.21-0.1,0.32-0.14C47.87,16.73,47.76,16.78,47.66,16.83z"/>
	<path class="st3" d="M39.25,22.58c0.04-0.04,0.09-0.08,0.13-0.13C39.34,22.49,39.3,22.53,39.25,22.58z"/>
	<path class="st3" d="M86.66,28c0.14,0.21,0.28,0.43,0.41,0.65C86.93,28.42,86.8,28.21,86.66,28z"/>
	<path class="st4" d="M60.7,15.81c15.32,0,28.04,9.42,30.55,23.87l0,0c-0.05-0.29-0.1-0.58-0.15-0.87c-0.04-0.22-0.1-0.43-0.14-0.65
		c-0.06-0.27-0.12-0.54-0.19-0.81c-0.06-0.22-0.12-0.44-0.18-0.66c-0.07-0.26-0.14-0.51-0.22-0.77c-0.07-0.22-0.14-0.44-0.21-0.66
		c-0.08-0.25-0.16-0.49-0.25-0.74c-0.08-0.22-0.16-0.44-0.25-0.66c-0.09-0.24-0.18-0.48-0.28-0.71c-0.09-0.22-0.18-0.43-0.28-0.64
		c-0.1-0.23-0.21-0.47-0.32-0.7c-0.1-0.21-0.2-0.42-0.3-0.63c-0.11-0.23-0.23-0.45-0.35-0.68c-0.11-0.21-0.22-0.41-0.33-0.61
		c-0.12-0.22-0.25-0.44-0.38-0.66c-0.12-0.2-0.23-0.4-0.36-0.59c-0.13-0.22-0.27-0.43-0.41-0.65c-0.12-0.19-0.25-0.38-0.38-0.57
		c-0.15-0.21-0.3-0.42-0.45-0.63c-0.13-0.18-0.26-0.36-0.4-0.54c-0.16-0.21-0.32-0.41-0.49-0.62c-0.14-0.17-0.27-0.34-0.41-0.51
		c-0.17-0.21-0.35-0.41-0.53-0.62c-0.14-0.16-0.27-0.32-0.41-0.47c-0.2-0.22-0.41-0.43-0.61-0.64c-0.13-0.13-0.25-0.27-0.39-0.4
		c-0.28-0.28-0.56-0.55-0.85-0.81c-0.07-0.06-0.13-0.13-0.2-0.19c-0.35-0.32-0.71-0.63-1.08-0.94c-0.13-0.11-0.27-0.21-0.4-0.32
		c-0.24-0.19-0.48-0.39-0.73-0.58c-0.16-0.12-0.32-0.23-0.49-0.35c-0.23-0.17-0.46-0.33-0.69-0.49c-0.17-0.12-0.35-0.23-0.53-0.35
		c-0.23-0.15-0.46-0.3-0.69-0.44c-0.18-0.11-0.37-0.22-0.55-0.33c-0.23-0.14-0.47-0.27-0.7-0.4c-0.19-0.11-0.38-0.21-0.58-0.31
		c-0.24-0.12-0.48-0.25-0.72-0.37c-0.2-0.1-0.4-0.19-0.6-0.28c-0.24-0.11-0.48-0.22-0.73-0.33c-0.2-0.09-0.41-0.17-0.62-0.26
		c-0.25-0.1-0.5-0.2-0.75-0.29c-0.21-0.08-0.42-0.16-0.63-0.23c-0.25-0.09-0.51-0.18-0.77-0.26c-0.21-0.07-0.42-0.14-0.64-0.2
		c-0.26-0.08-0.53-0.15-0.79-0.23c-0.21-0.06-0.43-0.12-0.64-0.17c-0.27-0.07-0.54-0.13-0.82-0.19c-0.21-0.05-0.43-0.1-0.64-0.14
		c-0.28-0.06-0.57-0.1-0.85-0.15c-0.21-0.04-0.42-0.07-0.63-0.11c-0.3-0.04-0.6-0.08-0.91-0.12c-0.2-0.02-0.4-0.05-0.6-0.07
		c-0.34-0.03-0.68-0.06-1.02-0.08c-0.17-0.01-0.34-0.03-0.51-0.04c-0.51-0.03-1.03-0.04-1.55-0.04c-0.84,0-1.67,0.04-2.49,0.11
		c-0.13,0.01-0.26,0.02-0.39,0.03c-0.78,0.07-1.56,0.18-2.32,0.3c-0.14,0.02-0.29,0.05-0.43,0.08c-0.77,0.14-1.54,0.31-2.29,0.5
		c-0.08,0.02-0.16,0.05-0.25,0.07c-0.75,0.2-1.49,0.44-2.22,0.69c-0.05,0.02-0.1,0.03-0.15,0.05c-0.74,0.27-1.47,0.57-2.19,0.89
		c-0.11,0.05-0.21,0.09-0.32,0.14c-0.7,0.33-1.39,0.68-2.07,1.06c-0.08,0.05-0.16,0.09-0.25,0.14c-1.42,0.81-2.77,1.73-4.04,2.75
		c-0.03,0.02-0.06,0.05-0.09,0.07c-0.63,0.51-1.24,1.05-1.83,1.6c-0.04,0.04-0.09,0.08-0.13,0.13c-1.83,1.75-3.44,3.72-4.8,5.87
		c0,0,0,0,0,0.01c-1.83,2.9-3.19,6.13-3.98,9.58c0,0,0,0,0,0h0.51C34.78,25.19,46.63,15.81,60.7,15.81z"/>
	<path class="st4" d="M60.87,74.12c-15.32,0-28.04-9.42-30.55-23.87l0,0c0.05,0.29,0.1,0.58,0.15,0.87c0.04,0.22,0.1,0.43,0.14,0.65
		c0.06,0.27,0.12,0.54,0.19,0.81c0.06,0.22,0.12,0.44,0.18,0.66c0.07,0.26,0.14,0.51,0.22,0.77c0.07,0.22,0.14,0.44,0.21,0.66
		c0.08,0.25,0.16,0.49,0.25,0.74c0.08,0.22,0.16,0.44,0.25,0.66c0.09,0.24,0.18,0.48,0.28,0.71c0.09,0.22,0.18,0.43,0.28,0.64
		c0.1,0.23,0.21,0.47,0.32,0.7c0.1,0.21,0.2,0.42,0.3,0.63c0.11,0.23,0.23,0.45,0.35,0.68c0.11,0.21,0.22,0.41,0.33,0.61
		c0.12,0.22,0.25,0.44,0.38,0.66c0.12,0.2,0.23,0.4,0.36,0.59c0.13,0.22,0.27,0.43,0.41,0.65c0.12,0.19,0.25,0.38,0.38,0.57
		c0.15,0.21,0.3,0.42,0.45,0.63c0.13,0.18,0.26,0.36,0.4,0.54c0.16,0.21,0.32,0.41,0.49,0.62c0.14,0.17,0.27,0.34,0.41,0.51
		c0.17,0.21,0.35,0.41,0.53,0.62c0.14,0.16,0.27,0.32,0.41,0.47c0.2,0.22,0.41,0.43,0.61,0.64c0.13,0.13,0.25,0.27,0.39,0.4
		c0.28,0.28,0.56,0.55,0.85,0.81c0.07,0.06,0.13,0.13,0.2,0.19c0.35,0.32,0.71,0.63,1.08,0.94c0.13,0.11,0.27,0.21,0.4,0.32
		c0.24,0.19,0.48,0.39,0.73,0.58c0.16,0.12,0.32,0.23,0.49,0.35c0.23,0.17,0.46,0.33,0.69,0.49c0.17,0.12,0.35,0.23,0.53,0.35
		c0.23,0.15,0.46,0.3,0.69,0.44c0.18,0.11,0.37,0.22,0.55,0.33c0.23,0.14,0.47,0.27,0.7,0.4c0.19,0.11,0.38,0.21,0.58,0.31
		c0.24,0.12,0.48,0.25,0.72,0.37c0.2,0.1,0.4,0.19,0.6,0.28c0.24,0.11,0.48,0.22,0.73,0.33c0.2,0.09,0.41,0.17,0.62,0.26
		c0.25,0.1,0.5,0.2,0.75,0.29c0.21,0.08,0.42,0.16,0.63,0.23c0.25,0.09,0.51,0.18,0.77,0.26c0.21,0.07,0.42,0.14,0.64,0.2
		c0.26,0.08,0.53,0.15,0.79,0.23c0.21,0.06,0.43,0.12,0.64,0.17c0.27,0.07,0.54,0.13,0.82,0.19c0.21,0.05,0.43,0.1,0.64,0.14
		c0.28,0.06,0.57,0.1,0.85,0.15c0.21,0.04,0.42,0.07,0.63,0.11c0.3,0.04,0.6,0.08,0.91,0.12c0.2,0.02,0.4,0.05,0.6,0.07
		c0.34,0.03,0.68,0.06,1.02,0.08c0.17,0.01,0.34,0.03,0.51,0.04c0.51,0.03,1.03,0.04,1.55,0.04c0.84,0,1.67-0.04,2.49-0.11
		c0.13-0.01,0.26-0.02,0.39-0.03c0.78-0.07,1.56-0.18,2.32-0.3c0.14-0.02,0.29-0.05,0.43-0.08c0.77-0.14,1.54-0.31,2.29-0.5
		c0.08-0.02,0.16-0.05,0.25-0.07c0.75-0.2,1.49-0.44,2.22-0.69c0.05-0.02,0.1-0.03,0.15-0.05c0.74-0.27,1.47-0.57,2.19-0.89
		c0.11-0.05,0.21-0.09,0.32-0.14c0.7-0.33,1.39-0.68,2.07-1.06c0.08-0.05,0.16-0.09,0.25-0.14c1.42-0.81,2.77-1.73,4.04-2.75
		c0.03-0.02,0.06-0.05,0.09-0.07c0.63-0.51,1.24-1.05,1.83-1.6c0.04-0.04,0.09-0.08,0.13-0.13c1.83-1.75,3.44-3.72,4.8-5.87
		c0,0,0,0,0-0.01c1.83-2.9,3.19-6.13,3.98-9.58c0,0,0,0,0,0h-0.51C86.79,64.74,74.94,74.12,60.87,74.12z"/>
	<path class="st3" d="M91.26,39.71c0-0.01,0-0.02-0.01-0.03l0,0C91.26,39.68,91.26,39.7,91.26,39.71z"/>
	<path class="st3" d="M91.55,41.77C91.55,41.77,91.55,41.77,91.55,41.77c-0.05-0.49-0.11-0.99-0.19-1.48c0,0.01,0,0.01,0,0.02
		C91.44,40.79,91.5,41.28,91.55,41.77z"/>
	<path class="st3" d="M30.04,49.61c-0.07-0.48-0.13-0.97-0.19-1.46c0.05,0.5,0.11,0.99,0.19,1.48
		C30.04,49.63,30.04,49.62,30.04,49.61z"/>
	<polygon class="st3" points="91.55,41.77 91.55,41.77 91.55,41.77 	"/>
	<path class="st3" d="M91.36,40.29c-0.03-0.2-0.07-0.39-0.1-0.58c0-0.01,0-0.02-0.01-0.03l0,0c0.04,0.21,0.08,0.42,0.11,0.63
		C91.36,40.3,91.36,40.29,91.36,40.29z"/>
	<path class="st3" d="M30.07,49.79c-0.01-0.06-0.02-0.12-0.03-0.18c0,0.01,0,0.02,0,0.03C30.05,49.69,30.06,49.74,30.07,49.79
		L30.07,49.79z"/>
	<path class="st5" d="M58.61,56.91v3.1c0,0.66,0.28,0.94,0.89,0.94h2.77c0.61,0,0.85-0.28,0.85-0.94v-3.15
		c4.56-0.61,6.49-2.96,6.49-5.5v-2.63c0-2.21-1.65-3.72-4.23-4.61l-7.05-2.44c-0.85-0.28-1.97-0.94-1.97-2.17v-0.8
		c0-1.69,1.5-2.49,4.37-2.49c2.92,0,4.47,0.8,4.47,2.49v1.13c0,0.61,0.24,0.85,0.8,0.85h2.45c0.66,0,0.84-0.24,0.84-0.85v-1.13
		c0-2.49-1.65-4.98-6.16-5.64v-3.15c0-0.66-0.23-0.94-0.85-0.94H59.5c-0.61,0-0.89,0.28-0.89,0.94v3.15
		c-4.7,0.57-6.35,3.1-6.35,5.64v1.74c0,2.35,1.93,4.14,3.67,4.75l7.05,2.44c1.55,0.52,2.49,1.13,2.49,2.26v1.27
		c0,1.69-1.83,2.49-4.8,2.49c-3.01,0-4.8-0.8-4.8-2.49v-0.99c0-0.57-0.19-0.85-0.8-0.85h-2.49c-0.56,0-0.8,0.28-0.8,0.85v1.17
		C51.79,53.95,53.72,56.39,58.61,56.91z"/>
	<path class="st6" d="M103.27,42.75c-0.05-0.88-0.13-1.75-0.22-2.62l0,0C103.14,40.99,103.22,41.86,103.27,42.75z"/>
	<path class="st6" d="M90.16,35.26c0.07,0.22,0.15,0.44,0.21,0.66C90.3,35.7,90.23,35.48,90.16,35.26z"/>
	<path class="st6" d="M90.59,36.69c0.06,0.22,0.12,0.44,0.18,0.66C90.71,37.13,90.65,36.91,90.59,36.69z"/>
	<path class="st6" d="M81.54,22c0.07,0.06,0.13,0.12,0.2,0.19C81.67,22.12,81.61,22.06,81.54,22z"/>
	<path class="st6" d="M82.59,23c0.13,0.13,0.26,0.27,0.39,0.4C82.85,23.26,82.72,23.13,82.59,23z"/>
	<path class="st6" d="M84.53,25.12c0.14,0.17,0.27,0.34,0.41,0.51C84.81,25.46,84.67,25.29,84.53,25.12z"/>
	<path class="st6" d="M83.59,24.04c0.14,0.15,0.28,0.31,0.41,0.47C83.86,24.35,83.73,24.19,83.59,24.04z"/>
	<path class="st6" d="M80.06,20.74c0.13,0.11,0.27,0.21,0.4,0.32C80.33,20.95,80.19,20.85,80.06,20.74z"/>
	<path class="st6" d="M78.84,19.82c0.16,0.12,0.33,0.23,0.49,0.35C79.17,20.05,79,19.93,78.84,19.82z"/>
	<path class="st6" d="M86.28,27.43c0.13,0.19,0.25,0.38,0.38,0.57C86.53,27.81,86.41,27.62,86.28,27.43z"/>
	<path class="st6" d="M85.43,26.26c0.14,0.18,0.27,0.36,0.4,0.54C85.7,26.62,85.57,26.43,85.43,26.26z"/>
	<path class="st6" d="M77.62,18.98c0.18,0.11,0.35,0.23,0.53,0.35C77.98,19.21,77.8,19.1,77.62,18.98z"/>
	<path class="st6" d="M87.8,29.89c0.11,0.2,0.22,0.41,0.33,0.61C88.03,30.3,87.92,30.09,87.8,29.89z"/>
	<path class="st6" d="M88.48,31.18c0.1,0.21,0.2,0.42,0.3,0.63C88.69,31.6,88.59,31.39,88.48,31.18z"/>
	<path class="st6" d="M89.66,33.86c0.08,0.22,0.17,0.44,0.25,0.66C89.83,34.3,89.74,34.08,89.66,33.86z"/>
	<path class="st6" d="M87.07,28.64c0.12,0.2,0.24,0.39,0.36,0.59C87.31,29.03,87.19,28.84,87.07,28.64z"/>
	<path class="st6" d="M89.1,32.51c0.09,0.21,0.19,0.43,0.28,0.64C89.29,32.93,89.2,32.72,89.1,32.51z"/>
	<path class="st6" d="M90.96,38.16c0.05,0.22,0.1,0.43,0.14,0.65C91.06,38.59,91,38.38,90.96,38.16z"/>
	<path class="st6" d="M60.7,13.95c-0.84,0-1.67,0.04-2.49,0.11C59.03,13.99,59.86,13.95,60.7,13.95L60.7,13.95z"/>
	<path class="st6" d="M45.59,17.88c0.67-0.38,1.36-0.73,2.07-1.06C46.95,17.15,46.26,17.51,45.59,17.88z"/>
	<path class="st6" d="M55.5,14.39c0.76-0.13,1.54-0.23,2.32-0.3C57.04,14.16,56.27,14.26,55.5,14.39z"/>
	<path class="st6" d="M52.78,14.97c0.75-0.2,1.52-0.36,2.29-0.5C54.3,14.61,53.53,14.78,52.78,14.97z"/>
	<path class="st6" d="M50.31,15.74c0.73-0.26,1.47-0.49,2.22-0.69C51.78,15.25,51.04,15.48,50.31,15.74z"/>
	<path class="st6" d="M41.3,20.78c1.27-1.02,2.62-1.94,4.04-2.75C43.92,18.84,42.57,19.76,41.3,20.78z"/>
	<path class="st6" d="M30.48,38.03c0.79-3.45,2.15-6.67,3.98-9.58C32.62,31.36,31.26,34.59,30.48,38.03z"/>
	<path class="st6" d="M39.38,22.45c0.59-0.56,1.2-1.09,1.83-1.6C40.58,21.36,39.97,21.89,39.38,22.45z"/>
	<path class="st6" d="M34.46,28.45c1.36-2.15,2.97-4.12,4.8-5.87C37.43,24.33,35.81,26.3,34.46,28.45z"/>
	<path class="st6" d="M47.97,16.69c0.72-0.32,1.44-0.62,2.19-0.89C49.42,16.06,48.69,16.36,47.97,16.69z"/>
	<path class="st6" d="M62.25,13.99c0.17,0.01,0.34,0.03,0.51,0.04C62.59,14.02,62.42,14,62.25,13.99z"/>
	<path class="st6" d="M71.07,15.73c0.21,0.07,0.42,0.15,0.63,0.23C71.49,15.88,71.28,15.81,71.07,15.73z"/>
	<path class="st6" d="M72.44,16.26c0.21,0.08,0.41,0.17,0.62,0.26C72.85,16.43,72.65,16.34,72.44,16.26z"/>
	<path class="st6" d="M75.1,17.5c0.19,0.1,0.39,0.2,0.58,0.31C75.49,17.7,75.29,17.6,75.1,17.5z"/>
	<path class="st6" d="M76.38,18.21c0.19,0.11,0.37,0.22,0.55,0.33C76.75,18.42,76.56,18.32,76.38,18.21z"/>
	<path class="st6" d="M73.79,16.85c0.2,0.09,0.4,0.19,0.6,0.28C74.19,17.03,73.99,16.94,73.79,16.85z"/>
	<path class="st6" d="M65.28,14.29c0.21,0.03,0.42,0.07,0.63,0.11C65.71,14.36,65.5,14.32,65.28,14.29z"/>
	<path class="st6" d="M66.77,14.55c0.21,0.04,0.43,0.09,0.64,0.14C67.2,14.64,66.98,14.59,66.77,14.55z"/>
	<path class="st6" d="M69.66,15.27c0.21,0.06,0.43,0.13,0.64,0.2C70.09,15.4,69.88,15.34,69.66,15.27z"/>
	<path class="st6" d="M63.78,14.1c0.2,0.02,0.4,0.05,0.6,0.07C64.18,14.15,63.98,14.12,63.78,14.1z"/>
	<path class="st6" d="M68.23,14.88c0.21,0.05,0.43,0.11,0.64,0.17C68.66,14.99,68.44,14.93,68.23,14.88z"/>
	<polygon class="st6" points="91.55,41.77 91.55,41.77 91.55,41.77 	"/>
	<path class="st2" d="M103.04,40.12L103.04,40.12C100.64,18.87,82.6,2.34,60.7,2.34c-21.18,0-38.74,15.45-42.05,35.69h-5.23
		c-1.04,0-1.75,0.8-1.83,1.68c-0.05,0.5,0.11,1.03,0.53,1.45l6.01,6.01l0.22,0.22l3.33,3.33c1.54,1.54,4.03,1.54,5.57,0l2.58-2.58
		l6.99-6.99c0.36-0.36,0.51-0.8,0.52-1.24c0.02-0.96-0.69-1.89-1.82-1.89h-4.56h-0.51c0,0,0,0,0,0c0.79-3.45,2.15-6.67,3.98-9.58
		c0,0,0,0,0-0.01c1.36-2.15,2.97-4.12,4.8-5.87c0.04-0.04,0.09-0.08,0.13-0.13c0.59-0.56,1.2-1.09,1.83-1.6
		c0.03-0.02,0.06-0.05,0.09-0.07c1.27-1.02,2.62-1.94,4.04-2.75c0.08-0.05,0.16-0.09,0.25-0.14c0.67-0.38,1.36-0.73,2.07-1.06
		c0.1-0.05,0.21-0.1,0.32-0.14c0.72-0.32,1.44-0.62,2.19-0.89c0.05-0.02,0.1-0.03,0.15-0.05c0.73-0.26,1.47-0.49,2.22-0.69
		c0.08-0.02,0.16-0.05,0.25-0.07c0.75-0.2,1.51-0.36,2.29-0.5c0.14-0.03,0.29-0.05,0.43-0.08c0.77-0.13,1.54-0.23,2.32-0.3
		c0.13-0.01,0.26-0.02,0.39-0.03c0.82-0.07,1.65-0.11,2.49-0.11h0c0.52,0,1.03,0.01,1.55,0.04c0.17,0.01,0.34,0.03,0.51,0.04
		c0.34,0.02,0.68,0.04,1.02,0.08c0.2,0.02,0.4,0.05,0.6,0.07c0.3,0.04,0.61,0.07,0.91,0.12c0.21,0.03,0.42,0.07,0.63,0.11
		c0.29,0.05,0.57,0.1,0.85,0.15c0.21,0.04,0.43,0.09,0.64,0.14c0.27,0.06,0.55,0.12,0.82,0.19c0.21,0.05,0.43,0.11,0.64,0.17
		c0.27,0.07,0.53,0.15,0.79,0.23c0.21,0.06,0.42,0.13,0.64,0.2c0.26,0.08,0.51,0.17,0.77,0.26c0.21,0.07,0.42,0.15,0.63,0.23
		c0.25,0.1,0.5,0.19,0.75,0.29c0.21,0.08,0.41,0.17,0.62,0.26c0.25,0.11,0.49,0.22,0.73,0.33c0.2,0.09,0.4,0.19,0.6,0.28
		c0.24,0.12,0.48,0.24,0.72,0.37c0.19,0.1,0.39,0.2,0.58,0.31c0.24,0.13,0.47,0.27,0.7,0.4c0.19,0.11,0.37,0.22,0.55,0.33
		c0.23,0.14,0.46,0.29,0.69,0.44c0.18,0.11,0.35,0.23,0.53,0.35c0.23,0.16,0.46,0.33,0.69,0.49c0.16,0.12,0.33,0.23,0.49,0.35
		c0.25,0.19,0.49,0.38,0.73,0.58c0.13,0.11,0.27,0.21,0.4,0.32c0.37,0.3,0.73,0.62,1.08,0.94c0.07,0.06,0.13,0.12,0.2,0.19
		c0.29,0.27,0.57,0.54,0.85,0.81c0.13,0.13,0.26,0.27,0.39,0.4c0.21,0.21,0.41,0.42,0.61,0.64c0.14,0.15,0.28,0.31,0.41,0.47
		c0.18,0.2,0.36,0.41,0.53,0.62c0.14,0.17,0.27,0.34,0.41,0.51c0.16,0.21,0.33,0.41,0.49,0.62c0.14,0.18,0.27,0.36,0.4,0.54
		c0.15,0.21,0.3,0.42,0.45,0.63c0.13,0.19,0.25,0.38,0.38,0.57c0.14,0.21,0.28,0.43,0.41,0.65c0.12,0.2,0.24,0.39,0.36,0.59
		c0.13,0.22,0.26,0.44,0.38,0.66c0.11,0.2,0.22,0.41,0.33,0.61c0.12,0.22,0.23,0.45,0.35,0.68c0.1,0.21,0.2,0.42,0.3,0.63
		c0.11,0.23,0.21,0.46,0.32,0.7c0.09,0.21,0.19,0.43,0.28,0.64c0.1,0.24,0.19,0.47,0.28,0.71c0.08,0.22,0.17,0.44,0.25,0.66
		c0.09,0.24,0.17,0.49,0.25,0.74c0.07,0.22,0.15,0.44,0.21,0.66c0.08,0.25,0.15,0.51,0.22,0.77c0.06,0.22,0.12,0.44,0.18,0.66
		c0.07,0.27,0.13,0.54,0.19,0.81c0.05,0.22,0.1,0.43,0.14,0.65c0.06,0.29,0.11,0.58,0.15,0.87c0,0.01,0,0.02,0.01,0.03
		c0.03,0.19,0.07,0.39,0.1,0.58c0.07,0.49,0.14,0.98,0.19,1.48c0,0,0,0,0,0l2.58-2.58c1.54-1.54,4.03-1.54,5.57,0l3.56,3.56
		C103.22,41.86,103.14,40.99,103.04,40.12z"/>
	<path class="st7" d="M57.63,75.82c-0.2-0.02-0.4-0.05-0.6-0.07C57.22,75.78,57.42,75.8,57.63,75.82z"/>
	<path class="st7" d="M37.82,65.89c-0.14-0.15-0.27-0.31-0.41-0.46C37.54,65.58,37.68,65.74,37.82,65.89z"/>
	<path class="st7" d="M36.87,64.8c-0.14-0.17-0.27-0.34-0.4-0.5C36.6,64.47,36.73,64.64,36.87,64.8z"/>
	<path class="st7" d="M34.33,61.29c-0.12-0.19-0.24-0.39-0.35-0.59C34.1,60.9,34.21,61.09,34.33,61.29z"/>
	<path class="st7" d="M38.81,66.93c-0.13-0.13-0.25-0.26-0.38-0.39C38.56,66.67,38.68,66.8,38.81,66.93z"/>
	<path class="st7" d="M35.97,63.67c-0.13-0.18-0.26-0.36-0.39-0.54C35.71,63.31,35.84,63.49,35.97,63.67z"/>
	<path class="st7" d="M35.12,62.5c-0.13-0.19-0.25-0.38-0.38-0.57C34.87,62.12,35,62.31,35.12,62.5z"/>
	<path class="st7" d="M45.02,71.72c-0.18-0.11-0.37-0.22-0.55-0.33C44.65,71.5,44.84,71.61,45.02,71.72z"/>
	<path class="st7" d="M39.86,67.93c-0.06-0.05-0.11-0.11-0.17-0.16C39.74,67.82,39.8,67.87,39.86,67.93z"/>
	<path class="st7" d="M43.78,70.94c-0.17-0.11-0.35-0.23-0.52-0.34C43.43,70.72,43.6,70.83,43.78,70.94z"/>
	<path class="st7" d="M41.33,69.18c-0.13-0.1-0.26-0.21-0.39-0.31C41.07,68.97,41.2,69.07,41.33,69.18z"/>
	<path class="st7" d="M42.55,70.1c-0.16-0.11-0.32-0.23-0.48-0.34C42.23,69.88,42.39,69.99,42.55,70.1z"/>
	<path class="st7" d="M30.45,51.77c-0.05-0.21-0.1-0.43-0.14-0.64C30.35,51.34,30.4,51.55,30.45,51.77z"/>
	<path class="st7" d="M30.07,49.8c0.02,0.14,0.05,0.28,0.08,0.42C30.12,50.08,30.09,49.94,30.07,49.8L30.07,49.8z"/>
	<path class="st7" d="M30.81,53.24c-0.06-0.22-0.12-0.44-0.18-0.66C30.69,52.8,30.75,53.02,30.81,53.24z"/>
	<path class="st8" d="M109.36,48.87c-0.03-0.03-0.05-0.07-0.08-0.11l-6.01-6.01l-3.56-3.56c-1.54-1.54-4.03-1.54-5.57,0l-2.58,2.58
		l-6.99,6.99c-0.03,0.03-0.05,0.07-0.08,0.1c-1.02,1.17-0.21,3.03,1.37,3.03h4.41h0.66h0c0,0,0,0,0,0
		c-0.79,3.45-2.15,6.67-3.98,9.58c0,0,0,0,0,0.01c-1.36,2.15-2.97,4.12-4.8,5.87c-0.04,0.04-0.09,0.08-0.13,0.13
		c-0.59,0.56-1.2,1.09-1.83,1.6c-0.03,0.02-0.06,0.05-0.09,0.07c-1.27,1.02-2.62,1.94-4.04,2.75c-0.08,0.05-0.16,0.1-0.25,0.14
		c-0.67,0.38-1.36,0.73-2.07,1.05c-0.1,0.05-0.21,0.1-0.32,0.14c-0.72,0.32-1.44,0.62-2.19,0.89c-0.05,0.02-0.1,0.03-0.16,0.05
		c-0.73,0.26-1.47,0.49-2.22,0.69c-0.08,0.02-0.17,0.05-0.25,0.07c-0.75,0.2-1.51,0.36-2.29,0.5c-0.14,0.03-0.29,0.05-0.43,0.08
		c-0.76,0.13-1.54,0.23-2.32,0.3c-0.13,0.01-0.26,0.02-0.39,0.03c-0.82,0.07-1.65,0.11-2.49,0.11c0,0,0,0,0,0h0c0,0,0,0,0,0
		c-0.52,0-1.03-0.01-1.55-0.04c-0.17-0.01-0.34-0.03-0.51-0.04c-0.34-0.02-0.68-0.04-1.02-0.08c-0.2-0.02-0.4-0.05-0.6-0.07
		c-0.3-0.04-0.6-0.07-0.9-0.11c-0.21-0.03-0.42-0.07-0.63-0.11c-0.28-0.05-0.57-0.1-0.85-0.15c-0.22-0.04-0.43-0.09-0.64-0.14
		c-0.27-0.06-0.55-0.12-0.82-0.19c-0.22-0.05-0.43-0.11-0.64-0.17c-0.26-0.07-0.53-0.15-0.79-0.22c-0.21-0.06-0.42-0.13-0.63-0.2
		c-0.26-0.08-0.51-0.17-0.77-0.26c-0.21-0.07-0.42-0.15-0.63-0.23c-0.25-0.1-0.5-0.19-0.75-0.29c-0.21-0.08-0.41-0.17-0.62-0.26
		c-0.25-0.11-0.49-0.22-0.73-0.33c-0.2-0.09-0.4-0.19-0.6-0.28c-0.24-0.12-0.48-0.24-0.72-0.37c-0.19-0.1-0.39-0.2-0.58-0.31
		c-0.24-0.13-0.47-0.27-0.7-0.4c-0.18-0.11-0.37-0.22-0.55-0.33c-0.23-0.14-0.46-0.3-0.69-0.45c-0.17-0.11-0.35-0.23-0.52-0.34
		c-0.24-0.16-0.47-0.33-0.7-0.5c-0.16-0.11-0.32-0.23-0.48-0.34c-0.25-0.19-0.5-0.39-0.74-0.58c-0.13-0.1-0.26-0.21-0.39-0.31
		c-0.37-0.31-0.73-0.62-1.08-0.94c-0.06-0.05-0.11-0.11-0.17-0.16c-0.3-0.27-0.59-0.55-0.87-0.83c-0.13-0.13-0.25-0.26-0.38-0.39
		c-0.21-0.21-0.42-0.43-0.62-0.65c-0.14-0.15-0.27-0.31-0.41-0.46c-0.18-0.21-0.36-0.41-0.54-0.62c-0.14-0.17-0.27-0.34-0.4-0.5
		c-0.17-0.21-0.33-0.42-0.49-0.63c-0.13-0.18-0.26-0.36-0.39-0.54c-0.15-0.21-0.3-0.42-0.45-0.64c-0.13-0.19-0.25-0.38-0.38-0.57
		c-0.14-0.21-0.28-0.43-0.41-0.65c-0.12-0.19-0.24-0.39-0.35-0.59c-0.13-0.22-0.26-0.44-0.38-0.67c-0.11-0.2-0.22-0.4-0.33-0.61
		c-0.12-0.23-0.24-0.45-0.35-0.68c-0.1-0.21-0.2-0.41-0.3-0.62c-0.11-0.23-0.21-0.47-0.32-0.7c-0.09-0.21-0.19-0.42-0.27-0.64
		c-0.1-0.24-0.19-0.48-0.29-0.72c-0.08-0.22-0.17-0.43-0.24-0.65c-0.09-0.25-0.17-0.5-0.25-0.75c-0.07-0.22-0.15-0.44-0.21-0.66
		c-0.08-0.26-0.15-0.51-0.22-0.77c-0.06-0.22-0.12-0.44-0.18-0.66c-0.07-0.27-0.13-0.54-0.19-0.81c-0.05-0.21-0.1-0.43-0.14-0.64
		c-0.06-0.3-0.11-0.6-0.16-0.9c-0.02-0.14-0.05-0.28-0.08-0.42l-0.21,0.21l-2.58,2.58c-1.54,1.54-4.03,1.54-5.57,0l-3.03-3.03
		l-0.37-0.37c2.12,21.55,20.3,38.39,42.41,38.39c21.18,0,38.74-15.45,42.05-35.69h5.23C109.57,51.89,110.37,50.03,109.36,48.87z"/>
	<path class="st7" d="M32.3,57.42c-0.09-0.21-0.19-0.42-0.27-0.64C32.11,56.99,32.21,57.21,32.3,57.42z"/>
	<path class="st7" d="M32.92,58.74c-0.1-0.21-0.2-0.41-0.3-0.62C32.71,58.33,32.82,58.54,32.92,58.74z"/>
	<path class="st7" d="M33.6,60.03c-0.11-0.2-0.22-0.4-0.33-0.61C33.38,59.63,33.48,59.83,33.6,60.03z"/>
	<path class="st7" d="M90.93,51.9c-0.79,3.45-2.15,6.67-3.98,9.58C88.78,58.57,90.14,55.34,90.93,51.9z"/>
	<path class="st7" d="M31.24,54.66c-0.07-0.22-0.15-0.44-0.21-0.66C31.1,54.23,31.17,54.44,31.24,54.66z"/>
	<path class="st7" d="M31.74,56.06c-0.08-0.22-0.17-0.43-0.24-0.65C31.57,55.63,31.66,55.84,31.74,56.06z"/>
	<path class="st7" d="M73.43,73.24c-0.72,0.32-1.44,0.62-2.19,0.89C71.99,73.87,72.71,73.57,73.43,73.24z"/>
	<path class="st7" d="M71.09,74.19c-0.73,0.26-1.47,0.49-2.22,0.69C69.62,74.68,70.36,74.45,71.09,74.19z"/>
	<path class="st7" d="M68.62,74.95c-0.75,0.2-1.51,0.36-2.29,0.5C67.1,75.32,67.87,75.15,68.62,74.95z"/>
	<path class="st7" d="M65.9,75.53c-0.76,0.13-1.54,0.23-2.32,0.3C64.36,75.77,65.14,75.66,65.9,75.53z"/>
	<path class="st7" d="M75.81,72.04c-0.67,0.38-1.36,0.73-2.07,1.05C74.45,72.77,75.14,72.42,75.81,72.04z"/>
	<path class="st7" d="M86.95,61.48c-1.36,2.15-2.97,4.12-4.8,5.87C83.98,65.6,85.59,63.63,86.95,61.48z"/>
	<path class="st7" d="M82.02,67.48c-0.59,0.56-1.2,1.09-1.83,1.6C80.82,68.57,81.43,68.03,82.02,67.48z"/>
	<path class="st7" d="M63.19,75.87c-0.82,0.07-1.65,0.11-2.49,0.11C61.54,75.98,62.37,75.93,63.19,75.87z"/>
	<path class="st7" d="M56.12,75.64c-0.21-0.03-0.42-0.07-0.63-0.11C55.7,75.57,55.91,75.61,56.12,75.64z"/>
	<polygon class="st7" points="60.7,75.98 60.7,75.98 60.7,75.98 	"/>
	<path class="st7" d="M48.96,73.67c-0.21-0.08-0.41-0.17-0.62-0.26C48.55,73.5,48.76,73.59,48.96,73.67z"/>
	<path class="st7" d="M51.74,74.66c-0.21-0.06-0.42-0.13-0.63-0.2C51.32,74.52,51.53,74.59,51.74,74.66z"/>
	<path class="st7" d="M47.62,73.08c-0.2-0.09-0.4-0.19-0.6-0.28C47.22,72.89,47.42,72.99,47.62,73.08z"/>
	<path class="st7" d="M50.34,74.2c-0.21-0.07-0.42-0.15-0.63-0.23C49.92,74.04,50.13,74.12,50.34,74.2z"/>
	<path class="st7" d="M59.15,75.94c-0.17-0.01-0.34-0.03-0.51-0.04C58.81,75.91,58.98,75.93,59.15,75.94z"/>
	<path class="st7" d="M54.63,75.38c-0.22-0.04-0.43-0.09-0.64-0.14C54.21,75.29,54.42,75.34,54.63,75.38z"/>
	<path class="st7" d="M46.3,72.43c-0.19-0.1-0.39-0.2-0.58-0.31C45.92,72.23,46.11,72.33,46.3,72.43z"/>
	<path class="st7" d="M53.17,75.05c-0.22-0.05-0.43-0.11-0.64-0.17C52.75,74.94,52.96,75,53.17,75.05z"/>
	<path class="st4" d="M37.38,39.93l-0.02,0c-0.01,0.44-0.16,0.88-0.52,1.24l-6.99,6.99l-2.58,2.58c-1.54,1.54-4.03,1.54-5.57,0
		l-3.33-3.33l-0.22-0.22l-6.01-6.01c-0.42-0.42-0.57-0.95-0.53-1.45l-0.01,0c0,0-0.36,2.41,0.54,3.31l6.01,6.01l0.15,0.15l0.37,0.37
		l3.03,3.03c1.54,1.54,4.03,1.54,5.57,0l2.58-2.58l0.21-0.21c-0.01-0.05-0.02-0.11-0.03-0.16c0-0.01,0-0.01,0-0.02
		c0.01,0.06,0.02,0.12,0.03,0.18l6.77-6.77C37.69,42.17,37.38,39.93,37.38,39.93z"/>
	<path class="st7" d="M30.04,49.64c0.01,0.05,0.02,0.11,0.03,0.16l0,0C30.06,49.74,30.05,49.69,30.04,49.64z"/>
</g>
<g>
</g>
<g>
</g>
<g>
</g>
<g>
</g>
<g>
</g>
<g>
</g>
</svg>
