<?xml version="1.0" encoding="utf-8"?>
<!-- Generator: Adobe Illustrator 24.2.1, SVG Export Plug-In . SVG Version: 6.00 Build 0)  -->
<svg version="1.1" id="Capa_1" xmlns="http://www.w3.org/2000/svg" xmlns:xlink="http://www.w3.org/1999/xlink" x="0px" y="0px"
	 viewBox="0 0 75 75" style="enable-background:new 0 0 75 75;" xml:space="preserve">
<style type="text/css">
	.st0{fill:#00C0F3;}
	.st1{fill:none;}
</style>
<g>
	<g>
		<g>
			<path class="st0" d="M66.5,65.5h-4v-28c0-1.7-1.3-3-3-3v-6c0-1.7-1.3-3-3-3v-6c0-1.7-1.3-3-3-3v-6c0-1.7-1.3-3-3-3h-26
				c-1.7,0-3,1.3-3,3v6c-1.7,0-3,1.3-3,3v6c-1.7,0-3,1.3-3,3v6c-1.7,0-3,1.3-3,3v28h-4c-0.6,0-1,0.4-1,1c0,0.6,0.4,1,1,1h58
				c0.6,0,1-0.4,1-1C67.5,65.9,67.1,65.5,66.5,65.5z M23.5,10.5c0-0.6,0.4-1,1-1h26c0.6,0,1,0.4,1,1v6H36.4c-0.5-2.3-2.5-4-4.9-4
				s-4.4,1.7-4.9,4h-3.1L23.5,10.5L23.5,10.5z M34.3,16.5h-5.6c0.4-1.2,1.5-2,2.8-2C32.8,14.5,33.9,15.3,34.3,16.5z M20.5,19.5
				c0-0.6,0.4-1,1-1h32c0.6,0,1,0.4,1,1v6H33.4c-0.5-2.3-2.5-4-4.9-4s-4.4,1.7-4.9,4h-3.1L20.5,19.5L20.5,19.5z M31.3,25.5h-5.6
				c0.4-1.2,1.5-2,2.8-2C29.8,23.5,30.9,24.3,31.3,25.5z M17.5,28.5c0-0.6,0.4-1,1-1h38c0.6,0,1,0.4,1,1v6H30.4
				c-0.5-2.3-2.5-4-4.9-4s-4.4,1.7-4.9,4h-3.1V28.5z M28.3,34.5h-5.6c0.4-1.2,1.5-2,2.8-2S27.9,33.3,28.3,34.5z M60.5,65.5h-46v-28
				c0-0.6,0.4-1,1-1h44c0.6,0,1,0.4,1,1L60.5,65.5L60.5,65.5z"/>
			<path class="st0" d="M24.5,52.5c3.3,0,6-2.7,6-6c0-3.3-2.7-6-6-6s-6,2.7-6,6C18.5,49.8,21.2,52.5,24.5,52.5z M24.5,42.5
				c2.2,0,4,1.8,4,4c0,2.2-1.8,4-4,4s-4-1.8-4-4C20.5,44.3,22.3,42.5,24.5,42.5z"/>
			<path class="st0" d="M55.5,40.5h-21c-0.6,0-1,0.4-1,1s0.4,1,1,1h21c0.6,0,1-0.4,1-1S56.1,40.5,55.5,40.5z"/>
			<path class="st0" d="M55.5,45.5h-21c-0.6,0-1,0.4-1,1c0,0.6,0.4,1,1,1h21c0.6,0,1-0.4,1-1C56.5,45.9,56.1,45.5,55.5,45.5z"/>
			<path class="st0" d="M55.5,50.5h-21c-0.6,0-1,0.4-1,1s0.4,1,1,1h21c0.6,0,1-0.4,1-1S56.1,50.5,55.5,50.5z"/>
			<path class="st0" d="M55.5,55.5h-36c-0.6,0-1,0.4-1,1c0,0.6,0.4,1,1,1h36c0.6,0,1-0.4,1-1C56.5,55.9,56.1,55.5,55.5,55.5z"/>
			<path class="st0" d="M55.5,60.5h-36c-0.6,0-1,0.4-1,1s0.4,1,1,1h36c0.6,0,1-0.4,1-1S56.1,60.5,55.5,60.5z"/>
		</g>
	</g>
</g>
<rect class="st1" width="75" height="75"/>
</svg>
