<?xml version="1.0" encoding="utf-8"?>
<!-- Generator: Adobe Illustrator 24.1.3, SVG Export Plug-In . SVG Version: 6.00 Build 0)  -->
<svg version="1.1" id="Capa_1" xmlns="http://www.w3.org/2000/svg" xmlns:xlink="http://www.w3.org/1999/xlink" x="0px" y="0px"
	 viewBox="0 0 75 75" style="enable-background:new 0 0 75 75;" xml:space="preserve">
<style type="text/css">
	.st0{fill:#00C0F3;}
	.st1{fill:none;}
</style>
<g>
	<g>
		<path class="st0" d="M20.8,32.8C20,33,19.4,33,18.8,33s-1.1-0.1-1.4-0.2c-0.4-0.1-0.6-0.4-0.8-0.7c-0.2-0.3-0.3-0.7-0.4-1.1
			s-0.1-1-0.1-1.7c0-1.4,0.2-2.4,0.6-2.9s1.1-0.8,2.2-0.8c0.6,0,1.3,0.1,2.1,0.3v1.2c-0.7-0.1-1.3-0.2-1.7-0.2c-0.5,0-0.8,0.1-1,0.2
			s-0.3,0.4-0.4,0.7c-0.1,0.3-0.1,0.9-0.1,1.8c0,0.8,0.1,1.4,0.3,1.7c0.2,0.3,0.6,0.5,1.2,0.5s1.2,0,1.9-0.1L20.8,32.8z"/>
		<path class="st0" d="M22,32.9v-7.2h4.6V27h-3.1v2H26v1.3h-2.6v2.5L22,32.9L22,32.9z"/>
		<path class="st0" d="M30,32.9h-2.4v-7.2H30c0.6,0,1.1,0.1,1.5,0.2s0.7,0.3,0.9,0.6c0.2,0.3,0.4,0.7,0.5,1.1s0.1,0.9,0.1,1.6
			s0,1.2-0.1,1.6s-0.2,0.8-0.4,1.1s-0.5,0.6-0.9,0.7S30.7,32.9,30,32.9z M31.6,30c0-0.2,0-0.5,0-0.9s0-0.7,0-1
			c0-0.2-0.1-0.5-0.2-0.7s-0.3-0.3-0.5-0.4s-0.5-0.1-0.8-0.1h-1v4.7h1c0.5,0,0.9-0.1,1.2-0.4C31.4,31,31.5,30.6,31.6,30z"/>
		<path class="st0" d="M34.4,32.9v-7.2h1.5v7.2H34.4z"/>
	</g>
	<path class="st0" d="M16.9,56.7L16.9,56.7c-2.3,0-4.2-1.9-4.2-4.2V14.3c0-2.4,1.9-4.3,4.2-4.3h18.9v7.9c0,3,2.5,5.5,5.5,5.5h7.3
		v9.8c0.9,0,1.7,0.2,2.5,0.3V22.1c0-0.3-0.2-0.6-0.4-0.9L38,7.9c-0.2-0.2-0.6-0.4-0.9-0.4H16.9c-3.7,0-6.7,3-6.7,6.8v38.2
		c0,3.7,3,6.7,6.7,6.7h15.9c-0.5-0.8-0.9-1.6-1.2-2.5H16.9L16.9,56.7z M38.3,11.9l8.5,9h-5.5c-1.7,0-3-1.4-3-3V11.9L38.3,11.9z"/>
	<path class="st0" d="M47.6,67.5c9.5,0,17.2-7.7,17.2-17.2c0-2.2-0.4-4.3-1.2-6.3c0,0,0,0,0-0.1s-0.1-0.2-0.1-0.3s-0.1-0.2-0.1-0.2
		v-0.1c-2.2-5-6.8-8.8-12.2-9.9l0,0c-0.8-0.2-1.6-0.3-2.5-0.3l0,0c-0.2,0-0.4,0-0.5,0c-0.2,0-0.3,0-0.5,0c-1.5,0-2.9,0.2-4.3,0.5
		c0,0,0,0-0.1,0h-0.1c-1.6,0.4-3.1,1.1-4.5,1.9c-2.1,1.3-3.8,2.9-5.2,4.9c-0.7,1-1.2,2-1.7,3.1c-0.7,1.8-1.2,3.7-1.3,5.7v0.1
		c0,0.1,0,0.2,0,0.3s0,0.3,0,0.4v0.1c0,0.1,0,0.2,0,0.3s0,0.1,0,0.2c0,0.1,0,0.3,0,0.4l0,0c0,0.1,0,0.3,0,0.4l0,0c0,0.1,0,0.3,0,0.4
		c0,0,0,0,0,0.1s0,0.2,0,0.3v0.1c0,0.1,0,0.2,0,0.3s0,0.1,0,0.2c0,0.1,0,0.1,0,0.2c0,0.1,0,0.2,0,0.3v0.1c0,0.1,0,0.2,0.1,0.4l0,0
		c0.1,0.4,0.2,0.8,0.3,1.2l0,0c0,0.1,0.1,0.2,0.1,0.3s0,0.2,0.1,0.2l0,0c0.1,0.4,0.3,0.7,0.4,1.1l0,0c0.3,0.9,0.8,1.7,1.2,2.5l0,0
		C35.9,64.1,41.3,67.5,47.6,67.5z M47.6,35.6c8.1,0,14.7,6.6,14.7,14.7S55.7,65,47.6,65s-14.7-6.6-14.7-14.7S39.5,35.6,47.6,35.6z"
		/>
	<path class="st0" d="M54,50l-5.1,5.5V41.9c0-0.7-0.6-1.3-1.3-1.3s-1.3,0.6-1.3,1.3v13.7L41.2,50c-0.5-0.5-1.3-0.5-1.8-0.1
		c-0.5,0.5-0.5,1.3-0.1,1.8l7.3,7.9c0.2,0.2,0.6,0.4,0.9,0.4c0.4,0,0.7-0.2,0.9-0.4l7.3-7.9c0.5-0.5,0.5-1.3-0.1-1.8
		C55.3,49.5,54.5,49.5,54,50z"/>
</g>
<rect class="st1" width="75" height="75"/>
</svg>
