<svg id="Group_2042" data-name="Group 2042" xmlns="http://www.w3.org/2000/svg" xmlns:xlink="http://www.w3.org/1999/xlink" width="81.787" height="81.736" viewBox="0 0 81.787 81.736">
  <defs>
    <clipPath id="clip-path">
      <rect id="Rectángulo_1959" data-name="Rectángulo 1959" width="81.787" height="81.736" fill="#432aca"/>
    </clipPath>
  </defs>
  <g id="Grupo_2133" data-name="Grupo 2133" transform="translate(0)">
    <g id="Grupo_2132" data-name="Grupo 2132" clip-path="url(#clip-path)">
      <g id="Group_2025-2" data-name="Group 2025-2" transform="translate(0 0)">
        <path id="Path_3477" data-name="Path 3477" d="M626.76-306.944l-1.306-9.234a2.4,2.4,0,0,0-2.718-2.042,2.4,2.4,0,0,0-2.042,2.719l.29,2.068a36.136,36.136,0,0,1-5.857-10.339c-9.745-26.641,13.787-53.51,41.224-47.658a2.4,2.4,0,0,0,2.811-1.91,2.4,2.4,0,0,0-1.811-2.79c-30.977-6.61-57.849,23.633-46.738,54.01a40.945,40.945,0,0,0,6.626,11.693l-2.32-.446a2.4,2.4,0,0,0-2.846,1.859,2.4,2.4,0,0,0,1.859,2.847l.081.015,9.709,1.866a2.417,2.417,0,0,0,2.974-1.684,2.409,2.409,0,0,0,.065-.974" transform="translate(-608.056 377.048)" fill="#432aca"/>
        <path id="Path_3478" data-name="Path 3478" d="M684.59-351.013a40.944,40.944,0,0,0-6.624-11.694l2.32.446a2.4,2.4,0,0,0,2.843-1.864,2.4,2.4,0,0,0-1.865-2.843c-.023,0-.046-.01-.07-.013l-9.715-1.866a2.417,2.417,0,0,0-2.971,1.688,2.429,2.429,0,0,0-.065.97l1.306,9.23a2.4,2.4,0,0,0,2.689,2.081,2.4,2.4,0,0,0,2.08-2.689l-.01-.068-.29-2.068a36.085,36.085,0,0,1-5.3,50.755,36.08,36.08,0,0,1-10.239,5.827,35.8,35.8,0,0,1-19.83,1.421,2.4,2.4,0,0,0-2.826,1.889A2.4,2.4,0,0,0,637.848-297a40.807,40.807,0,0,0,48.369-31.478,40.809,40.809,0,0,0-1.627-22.536" transform="translate(-605.307 377.847)" fill="#432aca"/>
        <path id="Path_3479" data-name="Path 3479" d="M672.46-337.488a24.918,24.918,0,0,0-24.96-24.876,24.918,24.918,0,0,0-24.876,24.96,24.917,24.917,0,0,0,24.917,24.876,24.966,24.966,0,0,0,24.919-24.96m-45.028,0a20.109,20.109,0,0,1,20.152-20.066A20.108,20.108,0,0,1,667.65-337.4a20.11,20.11,0,0,1-20.11,20.067,20.154,20.154,0,0,1-20.11-20.153" transform="translate(-606.622 378.494)" fill="#432aca"/>
        <path id="Path_3480-2" data-name="Path 3480-2" d="M648.559-324.79V-326.8a6.949,6.949,0,0,0,7.064-6.832,6.948,6.948,0,0,0-6.832-7.064H643.63a2.143,2.143,0,0,1-2.126-2.158,2.144,2.144,0,0,1,2.16-2.126H648.5a3.242,3.242,0,0,1,2.307,1.051,2.4,2.4,0,0,0,3.4.112,2.4,2.4,0,0,0,.112-3.4,8.06,8.06,0,0,0-5.756-2.573v-2.007a2.4,2.4,0,0,0-2.406-2.4,2.4,2.4,0,0,0-2.4,2.4v2.007a6.949,6.949,0,0,0-7.064,6.833,6.95,6.95,0,0,0,6.834,7.064h5.161a2.142,2.142,0,0,1,2.14,2.143,2.143,2.143,0,0,1-2.14,2.141h-5.317a3.268,3.268,0,0,1-1.795-.612,2.4,2.4,0,0,0-3.346.6,2.4,2.4,0,0,0,.6,3.346,8.017,8.017,0,0,0,4.92,1.471v2.007a2.4,2.4,0,0,0,2.4,2.406,2.4,2.4,0,0,0,2.4-2.4v0" transform="translate(-605.237 379.299)" fill="#432aca"/>
      </g>
    </g>
  </g>
</svg>
