<svg xmlns="http://www.w3.org/2000/svg" width="68.836" height="91.901" viewBox="0 0 68.836 91.901">
  <path id="Trazado_11703" data-name="Trazado 11703" d="M574.676-362.41a5.869,5.869,0,0,0-4.049-1.733c-.046,0-.092,0-.138,0h-7.135c-.383-4.279-3.974-7.883-8.042-7.883H517.982a8.09,8.09,0,0,0-8.079,8.079v3.264c-.016,0-.033,0-.051,0a2.281,2.281,0,0,0-2.281,2.282V-352a2.282,2.282,0,0,0,2.281,2.282c.018,0,.034,0,.051-.005v4.078c-.016,0-.033-.005-.051-.005a2.282,2.282,0,0,0-2.281,2.282v1.945a2.282,2.282,0,0,0,2.281,2.282c.018,0,.034,0,.051-.005v50.945a8.089,8.089,0,0,0,8.08,8.079h37.329a8.089,8.089,0,0,0,8.08-8.079v-40.223h7.1a5.872,5.872,0,0,0,4.176-1.728,5.874,5.874,0,0,0,1.737-4.185v-23.881A5.868,5.868,0,0,0,574.676-362.41Zm-15.847,74.2a3.52,3.52,0,0,1-3.516,3.516H517.983a3.52,3.52,0,0,1-3.516-3.516v-75.742a3.522,3.522,0,0,1,3.516-3.516h37.328a3.934,3.934,0,0,1,3.442,3.32h-17.08a5.926,5.926,0,0,0-5.917,5.916v23.882a5.88,5.88,0,0,0,1.732,4.184,5.872,5.872,0,0,0,3.447,1.688v4.228a2.28,2.28,0,0,0,1.29,2.055,2.273,2.273,0,0,0,.992.226,2.281,2.281,0,0,0,1.419-.494l7.511-5.97h6.682Zm13.015-46.136a1.339,1.339,0,0,1-.4.955,1.343,1.343,0,0,1-.957.4H551.352a2.278,2.278,0,0,0-1.419.5l-4.433,3.523v-1.737a2.282,2.282,0,0,0-2.283-2.282h-1.544a1.348,1.348,0,0,1-.957-.4,1.343,1.343,0,0,1-.4-.957V-358.23a1.355,1.355,0,0,1,1.353-1.353h28.71a1.552,1.552,0,0,1,1.065.4,1.346,1.346,0,0,1,.4.958Z" transform="translate(-507.571 372.03)" fill="#432aca"/>
</svg>
