<svg id="Grupo_2131" data-name="Grupo 2131" xmlns="http://www.w3.org/2000/svg" xmlns:xlink="http://www.w3.org/1999/xlink" width="95.67" height="95.671" viewBox="0 0 95.67 95.671">
  <defs>
    <clipPath id="clip-path">
      <rect id="Rectángulo_1958" data-name="Rectángulo 1958" width="95.67" height="95.671" fill="#432aca"/>
    </clipPath>
  </defs>
  <g id="Grupo_2130" data-name="Grupo 2130" clip-path="url(#clip-path)">
    <g id="Group_2027" data-name="Group 2027" transform="translate(0 -0.003)">
      <path id="Path_3481" data-name="Path 3481" d="M604.149-401.6a2.217,2.217,0,0,0-2.216,2.218,2.217,2.217,0,0,0,2.218,2.216,2.216,2.216,0,0,0,2.216-2.217,2.22,2.22,0,0,0-2.218-2.217" transform="translate(-592.809 486.753)" fill="#432aca"/>
      <path id="Path_3482" data-name="Path 3482" d="M609.979-401.6a2.217,2.217,0,0,0-2.217,2.217,2.217,2.217,0,0,0,2.217,2.217,2.217,2.217,0,0,0,2.217-2.217h0a2.22,2.22,0,0,0-2.217-2.217" transform="translate(-592.557 486.753)" fill="#432aca"/>
      <path id="Path_3483" data-name="Path 3483" d="M615.809-401.6a2.217,2.217,0,0,0-2.217,2.217,2.216,2.216,0,0,0,2.217,2.217,2.216,2.216,0,0,0,2.217-2.217h0a2.221,2.221,0,0,0-2.217-2.217" transform="translate(-592.304 486.753)" fill="#432aca"/>
      <path id="Path_3484" data-name="Path 3484" d="M685.818-404.079v-49.549a8.309,8.309,0,0,0-8.3-8.3h-3.877a21.986,21.986,0,0,0-22.669-21.28,21.986,21.986,0,0,0-21.28,21.28H604.528a8.309,8.309,0,0,0-8.3,8.3v49.549a3.744,3.744,0,0,0-3.04,3.672v4.562a8.309,8.309,0,0,0,8.3,8.3h79.071a8.308,8.308,0,0,0,8.3-8.3v-4.562a3.745,3.745,0,0,0-3.04-3.672m-49.354-65.887a17.5,17.5,0,0,1,23.878-6.509A17.538,17.538,0,0,1,662.4-475.1L651.151-463.85Zm17.593,70.256h9.6a2.174,2.174,0,0,0,2.172-2.172v-.089a2.175,2.175,0,0,0-2.172-2.172H652.269l-.648.65a8.106,8.106,0,0,1-5.774,2.385h-9.664a8.076,8.076,0,0,1-5.759-2.389l-.648-.652H600.662v-49.48a3.87,3.87,0,0,1,3.865-3.865h25.5a20.9,20.9,0,0,0,.6,2.6l1.208,3.088a21.937,21.937,0,0,0,29.209,10.456,21.937,21.937,0,0,0,10.478-10.5l1.205-3.1a21.382,21.382,0,0,0,.582-2.544h4.21a3.87,3.87,0,0,1,3.865,3.865v49.484h-6.051a2.172,2.172,0,0,0-2.169,2.174,2.209,2.209,0,0,0,.017.263l.01.088a2.167,2.167,0,0,0,2.154,1.908h9.077v3.867a3.869,3.869,0,0,1-3.865,3.865H601.487a3.87,3.87,0,0,1-3.866-3.866v-3.864H627.99a12.556,12.556,0,0,0,8.211,3.042h9.645a12.556,12.556,0,0,0,8.211-3.042m5.217-45.71L654.2-460.633l11.328-11.33a17.514,17.514,0,0,1-3.081,24.576,17.5,17.5,0,0,1-3.179,1.966m-7.607,1.74a17.527,17.527,0,0,1-17.551-17.5,17.551,17.551,0,0,1,.634-4.7l15.134,6.307,5.182,15.545a17.135,17.135,0,0,1-3.4.349" transform="translate(-593.188 483.219)" fill="#432aca"/>
      <path id="Path_3485" data-name="Path 3485" d="M673.021-428.348a5.259,5.259,0,0,0-5.258-5.258,5.258,5.258,0,0,0-5.258,5.258,4.717,4.717,0,0,0,.07.8L656.8-423.7a5.224,5.224,0,0,0-5.447,0l-5.774-3.849a4.717,4.717,0,0,0,.07-.8,5.258,5.258,0,0,0-5.261-5.254,5.257,5.257,0,0,0-5.255,5.254,4.906,4.906,0,0,0,.162,1.237l-7.783,6.227a5.258,5.258,0,0,0-4.811.068l-4.547-3.413a4.808,4.808,0,0,0,.128-1.079,5.265,5.265,0,0,0-5.258-5.272,5.265,5.265,0,0,0-5.273,5.258,5.266,5.266,0,0,0,5.258,5.273,5.271,5.271,0,0,0,2.5-.627l4.552,3.413a4.808,4.808,0,0,0-.128,1.079,5.258,5.258,0,0,0,5.258,5.258,5.258,5.258,0,0,0,5.258-5.258,4.917,4.917,0,0,0-.163-1.238l7.783-6.226a5.214,5.214,0,0,0,5.052-.221l5.775,3.85a4.626,4.626,0,0,0-.071.794,5.258,5.258,0,0,0,5.258,5.258,5.258,5.258,0,0,0,5.258-5.258,4.712,4.712,0,0,0-.07-.794l5.774-3.85a5.153,5.153,0,0,0,2.724.778,5.264,5.264,0,0,0,5.258-5.258" transform="translate(-592.557 485.367)" fill="#432aca"/>
      <path id="Path_3486" data-name="Path 3486" d="M608.4-447.385h9.124a2.216,2.216,0,0,0,2.217-2.217,2.217,2.217,0,0,0-2.217-2.217H608.4a2.217,2.217,0,0,0-2.217,2.217,2.216,2.216,0,0,0,2.217,2.217" transform="translate(-592.625 484.578)" fill="#432aca"/>
      <path id="Path_3487" data-name="Path 3487" d="M617.526-440.888a2.216,2.216,0,0,0,2.217-2.217,2.217,2.217,0,0,0-2.217-2.217H608.4a2.217,2.217,0,0,0-2.217,2.217,2.216,2.216,0,0,0,2.217,2.217Z" transform="translate(-592.625 484.86)" fill="#432aca"/>
    </g>
  </g>
</svg>
