<svg xmlns="http://www.w3.org/2000/svg" width="332.621" height="134.592" viewBox="0 0 332.621 134.592">
    <defs>
        <style>
            .cls-1{fill:#fff}.cls-2{fill:#291289}
        </style>
    </defs>
    <g id="wopen_pos_blanco" transform="translate(-11 -37.3)">
        <path id="Path_8936" d="M97.9 65.385l-9.588-.085L69.4 92.948l1.951 2.8a5.272 5.272 0 0 0 8.651 0L99.422 68.1a1.813 1.813 0 0 0-1.522-2.715" class="cls-1" transform="translate(-8.872 -4.253)"/>
        <path id="Path_8937" d="M135.154 74.453a.931.931 0 0 1 1.7.339l4.156 16.029q.127.254.254.254t.254-.254l5.173-25.1a1.2 1.2 0 0 1 1.269-1.021h11.195a1.2 1.2 0 0 1 1.272 1.018l5.767 25.1c.085.17.17.339.254.339s.17-.085.254-.339l5.767-25.1a1.2 1.2 0 0 1 1.272-1.018h13.145a.893.893 0 0 1 .848.339.91.91 0 0 1 .085.933l-13.739 51.564a1.2 1.2 0 0 1-1.272 1.018h-12.3a1.151 1.151 0 0 1-1.272-1.018l-5.513-26.46q-.127-.254-.254-.254t-.254.254l-4.834 26.376a1.275 1.275 0 0 1-1.272 1.1h-11.447a1.433 1.433 0 0 1-.848-.254.891.891 0 0 1-.424-.763l-8.311-28.157a3.369 3.369 0 0 1 .424-2.714z" class="cls-1" transform="translate(-17.464 -4.162)"/>
        <path id="Path_8938" d="M203.978 117.616a18.15 18.15 0 0 1-6.615-10.6 23.351 23.351 0 0 1-.763-6.191 24.466 24.466 0 0 1 .933-6.87 18.339 18.339 0 0 1 6.785-10.007 19.787 19.787 0 0 1 12.127-3.648 19.362 19.362 0 0 1 12.043 3.647 18.616 18.616 0 0 1 6.7 9.923 25.372 25.372 0 0 1 .933 6.87 27.415 27.415 0 0 1-.594 5.852 20.175 20.175 0 0 1-31.549 11.025m15.52-9.753a7.762 7.762 0 0 0 1.7-3.562 19.268 19.268 0 0 0 .339-3.477 17.023 17.023 0 0 0-.424-3.562q-1.145-4.58-4.834-4.58-3.816 0-4.834 4.58a12.718 12.718 0 0 0-.424 3.562 14.209 14.209 0 0 0 .339 3.477c.763 3.308 2.375 4.919 4.919 4.919a4.528 4.528 0 0 0 3.223-1.357" class="cls-1" transform="translate(-28.194 -6.532)"/>
        <path id="Path_8939" d="M288.5 101.078a27.163 27.163 0 0 1-1.7 9.838 17.3 17.3 0 0 1-5.767 7.633 15.385 15.385 0 0 1-9.414 2.968c-3.732 0-6.53-1.187-8.311-3.562-.085-.085-.17-.17-.339-.085-.085 0-.17.085-.17.254v15.436a.983.983 0 0 1-.339.848 1.3 1.3 0 0 1-.848.339h-12.125a.983.983 0 0 1-.848-.339 1.3 1.3 0 0 1-.339-.848V82.081a.983.983 0 0 1 .339-.848 1.3 1.3 0 0 1 .848-.339h12.128a.983.983 0 0 1 .848.339 1.3 1.3 0 0 1 .339.848v2.29a.441.441 0 0 0 .17.339c.085.085.17 0 .339-.17 1.866-2.8 4.834-4.24 8.9-4.24a14.208 14.208 0 0 1 9.244 3.308 17.588 17.588 0 0 1 5.767 8.9 27.123 27.123 0 0 1 1.272 8.566m-15.181-.254a11.913 11.913 0 0 0-1.187-5.6 4.42 4.42 0 0 0-4.071-2.544 4.363 4.363 0 0 0-4.071 2.629 11.789 11.789 0 0 0-1.187 5.513 12.087 12.087 0 0 0 1.272 5.937 4.373 4.373 0 0 0 3.986 2.375 4.255 4.255 0 0 0 4.071-2.544 12.413 12.413 0 0 0 1.187-5.767" class="cls-1" transform="translate(-36.048 -6.532)"/>
        <path id="Path_8940" d="M339.136 101.587a12.583 12.583 0 0 1-.085 1.951 1.05 1.05 0 0 1-1.187 1.1H314.8a.311.311 0 0 0-.339.339 2.912 2.912 0 0 0 .594 1.611 6.083 6.083 0 0 0 2.714 2.205 10.5 10.5 0 0 0 4.41.848 11.251 11.251 0 0 0 3.816-.594 7.929 7.929 0 0 0 2.968-1.781 1.524 1.524 0 0 1 .763-.339 1.044 1.044 0 0 1 .848.424l5.852 7.463a1.507 1.507 0 0 1 .339.848.891.891 0 0 1-.424.763 15.93 15.93 0 0 1-6.7 3.9 28.05 28.05 0 0 1-8.651 1.272 24.116 24.116 0 0 1-12.212-2.968 17.374 17.374 0 0 1-7.378-8.566 22.163 22.163 0 0 1-1.7-8.651 25.034 25.034 0 0 1 1.357-8.651 17.873 17.873 0 0 1 6.87-9.159 19.156 19.156 0 0 1 11.194-3.302 18.263 18.263 0 0 1 9.075 2.29 19.944 19.944 0 0 1 6.954 6.361 22.636 22.636 0 0 1 3.477 9.159 9.614 9.614 0 0 1 .509 3.477m-24.255-5.852l-.339.848c-.085.17 0 .254.085.339s.17.085.339.085h8.734a.311.311 0 0 0 .339-.339 4.166 4.166 0 0 0-.254-1.018 3.966 3.966 0 0 0-1.611-2.29 5.336 5.336 0 0 0-2.968-.848 4.809 4.809 0 0 0-4.325 3.223" class="cls-1" transform="translate(-43.856 -6.532)"/>
        <path id="Path_8941" d="M381.64 82.01a12.7 12.7 0 0 1 4.919 5 15.958 15.958 0 0 1 1.781 7.718v25.1a.983.983 0 0 1-.339.848 1.3 1.3 0 0 1-.848.339h-12.128a.983.983 0 0 1-.848-.339 1.3 1.3 0 0 1-.339-.848V97.869a5.782 5.782 0 0 0-1.187-3.732 3.948 3.948 0 0 0-3.138-1.442 4.12 4.12 0 0 0-3.223 1.442 5.782 5.782 0 0 0-1.187 3.732v21.966a.983.983 0 0 1-.339.848 1.3 1.3 0 0 1-.848.339h-12.129a.983.983 0 0 1-.848-.339 1.3 1.3 0 0 1-.339-.848v-37.74a.983.983 0 0 1 .339-.848 1.3 1.3 0 0 1 .848-.339h12.128a.983.983 0 0 1 .848.339 1.3 1.3 0 0 1 .339.848v2.8a.648.648 0 0 0 .17.424c.085.085.17 0 .254-.17 1.951-3.223 5-4.749 9.159-4.749a13.8 13.8 0 0 1 6.954 1.611" class="cls-1" transform="translate(-51.588 -6.546)"/>
        <path id="Path_8942" d="M68.379 56.212L57.184 40.1a6.594 6.594 0 0 0-5.258-2.8H30.3l6.785 9.923 11.449.085 8.311 11.873h9.923a1.917 1.917 0 0 0 1.611-2.968" class="cls-1" transform="translate(-2.932)"/>
        <path id="Path_8943" d="M73.095 120.6a5.6 5.6 0 1 1-5.6-5.6 5.647 5.647 0 0 1 5.6 5.6" class="cls-1" transform="translate(-7.732 -11.803)"/>
        <path id="Path_8944" d="M106.695 120.6a5.6 5.6 0 1 1-5.6-5.6 5.647 5.647 0 0 1 5.6 5.6" class="cls-1" transform="translate(-12.836 -11.803)"/>
        <path id="Path_8945" d="M49.4 65.385l8.142 11.11h16.792l6.106-8.9a1.454 1.454 0 0 0-1.187-2.29H49.4z" class="cls-1" transform="translate(-5.833 -4.253)"/>
        <path id="Path_8946" d="M62.394 91.508l-1.951-2.8L24.569 37.4H11l42.32 60.3a8.165 8.165 0 0 0 13.4 0l4.325-6.191a5.315 5.315 0 0 1-8.651 0" class="cls-1" transform="translate(0 -.015)"/>
        <path id="Path_8948" d="M102.02 99.821L99.815 96.6 93.2 87.1l-6.7 9.668 5.937 8.481a8.165 8.165 0 0 0 13.4 0l3.816-5.428a4.679 4.679 0 0 1-7.633 0" class="cls-1" transform="translate(-11.469 -7.565)"/>
        <path id="Path_8949" d="M130.344 65.4h-21.457L101 76.51h12.637L102.1 93.3l2.205 3.223a4.6 4.6 0 0 0 7.548 0l19.93-28.411a1.794 1.794 0 0 0-1.442-2.714" class="cls-1" transform="translate(-13.672 -4.269)"/>
        <path id="Path_8950" d="M317.871 147.4h49.444a20.269 20.269 0 1 1 0 40.539h-39.86c-16.283 0-26.885-11.449-26.885-25.443l-.17-18.658a.917.917 0 0 1 1.442-.763c2.29 1.7 7.294 4.325 16.029 4.325" class="cls-1" transform="translate(-43.963 -16.042)"/>
        <path id="Path_8951" d="M333.766 158.372a7.058 7.058 0 0 1 2.884 2.8 8.381 8.381 0 0 1 1.018 4.156 7.335 7.335 0 0 1-1.1 4.071 6.384 6.384 0 0 1-3.053 2.714 9.482 9.482 0 0 1-4.495.933h-3.65a.182.182 0 0 0-.17.17v7.8c0 .17-.085.254-.17.424a.648.648 0 0 1-.424.17h-5.513c-.17 0-.254-.085-.424-.17a.648.648 0 0 1-.17-.424v-23.322c0-.17.085-.254.17-.424a.648.648 0 0 1 .424-.17h10.177a14.908 14.908 0 0 1 4.495 1.272m-3.308 8.99a2.19 2.19 0 0 0 .763-1.781 2.494 2.494 0 0 0-.763-1.866 3.1 3.1 0 0 0-2.035-.678h-2.884a.182.182 0 0 0-.17.17v4.664a.182.182 0 0 0 .17.17h2.884a3.265 3.265 0 0 0 2.035-.678" class="cls-2" transform="translate(-46.712 -18.199)"/>
        <path id="Path_8952" d="M347.78 181.016a7.979 7.979 0 0 1-3.392-3.308 9.4 9.4 0 0 1-1.187-4.919v-6.445a10.2 10.2 0 0 1 1.187-4.834 8.853 8.853 0 0 1 3.392-3.223 11.5 11.5 0 0 1 10.177 0 8.3 8.3 0 0 1 3.392 3.223 9.716 9.716 0 0 1 1.187 4.834v6.53a10.289 10.289 0 0 1-1.187 4.919 9.071 9.071 0 0 1-3.392 3.308 10.984 10.984 0 0 1-5.089 1.187 11.853 11.853 0 0 1-5.089-1.272m7.463-5.428a3.7 3.7 0 0 0 .848-2.544v-6.785a3.426 3.426 0 0 0-.848-2.544 2.9 2.9 0 0 0-2.375-.933 3.132 3.132 0 0 0-2.29.933 3.7 3.7 0 0 0-.848 2.544v6.785a3.426 3.426 0 0 0 .848 2.544 2.835 2.835 0 0 0 2.29.933 2.667 2.667 0 0 0 2.375-.933" class="cls-2" transform="translate(-50.464 -18.199)"/>
        <path id="Path_8953" d="M372.98 181.086a7.805 7.805 0 0 1-3.392-2.714 7.393 7.393 0 0 1-1.188-4.072v-.509c0-.17.085-.254.17-.424a.648.648 0 0 1 .424-.17h5.428c.17 0 .254.085.424.17a.648.648 0 0 1 .17.424v.17a2.065 2.065 0 0 0 1.018 1.7 4.473 4.473 0 0 0 2.714.763 2.882 2.882 0 0 0 1.866-.509 1.782 1.782 0 0 0 .594-1.187 1.353 1.353 0 0 0-.678-1.187 10.971 10.971 0 0 0-2.544-.933l-1.018-.254a17.413 17.413 0 0 1-5.767-2.8 6.066 6.066 0 0 1-2.29-5.089 7.042 7.042 0 0 1 1.187-3.9 8.314 8.314 0 0 1 3.223-2.629 11.736 11.736 0 0 1 4.664-.933 11.6 11.6 0 0 1 4.919 1.018 8.292 8.292 0 0 1 3.477 2.883 7.35 7.35 0 0 1 1.272 4.24v.339c0 .17-.085.254-.17.424a.648.648 0 0 1-.424.17h-5.429c-.17 0-.254-.085-.424-.17a.648.648 0 0 1-.17-.424 2.5 2.5 0 0 0-.933-1.866 4.12 4.12 0 0 0-4.325-.424 1.493 1.493 0 0 0-.17 2.375 5.362 5.362 0 0 0 1.442.848c.678.254 1.611.594 2.968 1.018.17.085 1.018.339 2.459.763a7.41 7.41 0 0 1 3.647 2.375 6.117 6.117 0 0 1 1.442 4.071 6.915 6.915 0 0 1-1.187 3.986 8.015 8.015 0 0 1-3.308 2.629 12.714 12.714 0 0 1-4.919.933 17.337 17.337 0 0 1-5.173-1.1" class="cls-2" transform="translate(-54.292 -18.184)"/>
        <path id="Path_8954" d="M290.379 144.262l-5.513-2.714a1.327 1.327 0 1 1 1.187-2.375l5.513 2.714a1.327 1.327 0 0 1-1.187 2.375" class="cls-1" transform="translate(-41.49 -15.453)"/>
        <path id="Path_8955" d="M306.767 139.545a1.3 1.3 0 0 1-.594-1.781l2.629-5.6a1.327 1.327 0 0 1 2.375 1.187l-2.629 5.6a1.3 1.3 0 0 1-1.781.594" class="cls-1" transform="translate(-44.817 -14.298)"/>
        <path id="Path_8956" d="M296.492 135.32a.92.92 0 0 1-.678-.678l-3.138-6.785a1.327 1.327 0 0 1 2.375-1.187l3.138 6.785a1.37 1.37 0 0 1-.594 1.781 1.712 1.712 0 0 1-1.1.085" class="cls-1" transform="translate(-42.769 -13.465)"/>
    </g>
</svg>
