<svg viewBox="0 0 125.88 44.98" xmlns="http://www.w3.org/2000/svg" xmlns:xlink="http://www.w3.org/1999/xlink" id="Layer_1" overflow="hidden"><defs></defs><g id="Group_1565"><g id="Group_1562"><path d="M150 11.35C149.095 12.2487 147.635 12.2487 146.73 11.35 146.3 10.9174 146.062 10.3299 146.07 9.72 146.045 9.06454 146.317 8.43281 146.81 8 147.235 7.59225 147.801 7.36623 148.39 7.37 149.667 7.37551 150.7 8.41259 150.7 9.69 150.708 10.3147 150.459 10.9152 150.01 11.35M147.01 8.35C146.66 8.70832 146.462 9.18887 146.46 9.69 146.448 10.2047 146.651 10.7011 147.02 11.06 147.766 11.8051 148.974 11.8051 149.72 11.06L149.72 11.06C150.088 10.6995 150.294 10.205 150.29 9.69 150.284 9.18768 150.083 8.70731 149.73 8.35 148.994 7.60165 147.791 7.59132 147.043 8.32691 147.035 8.33454 147.028 8.34224 147.02 8.35M147.37 10.98 147.37 8.4 148.6 8.4C148.777 8.40412 148.95 8.44499 149.11 8.52 149.338 8.63962 149.471 8.8838 149.45 9.14 149.469 9.31654 149.402 9.49158 149.27 9.61 149.142 9.70835 148.99 9.77052 148.83 9.79 148.961 9.80031 149.086 9.849 149.19 9.93 149.352 10.0735 149.437 10.2845 149.42 10.5L149.42 10.73C149.415 10.7564 149.415 10.7836 149.42 10.81 149.416 10.8365 149.416 10.8635 149.42 10.89L149.42 10.95 148.78 10.95C148.77 10.8336 148.77 10.7164 148.78 10.6 148.79 10.4969 148.79 10.3931 148.78 10.29 148.744 10.2039 148.676 10.1355 148.59 10.1 148.511 10.0809 148.429 10.0809 148.35 10.1L148.07 10.1 148.07 11ZM148.59 8.93C148.465 8.88577 148.333 8.86541 148.2 8.87L148.03 8.87 148.03 9.62 148.29 9.62C148.42 9.62228 148.549 9.58761 148.66 9.52 148.755 9.45101 148.808 9.3375 148.8 9.22 148.813 9.08414 148.723 8.95968 148.59 8.93" id="Path_2123" fill="#004CAC" transform="translate(-30.06 -2.51)"/><path d="M100.73 13C100.137 13.0105 99.5477 12.8982 99 12.67 98.4483 12.4403 97.9756 12.0545 97.64 11.56 97.258 10.9654 97.0726 10.2657 97.11 9.56 97.104 8.92402 97.2194 8.29273 97.45 7.7 97.6617 7.18425 97.9824 6.72033 98.39 6.34 98.7828 5.97958 99.2411 5.69783 99.74 5.51 100.257 5.32576 100.802 5.23435 101.35 5.24 101.974 5.22906 102.592 5.36975 103.15 5.65 103.676 5.91834 104.11 6.33576 104.4 6.85 104.709 7.4061 104.864 8.03418 104.85 8.67 104.859 9.25293 104.76 9.83251 104.56 10.38 104.194 11.4072 103.414 12.234 102.41 12.66 101.866 12.8757 101.285 12.9843 100.7 12.98M101.26 6.77C100.8 6.76275 100.35 6.9068 99.98 7.18 99.6271 7.43927 99.3451 7.78316 99.16 8.18 98.9823 8.57318 98.887 8.99859 98.88 9.43 98.8676 9.94073 99.0418 10.4385 99.37 10.83 99.712 11.2195 100.212 11.4328 100.73 11.41 101.076 11.4167 101.419 11.3413 101.73 11.19 102.02 11.0453 102.275 10.8408 102.48 10.59 102.683 10.3368 102.839 10.0488 102.94 9.74 103.05 9.41814 103.104 9.07999 103.1 8.74 103.109 8.37342 103.03 8.01007 102.87 7.68 102.59 7.06094 101.969 6.66774 101.29 6.68" id="Path_2124" fill="#004CAC" transform="translate(-30.06 -2.51)"/><path d="M115.41 12.94 116.32 6.83 113.82 6.83 113.94 6.04 113.94 6.04 113.94 6C113.981 5.62836 114.296 5.34775 114.67 5.35L120.76 5.35 120.64 6.19 120.64 6.19C120.577 6.54353 120.269 6.80073 119.91 6.8L118 6.8 117.1 12.92Z" id="Path_2125" fill="#004CAC" transform="translate(-30.06 -2.51)"/><path d="M126 6C125.444 5.53148 124.725 5.30148 124 5.36L121.57 5.36 120.45 12.95 121.39 12.95C121.829 12.9491 122.2 12.6249 122.26 12.19L122.26 12.19 122.56 10.19 123.94 10.19C124.469 10.2094 124.993 10.0886 125.46 9.84 125.838 9.63067 126.142 9.30925 126.33 8.92 126.518 8.52671 126.614 8.09581 126.61 7.66 126.637 7.04731 126.417 6.44932 126 6M124.78 7.7C124.748 8.40374 124.218 8.98423 123.52 9.08L122.69 9.08 123.08 6.49C123.312 6.4552 123.548 6.4552 123.78 6.49 124.24 6.49 124.88 6.67 124.78 7.74" id="Path_2126" fill="#004CAC" transform="translate(-30.06 -2.51)"/><path d="M111.59 5.35 110.87 10.25 108.71 6.77C108.222 5.88663 107.289 5.34157 106.28 5.35L106.18 5.35 105.06 12.94 106.77 12.94 107.49 8 109.65 11.49C110.148 12.3687 111.08 12.9113 112.09 12.91L112.19 12.91 113.31 5.32Z" id="Path_2127" fill="#004CAC" transform="translate(-30.06 -2.51)"/><path d="M130.77 5.36 130.19 5.36C129.421 5.36108 128.713 5.77815 128.34 6.45L128.28 6.55 128.28 6.55 125 13 126.79 13 127.63 11.25 130.11 11.25 130.31 12.99 132.16 12.99ZM128.15 10.14 129.61 7.14 130.02 10.14Z" id="Path_2128" fill="#004CAC" transform="translate(-30.06 -2.51)"/><path d="M139.8 11.32 139.57 11.09C139.693 10.8765 139.797 10.6523 139.88 10.42 140.076 9.87125 140.174 9.29254 140.17 8.71 140.184 8.07418 140.029 7.4461 139.72 6.89 139.429 6.37946 138.994 5.96566 138.47 5.7 137.914 5.41201 137.296 5.26762 136.67 5.28 136.121 5.27777 135.576 5.37256 135.06 5.56 134.56 5.74088 134.101 6.01965 133.71 6.38 133.3 6.76217 132.979 7.2299 132.77 7.75 132.537 8.34212 132.422 8.97383 132.43 9.61 132.39 10.3174 132.579 11.0189 132.97 11.61 133.303 12.1073 133.776 12.4939 134.33 12.72 134.862 12.9241 135.43 13.0194 136 13 136.586 13.009 137.167 12.9002 137.71 12.68 137.883 12.6054 138.05 12.5185 138.21 12.42L138.44 12.65C138.62 12.824 138.859 12.9239 139.11 12.93L140.11 12.93 140.11 12 140.11 12C140.109 11.7474 140.013 11.5044 139.84 11.32M136.08 11.49C135.565 11.5141 135.067 11.3003 134.73 10.91 134.399 10.5194 134.221 10.0219 134.23 9.51 134.237 9.07859 134.332 8.65318 134.51 8.26 134.695 7.86316 134.977 7.51927 135.33 7.26 135.7 6.98545 136.15 6.84125 136.61 6.85 137.289 6.83774 137.91 7.23094 138.19 7.85 138.351 8.17969 138.43 8.54331 138.42 8.91 138.426 9.25014 138.372 9.58863 138.26 9.91 138.157 10.2209 138.001 10.5118 137.8 10.77 137.592 11.0179 137.337 11.2219 137.05 11.37 136.738 11.5182 136.395 11.5902 136.05 11.58" id="Path_2129" fill="#004CAC" transform="translate(-30.06 -2.51)"/><path d="M96.5 7.07C96.5 7.07 94 6.3 92.84 7.46 91.68 8.62 91.62 10.46 92.93 11.18 94.24 11.9 96.34 10.96 96.49 10.73 96.5954 11.2122 96.5355 11.7159 96.32 12.16 95.97 12.9 93.94 13.32 92.32 12.75 90.7951 12.2594 89.8678 10.7169 90.15 9.14 90.2852 7.31713 91.6108 5.80394 93.4 5.43 94.6832 5.18922 96.0048 5.25085 97.26 5.61Z" id="Path_2130" fill="#004CAC" transform="translate(-30.06 -2.51)"/><path d="M144.91 7.37 143.61 7.37C143.127 7.36026 142.706 7.69688 142.61 8.17L141.9 12.94 141.9 12.94C142.456 12.6745 142.931 12.2676 143.28 11.76 143.859 11.0928 144.301 10.3181 144.58 9.48Z" id="Path_2131" fill="#004CAC" transform="translate(-30.06 -2.51)"/><path d="M144.08 6.69C144.676 6.69 145.16 6.20647 145.16 5.61 145.16 5.01353 144.676 4.53 144.08 4.53 143.484 4.53 143 5.01353 143 5.61L143 5.61C143 6.20647 143.484 6.69 144.08 6.69L144.08 6.69" id="Path_2132" fill="#004CAC" transform="translate(-30.06 -2.51)"/><path d="M143.3 11.76C142.954 12.2702 142.478 12.6778 141.92 12.94L143.22 12.94C143.7 12.9507 144.119 12.6191 144.22 12.15L144.61 9.48C144.331 10.3181 143.889 11.0928 143.31 11.76" id="Path_2133" fill="#00B5F1" transform="translate(-30.06 -2.51)"/></g><g id="Group_1563"><path d="M90.1 18.65 95.29 18.65C98.18 18.65 99.74 19.85 99.74 22.34L99.74 23.21C99.8199 24.3598 99.2532 25.4585 98.27 26.06 99.42 26.6097 100.138 27.7859 100.1 29.06L100.1 29.84C100.1 31.84 98.75 33.38 95.86 33.38L90.1 33.38ZM95.84 25.49C97.25 25.49 98.16 24.73 98.16 22.93L98.16 22.66C98.16 20.76 97.27 20.12 95.33 20.12L91.68 20.12 91.68 25.49ZM95.84 31.97C97.74 31.97 98.54 30.97 98.54 29.6L98.54 29.37C98.657 28.1395 97.768 27.0415 96.54 26.9 96.4004 26.8853 96.2596 26.8853 96.12 26.9L91.68 26.9 91.68 32Z" id="Path_2134" fill="#00B5F1" transform="translate(-30.06 -2.51)"/><path d="M102.09 25.59C102.09 22.91 103.46 21.39 106.09 21.39 107.36 21.4447 108.561 21.9811 109.45 22.89L109.55 21.6 110.88 21.6 110.88 33.43 109.55 33.43 109.45 32.14C108.569 33.0602 107.363 33.5986 106.09 33.64 103.45 33.64 102.09 32.12 102.09 29.44ZM103.59 29.16C103.59 31.16 104.31 32.28 106.21 32.28 107.464 32.1988 108.624 31.5879 109.4 30.6L109.4 24.44C108.622 23.4532 107.464 22.8398 106.21 22.75 104.31 22.75 103.59 23.85 103.59 25.87Z" id="Path_2135" fill="#00B5F1" transform="translate(-30.06 -2.51)"/><path d="M113.64 21.61 115 21.61 115.11 22.89C115.953 21.9697 117.132 21.4288 118.38 21.39 121.02 21.39 122.3 22.7 122.3 25.39L122.3 33.44 120.8 33.44 120.8 25.66C120.8 23.66 120.17 22.75 118.27 22.75 117.039 22.8319 115.906 23.4496 115.17 24.44L115.17 33.44 113.67 33.44Z" id="Path_2136" fill="#00B5F1" transform="translate(-30.06 -2.51)"/><path d="M124.85 25.7C124.85 23.02 126.56 21.39 129.31 21.39 132.06 21.39 133.7 22.96 133.7 25.05L133.7 25.39 132.24 25.39 132.24 25.26C132.24 23.78 131.4 22.75 129.31 22.75 127.41 22.75 126.31 23.85 126.31 25.96L126.31 29.08C126.31 31.19 127.37 32.29 129.31 32.29 131.4 32.29 132.24 31.23 132.24 29.76L132.24 29.63 133.7 29.63 133.7 30C133.7 32 132.12 33.67 129.31 33.67 126.5 33.67 124.85 32.05 124.85 29.36Z" id="Path_2137" fill="#00B5F1" transform="translate(-30.06 -2.51)"/><path d="M136.15 25.7C136.15 23.02 137.86 21.39 140.6 21.39 143.34 21.39 145.06 23.02 145.06 25.7L145.06 29.33C145.06 32.01 143.35 33.64 140.6 33.64 137.85 33.64 136.15 32.01 136.15 29.33ZM137.65 29.08C137.65 31.19 138.71 32.29 140.65 32.29 142.59 32.29 143.6 31.19 143.6 29.08L143.6 26C143.6 23.89 142.55 22.8 140.65 22.8 138.75 22.8 137.65 23.9 137.65 26Z" id="Path_2138" fill="#00B5F1" transform="translate(-30.06 -2.51)"/><path d="M147.17 29.73 148.67 29.73 148.67 29.86C148.67 31.13 149.6 32.37 151.67 32.37 153.57 32.37 154.42 31.37 154.42 30.24L154.42 30.09C154.42 28.81 153.34 28.4 151.61 28.21 149.5 27.98 147.41 27.33 147.41 25.01L147.41 24.65C147.41 22.77 148.74 21.31 151.48 21.31 154.22 21.31 155.64 23.08 155.64 24.96L155.64 25.3 154.2 25.3 154.2 25.17C154.2 23.91 153.59 22.66 151.5 22.66 149.67 22.66 148.93 23.53 148.93 24.66L148.93 24.81C148.93 26.22 150.15 26.62 151.84 26.81 153.78 27.02 155.94 27.53 155.94 29.87L155.94 30.3C155.94 32.15 154.44 33.7 151.7 33.7 148.96 33.7 147.18 32.07 147.18 30.04Z" id="Path_2139" fill="#00B5F1" transform="translate(-30.06 -2.51)"/></g><g id="Group_1564"><circle cx="25.97" cy="22.49" r="16.37" id="Ellipse_132" fill="#004CAC"/><path d="M43.73 35.8 43.44 35.47Z" id="Path_2140" fill="#003062" transform="translate(-30.06 -2.51)"/><path d="M44.27 36.38 43.94 36Z" id="Path_2141" fill="#003062" transform="translate(-30.06 -2.51)"/><path d="M66.31 37.73 66.31 37.73Z" id="Path_2142" fill="#003062" transform="translate(-30.06 -2.51)"/><path d="M46.82 38.53 46.45 38.27Z" id="Path_2143" fill="#003062" transform="translate(-30.06 -2.51)"/><path d="M46.19 38.08 45.8 37.78Z" id="Path_2144" fill="#003062" transform="translate(-30.06 -2.51)"/><path d="M43.23 35.2 43 34.87Z" id="Path_2145" fill="#003062" transform="translate(-30.06 -2.51)"/><path d="M44.93 37C44.77 36.86 44.62 36.71 44.47 36.56Z" id="Path_2146" fill="#003062" transform="translate(-30.06 -2.51)"/><path d="M45.59 37.61 45.02 37.11Z" id="Path_2147" fill="#003062" transform="translate(-30.06 -2.51)"/><path d="M40.36 29.77 40.25 29.36C40.29 29.5 40.33 29.63 40.36 29.77Z" id="Path_2148" fill="#003062" transform="translate(-30.06 -2.51)"/><path d="M41.2 31.94C41.14 31.82 41.09 31.69 41.03 31.57 41.09 31.69 41.14 31.82 41.2 31.94Z" id="Path_2149" fill="#003062" transform="translate(-30.06 -2.51)"/><path d="M42.76 34.59 42.52 34.25Z" id="Path_2150" fill="#003062" transform="translate(-30.06 -2.51)"/><path d="M47.46 38.94C47.33 38.87 47.21 38.79 47.09 38.71 47.21 38.79 47.33 38.87 47.46 38.94Z" id="Path_2151" fill="#003062" transform="translate(-30.06 -2.51)"/><path d="M67.35 36.81 67.28 36.88Z" id="Path_2152" fill="#003062" transform="translate(-30.06 -2.51)"/><path d="M40.89 31.23 40.74 30.85Z" id="Path_2153" fill="#003062" transform="translate(-30.06 -2.51)"/><path d="M42.32 34 42.11 33.66Z" id="Path_2154" fill="#003062" transform="translate(-30.06 -2.51)"/><path d="M41.92 33.3 41.72 32.95C41.78 33.07 41.85 33.18 41.92 33.3Z" id="Path_2155" fill="#003062" transform="translate(-30.06 -2.51)"/><path d="M41.54 32.63 41.36 32.27Z" id="Path_2156" fill="#003062" transform="translate(-30.06 -2.51)"/><path d="M40.61 30.51C40.61 30.38 40.52 30.25 40.48 30.11 40.52 30.25 40.56 30.38 40.61 30.51Z" id="Path_2157" fill="#003062" transform="translate(-30.06 -2.51)"/><path d="M62.91 39.85 62.74 39.92Z" id="Path_2158" fill="#003062" transform="translate(-30.06 -2.51)"/><path d="" id="Path_2159" fill="#003062" transform="translate(-30.06 -2.51)"/><path d="M56 41.37 55.19 41.37Z" id="Path_2160" fill="#003062" transform="translate(-30.06 -2.51)"/><path d="M54.08 41.25 53.6 41.19Z" id="Path_2161" fill="#003062" transform="translate(-30.06 -2.51)"/><path d="M61.59 40.39 61.51 40.39Z" id="Path_2162" fill="#003062" transform="translate(-30.06 -2.51)"/><path d="M60.34 40.79 60.21 40.79Z" id="Path_2163" fill="#003062" transform="translate(-30.06 -2.51)"/><path d="M57.54 41.3 57.54 41.3Z" id="Path_2164" fill="#003062" transform="translate(-30.06 -2.51)"/><path d="M59 41.09 58.77 41.09Z" id="Path_2165" fill="#003062" transform="translate(-30.06 -2.51)"/><path d="M64.13 39.22 64 39.29Z" id="Path_2166" fill="#003062" transform="translate(-30.06 -2.51)"/><path d="M53.27 41.13 52.82 41.05Z" id="Path_2167" fill="#003062" transform="translate(-30.06 -2.51)"/><path d="M49.5 40 49.12 39.83Z" id="Path_2168" fill="#003062" transform="translate(-30.06 -2.51)"/><path d="M48.12 39.33 47.75 39.12Z" id="Path_2169" fill="#003062" transform="translate(-30.06 -2.51)"/><path d="M50.22 40.3 49.83 40.15Z" id="Path_2170" fill="#003062" transform="translate(-30.06 -2.51)"/><path d="M48.8 39.69 48.42 39.49Z" id="Path_2171" fill="#003062" transform="translate(-30.06 -2.51)"/><path d="M52.48 41 52.05 40.9Z" id="Path_2172" fill="#003062" transform="translate(-30.06 -2.51)"/><path d="M51 40.56 50.59 40.43Z" id="Path_2173" fill="#003062" transform="translate(-30.06 -2.51)"/><path d="M51.71 40.79 51.3 40.67Z" id="Path_2174" fill="#003062" transform="translate(-30.06 -2.51)"/><path d="M54.94 41.33 54.4 41.33Z" id="Path_2175" fill="#003062" transform="translate(-30.06 -2.51)"/><path d="M72.31 23.31C72.31 23.05 72.25 22.79 72.21 22.54 72.25 22.79 72.28 23.05 72.31 23.31Z" id="Path_2176" fill="#003062" transform="translate(-30.06 -2.51)"/><path d="" id="Path_2177" fill="#003062" transform="translate(-30.06 -2.51)"/><path d="" id="Path_2178" fill="#003062" transform="translate(-30.06 -2.51)"/><path d="M40 28.24 39.91 27.77C39.92 27.93 39.94 28.09 40 28.24Z" id="Path_2179" fill="#003062" transform="translate(-30.06 -2.51)"/><path d="M40.15 29C40.15 28.86 40.09 28.72 40.05 28.58 40.09 28.73 40.12 28.87 40.15 29Z" id="Path_2180" fill="#003062" transform="translate(-30.06 -2.51)"/><path d="M57.11 8.66 57.65 8.66Z" id="Path_2181" fill="#003062" transform="translate(-30.06 -2.51)"/><path d="M58.78 8.86 59.23 8.94Z" id="Path_2182" fill="#003062" transform="translate(-30.06 -2.51)"/><path d="M39.74 26.68 39.74 26.68C39.74 26.94 39.8 27.2 39.84 27.45 39.8 27.19 39.77 26.94 39.74 26.68Z" id="Path_2183" fill="#003062" transform="translate(-30.06 -2.51)"/><path d="M63.25 10.3 63.63 10.5Z" id="Path_2184" fill="#003062" transform="translate(-30.06 -2.51)"/><path d="M64.59 11.05C64.72 11.12 64.84 11.2 64.96 11.28 64.84 11.2 64.72 11.12 64.59 11.05Z" id="Path_2185" fill="#003062" transform="translate(-30.06 -2.51)"/><path d="M58 8.74 58.48 8.8Z" id="Path_2186" fill="#003062" transform="translate(-30.06 -2.51)"/><path d="M72.16 22.2 72.07 21.74Z" id="Path_2187" fill="#003062" transform="translate(-30.06 -2.51)"/><path d="M67.13 13 67.58 13.43C67.43 13.25 67.29 13.11 67.13 13Z" id="Path_2188" fill="#003062" transform="translate(-30.06 -2.51)"/><path d="M59.57 9 60 9.1Z" id="Path_2189" fill="#003062" transform="translate(-30.06 -2.51)"/><path d="M70.51 17.36 70.69 17.72Z" id="Path_2190" fill="#003062" transform="translate(-30.06 -2.51)"/><path d="M66.46 12.38 67.03 12.87Z" id="Path_2191" fill="#003062" transform="translate(-30.06 -2.51)"/><path d="" id="Path_2192" fill="#003062" transform="translate(-30.06 -2.51)"/><path d="M61.83 9.68 62.22 9.84Z" id="Path_2193" fill="#003062" transform="translate(-30.06 -2.51)"/><path d="M71.44 19.48C71.44 19.61 71.53 19.74 71.57 19.87 71.53 19.74 71.49 19.61 71.44 19.48Z" id="Path_2194" fill="#003062" transform="translate(-30.06 -2.51)"/><path d="M70.85 18.05C70.91 18.17 70.96 18.3 71.02 18.42 71 18.3 70.91 18.17 70.85 18.05Z" id="Path_2195" fill="#003062" transform="translate(-30.06 -2.51)"/><path d="M65.24 11.46 65.6 11.72Z" id="Path_2196" fill="#003062" transform="translate(-30.06 -2.51)"/><path d="M62.55 10 62.93 10.17Z" id="Path_2197" fill="#003062" transform="translate(-30.06 -2.51)"/><path d="M60.34 9.2 60.76 9.32Z" id="Path_2198" fill="#003062" transform="translate(-30.06 -2.51)"/><path d="M65.86 11.9 66.24 12.2Z" id="Path_2199" fill="#003062" transform="translate(-30.06 -2.51)"/><path d="M71.16 18.76C71.22 18.88 71.26 19.01 71.31 19.13 71.26 19 71.22 18.88 71.16 18.76Z" id="Path_2200" fill="#003062" transform="translate(-30.06 -2.51)"/><path d="M45.74 12.26 45.74 12.26Z" id="Path_2201" fill="#003062" transform="translate(-30.06 -2.51)"/><path d="M61.09 9.43 61.49 9.56Z" id="Path_2202" fill="#003062" transform="translate(-30.06 -2.51)"/><path d="M71.9 21C71.9 21.14 71.97 21.28 72 21.42 72 21.26 71.93 21.12 71.9 21Z" id="Path_2203" fill="#003062" transform="translate(-30.06 -2.51)"/><path d="M70.13 16.69C70.2 16.81 70.27 16.92 70.33 17.04 70.27 16.92 70.2 16.81 70.13 16.69Z" id="Path_2204" fill="#003062" transform="translate(-30.06 -2.51)"/><path d="M53.05 8.9 53.28 8.9Z" id="Path_2205" fill="#003062" transform="translate(-30.06 -2.51)"/><path d="M71.69 20.22C71.69 20.36 71.77 20.49 71.8 20.63 71.77 20.49 71.73 20.36 71.69 20.22Z" id="Path_2206" fill="#003062" transform="translate(-30.06 -2.51)"/><path d="M63.93 10.66 64.3 10.87C64.18 10.79 64.06 10.73 63.93 10.66Z" id="Path_2207" fill="#003062" transform="translate(-30.06 -2.51)"/><path d="M68.82 14.79 69.08 15.12Z" id="Path_2208" fill="#003062" transform="translate(-30.06 -2.51)"/><path d="M47.92 10.77 48.05 10.7Z" id="Path_2209" fill="#003062" transform="translate(-30.06 -2.51)"/><path d="M50.46 9.59 50.54 9.59Z" id="Path_2210" fill="#003062" transform="translate(-30.06 -2.51)"/><path d="M69.29 15.4 69.53 15.74Z" id="Path_2211" fill="#003062" transform="translate(-30.06 -2.51)"/><path d="M51.72 9.2 51.85 9.2Z" id="Path_2212" fill="#003062" transform="translate(-30.06 -2.51)"/><path d="M67.78 13.61 68.11 13.95Z" id="Path_2213" fill="#003062" transform="translate(-30.06 -2.51)"/><path d="M56 8.62 56 8.62 56.81 8.62Z" id="Path_2214" fill="#003062" transform="translate(-30.06 -2.51)"/><path d="" id="Path_2215" fill="#003062" transform="translate(-30.06 -2.51)"/><path d="M68.33 14.2 68.61 14.52Z" id="Path_2216" fill="#003062" transform="translate(-30.06 -2.51)"/><path d="M54.51 8.7 54.71 8.7Z" id="Path_2217" fill="#003062" transform="translate(-30.06 -2.51)"/><path d="M49.14 10.14 49.31 10.07Z" id="Path_2218" fill="#003062" transform="translate(-30.06 -2.51)"/><path d="M44.7 13.18 44.77 13.11Z" id="Path_2219" fill="#003062" transform="translate(-30.06 -2.51)"/><path d="M69.73 16 69.95 16.34Z" id="Path_2220" fill="#003062" transform="translate(-30.06 -2.51)"/><path d="M56 9.6C64.08 9.6 70.8 14.6 72.12 22.2L72.12 22.2C72.12 22.05 72.07 21.9 72.04 21.75 72.01 21.6 72.04 21.52 71.97 21.41 71.9 21.3 71.9 21.12 71.87 20.98 71.84 20.84 71.8 20.74 71.77 20.63L71.65 20.22C71.65 20.11 71.58 19.99 71.54 19.87L71.41 19.48C71.41 19.35 71.32 19.25 71.27 19.14 71.22 19.03 71.17 18.88 71.13 18.76L71 18.42C70.95 18.31 70.89 18.17 70.83 18.05 70.7827 17.9372 70.7293 17.827 70.67 17.72L70.49 17.36 70.33 17C70.27 16.89 70.19 16.77 70.13 16.65L69.94 16.34 69.72 16 69.52 15.7 69.28 15.37 69.07 15.08 68.82 14.75 68.6 14.48 68.32 14.16C68.24 14.08 68.17 13.99 68.1 13.91L67.78 13.57 67.58 13.36 67.13 13 67.03 12.9 66.45 12.41 66.24 12.24 65.86 11.94C65.7693 11.8824 65.6825 11.8189 65.6 11.75L65.23 11.49 65 11.28 64.63 11.05 64.34 10.87 63.97 10.66 63.67 10.5 63.29 10.3 62.97 10.15 62.55 10 62.22 9.86 61.83 9.71 61.5 9.58 61.1 9.45 60.76 9.34 60.34 9.22 60 9.11 59.57 9 59.24 8.93 58.78 8.85 58.45 8.79 58 8.74 57.69 8.74 57.15 8.74 56.88 8.74 56.06 8.74C55.62 8.74 55.18 8.74 54.75 8.8L54.54 8.8C54.13 8.8 53.72 8.89 53.32 8.96L53.09 8.96C52.68 9.03 52.28 9.12 51.88 9.22L51.75 9.22C51.35 9.33 50.96 9.45 50.58 9.59L50.5 9.59C50.11 9.74 49.72 9.89 49.34 10.07L49.18 10.14C48.81 10.31 48.44 10.5 48.09 10.7L47.96 10.77C47.2095 11.1998 46.4939 11.6879 45.82 12.23L45.82 12.23C45.49 12.5 45.16 12.78 44.82 13.08L44.75 13.15C43.7839 14.0767 42.9343 15.1177 42.22 16.25L42.22 16.25C41.2447 17.7872 40.5348 19.4774 40.12 21.25L40.39 21.25C42.4684 14.3587 48.8022 9.63175 56 9.6Z" id="Path_2221" fill="#002D5E" transform="translate(-30.06 -2.51)"/><path d="M56.11 40.39C48.03 40.39 41.31 35.39 39.98 27.79L39.98 27.79 40.07 28.24C40.07 28.36 40.07 28.47 40.14 28.58 40.21 28.69 40.21 28.87 40.24 29.01 40.27 29.15 40.31 29.24 40.34 29.36L40.46 29.77C40.46 29.88 40.53 30 40.57 30.11L40.7 30.5 40.83 30.85 40.98 31.23 41.13 31.57C41.13 31.68 41.24 31.82 41.29 31.94L41.45 32.27C41.51 32.38 41.57 32.51 41.64 32.62L41.81 32.95 42.01 33.3C42.08 33.41 42.14 33.5 42.2 33.61 42.26 33.72 42.34 33.84 42.42 33.95L42.62 34.25 42.85 34.58 43.06 34.87 43.32 35.19C43.3878 35.2844 43.4613 35.3745 43.54 35.46L43.82 35.79C43.89 35.87 43.96 35.96 44.04 36.04L44.36 36.38 44.56 36.59 45 37C45.0382 37.0281 45.0719 37.0618 45.1 37.1L45.67 37.59 45.88 37.76 46.27 38.06 46.53 38.25 46.89 38.5 47.17 38.69 47.53 38.92 47.83 39.09 48.2 39.31 48.5 39.47 48.88 39.66 49.19 39.81 49.58 39.99 49.9 40.12 50.3 40.28 50.63 40.4 51.03 40.54 51.36 40.65 51.78 40.77 52.12 40.86 52.55 40.96 52.89 41.03 53.34 41.11 53.68 41.11 54.15 41.18 54.47 41.18 55.01 41.18 55.28 41.18C55.55 41.18 55.82 41.18 56.1 41.18 56.54 41.18 56.98 41.18 57.41 41.12L57.62 41.12C58.03 41.12 58.44 41.03 58.84 40.96L59.07 40.96C59.48 40.89 59.88 40.8 60.28 40.69L60.41 40.69C60.81 40.58 61.2 40.46 61.58 40.32L61.66 40.32C62.05 40.18 62.44 40.02 62.82 39.85L62.98 39.78C63.35 39.6 63.72 39.42 64.07 39.22L64.2 39.15C64.949 38.7179 65.6644 38.2298 66.34 37.69L66.34 37.69C66.68 37.42 67 37.13 67.34 36.84L67.41 36.77C68.3957 35.8602 69.2655 34.8324 70 33.71L70 33.71C70.9805 32.1575 71.6905 30.4499 72.1 28.66L71.83 28.66C69.7717 35.6239 63.3717 40.3995 56.11 40.39Z" id="Path_2222" fill="#002D5E" transform="translate(-30.06 -2.51)"/><path d="M72.16 22.22 72.16 22.22 72.16 22.22Z" id="Path_2223" fill="#003062" transform="translate(-30.06 -2.51)"/><path d="M72.31 23.31 72.31 23.31C72.31 23.04 72.25 22.78 72.21 22.52L72.21 22.52C72.25 22.79 72.28 23.05 72.31 23.31Z" id="Path_2224" fill="#003062" transform="translate(-30.06 -2.51)"/><path d="M39.84 27.45C39.84 27.2 39.77 26.94 39.74 26.68 39.74 26.94 39.8 27.2 39.84 27.46Z" id="Path_2225" fill="#003062" transform="translate(-30.06 -2.51)"/><path d="" id="Path_2226" fill="#003062" transform="translate(-30.06 -2.51)"/><path d="M72.21 22.53C72.21 22.43 72.21 22.33 72.21 22.22L72.21 22.22 72.21 22.22 72.27 22.56Z" id="Path_2227" fill="#003062" transform="translate(-30.06 -2.51)"/><path d="M39.85 27.55C39.85 27.55 39.85 27.48 39.85 27.45L39.85 27.45C39.85 27.45 39.85 27.5 39.85 27.53Z" id="Path_2228" fill="#003062" transform="translate(-30.06 -2.51)"/><path d="M54.92 31.3 54.92 32.94C54.92 33.29 55.07 33.44 55.4 33.44L56.86 33.44C57.18 33.44 57.31 33.29 57.31 32.94L57.31 31.28C59.71 30.95 60.73 29.71 60.73 28.37L60.73 27C60.73 25.83 59.86 25 58.5 24.57L54.77 23.28C54.33 23.13 53.77 22.78 53.77 22.13L53.77 21.71C53.77 20.82 54.57 20.4 56.08 20.4 57.59 20.4 58.44 20.82 58.44 21.71L58.44 22.31C58.44 22.64 58.56 22.76 58.86 22.76L60.15 22.76C60.5 22.76 60.6 22.64 60.6 22.31L60.6 21.71C60.6 20.4 59.73 19.08 57.35 18.71L57.35 17.05C57.35 16.7 57.22 16.55 56.9 16.55L55.39 16.55C55.07 16.55 54.92 16.7 54.92 17.05L54.92 18.71C52.44 19.01 51.57 20.35 51.57 21.71L51.57 22.63C51.6429 23.7845 52.4111 24.7785 53.51 25.14L57.23 26.43C58.05 26.7 58.55 27.03 58.55 27.62L58.55 28.29C58.55 29.19 57.55 29.61 56.01 29.61 54.47 29.61 53.48 29.19 53.48 28.29L53.48 27.77C53.48 27.47 53.38 27.32 53.06 27.32L51.74 27.32C51.44 27.32 51.32 27.47 51.32 27.77L51.32 28.39C51.32 29.74 52.34 31 54.92 31.3Z" id="Path_2229" fill="#FFFFFF" transform="translate(-30.06 -2.51)"/><path d="M78.5 23.82C78.5 23.36 78.46 22.9 78.38 22.44L78.38 22.44C78.4333 22.9 78.4733 23.36 78.5 23.82Z" id="Path_2230" fill="#00639E" transform="translate(-30.06 -2.51)"/><path d="M71.58 19.87C71.58 19.99 71.65 20.1 71.69 20.22 71.65 20.1 71.61 20 71.58 19.87Z" id="Path_2231" fill="#00639E" transform="translate(-30.06 -2.51)"/><path d="M71.81 20.63C71.81 20.74 71.87 20.86 71.91 20.98 71.87 20.86 71.84 20.74 71.81 20.63Z" id="Path_2232" fill="#00639E" transform="translate(-30.06 -2.51)"/><path d="M67 12.87 67.1 12.97Z" id="Path_2233" fill="#00639E" transform="translate(-30.06 -2.51)"/><path d="M67.58 13.4 67.78 13.61Z" id="Path_2234" fill="#00639E" transform="translate(-30.06 -2.51)"/><path d="M68.61 14.52 68.82 14.79Z" id="Path_2235" fill="#00639E" transform="translate(-30.06 -2.51)"/><path d="M68.11 14C68.18 14.08 68.25 14.17 68.33 14.25Z" id="Path_2236" fill="#00639E" transform="translate(-30.06 -2.51)"/><path d="M66.24 12.21C66.3175 12.261 66.3911 12.3179 66.46 12.38Z" id="Path_2237" fill="#00639E" transform="translate(-30.06 -2.51)"/><path d="M65.6 11.72 65.86 11.91Z" id="Path_2238" fill="#00639E" transform="translate(-30.06 -2.51)"/><path d="M69.53 15.74 69.73 16.04Z" id="Path_2239" fill="#00639E" transform="translate(-30.06 -2.51)"/><path d="M69.08 15.12 69.29 15.4Z" id="Path_2240" fill="#00639E" transform="translate(-30.06 -2.51)"/><path d="M65 11.28 65.28 11.46Z" id="Path_2241" fill="#00639E" transform="translate(-30.06 -2.51)"/><path d="M70.33 17 70.51 17.32Z" id="Path_2242" fill="#00639E" transform="translate(-30.06 -2.51)"/><path d="M70.69 17.72C70.75 17.83 70.8 17.94 70.85 18.05 70.8 17.94 70.75 17.83 70.69 17.72Z" id="Path_2243" fill="#00639E" transform="translate(-30.06 -2.51)"/><path d="M71.31 19.13C71.31 19.25 71.4 19.37 71.44 19.48 71.4 19.37 71.36 19.25 71.31 19.13Z" id="Path_2244" fill="#00639E" transform="translate(-30.06 -2.51)"/><path d="M70 16.38 70.18 16.69Z" id="Path_2245" fill="#00639E" transform="translate(-30.06 -2.51)"/><path d="M71 18.42C71.0527 18.5308 71.0994 18.6443 71.14 18.76 71.0994 18.6443 71.0527 18.5308 71 18.42Z" id="Path_2246" fill="#00639E" transform="translate(-30.06 -2.51)"/><path d="M72 21.4C72 21.52 72 21.63 72.07 21.74 72.05 21.63 72 21.52 72 21.4Z" id="Path_2247" fill="#00639E" transform="translate(-30.06 -2.51)"/><path d="M56 8.62C55.55 8.62 55.12 8.62 54.68 8.68 55.15 8.65 55.58 8.62 56 8.62Z" id="Path_2248" fill="#00639E" transform="translate(-30.06 -2.51)"/><path d="M48.05 10.7C48.41 10.5 48.77 10.31 49.14 10.14 48.77 10.31 48.41 10.5 48.05 10.7Z" id="Path_2249" fill="#00639E" transform="translate(-30.06 -2.51)"/><path d="M53.28 8.86C53.68 8.79 54.09 8.74 54.51 8.7 54.097 8.72741 53.6862 8.78085 53.28 8.86Z" id="Path_2250" fill="#00639E" transform="translate(-30.06 -2.51)"/><path d="M51.85 9.17 53.05 8.9C52.6457 8.96983 52.2452 9.05995 51.85 9.17Z" id="Path_2251" fill="#00639E" transform="translate(-30.06 -2.51)"/><path d="M50.54 9.57C50.93 9.43 51.32 9.31 51.72 9.2 51.32 9.31 50.93 9.43 50.54 9.57Z" id="Path_2252" fill="#00639E" transform="translate(-30.06 -2.51)"/><path d="M45.78 12.23C46.4556 11.6902 47.171 11.2021 47.92 10.77 47.171 11.2021 46.4556 11.6902 45.78 12.23Z" id="Path_2253" fill="#00639E" transform="translate(-30.06 -2.51)"/><path d="M40.07 21.34C40.4775 19.5463 41.1876 17.8351 42.17 16.28 41.1876 17.8351 40.4775 19.5463 40.07 21.34Z" id="Path_2254" fill="#00639E" transform="translate(-30.06 -2.51)"/><path d="M44.77 13.11C45.08 12.82 45.4 12.53 45.77 12.26 45.4 12.53 45.08 12.82 44.77 13.11Z" id="Path_2255" fill="#00639E" transform="translate(-30.06 -2.51)"/><path d="M42.17 16.28C42.8847 15.1452 43.7379 14.1039 44.71 13.18 43.7379 14.1039 42.8847 15.1452 42.17 16.28Z" id="Path_2256" fill="#00639E" transform="translate(-30.06 -2.51)"/><path d="M49.31 10.07C49.68 9.9 50.07 9.74 50.46 9.59 50.07 9.74 49.68 9.9 49.31 10.07Z" id="Path_2257" fill="#00639E" transform="translate(-30.06 -2.51)"/><path d="M56.84 8.64 57.11 8.64Z" id="Path_2258" fill="#00639E" transform="translate(-30.06 -2.51)"/><path d="M61.5 9.56 61.83 9.69Z" id="Path_2259" fill="#00639E" transform="translate(-30.06 -2.51)"/><path d="M62.22 9.84 62.55 9.98Z" id="Path_2260" fill="#00639E" transform="translate(-30.06 -2.51)"/><path d="M63.63 10.5 63.93 10.66Z" id="Path_2261" fill="#00639E" transform="translate(-30.06 -2.51)"/><path d="M64.3 10.87 64.59 11.04Z" id="Path_2262" fill="#00639E" transform="translate(-30.06 -2.51)"/><path d="M62.93 10.15 63.25 10.3Z" id="Path_2263" fill="#00639E" transform="translate(-30.06 -2.51)"/><path d="M58.45 8.8 58.78 8.86Z" id="Path_2264" fill="#00639E" transform="translate(-30.06 -2.51)"/><path d="M59.23 8.94 59.57 9.01Z" id="Path_2265" fill="#00639E" transform="translate(-30.06 -2.51)"/><path d="M60.76 9.32 61.09 9.43Z" id="Path_2266" fill="#00639E" transform="translate(-30.06 -2.51)"/><path d="M57.65 8.7 57.97 8.7Z" id="Path_2267" fill="#00639E" transform="translate(-30.06 -2.51)"/><path d="M60 9.11 60.34 9.2Z" id="Path_2268" fill="#00639E" transform="translate(-30.06 -2.51)"/><path d="" id="Path_2269" fill="#00639E" transform="translate(-30.06 -2.51)"/><path d="M78.38 22.44 78.38 22.44C76.9578 10.0952 65.7975 1.24073 53.4528 2.66289 43.4769 3.81215 35.4702 11.433 33.83 21.34L31.07 21.34C30.5614 21.3363 30.131 21.715 30.07 22.22 30.0491 22.5049 30.151 22.7851 30.35 22.99L33.53 26.17 33.65 26.28 35.43 28C36.2258 28.8284 37.5425 28.8549 38.371 28.059 38.391 28.0397 38.4107 28.0201 38.43 28L38.43 28 39.79 26.64 43.43 23C43.6017 22.8222 43.7015 22.587 43.71 22.34 43.7117 21.8175 43.3108 21.3818 42.79 21.34L40.07 21.34C40.4848 19.5674 41.1947 17.8772 42.17 16.34L42.17 16.34C42.8803 15.2049 43.7303 14.1634 44.7 13.24L44.77 13.17C45.08 12.88 45.4 12.59 45.77 12.32L45.77 12.32C46.4456 11.7802 47.161 11.2921 47.91 10.86L48.04 10.79C48.39 10.59 48.76 10.4 49.13 10.23L49.29 10.16C49.67 9.99 50.06 9.83 50.45 9.69L50.53 9.69C50.92 9.55 51.31 9.43 51.7 9.32L51.83 9.32C52.23 9.22 52.63 9.13 53.04 9.05L53.27 9.05C53.67 8.98 54.08 8.92 54.49 8.88L54.7 8.88C55.13 8.88 55.57 8.82 56.01 8.82L56.01 8.82 56.83 8.82 57.1 8.82 57.64 8.82 57.95 8.82 58.43 8.88 58.77 8.94 59.22 9.02 59.55 9.09 59.99 9.19 60.32 9.28 60.74 9.4 61.08 9.51 61.48 9.64 61.81 9.76 62.21 9.92 62.53 10.06 62.92 10.23 63.23 10.38 63.61 10.58 63.91 10.74 64.28 10.95 64.57 11.13C64.7 11.2 64.82 11.28 64.94 11.36L65.22 11.54 65.58 11.8 65.84 11.99 66.22 12.29 66.44 12.46 67.01 12.95 67.11 13.05 67.56 13.48 67.76 13.69 68.08 14.03C68.15 14.11 68.23 14.19 68.3 14.28L68.58 14.6 68.8 14.87 69.05 15.2C69.1256 15.2925 69.1957 15.3893 69.26 15.49L69.5 15.82C69.58 15.93 69.63 16.02 69.7 16.12 69.77 16.22 69.85 16.34 69.92 16.46L70.11 16.77 70.31 17.12C70.37 17.24 70.43 17.33 70.48 17.44L70.67 17.8C70.7173 17.9128 70.7707 18.023 70.83 18.13L70.99 18.5C71.05 18.62 71.09 18.72 71.14 18.84 71.19 18.96 71.24 19.09 71.29 19.21 71.3256 19.3294 71.369 19.4463 71.42 19.56L71.55 19.95C71.55 20.08 71.63 20.18 71.66 20.3L71.78 20.71C71.78 20.82 71.84 20.94 71.88 21.06 71.92 21.18 71.94 21.34 71.98 21.48 72.02 21.62 72.03 21.71 72.05 21.82 72.07 21.93 72.11 22.12 72.13 22.28L72.13 22.28 72.19 22.59C72.19 22.84 72.26 23.1 72.29 23.37L72.29 23.37 73.65 22C74.4621 21.1888 75.7779 21.1888 76.59 22L78.47 23.88C78.47 23.36 78.43 22.89 78.38 22.44Z" id="Path_2270" fill="#00B5F1" transform="translate(-30.06 -2.51)"/><path d="M54.4 41.29 54.08 41.29Z" id="Path_2271" fill="#00538D" transform="translate(-30.06 -2.51)"/><path d="M43.94 36 43.73 35.76Z" id="Path_2272" fill="#00538D" transform="translate(-30.06 -2.51)"/><path d="M43.44 35.47 43.23 35.2Z" id="Path_2273" fill="#00538D" transform="translate(-30.06 -2.51)"/><path d="M42.11 33.61C42.04 33.51 41.98 33.4 41.92 33.3 42 33.4 42 33.51 42.11 33.61Z" id="Path_2274" fill="#00538D" transform="translate(-30.06 -2.51)"/><path d="M44.47 36.59 44.27 36.38Z" id="Path_2275" fill="#00538D" transform="translate(-30.06 -2.51)"/><path d="M43 34.87 42.79 34.59Z" id="Path_2276" fill="#00538D" transform="translate(-30.06 -2.51)"/><path d="M42.52 34.25 42.32 33.95Z" id="Path_2277" fill="#00538D" transform="translate(-30.06 -2.51)"/><path d="M47.75 39.12 47.46 39Z" id="Path_2278" fill="#00538D" transform="translate(-30.06 -2.51)"/><path d="M45 37.12 44.93 37Z" id="Path_2279" fill="#00538D" transform="translate(-30.06 -2.51)"/><path d="M47.09 38.71 46.82 38.53Z" id="Path_2280" fill="#00538D" transform="translate(-30.06 -2.51)"/><path d="M45.8 37.78 45.59 37.61Z" id="Path_2281" fill="#00538D" transform="translate(-30.06 -2.51)"/><path d="M46.45 38.27 46.19 38.08Z" id="Path_2282" fill="#00538D" transform="translate(-30.06 -2.51)"/><path d="M40.05 28.58C40.05 28.47 40.05 28.36 39.98 28.24 40 28.36 40 28.47 40.05 28.58Z" id="Path_2283" fill="#00538D" transform="translate(-30.06 -2.51)"/><path d="M39.85 27.55C39.8556 27.6232 39.8556 27.6968 39.85 27.77 39.8556 27.6968 39.8556 27.6232 39.85 27.55Z" id="Path_2284" fill="#00538D" transform="translate(-30.06 -2.51)"/><path d="M40.25 29.36C40.25 29.25 40.18 29.13 40.15 29.01 40.1774 29.1283 40.2107 29.2451 40.25 29.36Z" id="Path_2285" fill="#00538D" transform="translate(-30.06 -2.51)"/><path d="M81.71 27.05 81.71 27 78.5 23.82 76.62 21.94C75.8079 21.1288 74.4921 21.1288 73.68 21.94L72.31 23.31 68.62 27C68.62 27 68.62 27 68.62 27.06 68.2922 27.4625 68.327 28.049 68.7 28.41 68.8771 28.5663 69.1038 28.6549 69.34 28.66L72 28.66C71.5905 30.4499 70.8805 32.1575 69.9 33.71L69.9 33.71C69.1869 34.8431 68.3372 35.8842 67.37 36.81L67.3 36.88C66.99 37.17 66.67 37.45 66.3 37.73L66.3 37.73C65.6244 38.2698 64.909 38.7579 64.16 39.19L64.03 39.26C63.68 39.46 63.31 39.65 62.94 39.82L62.78 39.89C62.4 40.06 62.01 40.22 61.62 40.36L61.54 40.36C61.16 40.49 60.77 40.62 60.37 40.73L60.24 40.73C59.84 40.83 59.44 40.93 59.03 41L58.8 41C58.4 41.07 57.99 41.12 57.58 41.16L57.37 41.16C56.94 41.16 56.5 41.22 56.06 41.22L56.06 41.22C55.78 41.22 55.51 41.22 55.24 41.22L54.97 41.22 54.43 41.22 54.12 41.22 53.64 41.15 53.3 41.15 52.85 41.07 52.49 41 52.05 40.9 51.72 40.81 51.3 40.69 51 40.56 50.6 40.42 50.27 40.3 49.87 40.15 49.51 40 49.12 39.82 48.81 39.67C48.68 39.61 48.55 39.55 48.43 39.48L48.13 39.32 47.76 39.1 47.46 38.93 47.1 38.7 46.82 38.52 46.45 38.25 46.2 38.07 45.81 37.76 45.6 37.6 45.03 37.1 44.94 37C44.78 36.86 44.63 36.71 44.48 36.56L44.28 36.36 44 36 43.79 35.76 43.5 35.43 43.29 35.16 43 34.86 42.79 34.58 42.55 34.24 42.35 33.94C42.28 33.84 42.2 33.72 42.13 33.6 42.06 33.48 42.01 33.4 41.95 33.29 41.8753 33.1781 41.8085 33.0611 41.75 32.94L41.57 32.62 41.39 32.26 41.23 31.93C41.18 31.82 41.12 31.68 41.06 31.56 41 31.44 40.96 31.34 40.92 31.22 40.88 31.1 40.82 30.97 40.77 30.84L40.64 30.5 40.5 30.1C40.5 29.99 40.43 29.87 40.39 29.76 40.35 29.65 40.31 29.49 40.28 29.35 40.2407 29.2351 40.2074 29.1183 40.18 29 40.18 28.86 40.11 28.72 40.08 28.58 40.05 28.44 40.02 28.35 40 28.24 39.98 28.13 39.94 27.92 39.92 27.76 39.9152 27.6867 39.9152 27.6133 39.92 27.54L39.8 27.65 38.38 29C37.5842 29.8284 36.2675 29.8549 35.439 29.059 35.419 29.0397 35.3993 29.0201 35.38 29L35.38 29 33.78 27.4 33.58 27.2C34.8106 39.5653 45.8323 48.5918 58.1977 47.3611 68.3253 46.3532 76.5152 38.6722 78.17 28.63L81 28.63C81.5523 28.63 82 28.1823 82 27.63 81.9704 27.4098 81.8684 27.2058 81.71 27.05Z" id="Path_2286" fill="#008AD8" transform="translate(-30.06 -2.51)"/><path d="M41 31.57C40.9473 31.4592 40.9006 31.3457 40.86 31.23 40.9006 31.3457 40.9473 31.4592 41 31.57Z" id="Path_2287" fill="#00538D" transform="translate(-30.06 -2.51)"/><path d="M41.36 32.27C41.3 32.16 41.25 32.05 41.2 31.94 41.25 32.05 41.3 32.16 41.36 32.27Z" id="Path_2288" fill="#00538D" transform="translate(-30.06 -2.51)"/><path d="M41.72 32.94 41.54 32.62C41.6 32.74 41.66 32.84 41.72 32.94Z" id="Path_2289" fill="#00538D" transform="translate(-30.06 -2.51)"/><path d="M72 28.65C71.5888 30.4425 70.8789 32.1531 69.9 33.71 70.8806 32.154 71.5907 30.4431 72 28.65Z" id="Path_2290" fill="#00538D" transform="translate(-30.06 -2.51)"/><path d="M40.48 30.11 40.36 29.77Z" id="Path_2291" fill="#00538D" transform="translate(-30.06 -2.51)"/><path d="M40.74 30.85C40.69 30.74 40.65 30.62 40.61 30.51 40.65 30.62 40.69 30.74 40.74 30.85Z" id="Path_2292" fill="#00538D" transform="translate(-30.06 -2.51)"/><path d="M62.74 39.92C62.36 40.09 61.98 40.25 61.59 40.39 62 40.25 62.37 40.09 62.74 39.92Z" id="Path_2293" fill="#00538D" transform="translate(-30.06 -2.51)"/><path d="M61.51 40.42C61.12 40.56 60.73 40.68 60.34 40.79 60.73 40.68 61.12 40.56 61.51 40.42Z" id="Path_2294" fill="#00538D" transform="translate(-30.06 -2.51)"/><path d="M60.21 40.83C59.81 40.93 59.41 41.02 59 41.09 59.41 41 59.81 40.93 60.21 40.83Z" id="Path_2295" fill="#00538D" transform="translate(-30.06 -2.51)"/><path d="M58.77 41.13C58.37 41.2 57.96 41.26 57.55 41.29 58 41.26 58.37 41.2 58.77 41.13Z" id="Path_2296" fill="#00538D" transform="translate(-30.06 -2.51)"/><path d="M64 39.29C63.65 39.49 63.28 39.67 62.91 39.84 63.28 39.67 63.65 39.49 64 39.29Z" id="Path_2297" fill="#00538D" transform="translate(-30.06 -2.51)"/><path d="M69.88 33.71C69.1697 34.8451 68.3197 35.8866 67.35 36.81 68.3197 35.8866 69.1697 34.8451 69.88 33.71Z" id="Path_2298" fill="#00538D" transform="translate(-30.06 -2.51)"/><path d="M67.28 36.88C66.97 37.17 66.65 37.46 66.28 37.73 66.65 37.46 67 37.17 67.28 36.88Z" id="Path_2299" fill="#00538D" transform="translate(-30.06 -2.51)"/><path d="M57.34 41.31C56.91 41.31 56.47 41.37 56.03 41.37 56.47 41.37 56.91 41.34 57.34 41.31Z" id="Path_2300" fill="#00538D" transform="translate(-30.06 -2.51)"/><path d="M53.61 41.19 53.27 41.13Z" id="Path_2301" fill="#00538D" transform="translate(-30.06 -2.51)"/><path d="" id="Path_2302" fill="#00538D" transform="translate(-30.06 -2.51)"/><path d="M49.83 40.15 49.5 40Z" id="Path_2303" fill="#00538D" transform="translate(-30.06 -2.51)"/><path d="M51.3 40.67 51 40.56Z" id="Path_2304" fill="#00538D" transform="translate(-30.06 -2.51)"/><path d="M49.12 39.83 48.8 39.68C48.9027 39.7381 49.0096 39.7883 49.12 39.83Z" id="Path_2305" fill="#00538D" transform="translate(-30.06 -2.51)"/><path d="M50.55 40.43 50.22 40.3Z" id="Path_2306" fill="#00538D" transform="translate(-30.06 -2.51)"/><path d="M55.21 41.35 54.94 41.35Z" id="Path_2307" fill="#00538D" transform="translate(-30.06 -2.51)"/><path d="M52.82 41.05 52.48 41Z" id="Path_2308" fill="#00538D" transform="translate(-30.06 -2.51)"/><path d="M48.42 39.49 48.12 39.33Z" id="Path_2309" fill="#00538D" transform="translate(-30.06 -2.51)"/><path d="M52.05 40.88 51.71 40.79Z" id="Path_2310" fill="#00538D" transform="translate(-30.06 -2.51)"/><path d="M43.72 22.34 43.72 22.34C43.7149 22.5849 43.6145 22.8181 43.44 22.99L39.75 26.68 38.38 28C37.5842 28.8284 36.2675 28.8549 35.439 28.059 35.419 28.0397 35.3993 28.0201 35.38 28L35.38 28 33.62 26.24 33.51 26.13 30.38 23C30.181 22.7951 30.0791 22.5149 30.1 22.23L30.1 22.23C30.1 22.23 29.91 23.51 30.38 23.98L33.56 27.16 33.64 27.24 33.84 27.44 35.44 29.04C36.2521 29.8512 37.5679 29.8512 38.38 29.04L38.38 29.04 39.74 27.67 39.85 27.56C39.85 27.56 39.85 27.5 39.85 27.47L39.85 27.47C39.85 27.47 39.85 27.53 39.85 27.57L43.43 24C43.88 23.52 43.72 22.34 43.72 22.34Z" id="Path_2311" fill="#002D5E" transform="translate(-30.06 -2.51)"/><path d="M39.84 27.46C39.84 27.46 39.84 27.52 39.84 27.55L39.84 27.55C39.84 27.55 39.84 27.49 39.84 27.46Z" id="Path_2312" fill="#00538D" transform="translate(-30.06 -2.51)"/></g></g></svg>