<svg viewBox="0 0 189.31 45.01" xmlns="http://www.w3.org/2000/svg" xmlns:xlink="http://www.w3.org/1999/xlink" id="Layer_1" overflow="hidden"><defs></defs><g id="Group_1583"><g id="Group_1580"><path d="M17.25 32.4 47.19 32.4 47.19 38.66C47.19 43.4538 43.3038 47.34 38.51 47.34L25.93 47.34C21.1362 47.34 17.25 43.4538 17.25 38.66L17.25 38.66 17.25 32.4Z" id="Rectangle_1598" fill="#2D80C9" transform="translate(-2.35 -2.5)"/><path d="M17.25 32.4 47.19 32.4 47.19 38.66C47.19 43.4538 43.3038 47.34 38.51 47.34L25.93 47.34C21.1362 47.34 17.25 43.4538 17.25 38.66L17.25 38.66 17.25 32.4Z" id="Rectangle_1599" fill="#0B938A" transform="translate(-2.35 -2.5)"/><path d="M37.14 2.5 23.62 2.5C23 2.5 17.25 11.18 17.25 11.85L17.25 32.4 47.19 32.4 47.19 12.53Z" id="Path_2384" fill="#3AB3A5" transform="translate(-2.35 -2.5)"/><path d="M37.14 2.5 21.78 2.5C19.2876 2.49446 17.261 4.50758 17.25 7L17.25 17.44 47.19 17.44 47.19 12.53Z" id="Path_2385" fill="#3AB3A5" transform="translate(-2.35 -2.5)"/><g id="Group_1579"><path d="M23.73 10.75 40.73 10.75C41.2215 10.75 41.62 11.1485 41.62 11.64L41.62 11.64C41.62 12.1315 41.2215 12.53 40.73 12.53L23.73 12.53C23.2385 12.5355 22.8356 12.1416 22.8301 11.6501 22.83 11.6467 22.83 11.6434 22.83 11.64L22.83 11.64C22.83 11.1485 23.2284 10.75 23.7199 10.7499 23.7233 10.7499 23.7266 10.75 23.73 10.75Z" id="Rectangle_1600" fill="#FFFFFF" transform="translate(-2.35 -2.5)"/><path d="M23.73 14.91 43.28 14.91C43.7715 14.9045 44.1744 15.2984 44.1799 15.7899 44.18 15.7933 44.18 15.7966 44.18 15.8L44.18 15.8C44.18 16.2915 43.7816 16.69 43.2901 16.6901 43.2867 16.6901 43.2834 16.69 43.28 16.69L23.73 16.69C23.2385 16.6955 22.8356 16.3016 22.8301 15.8101 22.83 15.8067 22.83 15.8034 22.83 15.8L22.83 15.8C22.83 15.3085 23.2284 14.91 23.7199 14.9099 23.7233 14.9099 23.7266 14.91 23.73 14.91Z" id="Rectangle_1601" fill="#FFFFFF" transform="translate(-2.35 -2.5)"/><path d="M23.73 19.07 43.28 19.07C43.7715 19.0645 44.1744 19.4584 44.1799 19.9499 44.18 19.9533 44.18 19.9566 44.18 19.96L44.18 19.96C44.18 20.4515 43.7816 20.85 43.2901 20.8501 43.2867 20.8501 43.2834 20.85 43.28 20.85L23.73 20.85C23.2385 20.8555 22.8356 20.4616 22.8301 19.9701 22.83 19.9667 22.83 19.9634 22.83 19.96L22.83 19.96C22.83 19.4685 23.2284 19.07 23.7199 19.0699 23.7233 19.0699 23.7266 19.07 23.73 19.07Z" id="Rectangle_1602" fill="#FFFFFF" transform="translate(-2.35 -2.5)"/><path d="M23.73 23.23 43.28 23.23C43.7715 23.2245 44.1744 23.6184 44.1799 24.1099 44.18 24.1133 44.18 24.1166 44.18 24.12L44.18 24.12C44.18 24.6115 43.7816 25.01 43.2901 25.0101 43.2867 25.0101 43.2834 25.01 43.28 25.01L23.73 25.01C23.2385 25.0155 22.8356 24.6216 22.8301 24.1301 22.83 24.1267 22.83 24.1234 22.83 24.12L22.83 24.12C22.83 23.6285 23.2284 23.23 23.7199 23.2299 23.7233 23.2299 23.7266 23.23 23.73 23.23Z" id="Rectangle_1603" fill="#FFFFFF" transform="translate(-2.35 -2.5)"/><path d="M23.73 27.39 38 27.39C38.4915 27.39 38.89 27.7885 38.89 28.28L38.89 28.28C38.8955 28.7715 38.5016 29.1744 38.0101 29.1799 38.0067 29.18 38.0034 29.18 38 29.18L23.73 29.18C23.2329 29.18 22.83 28.7771 22.83 28.28L22.83 28.28C22.83 27.7885 23.2284 27.39 23.7199 27.3899 23.7233 27.3899 23.7266 27.39 23.73 27.39Z" id="Rectangle_1604" fill="#FFFFFF" transform="translate(-2.35 -2.5)"/></g><path d="M40.34 13.73 47.19 12.53 37.19 2.53 36.39 10C36.05 12.63 37.81 14.28 40.34 13.73Z" id="Path_2386" fill="#003C3B" transform="translate(-2.35 -2.5)"/><path d="M41.71 12.53 47.19 12.53 37.19 2.53 37.19 8C37.2116 10.4889 39.2211 12.5029 41.71 12.53Z" id="Path_2387" fill="#0B938A" transform="translate(-2.35 -2.5)"/></g><path d="M29.72 32.4 17.25 32.4 17.25 42.77C17.2497 43.2314 17.3205 43.6902 17.46 44.13 23.2362 42.49 27.8265 38.0981 29.72 32.4Z" id="Path_2388" fill="#003C3B" transform="translate(-2.35 -2.5)"/><ellipse cx="14.08" cy="25.16" rx="14.08" ry="14.06" id="Ellipse_135" fill="#005E5C"/><g id="Group_1582"><g id="Group_1581"><path d="M10.4 29.44C10.4 30.14 9.95 30.8 8.4 30.8 6.85 30.8 6.4 30.14 6.4 29.44L6.4 26.36C6.4 25.66 6.85 25 8.4 25 9.95 25 10.4 25.66 10.4 26.36L10.4 26.76C10.4 26.91 10.35 26.97 10.2 26.97L9.51 26.97C9.36 26.97 9.3 26.91 9.3 26.76L9.3 26.56C9.3 26.14 9.01 25.93 8.45 25.93 7.89 25.93 7.61 26.14 7.61 26.56L7.61 29.24C7.61 29.66 7.9 29.87 8.45 29.87 9 29.87 9.3 29.66 9.3 29.24L9.3 28.92C9.3 28.77 9.36 28.71 9.51 28.71L10.2 28.71C10.35 28.71 10.4 28.77 10.4 28.92Z" id="Path_2389" fill="#FFFFFF" transform="translate(-2.35 -2.5)"/><path d="M14.56 25.07C14.71 25.07 14.77 25.12 14.77 25.27L14.77 25.79C14.77 25.94 14.71 26 14.56 26L12.44 26 12.44 27.35 14.44 27.35C14.59 27.35 14.65 27.35 14.65 27.55L14.65 28.08C14.65 28.23 14.59 28.29 14.44 28.29L12.44 28.29 12.44 30.52C12.44 30.67 12.44 30.73 12.24 30.73L11.51 30.73C11.36 30.73 11.31 30.67 11.31 30.52L11.31 25.29C11.31 25.14 11.31 25.07 11.51 25.07Z" id="Path_2390" fill="#FFFFFF" transform="translate(-2.35 -2.5)"/><path d="M15.81 30.73C15.67 30.73 15.63 30.66 15.63 30.51L15.63 25.28C15.63 25.13 15.63 25.07 15.83 25.07L17.65 25.07C19.16 25.07 19.65 25.73 19.65 26.43L19.65 29.37C19.65 30.07 19.13 30.73 17.65 30.73ZM16.81 26 16.81 29.8 17.7 29.8C18.26 29.8 18.61 29.59 18.61 29.18L18.61 26.63C18.61 26.21 18.27 26 17.7 26Z" id="Path_2391" fill="#FFFFFF" transform="translate(-2.35 -2.5)"/><path d="M21.88 30.51C21.88 30.66 21.83 30.73 21.68 30.73L21 30.73C20.85 30.73 20.8 30.66 20.8 30.51L20.8 25.28C20.8 25.13 20.8 25.07 21 25.07L21.72 25.07C21.87 25.07 21.92 25.13 21.92 25.28Z" id="Path_2392" fill="#FFFFFF" transform="translate(-2.35 -2.5)"/><path d="M24.34 28.37 23.16 28.37C23.02 28.37 22.95 28.31 22.95 28.16L22.95 27.67C22.95 27.52 23.02 27.47 23.16 27.47L24.34 27.47 24.34 26.28C24.34 26.13 24.39 26.07 24.53 26.07L25 26.07C25.15 26.07 25.2 26.13 25.2 26.28L25.2 27.47 26.39 27.47C26.54 27.47 26.61 27.52 26.61 27.67L26.61 28.16C26.61 28.31 26.54 28.37 26.39 28.37L25.24 28.37 25.24 29.54C25.24 29.68 25.18 29.75 25.03 29.75L24.54 29.75C24.39 29.75 24.34 29.68 24.34 29.54Z" id="Path_2393" fill="#FFFFFF" transform="translate(-2.35 -2.5)"/></g></g></g><g id="Group_1584"><path d="M118.34 9.31C117.439 10.213 115.976 10.2144 115.073 9.31317 115.072 9.31211 115.071 9.31106 115.07 9.31 114.643 8.87923 114.406 8.29627 114.41 7.69 114.392 7.04652 114.659 6.42792 115.14 6 115.566 5.595 116.133 5.37248 116.72 5.38 117.971 5.39077 118.984 6.39923 119 7.65 119.009 8.27494 118.76 8.87588 118.31 9.31M115.31 6.31C114.956 6.6659 114.758 7.14802 114.76 7.65 114.765 8.16559 114.986 8.65535 115.37 9 116.129 9.74009 117.345 9.72445 118.085 8.96505 118.431 8.61022 118.626 8.13545 118.63 7.64 118.624 7.13768 118.423 6.65731 118.07 6.3 117.723 5.92499 117.231 5.71736 116.72 5.73 116.206 5.71707 115.711 5.9245 115.36 6.3M115.71 8.92 115.71 6.37 117 6.37C117.172 6.3801 117.342 6.42073 117.5 6.49 117.728 6.60961 117.861 6.8538 117.84 7.11 117.859 7.28654 117.792 7.46158 117.66 7.58 117.532 7.67835 117.38 7.74052 117.22 7.76 117.351 7.77031 117.476 7.819 117.58 7.9 117.74 8.04438 117.825 8.2547 117.81 8.47L117.81 8.7C117.805 8.72644 117.805 8.75356 117.81 8.78 117.806 8.80649 117.806 8.83351 117.81 8.86L117.81 8.92 117.17 8.92C117.16 8.80356 117.16 8.68644 117.17 8.57 117.185 8.46718 117.185 8.36281 117.17 8.26 117.14 8.17026 117.07 8.09984 116.98 8.07 116.905 8.05008 116.825 8.05008 116.75 8.07L116.47 8.07 116.47 8.97ZM116.93 6.92C116.801 6.8944 116.669 6.8944 116.54 6.92L116.38 6.92 116.38 7.66 116.63 7.66C116.761 7.66728 116.891 7.63222 117 7.56 117.097 7.49233 117.15 7.37787 117.14 7.26 117.149 7.12536 117.061 7.00343 116.93 6.97" id="Path_2394" fill="#004CAC" transform="translate(-2.35 -2.5)"/><path d="M69.12 11C68.5393 11.0042 67.9639 10.8884 67.43 10.66 66.8761 10.4339 66.4025 10.0473 66.07 9.55 65.6863 8.95574 65.4976 8.25661 65.53 7.55 65.5212 6.91609 65.6403 6.2869 65.88 5.7 66.0889 5.18232 66.406 4.71524 66.81 4.33 67.201 3.96965 67.66 3.69089 68.16 3.51 68.676 3.32256 69.221 3.22777 69.77 3.23 70.395 3.22374 71.0123 3.36779 71.57 3.65 72.0942 3.91567 72.5289 4.32946 72.82 4.84 73.1277 5.39645 73.2829 6.02429 73.27 6.66 73.2764 7.24437 73.1851 7.82569 73 8.38 72.8126 8.88738 72.5272 9.3529 72.16 9.75 71.7892 10.1361 71.3434 10.4424 70.85 10.65 70.3072 10.8702 69.7257 10.979 69.14 10.97M69.7 4.77C69.2399 4.76275 68.7902 4.9068 68.42 5.18 68.0671 5.43927 67.7851 5.78316 67.6 6.18 67.4226 6.56935 67.3305 6.99214 67.33 7.42 67.3129 7.93147 67.4876 8.43085 67.82 8.82 68.1543 9.21408 68.654 9.42875 69.17 9.4 69.5152 9.40945 69.8578 9.33751 70.17 9.19 70.4544 9.04169 70.7061 8.83763 70.91 8.59 71.1182 8.33466 71.2775 8.04312 71.38 7.73 71.4832 7.40684 71.5338 7.06921 71.53 6.73 71.5384 6.36452 71.4631 6.00197 71.31 5.67 71.0269 5.04936 70.402 4.65635 69.72 4.67" id="Path_2395" fill="#004CAC" transform="translate(-2.35 -2.5)"/><path d="M83.77 10.9 84.68 4.79 82.19 4.79 82.31 4 82.31 4 82.31 4C82.3348 3.63139 82.6311 3.33941 83 3.32L89.09 3.32 89 4.17 89 4.17C88.9413 4.52198 88.6368 4.77997 88.28 4.78L86.38 4.78 85.48 10.89Z" id="Path_2396" fill="#004CAC" transform="translate(-2.35 -2.5)"/><path d="M94.32 4C93.7653 3.52855 93.0453 3.29815 92.32 3.36L89.89 3.36 88.79 10.94 89.72 10.94C90.1606 10.9435 90.5343 10.6171 90.59 10.18L90.59 10.18 90.89 8.18 92.28 8.18C92.8058 8.19044 93.3255 8.06653 93.79 7.82 94.1639 7.60522 94.4664 7.2853 94.66 6.9 94.8478 6.50671 94.9436 6.07581 94.94 5.64 94.9636 5.03199 94.7399 4.44034 94.32 4M93.14 5.66C93.0895 6.34834 92.5639 6.9073 91.88 7L91.05 7 91.44 4.41C91.6724 4.37985 91.9076 4.37985 92.14 4.41 92.6 4.41 93.23 4.59 93.14 5.66" id="Path_2397" fill="#004CAC" transform="translate(-2.35 -2.5)"/><path d="M80 3.31 79.28 8.21 77.08 4.73C76.5905 3.8529 75.6645 3.30955 74.66 3.31L74.56 3.31 73.43 10.89 75.15 10.89 75.87 6 78 9.47C78.4913 10.3502 79.422 10.8941 80.43 10.89L80.53 10.89 81.65 3.31Z" id="Path_2398" fill="#004CAC" transform="translate(-2.35 -2.5)"/><path d="M99.12 3.32 98.54 3.32C97.7713 3.32108 97.0635 3.73815 96.69 4.41L96.63 4.51 96.63 4.51 93.36 10.9 95.14 10.9 96 9.16 98.47 9.16 98.68 10.9 100.52 10.9ZM96.5 8.09 97.96 5.09 98.37 8.09Z" id="Path_2399" fill="#004CAC" transform="translate(-2.35 -2.5)"/><path d="M108.14 9.28 107.91 9.05C108.027 8.83349 108.131 8.6097 108.22 8.38 108.416 7.83125 108.514 7.25254 108.51 6.67 108.523 6.03429 108.368 5.40645 108.06 4.85 107.769 4.33946 107.334 3.92566 106.81 3.66 106.253 3.37667 105.635 3.23256 105.01 3.24 104.464 3.2379 103.923 3.3327 103.41 3.52 102.91 3.70088 102.451 3.97965 102.06 4.34 101.65 4.72217 101.329 5.1899 101.12 5.71 100.888 6.29885 100.773 6.92714 100.78 7.56 100.744 8.26561 100.929 8.96485 101.31 9.56 101.649 10.0518 102.12 10.4368 102.67 10.67 103.206 10.8919 103.78 11.0074 104.36 11.01 104.949 11.0193 105.534 10.9105 106.08 10.69 106.25 10.62 106.41 10.53 106.58 10.44L106.8 10.66C106.983 10.8363 107.226 10.9364 107.48 10.94L108.42 10.94 108.42 10 108.42 10C108.417 9.75083 108.32 9.51189 108.15 9.33M104.39 9.49C103.852 9.51637 103.335 9.28181 103 8.86 102.67 8.46941 102.496 7.97103 102.51 7.46 102.514 7.03141 102.609 6.60859 102.79 6.22 102.968 5.82169 103.247 5.47694 103.6 5.22 103.97 4.9468 104.42 4.80275 104.88 4.81 105.559 4.79774 106.18 5.19094 106.46 5.81 106.621 6.13969 106.7 6.50331 106.69 6.87 106.694 7.20921 106.643 7.54684 106.54 7.87 106.438 8.18312 106.278 8.47466 106.07 8.73 105.865 8.98034 105.609 9.18476 105.32 9.33 105.008 9.47934 104.665 9.55138 104.32 9.54" id="Path_2400" fill="#004CAC" transform="translate(-2.35 -2.5)"/><path d="M64.88 5C64.88 5 62.42 4.23 61.23 5.39 60.04 6.55 60.01 8.39 61.32 9.11 62.5068 9.54037 63.8282 9.37286 64.87 8.66 64.9777 9.14117 64.9214 9.64453 64.71 10.09 64.36 10.82 62.32 11.24 60.71 10.68 59.1923 10.1863 58.2678 8.65259 58.54 7.08 58.6797 5.25058 60.0205 3.73804 61.82 3.38 63.1028 3.14104 64.4232 3.19919 65.68 3.55Z" id="Path_2401" fill="#004CAC" transform="translate(-2.35 -2.5)"/><path d="M113.24 5.34 112 5.34C111.517 5.33026 111.096 5.66688 111 6.14L110.28 10.9 110.28 10.9C110.829 10.6285 111.3 10.2226 111.65 9.72 112.229 9.05283 112.671 8.27806 112.95 7.44Z" id="Path_2402" fill="#004CAC" transform="translate(-2.35 -2.5)"/><path d="M112.41 4.66C113.006 4.66 113.49 4.17647 113.49 3.58 113.49 2.98353 113.006 2.5 112.41 2.5 111.814 2.5 111.33 2.98353 111.33 3.58 111.33 4.17647 111.814 4.66 112.41 4.66L112.41 4.66" id="Path_2403" fill="#004CAC" transform="translate(-2.35 -2.5)"/><path d="M111.63 9.72C111.281 10.2276 110.806 10.6345 110.25 10.9L111.55 10.9C112.03 10.9107 112.449 10.5791 112.55 10.11L112.93 7.44C112.651 8.27806 112.209 9.05283 111.63 9.72" id="Path_2404" fill="#00B5F1" transform="translate(-2.35 -2.5)"/></g><g id="Group_1585"><path d="M58.27 20.49C58.27 17.96 60.15 16.35 62.75 16.35 65.35 16.35 67.19 17.87 67.19 19.94L67.19 20.58 65.8 20.58 65.8 20.2C65.8 18.66 64.55 17.67 62.8 17.67 61.2372 17.5434 59.8674 18.7072 59.74 20.27 59.725 20.4296 59.725 20.5904 59.74 20.75L59.74 25.75C59.6014 27.3124 60.7556 28.6912 62.318 28.8298 62.3186 28.8299 62.3193 28.8299 62.32 28.83 62.4798 28.84 62.6402 28.84 62.8 28.83 64.6 28.83 65.8 27.83 65.8 26.3L65.8 25.73 67.19 25.73 67.19 26.57C67.19 28.64 65.35 30.16 62.75 30.16 60.15 30.16 58.27 28.55 58.27 26Z" id="Path_2405" fill="#0B938A" transform="translate(-2.35 -2.5)"/><path d="M69.12 16.62 76.81 16.62 76.81 17.94 70.55 17.94 70.55 22.89 75.79 22.89 75.79 24.2 70.55 24.2 70.55 29.9 69.12 29.9Z" id="Path_2406" fill="#0B938A" transform="translate(-2.35 -2.5)"/><path d="M78.14 16.62 82.93 16.62C85.0589 16.4302 86.9386 18.0022 87.1284 20.1311 87.1289 20.1374 87.1295 20.1437 87.13 20.15 87.145 20.3497 87.145 20.5503 87.13 20.75L87.13 25.75C87.2884 27.8759 85.6935 29.7278 83.5676 29.8862 83.3519 29.9023 83.1353 29.9002 82.92 29.88L78.14 29.88ZM82.93 28.62C84.73 28.62 85.72 27.54 85.72 25.55L85.72 21C85.72 19 84.72 17.94 82.93 17.94L79.57 17.94 79.57 28.59Z" id="Path_2407" fill="#0B938A" transform="translate(-2.35 -2.5)"/><path d="M89.13 16.62 90.56 16.62 90.56 29.9 89.14 29.9Z" id="Path_2408" fill="#0B938A" transform="translate(-2.35 -2.5)"/><path d="M97.89 16.62 105.57 16.62 105.57 17.94 99.31 17.94 99.31 22.89 104.55 22.89 104.55 24.2 99.31 24.2 99.31 29.9 97.89 29.9Z" id="Path_2409" fill="#0B938A" transform="translate(-2.35 -2.5)"/><path d="M106.68 22.86C106.68 20.45 107.91 19.08 110.28 19.08 111.415 19.1343 112.487 19.6167 113.28 20.43L113.38 19.27 114.58 19.27 114.58 29.9 113.38 29.9 113.28 28.74C112.497 29.568 111.419 30.0533 110.28 30.09 107.91 30.09 106.68 28.73 106.68 26.32ZM108 26.07C108 27.89 108.65 28.88 110.36 28.88 111.485 28.7992 112.524 28.2472 113.22 27.36L113.22 21.82C112.524 20.9328 111.485 20.3808 110.36 20.3 108.65 20.3 108 21.3 108 23.11Z" id="Path_2410" fill="#0B938A" transform="translate(-2.35 -2.5)"/><path d="M117 23C116.863 20.99 118.38 19.2488 120.39 19.11 120.593 19.095 120.797 19.095 121 19.11 123.53 19.11 125 20.51 125 22.4L125 22.7 123.69 22.7 123.69 22.58C123.69 21.25 122.93 20.32 121.05 20.32 119.34 20.32 118.39 21.32 118.39 23.21L118.39 26C118.39 27.9 119.34 28.88 121.05 28.88 122.93 28.88 123.69 27.94 123.69 26.61L123.69 26.49 125 26.49 125 26.79C125 28.61 123.58 30.09 121 30.09 119.001 30.2987 117.21 28.847 117.002 26.8475 117.001 26.8417 117.001 26.8359 117 26.83 116.98 26.6272 116.98 26.4228 117 26.22Z" id="Path_2411" fill="#0B938A" transform="translate(-2.35 -2.5)"/><path d="M127.22 20.47 126 20.47 126 19.27 127.22 19.27 127.37 16.61 128.57 16.61 128.57 19.27 131.93 19.27 131.93 20.47 128.57 20.47 128.57 26.47C128.57 28.17 129.27 28.97 130.83 28.97 131.337 28.9814 131.842 28.9174 132.33 28.78L132.33 29.9C131.844 30.0526 131.339 30.1368 130.83 30.15 128.51 30.15 127.22 29.07 127.22 26.66Z" id="Path_2412" fill="#0B938A" transform="translate(-2.35 -2.5)"/><path d="M133.58 19.27 134.93 19.27 134.93 26.27C134.93 28.09 135.33 28.89 137.07 28.89 138.194 28.8152 139.232 28.2617 139.92 27.37L139.92 19.27 141.27 19.27 141.27 29.9 140.07 29.9 139.97 28.74C139.169 29.5719 138.074 30.0566 136.92 30.09 134.47 30.09 133.58 28.92 133.58 26.5Z" id="Path_2413" fill="#0B938A" transform="translate(-2.35 -2.5)"/><path d="M143.73 19.27 144.91 19.27 145 20.6C145.688 19.6815 146.753 19.1229 147.9 19.08L148 19.08 148 20.34 147.79 20.34C146.666 20.4042 145.648 21.0274 145.08 22L145.08 29.9 143.73 29.9Z" id="Path_2414" fill="#0B938A" transform="translate(-2.35 -2.5)"/><path d="M149.28 22.86C149.28 20.45 150.51 19.08 152.88 19.08 154.016 19.1303 155.089 19.6133 155.88 20.43L155.98 19.27 157.18 19.27 157.18 29.9 156 29.9 155.9 28.74C155.117 29.568 154.039 30.0533 152.9 30.09 150.53 30.09 149.3 28.73 149.3 26.32ZM150.62 26.07C150.62 27.89 151.27 28.88 152.98 28.88 154.109 28.802 155.151 28.2497 155.85 27.36L155.85 21.82C155.156 20.9352 154.121 20.3835 153 20.3 151.29 20.3 150.64 21.3 150.64 23.11Z" id="Path_2415" fill="#0B938A" transform="translate(-2.35 -2.5)"/><path d="M159.55 23C159.419 20.9882 160.939 19.2489 162.95 19.11 163.153 19.095 163.357 19.095 163.56 19.11 166.08 19.11 167.51 20.51 167.51 22.4L167.51 22.7 166.19 22.7 166.19 22.58C166.19 21.25 165.43 20.32 163.55 20.32 161.84 20.32 160.9 21.32 160.9 23.21L160.9 26C160.9 27.9 161.85 28.88 163.55 28.88 165.43 28.88 166.19 27.94 166.19 26.61L166.19 26.49 167.5 26.49 167.5 26.79C167.5 28.61 166.08 30.09 163.55 30.09 161.545 30.2937 159.755 28.8345 159.55 26.83 159.53 26.6272 159.53 26.4228 159.55 26.22Z" id="Path_2416" fill="#0B938A" transform="translate(-2.35 -2.5)"/><path d="M169.82 20.47 168.62 20.35 168.62 19.27 171.16 19.27 171.16 29.9 169.82 29.9ZM169.59 16.69C169.59 15.99 169.93 15.69 170.44 15.69 170.95 15.69 171.36 16.01 171.36 16.69 171.443 17.1577 171.13 17.6038 170.662 17.6863 170.655 17.6877 170.648 17.6889 170.64 17.69L170.44 17.69C169.93 17.66 169.59 17.36 169.59 16.69Z" id="Path_2417" fill="#0B938A" transform="translate(-2.35 -2.5)"/><path d="M173.52 23C173.52 20.7909 175.311 19 177.52 19 179.729 19 181.52 20.7909 181.52 23L181.52 26.26C181.52 28.4691 179.729 30.26 177.52 30.26 175.311 30.26 173.52 28.4691 173.52 26.26ZM174.87 26C174.87 27.9 175.82 28.89 177.53 28.89 179.24 28.89 180.18 27.89 180.18 26L180.18 23.2C180.18 21.3 179.18 20.31 177.53 20.31 175.88 20.31 174.87 21.31 174.87 23.2ZM178.32 15.9 179.94 15.9 178.17 18.22 176.86 18.22Z" id="Path_2418" fill="#0B938A" transform="translate(-2.35 -2.5)"/><path d="M183.89 19.27 185.09 19.27 185.18 20.43C185.939 19.6036 186.999 19.1171 188.12 19.08 190.5 19.08 191.65 20.26 191.65 22.67L191.65 29.9 190.31 29.9 190.31 22.9C190.31 21.07 189.74 20.28 188.03 20.28 186.921 20.3509 185.901 20.9071 185.24 21.8L185.24 29.9 183.89 29.9Z" id="Path_2419" fill="#0B938A" transform="translate(-2.35 -2.5)"/><path d="M58.44 40.36C58.44 38.1509 60.2309 36.36 62.44 36.36 64.6491 36.36 66.44 38.1509 66.44 40.36L66.44 42.29 59.78 42.29 59.78 43.39C59.78 45.29 60.73 46.28 62.44 46.28 64.32 46.28 65.08 45.18 65.08 44L65.08 43.89 66.39 43.89 66.39 44.19C66.39 45.86 64.97 47.49 62.39 47.49 60.3844 47.6932 58.5939 46.2321 58.3907 44.2265 58.3904 44.2244 58.3902 44.2222 58.39 44.22 58.3649 44.0174 58.3649 43.8126 58.39 43.61ZM65.1 41.1 65.1 40.58C65.1 38.68 64.15 37.7 62.44 37.7 60.73 37.7 59.78 38.7 59.78 40.58L59.78 41.1Z" id="Path_2420" fill="#0B938A" transform="translate(-2.35 -2.5)"/><path d="M68.76 36.67 70 36.67 70.1 37.83C70.8505 37.0161 71.8938 36.534 73 36.49 75.37 36.49 76.53 37.66 76.53 40.07L76.53 47.31 75.18 47.31 75.18 40.31C75.18 38.49 74.62 37.69 72.91 37.69 71.8015 37.7609 70.7807 38.3171 70.12 39.21L70.12 47.3 68.77 47.3Z" id="Path_2421" fill="#0B938A" transform="translate(-2.35 -2.5)"/><path d="M84.2 33.07 85.55 33.07 85.55 45.31C85.55 45.85 85.62 46.19 86.25 46.19 86.4063 46.2048 86.5637 46.2048 86.72 46.19L86.72 47.19C86.3572 47.2601 85.9893 47.3003 85.62 47.31 84.62 47.31 84.2 46.87 84.2 45.81Z" id="Path_2422" fill="#0B938A" transform="translate(-2.35 -2.5)"/><path d="M88 37.87 86.8 37.76 86.8 36.67 89.35 36.67 89.35 47.31 88 47.31ZM89.1 33.3 90.71 33.3 88.94 35.61 87.64 35.61Z" id="Path_2423" fill="#0B938A" transform="translate(-2.35 -2.5)"/><path d="M91.83 36.67 93 36.67 93.09 37.83C93.8539 37.0058 94.9168 36.523 96.04 36.49 98.41 36.49 99.57 37.66 99.57 40.07L99.57 47.31 98.25 47.31 98.25 40.31C98.25 38.49 97.68 37.69 95.97 37.69 94.8615 37.7609 93.8407 38.3171 93.18 39.21L93.18 47.3 91.83 47.3Z" id="Path_2424" fill="#0B938A" transform="translate(-2.35 -2.5)"/><path d="M101.91 40.36C101.91 38.1509 103.701 36.36 105.91 36.36 108.119 36.36 109.91 38.1509 109.91 40.36L109.91 42.29 103.25 42.29 103.25 43.39C103.25 45.29 104.2 46.28 105.91 46.28 107.78 46.28 108.54 45.18 108.54 44L108.54 43.89 109.85 43.89 109.85 44.19C109.85 45.86 108.43 47.49 105.91 47.49 103.905 47.6937 102.115 46.2345 101.91 44.23 101.895 44.0236 101.895 43.8164 101.91 43.61ZM108.57 41.1 108.57 40.58C108.57 38.68 107.62 37.7 105.92 37.7 104.22 37.7 103.26 38.7 103.26 40.58L103.26 41.1Z" id="Path_2425" fill="#0B938A" transform="translate(-2.35 -2.5)"/><path d="M112.12 40.26C112.12 37.85 113.36 36.49 115.73 36.49 116.865 36.5366 117.938 37.0161 118.73 37.83L118.82 36.67 120 36.67 120 47.31 118.8 47.31 118.71 46.15C117.924 46.9717 116.847 47.4527 115.71 47.49 113.34 47.49 112.1 46.13 112.1 43.72ZM113.47 43.47C113.47 45.29 114.12 46.28 115.83 46.28 116.955 46.1992 117.994 45.6472 118.69 44.76L118.69 39.22C117.987 38.3404 116.952 37.7904 115.83 37.7 114.12 37.7 113.47 38.7 113.47 40.51Z" id="Path_2426" fill="#0B938A" transform="translate(-2.35 -2.5)"/><path d="M126.08 42.2 122.08 42.2 122.08 40.91 126.08 40.91 126.08 36.62 127.37 36.62 127.37 40.91 131.32 40.91 131.32 42.2 127.37 42.2 127.37 46.49 126.08 46.49Z" id="Path_2427" fill="#0B938A" transform="translate(-2.35 -2.5)"/></g></svg>