<svg viewBox="0 0 144.43 45.01" xmlns="http://www.w3.org/2000/svg" xmlns:xlink="http://www.w3.org/1999/xlink" id="Layer_1" overflow="hidden"><defs></defs><g id="Group_1593"><g id="Group_1587"><path d="M134.18 11.56C133.274 12.4654 131.806 12.4654 130.9 11.56 130.47 11.1274 130.232 10.5399 130.24 9.93 130.217 9.2678 130.497 8.6312 131 8.2 131.429 7.79343 131.999 7.56782 132.59 7.57 133.869 7.57548 134.905 8.61098 134.91 9.89 134.916 10.5192 134.663 11.1231 134.21 11.56M131.21 8.56C130.857 8.9208 130.66 9.4054 130.66 9.91 130.649 10.4245 130.852 10.9205 131.22 11.28 131.974 12.0256 133.19 12.0188 133.935 11.2648 134.292 10.9042 134.491 10.4171 134.49 9.91 134.491 9.40333 134.289 8.91733 133.93 8.56 133.189 7.80889 131.98 7.80042 131.229 8.54108 131.223 8.54734 131.216 8.55365 131.21 8.56M131.56 11.2 131.56 8.6 132.8 8.6C132.977 8.60412 133.15 8.64499 133.31 8.72 133.538 8.83962 133.671 9.0838 133.65 9.34 133.669 9.51654 133.602 9.69158 133.47 9.81 133.335 9.91706 133.172 9.98301 133 10 133.131 10.0103 133.256 10.059 133.36 10.14 133.526 10.2847 133.612 10.5008 133.59 10.72L133.59 11C133.585 11.0231 133.585 11.0469 133.59 11.07 133.584 11.0964 133.584 11.1236 133.59 11.15L133.59 11.22 133 11.22C132.99 11.1035 132.99 10.9865 133 10.87 133.01 10.7636 133.01 10.6564 133 10.55 132.96 10.4657 132.888 10.401 132.8 10.37 132.727 10.3381 132.649 10.321 132.57 10.32L132.28 10.32 132.28 11.23ZM132.79 9.14C132.664 9.10057 132.532 9.08035 132.4 9.08L132.23 9.08 132.23 9.83 132.49 9.83C132.621 9.83729 132.751 9.80222 132.86 9.73 132.954 9.65979 133.007 9.54714 133 9.43 133.005 9.2965 132.918 9.17675 132.79 9.14" id="Path_2428" fill="#004CAC" transform="translate(-17.79 -2.5)"/><path d="M84.78 13.23C84.1988 13.2287 83.6239 13.1097 83.09 12.88 82.5386 12.6498 82.0661 12.2641 81.73 11.77 81.3419 11.1777 81.1528 10.4771 81.19 9.77 81.1827 9.13066 81.2981 8.49586 81.53 7.9 81.744 7.38257 82.0642 6.91584 82.47 6.53 82.8659 6.17106 83.3278 5.89255 83.83 5.71 84.346 5.52256 84.891 5.42777 85.44 5.43 86.0656 5.41762 86.6844 5.56201 87.24 5.85 87.7642 6.11566 88.1989 6.52946 88.49 7.04 88.8021 7.59832 88.9576 8.2306 88.94 8.87 88.9486 9.45293 88.8503 10.0325 88.65 10.58 88.4717 11.1066 88.1856 11.5902 87.81 12 87.4415 12.3912 86.9953 12.7012 86.5 12.91 85.9538 13.1305 85.3689 13.2393 84.78 13.23M85.34 7C84.8788 6.98492 84.4266 7.12977 84.06 7.41 83.7071 7.66927 83.4251 8.01316 83.24 8.41 83.0692 8.82157 82.9874 9.26459 83 9.71 82.9913 10.2219 83.169 10.7194 83.5 11.11 83.8343 11.5041 84.334 11.7188 84.85 11.69 85.1951 11.6987 85.5375 11.6268 85.85 11.48 86.1374 11.3319 86.3924 11.1279 86.6 10.88 86.7781 10.6091 86.913 10.3123 87 10 87.1029 9.67676 87.1535 9.33919 87.15 9 87.1524 8.65441 87.0772 8.31268 86.93 8 86.6504 7.38094 86.0292 6.98774 85.35 7" id="Path_2429" fill="#004CAC" transform="translate(-17.79 -2.5)"/><path d="M99.49 13.15 100.41 7 97.91 7 98 6.23 98 6.23 98 6.23C98.0362 5.85439 98.3527 5.56826 98.73 5.57L104.83 5.57 104.71 6.41 104.71 6.41C104.64 6.74828 104.345 6.99315 104 7L102.11 7 101.21 13.13Z" id="Path_2430" fill="#004CAC" transform="translate(-17.79 -2.5)"/><path d="M110.08 6.18C109.524 5.71114 108.804 5.48426 108.08 5.55L105.64 5.55 104.53 13.16 105.47 13.16C105.913 13.1548 106.286 12.8282 106.35 12.39L106.35 12.39 106.65 10.39 108 10.39C108.53 10.4118 109.056 10.2872 109.52 10.03 109.896 9.81762 110.199 9.49705 110.39 9.11 110.583 8.71842 110.679 8.28634 110.67 7.85 110.689 7.24756 110.47 6.66188 110.06 6.22M108.89 7.9C108.862 8.60539 108.33 9.18806 107.63 9.28L106.79 9.28 107.18 6.68C107.416 6.65485 107.654 6.65485 107.89 6.68 108.35 6.68 108.99 6.86 108.89 7.94" id="Path_2431" fill="#004CAC" transform="translate(-17.79 -2.5)"/><path d="M95.67 5.54 95 10.46 92.78 7C92.2929 6.11434 91.3607 5.56576 90.35 5.57L90.24 5.57 89.12 13.19 90.84 13.19 91.56 8.26 93.73 11.76C94.223 12.6434 95.1584 13.1877 96.17 13.18L96.27 13.18 97.39 5.58Z" id="Path_2432" fill="#004CAC" transform="translate(-17.79 -2.5)"/><path d="M114.9 5.55 114.31 5.55C113.539 5.55169 112.828 5.9681 112.45 6.64L112.39 6.74 109.14 13.1 110.93 13.1 111.78 11.35 114.26 11.35 114.47 13.1 116.32 13.1ZM112.27 10.33 113.73 7.33 114.14 10.33Z" id="Path_2433" fill="#004CAC" transform="translate(-17.79 -2.5)"/><path d="M124 11.53 123.76 11.29C123.885 11.0775 123.989 10.8531 124.07 10.62 124.27 10.0725 124.369 9.49293 124.36 8.91 124.378 8.2706 124.222 7.63832 123.91 7.08 123.619 6.56946 123.184 6.15566 122.66 5.89 122.101 5.60198 121.479 5.45764 120.85 5.47 120.301 5.46777 119.756 5.56256 119.24 5.75 118.74 5.93088 118.281 6.20965 117.89 6.57 117.482 6.95385 117.161 7.42112 116.95 7.94 116.71 8.5304 116.591 9.16285 116.6 9.8 116.565 10.5069 116.754 11.2068 117.14 11.8 117.476 12.2941 117.949 12.6798 118.5 12.91 119.039 13.1361 119.616 13.255 120.2 13.26 120.789 13.2599 121.373 13.148 121.92 12.93 122.09 12.86 122.25 12.77 122.42 12.68L122.64 12.9C122.823 13.0763 123.066 13.1764 123.32 13.18L124.32 13.18 124.32 12.18 124.32 12.18C124.321 11.928 124.22 11.6862 124.04 11.51M120.27 11.67C119.755 11.6912 119.259 11.4779 118.92 11.09 118.589 10.6999 118.415 10.2012 118.43 9.69 118.428 9.2554 118.52 8.82549 118.7 8.43 118.885 8.03316 119.167 7.68927 119.52 7.43 119.863 7.16831 120.279 7.01822 120.71 7 121.389 6.98774 122.01 7.38094 122.29 8 122.44 8.31199 122.519 8.65368 122.52 9 122.524 9.33921 122.473 9.67684 122.37 10 122.272 10.315 122.112 10.6073 121.9 10.86 121.695 11.1108 121.44 11.3153 121.15 11.46 120.839 11.611 120.496 11.6863 120.15 11.68" id="Path_2434" fill="#004CAC" transform="translate(-17.79 -2.5)"/><path d="M80.54 7.26C80.54 7.26 78.06 6.49 76.87 7.65 75.68 8.81 75.65 10.65 76.96 11.39 78.27 12.13 80.38 11.17 80.53 10.94 80.6346 11.4223 80.5747 11.9257 80.36 12.37 80.01 13.11 77.96 13.53 76.36 12.96 74.8296 12.4692 73.898 10.9223 74.18 9.34 74.3231 7.50655 75.6668 5.99133 77.47 5.63 78.7561 5.39091 80.0798 5.44906 81.34 5.8Z" id="Path_2435" fill="#004CAC" transform="translate(-17.79 -2.5)"/><path d="M129.06 7.57 127.77 7.57C127.284 7.56116 126.862 7.90289 126.77 8.38L126.05 13.15 126.05 13.15C126.608 12.893 127.09 12.497 127.45 12 128.029 11.3291 128.471 10.5511 128.75 9.71Z" id="Path_2436" fill="#004CAC" transform="translate(-17.79 -2.5)"/><path d="M128.23 6.89C128.829 6.83241 129.268 6.29995 129.211 5.70072 129.161 5.18117 128.75 4.76994 128.23 4.72 127.628 4.72 127.14 5.20801 127.14 5.81L127.14 5.81C127.145 6.40808 127.632 6.89003 128.23 6.89L128.23 6.89" id="Path_2437" fill="#004CAC" transform="translate(-17.79 -2.5)"/><path d="M127.45 12C127.104 12.5102 126.628 12.9178 126.07 13.18L127.37 13.18C127.853 13.1897 128.274 12.8531 128.37 12.38L128.76 9.71C128.483 10.549 128.041 11.3242 127.46 11.99" id="Path_2438" fill="#00B5F1" transform="translate(-17.79 -2.5)"/></g><g id="Group_1588"><path d="M74 23.19C74 20.37 76.1 18.58 79 18.58 81.9 18.58 83.95 20.27 83.95 22.58L83.95 23.3 82.42 23.3 82.42 22.87C82.42 21.16 81.02 20.06 79.01 20.06 77.2706 19.9181 75.7454 21.2131 75.6035 22.9526 75.6022 22.9684 75.6011 22.9842 75.6 23 75.59 23.1799 75.59 23.3601 75.6 23.54L75.6 29.12C75.4499 30.8619 76.7384 32.3965 78.48 32.55L79 32.55C81 32.55 82.41 31.45 82.41 29.74L82.41 29.1 84 29.1 84 30C84 32.31 82 34 79.05 34 76.1 34 74.05 32.2 74.05 29.39Z" id="Path_2439" fill="#0B938A" transform="translate(-17.79 -2.5)"/><path d="M86.21 25.94C86.21 23.25 87.92 21.62 90.67 21.62 93.42 21.62 95.14 23.25 95.14 25.94L95.14 29.58C95.14 32.27 93.42 33.89 90.67 33.89 87.92 33.89 86.21 32.26 86.21 29.58ZM87.71 29.33C87.71 31.44 88.77 32.54 90.71 32.54 92.65 32.54 93.71 31.44 93.71 29.33L93.71 26.2C93.71 24.08 92.71 22.98 90.71 22.98 88.71 22.98 87.71 24.08 87.71 26.2Z" id="Path_2440" fill="#0B938A" transform="translate(-17.79 -2.5)"/><path d="M97.77 21.84 99.1 21.84 99.2 23.13C99.9653 22.2185 101.081 21.6736 102.27 21.63 103.619 21.4733 104.919 22.1876 105.51 23.41 106.29 22.3445 107.511 21.69 108.83 21.63 111.48 21.63 112.52 22.94 112.52 25.63L112.52 33.69 111 33.69 111 25.9C111 23.9 110.62 22.98 108.71 22.98 107.554 23.0625 106.5 23.6707 105.85 24.63 105.9 25.0316 105.93 25.4354 105.94 25.84L105.94 33.69 104.44 33.69 104.44 26.11C104.44 24.11 104.06 22.98 102.15 22.98 100.974 23.0657 99.9041 23.6894 99.25 24.67L99.25 33.67 97.75 33.67Z" id="Path_2441" fill="#0B938A" transform="translate(-17.79 -2.5)"/><path d="M115.1 25.94C115.1 23.25 116.81 21.62 119.56 21.62 122.31 21.62 124 23.25 124 25.94L124 28.1 116.6 28.1 116.6 29.33C116.6 31.44 117.66 32.54 119.6 32.54 121.71 32.54 122.6 31.32 122.6 30L122.6 29.88 124 29.88 124 30.22C124 32.08 122.41 33.9 119.6 33.9 116.79 33.9 115.13 32.27 115.13 29.58ZM122.53 26.77 122.53 26.2C122.53 24.08 121.47 22.98 119.53 22.98 117.59 22.98 116.53 24.08 116.53 26.2L116.53 26.77Z" id="Path_2442" fill="#0B938A" transform="translate(-17.79 -2.5)"/><path d="M126.61 21.84 127.93 21.84 128.05 23.32C128.812 22.2871 130.007 21.6634 131.29 21.63L131.42 21.63 131.42 23 131.18 23C129.916 23.0608 128.766 23.7519 128.12 24.84L128.12 33.66 126.62 33.66Z" id="Path_2443" fill="#0B938A" transform="translate(-17.79 -2.5)"/><path d="M132.25 25.94C132.25 23.25 133.96 21.62 136.71 21.62 139.46 21.62 141.11 23.19 141.11 25.29L141.11 25.62 139.65 25.62 139.65 25.5C139.65 24.02 138.8 22.98 136.71 22.98 134.81 22.98 133.71 24.08 133.71 26.2L133.71 29.33C133.71 31.44 134.77 32.54 136.71 32.54 138.81 32.54 139.65 31.49 139.65 30L139.65 29.88 141.11 29.88 141.11 30.22C141.11 32.22 139.52 33.9 136.71 33.9 133.9 33.9 132.25 32.27 132.25 29.58Z" id="Path_2444" fill="#0B938A" transform="translate(-17.79 -2.5)"/><path d="M143.7 23.17 142.36 23 142.36 21.8 145.2 21.8 145.2 33.69 143.7 33.69ZM143.44 19C143.44 18.21 143.82 17.85 144.39 17.85 144.96 17.85 145.39 18.21 145.39 19 145.468 19.5133 145.114 19.9923 144.601 20.0699 144.601 20.0699 144.6 20.07 144.6 20.07L144.37 20.07C143.8 20.07 143.42 19.74 143.42 19Z" id="Path_2445" fill="#0B938A" transform="translate(-17.79 -2.5)"/><path d="M147.83 25.84C147.83 23.15 149.2 21.62 151.83 21.62 153.1 21.6747 154.301 22.2111 155.19 23.12L155.3 21.83 156.63 21.83 156.63 33.69 155.3 33.69 155.19 32.4C154.309 33.3202 153.103 33.8586 151.83 33.9 149.18 33.9 147.83 32.37 147.83 29.68ZM149.33 29.41C149.33 31.41 150.05 32.55 151.95 32.55 153.212 32.4705 154.378 31.851 155.15 30.85L155.15 24.67C154.374 23.7043 153.235 23.1004 152 23 150.1 23 149.38 24.1 149.38 26.13Z" id="Path_2446" fill="#0B938A" transform="translate(-17.79 -2.5)"/><path d="M159.4 17.82 160.9 17.82 160.9 31.47C160.9 32.06 160.99 32.47 161.68 32.47 161.856 32.4902 162.034 32.4902 162.21 32.47L162.21 33.63C161.809 33.7133 161.4 33.7569 160.99 33.76 159.93 33.76 159.4 33.27 159.4 32.09Z" id="Path_2447" fill="#0B938A" transform="translate(-17.79 -2.5)"/></g><g id="Group_1592"><g id="Group_1590"><path d="M32.74 32.5 62.79 32.5 62.79 38.82C62.79 43.6138 58.9038 47.5 54.11 47.5L41.42 47.5C36.6262 47.5 32.74 43.6138 32.74 38.82L32.74 38.82 32.74 32.5Z" id="Rectangle_1605" fill="#2D80C9" transform="translate(-17.79 -2.5)"/><path d="M32.74 32.5 62.79 32.5 62.79 38.82C62.79 43.6138 58.9038 47.5 54.11 47.5L41.42 47.5C36.6262 47.5 32.74 43.6138 32.74 38.82L32.74 38.82 32.74 32.5Z" id="Rectangle_1606" fill="#0B938A" transform="translate(-17.79 -2.5)"/><path d="M52.71 2.5 39.13 2.5C38.51 2.5 32.74 11.21 32.74 11.88L32.74 32.5 62.79 32.5 62.79 12.56Z" id="Path_2448" fill="#3AB3A5" transform="translate(-17.79 -2.5)"/><path d="M52.71 2.5 37.29 2.5C34.7965 2.49985 32.7674 4.50665 32.74 7L32.74 7 32.74 17.5 62.79 17.5 62.79 12.56Z" id="Path_2449" fill="#3AB3A5" transform="translate(-17.79 -2.5)"/><g id="Group_1589"><path d="M58.34 29.27 58.34 29.27C57.5502 29.27 56.91 28.6298 56.91 27.84L56.91 12.2C56.9155 11.4141 57.5541 10.78 58.34 10.78L58.34 10.78C59.122 10.7854 59.7546 11.418 59.76 12.2L59.76 27.84C59.76 28.6259 59.1259 29.2645 58.34 29.27Z" id="Rectangle_1607" fill="#0B938A" transform="translate(-17.79 -2.5)"/><path d="M55 29.27 55 29.27C54.5195 29.27 54.13 28.8805 54.13 28.4L54.13 11.65C54.13 11.1695 54.5195 10.78 55 10.78L55 10.78C55.4805 10.78 55.87 11.1695 55.87 11.65L55.87 28.4C55.87 28.8805 55.4805 29.27 55 29.27Z" id="Rectangle_1608" fill="#0B938A" transform="translate(-17.79 -2.5)"/><path d="M52.3 29.27 52.3 29.27C51.825 29.27 51.44 28.885 51.4399 28.4101 51.4399 28.4067 51.44 28.4034 51.44 28.4L51.44 11.65C51.4345 11.1751 51.815 10.7856 52.2899 10.7801 52.2933 10.78 52.2966 10.78 52.3 10.78L52.3 10.78C52.7805 10.78 53.17 11.1695 53.17 11.65L53.17 28.4C53.17 28.8805 52.7805 29.27 52.3 29.27Z" id="Rectangle_1609" fill="#0B938A" transform="translate(-17.79 -2.5)"/><path d="M49.57 29.27 49.57 29.27C49.0895 29.27 48.7 28.8805 48.7 28.4L48.7 11.65C48.7 11.1695 49.0895 10.78 49.57 10.78L49.57 10.78C50.045 10.78 50.43 11.165 50.4301 11.6399 50.4301 11.6433 50.43 11.6466 50.43 11.65L50.43 28.4C50.4355 28.8749 50.055 29.2644 49.5801 29.2699 49.5767 29.27 49.5734 29.27 49.57 29.27Z" id="Rectangle_1610" fill="#0B938A" transform="translate(-17.79 -2.5)"/><path d="M42.62 29.27 42.62 29.27C42.1395 29.27 41.75 28.8805 41.75 28.4L41.75 11.65C41.75 11.1695 42.1395 10.78 42.62 10.78L42.62 10.78C43.0966 10.7855 43.48 11.1734 43.48 11.65L43.48 28.4C43.48 28.8766 43.0966 29.2645 42.62 29.27Z" id="Rectangle_1611" fill="#0B938A" transform="translate(-17.79 -2.5)"/><path d="M39.39 29.27 39.39 29.27C38.6279 29.2755 38.0056 28.6622 38 27.9 38 27.8967 38 27.8933 38 27.89L38 12.15C38 11.3934 38.6133 10.78 39.37 10.78 39.3733 10.78 39.3767 10.78 39.38 10.78L39.38 10.78C40.1366 10.7745 40.7544 11.3834 40.76 12.14 40.76 12.1433 40.76 12.1467 40.76 12.15L40.76 27.89C40.76 28.6483 40.1482 29.2645 39.39 29.27Z" id="Rectangle_1612" fill="#0B938A" transform="translate(-17.79 -2.5)"/><rect x="26.41" y="8.28" rx="1.64" width="3.5" height="18.49" id="Rectangle_1613" fill="#0B938A"/></g><path d="M55.91 13.77 62.79 12.57 52.71 2.5 52 10.06C51.61 12.66 53.38 14.32 55.91 13.77Z" id="Path_2450" fill="#003C3B" transform="translate(-17.79 -2.5)"/><path d="M57.29 12.56 62.79 12.56 52.71 2.5 52.71 8C52.71 10.5184 54.7515 12.56 57.27 12.56 57.2766 12.56 57.2833 12.56 57.29 12.56Z" id="Path_2451" fill="#0B938A" transform="translate(-17.79 -2.5)"/></g><path d="M45.26 32.5 32.74 32.5 32.74 42.91C32.7558 43.3741 32.8435 43.8328 33 44.27 38.7809 42.6143 43.3701 38.2086 45.26 32.5Z" id="Path_2452" fill="#003C3B" transform="translate(-17.79 -2.5)"/><ellipse cx="14.12" cy="25.25" rx="14.12" ry="14.1" id="Ellipse_136" fill="#005E5C"/><g id="Group_1591"><path d="M34.51 23.79C34.51 22.79 33.61 22.35 31.93 22.35 30.25 22.35 29.4 22.81 29.4 23.79L29.4 24.25C29.4 24.95 30.05 25.34 30.54 25.5L34.61 26.91C36.11 27.42 37.06 28.29 37.06 29.56L37.06 31.08C37.06 32.55 35.94 33.9 33.31 34.26L33.31 36.07C33.31 36.45 33.17 36.61 32.82 36.61L31.22 36.61C30.87 36.61 30.71 36.45 30.71 36.07L30.71 34.28C27.88 33.98 26.77 32.57 26.77 31.08L26.77 30.41C26.77 30.08 26.9 29.92 27.23 29.92L28.67 29.92C29.02 29.92 29.13 30.08 29.13 30.41L29.13 31C29.13 32 30.13 32.44 31.9 32.44 33.67 32.44 34.67 32 34.67 31L34.67 30.27C34.67 29.62 34.13 29.27 33.23 28.97L29.16 27.56C27.9342 27.1755 27.0742 26.0726 27 24.79L27 23.79C27 22.33 27.95 20.86 30.66 20.54L30.66 18.72C30.66 18.34 30.83 18.17 31.18 18.17L32.78 18.17C33.13 18.17 33.27 18.34 33.27 18.72L33.27 20.53C35.88 20.91 36.83 22.35 36.83 23.79L36.83 24.44C36.83 24.79 36.72 24.92 36.34 24.92L35 24.92C34.67 24.92 34.54 24.79 34.54 24.44Z" id="Path_2453" fill="#FFFFFF" transform="translate(-17.79 -2.5)"/></g></g></g></svg>