<svg viewBox="0 0 172.04 45" xmlns="http://www.w3.org/2000/svg" xmlns:xlink="http://www.w3.org/1999/xlink" id="Layer_1" overflow="hidden"><defs></defs><g id="Group_1557"><g id="Group_1552"><path d="M67 23.06C67 20.26 69.09 18.46 72 18.46 74.91 18.46 76.93 20.15 76.93 22.46L76.93 23.18 75.34 23.18 75.34 22.76C75.34 21 74 20 71.94 20 70.2063 19.856 68.6841 21.1448 68.5401 22.8785 68.5401 22.879 68.54 22.8795 68.54 22.88 68.53 23.0565 68.53 23.2335 68.54 23.41L68.54 28.98C68.3846 30.7127 69.6633 32.2434 71.396 32.3988 71.4007 32.3992 71.4053 32.3996 71.41 32.4 71.5861 32.42 71.7639 32.42 71.94 32.4 73.94 32.4 75.34 31.3 75.34 29.59L75.34 28.96 76.88 28.96 76.88 29.89C76.88 32.19 74.88 33.89 71.95 33.89 69.02 33.89 66.95 32.09 66.95 29.29Z" id="Path_2063" fill="#00B5F1" transform="translate(-5.19 -2.5)"/><path d="M79.12 25.81C79.12 23.13 80.83 21.5 83.58 21.5 86.33 21.5 88 23.13 88 25.81L88 29.44C88 32.12 86.29 33.74 83.55 33.74 80.81 33.74 79.09 32.12 79.09 29.44ZM80.62 29.19C80.62 31.3 81.68 32.39 83.62 32.39 85.56 32.39 86.62 31.29 86.62 29.19L86.62 26.06C86.62 23.95 85.62 22.85 83.62 22.85 81.62 22.85 80.62 23.95 80.62 26.06Z" id="Path_2064" fill="#00B5F1" transform="translate(-5.19 -2.5)"/><path d="M90.65 21.71 92 21.71 92.1 23C92.9453 22.0824 94.1232 21.5421 95.37 21.5 98.01 21.5 99.3 22.81 99.3 25.5L99.3 33.5 97.8 33.5 97.8 25.77C97.8 23.77 97.17 22.85 95.27 22.85 94.0397 22.9345 92.9076 23.5517 92.17 24.54L92.17 33.54 90.67 33.54Z" id="Path_2065" fill="#00B5F1" transform="translate(-5.19 -2.5)"/><path d="M102 23 100.65 23 100.65 21.71 102 21.71 102.17 18.76 103.5 18.76 103.5 21.71 107.24 21.71 107.24 23 103.5 23 103.5 29.69C103.5 31.59 104.28 32.48 106.01 32.48 106.574 32.4903 107.136 32.4196 107.68 32.27L107.68 33.51C107.139 33.6783 106.577 33.7725 106.01 33.79 103.44 33.79 102.01 32.59 102.01 29.9Z" id="Path_2066" fill="#00B5F1" transform="translate(-5.19 -2.5)"/><path d="M109 25.7C109 23.02 110.37 21.5 113 21.5 114.268 21.5502 115.468 22.0875 116.35 23L116.46 21.72 117.79 21.72 117.79 33.53 116.46 33.53 116.35 32.25C115.474 33.1713 114.271 33.7103 113 33.75 110.36 33.75 109 32.23 109 29.55ZM110.5 29.27C110.5 31.27 111.22 32.39 113.11 32.39 114.365 32.3126 115.526 31.7009 116.3 30.71L116.3 24.54C115.518 23.5581 114.362 22.9458 113.11 22.85 111.21 22.85 110.5 23.95 110.5 25.98Z" id="Path_2067" fill="#00B5F1" transform="translate(-5.19 -2.5)"/><path d="M120.51 17.7 122 17.7 122 23C122.868 22.1018 124.052 21.5779 125.3 21.54 127.93 21.54 129.3 23.06 129.3 25.74L129.3 29.58C129.3 32.26 127.92 33.78 125.3 33.78 124.025 33.7451 122.817 33.2056 121.94 32.28L121.83 33.57 120.5 33.57ZM122.01 30.7C122.781 31.6957 123.943 32.3114 125.2 32.39 127.1 32.39 127.82 31.29 127.82 29.27L127.82 26C127.82 24 127.1 22.87 125.2 22.87 123.944 22.9459 122.78 23.5533 122 24.54Z" id="Path_2068" fill="#00B5F1" transform="translate(-5.19 -2.5)"/><path d="M131.93 23 130.6 22.88 130.6 21.68 133.43 21.68 133.43 33.53 131.93 33.53ZM131.68 18.8C131.68 18.02 132.06 17.66 132.63 17.66 133.2 17.66 133.63 18.02 133.63 18.8 133.712 19.307 133.368 19.7847 132.861 19.8669 132.854 19.868 132.847 19.869 132.84 19.87 132.767 19.88 132.693 19.88 132.62 19.87 132.06 19.92 131.68 19.58 131.68 18.84Z" id="Path_2069" fill="#00B5F1" transform="translate(-5.19 -2.5)"/><path d="M136.17 17.7 137.67 17.7 137.67 31.32C137.67 31.91 137.76 32.32 138.46 32.32 138.633 32.335 138.807 32.335 138.98 32.32L138.98 33.48C138.578 33.5551 138.169 33.5952 137.76 33.6 136.7 33.6 136.18 33.12 136.18 31.93Z" id="Path_2070" fill="#00B5F1" transform="translate(-5.19 -2.5)"/><path d="M141.47 23 140.14 22.88 140.14 21.68 143 21.68 143 33.53 141.5 33.53ZM141.22 18.8C141.22 18.02 141.6 17.66 142.17 17.66 142.74 17.66 143.17 18.02 143.17 18.8 143.252 19.307 142.908 19.7847 142.401 19.8669 142.394 19.868 142.387 19.869 142.38 19.87 142.307 19.88 142.233 19.88 142.16 19.87 141.6 19.92 141.22 19.58 141.22 18.84Z" id="Path_2071" fill="#00B5F1" transform="translate(-5.19 -2.5)"/><path d="M154.39 33.53 153.06 33.53 153 32.25C152.124 33.1713 150.921 33.7103 149.65 33.75 147.01 33.75 145.65 32.23 145.65 29.55L145.65 25.7C145.65 23.02 147.02 21.5 149.65 21.5 150.888 21.5182 152.069 22.0208 152.94 22.9L152.94 17.7 154.44 17.7ZM147.09 29.27C147.09 31.27 147.81 32.39 149.71 32.39 150.964 32.3112 152.123 31.6952 152.89 30.7L152.89 24.54C152.11 23.5605 150.958 22.9485 149.71 22.85 147.81 22.85 147.09 23.95 147.09 25.98Z" id="Path_2072" fill="#00B5F1" transform="translate(-5.19 -2.5)"/><path d="M157 25.7C157 23.02 158.37 21.5 161 21.5 162.268 21.5502 163.468 22.0875 164.35 23L164.46 21.72 165.79 21.72 165.79 33.53 164.46 33.53 164.35 32.25C163.473 33.1696 162.27 33.7082 161 33.75 158.36 33.75 157 32.23 157 29.55ZM158.5 29.27C158.5 31.27 159.22 32.39 161.11 32.39 162.365 32.3126 163.526 31.7009 164.3 30.71L164.3 24.54C163.518 23.5581 162.362 22.9458 161.11 22.85 159.21 22.85 158.5 23.95 158.5 25.98Z" id="Path_2073" fill="#00B5F1" transform="translate(-5.19 -2.5)"/><path d="M177.23 33.53 175.9 33.53 175.79 32.25C174.913 33.1696 173.71 33.7082 172.44 33.75 169.8 33.75 168.44 32.23 168.44 29.55L168.44 25.7C168.44 23.02 169.81 21.5 172.44 21.5 173.677 21.5204 174.858 22.0226 175.73 22.9L175.73 17.7 177.23 17.7ZM169.93 29.27C169.93 31.27 170.64 32.39 172.54 32.39 173.798 32.314 174.961 31.6978 175.73 30.7L175.73 24.54C174.946 23.56 173.791 22.9482 172.54 22.85 170.64 22.85 169.93 23.95 169.93 25.98Z" id="Path_2074" fill="#00B5F1" transform="translate(-5.19 -2.5)"/></g><g id="Group_1553"><path d="M126.92 11.53C126.005 12.4192 124.543 12.3984 123.653 11.4835 123.234 11.0515 122.999 10.4725 123 9.87 122.987 9.22757 123.254 8.61114 123.73 8.18 124.16 7.77619 124.73 7.55408 125.32 7.56 126.593 7.56548 127.625 8.5965 127.63 9.87 127.641 10.4972 127.386 11.0997 126.93 11.53M123.93 8.53C123.569 8.88232 123.367 9.3659 123.37 9.87 123.364 10.3806 123.566 10.8715 123.93 11.23 124.684 11.9756 125.9 11.9688 126.645 11.2148 126.999 10.8566 127.199 10.3737 127.2 9.87 127.194 9.36767 126.993 8.88731 126.64 8.53 126.29 8.17497 125.808 7.98273 125.31 8 124.795 7.9804 124.297 8.18895 123.95 8.57M124.3 11.19 124.3 8.59 125.53 8.59C125.706 8.59892 125.879 8.63958 126.04 8.71 126.262 8.83517 126.394 9.07548 126.38 9.33 126.399 9.50654 126.332 9.68158 126.2 9.8 126.072 9.89835 125.92 9.96052 125.76 9.98 125.891 9.99031 126.016 10.039 126.12 10.12 126.282 10.2675 126.367 10.4815 126.35 10.7L126.35 10.92C126.345 10.9464 126.345 10.9736 126.35 11 126.345 11.0264 126.345 11.0536 126.35 11.08L126.35 11.15 125.7 11.15C125.7 11.03 125.7 10.91 125.7 10.79 125.715 10.6872 125.715 10.5828 125.7 10.48 125.669 10.3932 125.598 10.3264 125.51 10.3 125.439 10.2637 125.36 10.2464 125.28 10.25L125 10.25 125 11.15ZM125.52 9.14C125.391 9.1144 125.259 9.1144 125.13 9.14L125 9.14 125 9.88 125.26 9.88C125.391 9.88729 125.521 9.85222 125.63 9.78 125.727 9.71233 125.781 9.59787 125.77 9.48 125.775 9.3465 125.688 9.22675 125.56 9.19" id="Path_2075" fill="#004CAC" transform="translate(-5.19 -2.5)"/><path d="M77.67 13.2C77.0953 13.198 76.5271 13.0789 76 12.85 75.4461 12.6239 74.9725 12.2373 74.64 11.74 74.2493 11.1489 74.0599 10.4474 74.1 9.74 74.0918 9.10383 74.2072 8.47212 74.44 7.88 74.6513 7.36112 74.9719 6.89385 75.38 6.51 75.771 6.14965 76.23 5.87088 76.73 5.69 77.246 5.50256 77.791 5.40777 78.34 5.41 78.9651 5.40256 79.5827 5.54667 80.14 5.83 80.6642 6.09566 81.0989 6.50946 81.39 7.02 81.6963 7.57697 81.8515 8.20445 81.84 8.84 81.8437 9.42254 81.7455 10.0012 81.55 10.55 81.1836 11.5772 80.4039 12.404 79.4 12.83 78.8572 13.0502 78.2757 13.159 77.69 13.15M78.23 7C77.7859 6.99629 77.3531 7.14054 77 7.41 76.6462 7.66831 76.364 8.01246 76.18 8.41 76.0012 8.80242 75.9091 9.22877 75.91 9.66 75.8929 10.1715 76.0676 10.6709 76.4 11.06 76.7371 11.4503 77.2348 11.6641 77.75 11.64 78.0953 11.6502 78.438 11.5782 78.75 11.43 79.0374 11.2819 79.2924 11.0779 79.5 10.83 79.7045 10.5722 79.8634 10.2813 79.97 9.97 80.0297 9.65012 80.0398 9.32296 80 9 80.0105 8.65679 79.9456 8.31545 79.81 8 79.5304 7.38094 78.9091 6.98774 78.23 7" id="Path_2076" fill="#004CAC" transform="translate(-5.19 -2.5)"/><path d="M92.34 13.12 93.25 7 90.75 7 90.87 6.2 90.87 6.2 90.87 6.2C90.911 5.82836 91.2261 5.54775 91.6 5.55L97.69 5.55 97.57 6.39 97.57 6.39C97.5076 6.73983 97.2053 6.99592 96.85 7L95 7 94.1 13.11Z" id="Path_2077" fill="#004CAC" transform="translate(-5.19 -2.5)"/><path d="M102.89 6.17C102.335 5.70014 101.614 5.47312 100.89 5.54L98.46 5.54 97.35 13.12 98.29 13.12C98.729 13.1191 99.1001 12.7949 99.16 12.36L99.16 12.36 99.46 10.36 100.83 10.36C101.359 10.3794 101.883 10.2586 102.35 10.01 102.728 9.80067 103.032 9.47925 103.22 9.09 103.413 8.69842 103.509 8.26634 103.5 7.83 103.519 7.22756 103.3 6.64188 102.89 6.2M101.71 7.91C101.678 8.61374 101.148 9.19423 100.45 9.29L99.61 9.29 100 6.67C100.232 6.64018 100.468 6.64018 100.7 6.67 101.16 6.67 101.8 6.85 101.7 7.92" id="Path_2078" fill="#004CAC" transform="translate(-5.19 -2.5)"/><path d="M88.52 5.53 87.8 10.43 85.64 7C85.1487 6.11977 84.218 5.57591 83.21 5.58L83.11 5.58 82 13.12 83.7 13.12 84.43 8.21 86.59 11.7C87.0778 12.574 87.9991 13.1168 89 13.12L89.1 13.12 90.22 5.53Z" id="Path_2079" fill="#004CAC" transform="translate(-5.19 -2.5)"/><path d="M107.69 5.54 107.11 5.54C106.341 5.54108 105.633 5.95815 105.26 6.63L105.2 6.73 105.2 6.73 101.95 13.07 103.74 13.07 104.59 11.32 107 11.32 107.21 13.07 109.05 13.07ZM105.07 10.31 106.53 7.31 106.94 10.31Z" id="Path_2080" fill="#004CAC" transform="translate(-5.19 -2.5)"/><path d="M116.72 11.5 116.48 11.27C116.607 11.0568 116.714 10.8325 116.8 10.6 116.991 10.05 117.089 9.47214 117.09 8.89 117.1 8.25333 116.942 7.62531 116.63 7.07 116.342 6.56089 115.911 6.14725 115.39 5.88 114.834 5.5932 114.216 5.44889 113.59 5.46 113.041 5.45777 112.496 5.55256 111.98 5.74 111.48 5.92089 111.021 6.19965 110.63 6.56 110.22 6.94217 109.899 7.4099 109.69 7.93 109.452 8.52072 109.337 9.15341 109.35 9.79 109.314 10.4956 109.499 11.1949 109.88 11.79 110.219 12.2818 110.69 12.6668 111.24 12.9 111.776 13.1219 112.35 13.2374 112.93 13.24 113.516 13.2501 114.098 13.1413 114.64 12.92 114.812 12.8488 114.98 12.7652 115.14 12.67L115.37 12.89C115.553 13.0663 115.796 13.1664 116.05 13.17L117.05 13.17 117.05 12.17 117.05 12.17C117.044 11.9195 116.944 11.6804 116.77 11.5M113.01 11.66C112.495 11.6856 111.996 11.4715 111.66 11.08 111.332 10.6885 111.158 10.1907 111.17 9.68 111.175 9.24938 111.267 8.82417 111.44 8.43 111.624 8.03246 111.906 7.68831 112.26 7.43 112.611 7.15338 113.043 7.00201 113.49 7 114.169 6.98774 114.79 7.38094 115.07 8 115.219 8.31232 115.298 8.65379 115.3 9 115.304 9.33921 115.253 9.67684 115.15 10 115.048 10.3131 114.888 10.6047 114.68 10.86 114.475 11.1103 114.219 11.3148 113.93 11.46 113.618 11.6093 113.275 11.6814 112.93 11.67" id="Path_2081" fill="#004CAC" transform="translate(-5.19 -2.5)"/><path d="M73.43 7.25C73.43 7.25 70.97 6.48 69.78 7.64 68.59 8.8 68.56 10.64 69.87 11.36 71.18 12.08 73.28 11.14 73.42 10.91 73.5284 11.3944 73.4721 11.9012 73.26 12.35 72.91 13.08 70.87 13.5 69.26 12.93 67.7412 12.4366 66.8134 10.9046 67.08 9.33 67.2198 7.49515 68.565 5.97823 70.37 5.62 71.6532 5.37921 72.9748 5.44085 74.23 5.8Z" id="Path_2082" fill="#004CAC" transform="translate(-5.19 -2.5)"/><path d="M121.82 7.56 120.53 7.56C120.047 7.55026 119.626 7.88688 119.53 8.36L118.82 13.12 118.82 13.12C119.376 12.8545 119.851 12.4476 120.2 11.94 120.779 11.2728 121.221 10.4981 121.5 9.66Z" id="Path_2083" fill="#004CAC" transform="translate(-5.19 -2.5)"/><path d="M121 6.88C121.602 6.87997 122.09 6.39194 122.09 5.78995 122.09 5.18796 121.602 4.69997 121 4.7 120.398 4.70003 119.91 5.18806 119.91 5.79005 119.91 5.79336 119.91 5.79668 119.91 5.8L119.91 5.8C119.915 6.39808 120.402 6.88003 121 6.88L121 6.88" id="Path_2084" fill="#004CAC" transform="translate(-5.19 -2.5)"/><path d="M120.21 11.94C119.866 12.4502 119.393 12.8607 118.84 13.13L120.14 13.13C120.623 13.1397 121.044 12.8031 121.14 12.33L121.52 9.67C121.241 10.5049 120.799 11.2764 120.22 11.94" id="Path_2085" fill="#00B5F1" transform="translate(-5.19 -2.5)"/></g><g id="Group_1556"><path d="M30.07 47.5 50.9 47.5C53.4295 47.5 55.48 45.4495 55.48 42.92 55.48 42.9167 55.48 42.9133 55.48 42.91L55.48 32.51 25.48 32.51 25.48 42.91C25.48 45.445 27.535 47.5 30.07 47.5" id="Path_2086" fill="#2D80C9" transform="translate(-5.19 -2.5)"/><path d="M30.07 47.5 50.9 47.5C53.4295 47.5 55.48 45.4495 55.48 42.92 55.48 42.9167 55.48 42.9133 55.48 42.91L55.48 32.51 25.48 32.51 25.48 42.91C25.48 45.445 27.535 47.5 30.07 47.5" id="Path_2087" fill="#00B5F1" transform="translate(-5.19 -2.5)"/><path d="M45.42 2.5 31.87 2.5C31.24 2.5 25.48 11.22 25.48 11.89L25.48 32.5 55.48 32.5 55.48 12.57Z" id="Path_2088" fill="#008AD8" transform="translate(-5.19 -2.5)"/><path d="M45.42 2.5 30 2.5C27.516 2.51085 25.5019 4.51604 25.48 7L25.48 17.5 55.48 17.5 55.48 12.57Z" id="Path_2089" fill="#004CAC" transform="translate(-5.19 -2.5)"/><path d="M48.62 13.77 55.48 12.57 45.42 2.5 44.67 10.06C44.32 12.66 46.09 14.33 48.62 13.77" id="Path_2090" fill="#002D5E" transform="translate(-5.19 -2.5)"/><path d="M50 12.57 55.49 12.57 45.42 2.5 45.42 8C45.4255 10.5256 47.4744 12.57 50 12.57L50 12.57" id="Path_2091" fill="#008AD8" transform="translate(-5.19 -2.5)"/><path d="M25.48 32.93 25.48 42.82 29.68 42.16C34.68 41.24 36.56 38.66 36.56 36.27L36.56 32.5Z" id="Path_2092" fill="#002D5E" transform="translate(-5.19 -2.5)"/><g id="Group_1554"><rect x="18.07" y="10.31" rx="4.83" width="11.41" height="11.41" id="Rectangle_1571" stroke="#FFFFFF" stroke-width="7.16" stroke-miterlimit="10" fill="#FFFFFF"/><rect x="3.58" y="10.31" rx="4.83" width="11.41" height="11.41" id="Rectangle_1572" stroke="#FFFFFF" stroke-width="7.16" stroke-miterlimit="10" fill="#FFFFFF"/><rect x="3.58" y="24.8" rx="4.83" width="11.41" height="11.41" id="Rectangle_1573" stroke="#FFFFFF" stroke-width="7.16" stroke-miterlimit="10" fill="#FFFFFF"/><rect x="18.07" y="24.8" rx="4.83" width="11.41" height="11.41" id="Rectangle_1574" stroke="#FFFFFF" stroke-width="7.16" stroke-miterlimit="10" fill="#FFFFFF"/></g><g id="Group_1555"><rect x="18.07" y="10.31" rx="4.83" width="11.41" height="11.41" id="Rectangle_1575" fill="#002D5E"/><rect x="3.58" y="10.31" rx="4.83" width="11.41" height="11.41" id="Rectangle_1576" fill="#004CAC"/><rect x="3.58" y="24.8" rx="4.83" width="11.41" height="11.41" id="Rectangle_1577" fill="#008AD8"/><rect x="18.07" y="24.8" rx="4.83" width="11.41" height="11.41" id="Rectangle_1578" fill="#00B5F1"/></g></g></g></svg>