<svg viewBox="0 0 180.28 46.8" xmlns="http://www.w3.org/2000/svg" xmlns:xlink="http://www.w3.org/1999/xlink" id="Layer_1" overflow="hidden"><defs></defs><g id="Group_1614"><g id="Evalúa035"><text fill="#AA96C1" font-family="Helvetica" font-size="27" letter-spacing="0.01em" transform="translate(50.33 33.81)">Evalúa</text><text fill="#3D2070" font-family="Helvetica" font-size="27" letter-spacing="0.01em" transform="translate(134.5 33.81)">035</text></g><g id="Group_1611"><path d="M135.53 18.24C134.44 19.3446 132.661 19.3563 131.556 18.2661 131.547 18.2575 131.539 18.2488 131.53 18.24L131.53 18.24C130.999 17.7118 130.71 16.9884 130.73 16.24 130.721 15.4775 131.042 14.7483 131.61 14.24 132.129 13.6917 132.855 13.3869 133.61 13.4 135.151 13.4 136.4 14.6491 136.4 16.19 136.411 16.9426 136.111 17.6663 135.57 18.19M131.97 14.56C131.531 14.9832 131.288 15.5703 131.3 16.18 131.283 16.7994 131.526 17.3976 131.97 17.83 132.871 18.7276 134.329 18.7276 135.23 17.83L135.23 17.83C135.679 17.3997 135.929 16.8019 135.92 16.18 135.912 15.5722 135.668 14.9912 135.24 14.56 134.364 13.6586 132.924 13.6362 132.02 14.51L132.02 14.56M132.44 17.74 132.44 14.74 133.93 14.74C134.141 14.7495 134.348 14.8004 134.54 14.89 134.816 15.0353 134.98 15.329 134.96 15.64 134.981 15.8512 134.899 16.0596 134.74 16.2 134.593 16.3303 134.413 16.4169 134.22 16.45 134.378 16.4708 134.529 16.5291 134.66 16.62 134.857 16.7969 134.961 17.0558 134.94 17.32L134.94 17.68C134.93 17.7126 134.93 17.7474 134.94 17.78L134.94 17.86 134.22 17.86C134.21 17.7202 134.21 17.5798 134.22 17.44 134.235 17.3138 134.235 17.1862 134.22 17.06 134.183 16.9519 134.098 16.8671 133.99 16.83 133.898 16.81 133.802 16.81 133.71 16.83L133.27 16.83 133.27 17.83ZM133.92 15.3C133.769 15.25 133.609 15.2296 133.45 15.24L133.22 15.24 133.22 16.14 133.53 16.14C133.686 16.1466 133.839 16.1047 133.97 16.02 134.087 15.9342 134.151 15.7944 134.14 15.65 134.149 15.4858 134.04 15.3384 133.88 15.3" id="Path_2534" fill="#004CAC" transform="translate(-9.99 -10)"/><path d="M76 20.26C75.3118 20.2566 74.6314 20.1138 74 19.84 73.331 19.5684 72.7595 19.1014 72.36 18.5 71.9 17.7978 71.6726 16.9686 71.71 16.13 71.6983 15.3627 71.8412 14.6009 72.13 13.89 72.3808 13.2636 72.7666 12.7003 73.26 12.24 73.7311 11.8011 74.2853 11.4611 74.89 11.24 75.5306 11.0067 76.2083 10.8915 76.89 10.9 77.6292 10.899 78.3584 11.0702 79.02 11.4 79.6541 11.7209 80.1794 12.2218 80.53 12.84 80.8713 13.5071 81.0333 14.2514 81 15 81.01 15.7055 80.8914 16.407 80.65 17.07 80.4317 17.685 80.0916 18.2496 79.65 18.73 79.207 19.2042 78.6685 19.5791 78.07 19.83 77.4134 20.0985 76.7093 20.2312 76 20.22M76.68 12.72C76.1216 12.7058 75.5749 12.8822 75.13 13.22 74.6917 13.5406 74.3465 13.972 74.13 14.47 73.9013 14.9477 73.7817 15.4704 73.78 16 73.7594 16.6171 73.9698 17.2198 74.37 17.69 74.7766 18.1676 75.3838 18.4268 76.01 18.39 76.4148 18.3945 76.8152 18.3056 77.18 18.13 77.5479 17.9528 77.8723 17.6967 78.13 17.38 78.3787 17.0837 78.5718 16.745 78.7 16.38 78.8245 16.0027 78.8853 15.6073 78.88 15.21 78.892 14.7648 78.7995 14.323 78.61 13.92 78.2705 13.1731 77.5094 12.7093 76.69 12.75" id="Path_2535" fill="#004CAC" transform="translate(-9.99 -10)"/><path d="M93.7 20.17 94.8 12.78 91.8 12.78 91.94 11.78 91.94 11.78C91.9818 11.3271 92.3653 10.9829 92.82 10.99L100.18 10.99 100 12 100 12C99.9312 12.4269 99.5624 12.7406 99.13 12.74L96.87 12.74 95.79 20.13Z" id="Path_2536" fill="#004CAC" transform="translate(-9.99 -10)"/><path d="M106.47 11.76C105.784 11.1814 104.892 10.907 104 11L101.09 11 99.75 20.17 100.89 20.17C101.4 20.1415 101.819 19.7561 101.89 19.25L101.89 19.25 102.25 16.82 104 16.82C104.649 16.8471 105.295 16.7023 105.87 16.4 106.302 16.1323 106.649 15.7473 106.87 15.29 107.098 14.8159 107.214 14.296 107.21 13.77 107.24 13.0295 106.969 12.3084 106.46 11.77M105 13.83C104.964 14.679 104.323 15.3791 103.48 15.49L102.48 15.49 103 12.4C103.283 12.3698 103.567 12.3698 103.85 12.4 104.41 12.4 105.17 12.62 105.06 13.91" id="Path_2537" fill="#004CAC" transform="translate(-9.99 -10)"/><path d="M89.13 11 88.26 16.93 85.61 12.7C85.0111 11.6418 83.8859 10.9911 82.67 11L82.55 11 81.19 20.17 83.26 20.17 84.13 14.24 86.74 18.46C87.3347 19.5236 88.4614 20.179 89.68 20.17L89.8 20.17 91.13 11Z" id="Path_2538" fill="#004CAC" transform="translate(-9.99 -10)"/><path d="M112.27 11 111.57 11C110.639 11.002 109.783 11.5069 109.33 12.32L109.25 12.44 109.25 12.5 105.33 20.17 107.49 20.17 108.49 18.05 111.49 18.05 111.74 20.17 114 20.17ZM109.13 16.77 110.89 13.14 111.39 16.77Z" id="Path_2539" fill="#004CAC" transform="translate(-9.99 -10)"/><path d="M123.19 18.21 122.9 17.93C123.051 17.6719 123.178 17.4008 123.28 17.12 123.521 16.457 123.64 15.7555 123.63 15.05 123.65 14.2803 123.46 13.5196 123.08 12.85 122.734 12.2296 122.212 11.7252 121.58 11.4 120.904 11.0607 120.156 10.8892 119.4 10.9 118.739 10.8991 118.083 11.0107 117.46 11.23 116.851 11.4487 116.293 11.7889 115.82 12.23 115.329 12.6922 114.943 13.255 114.69 13.88 114.401 14.5944 114.258 15.3595 114.27 16.13 114.242 16.9676 114.468 17.794 114.92 18.5 115.331 19.0945 115.904 19.5594 116.57 19.84 117.887 20.3796 119.363 20.3796 120.68 19.84 120.89 19.7507 121.094 19.6471 121.29 19.53L121.57 19.8C121.782 20.0199 122.075 20.1429 122.38 20.14L123.53 20.14 123.53 19 123.53 19C123.531 18.6952 123.408 18.4031 123.19 18.19M118.65 18.39C118.025 18.4176 117.422 18.1601 117.01 17.69 116.618 17.2151 116.409 16.6157 116.42 16 116.423 15.4791 116.536 14.9648 116.75 14.49 116.967 13.992 117.312 13.5606 117.75 13.24 118.198 12.9077 118.742 12.732 119.3 12.74 120.111 12.7221 120.858 13.1795 121.21 13.91 121.403 14.3123 121.499 14.754 121.49 15.2 121.489 15.6016 121.421 16.0003 121.29 16.38 121.159 16.7417 120.97 17.0795 120.73 17.38 120.482 17.6786 120.176 17.9236 119.83 18.1 119.463 18.2803 119.059 18.3695 118.65 18.36" id="Path_2540" fill="#004CAC" transform="translate(-9.99 -10)"/><path d="M70.85 13.06C70.85 13.06 67.85 12.14 66.42 13.53 64.99 14.92 65 17.15 66.53 18 68.06 18.85 70.65 17.74 70.83 17.46 70.9601 18.0427 70.8897 18.6523 70.63 19.19 70.2 20.08 67.74 20.59 65.76 19.9 63.919 19.3056 62.7971 17.4458 63.13 15.54 63.2983 13.3146 64.9378 11.4783 67.13 11.06 68.6787 10.7691 70.2737 10.841 71.79 11.27Z" id="Path_2541" fill="#004CAC" transform="translate(-9.99 -10)"/><path d="M129.35 13.4 127.8 13.4C127.211 13.4 126.706 13.8207 126.6 14.4L125.73 20.16 125.73 20.16C126.402 19.8369 126.977 19.344 127.4 18.73 128.102 17.93 128.645 17.0035 129 16Z" id="Path_2542" fill="#004CAC" transform="translate(-9.99 -10)"/><path d="M128.35 12.62C129.073 12.5979 129.641 11.9938 129.619 11.2706 129.597 10.5475 128.993 9.97913 128.27 10.0012 127.563 10.0228 127 10.6023 127 11.31L127 11.31C127 12.0335 127.587 12.62 128.31 12.62L128.31 12.62" id="Path_2543" fill="#004CAC" transform="translate(-9.99 -10)"/><path d="M127.41 18.74C126.993 19.3588 126.416 19.853 125.74 20.17L127.31 20.17C127.899 20.17 128.404 19.7493 128.51 19.17L129 16C128.661 17.0101 128.127 17.9442 127.43 18.75" id="Path_2544" fill="#00B4EF" transform="translate(-9.99 -10)"/></g><g id="Sistema_de_evaluación_organizacional"><text fill="#5A5B5E" font-family="Helvetica" font-size="5" letter-spacing="0.01em" transform="translate(51.84 43.02)">Sistema de evaluación organizacional</text></g><g id="Group_1613"><path d="M16.21 17.11C7.92573 25.3918 7.9237 38.8212 16.2055 47.1055 16.207 47.107 16.2085 47.1085 16.21 47.11L16.21 47.11 31.21 32.11Z" id="Path_2545" fill="#5E418A" transform="translate(-9.99 -10)"/><path d="M31.21 10.9C25.5828 10.8911 20.1842 13.1261 16.21 17.11L31.21 32.11 46.21 17.11C42.2345 13.128 36.8368 10.8933 31.21 10.9Z" id="Path_2546" fill="#3C2171" transform="translate(-9.99 -10)"/><path d="M31.21 32.12 16.21 47.12C24.4958 55.4005 37.9242 55.4005 46.21 47.12Z" id="Path_2547" fill="#8268A5" transform="translate(-9.99 -10)"/><path d="M49.42 52.64C48.9037 52.6729 48.3947 52.5044 48 52.17L38 43.62C37.0666 43.0291 36.7891 41.7934 37.38 40.86 37.9709 39.9266 39.2066 39.6491 40.14 40.24 40.3044 40.3446 40.4526 40.4726 40.58 40.62L50.58 49.16C51.4076 49.8915 51.4855 51.1555 50.754 51.9831 50.4168 52.3645 49.9469 52.603 49.44 52.65Z" id="Path_2548" fill="#3C2171" transform="translate(-9.99 -10)"/><path d="M50.05 54.09C49.2627 54.1514 48.483 53.8998 47.88 53.39L43.6 49.73C42.4854 48.5041 42.5757 46.6067 43.8016 45.4921 44.8123 44.5732 46.3162 44.4531 47.46 45.2L47.46 45.2 51.75 48.87C52.9897 49.9692 53.1036 51.8653 52.0044 53.105 52.003 53.1067 52.0015 53.1083 52 53.11 51.4925 53.6652 50.7984 54.0141 50.05 54.09Z" id="Path_2549" fill="#3C2171" transform="translate(-9.99 -10)"/><circle cx="20.48" cy="23.28" r="13.95" id="Ellipse_140" fill="#3C2171"/><path d="M49.69 52.58C49.1653 52.5778 48.6625 52.3695 48.29 52L39 42.7C38.3242 41.8263 38.4846 40.5702 39.3582 39.8944 40.0767 39.3386 41.0795 39.3368 41.8 39.89L51.1 49.19C51.8678 49.9841 51.8465 51.2502 51.0524 52.018 50.6863 52.3719 50.1991 52.5729 49.69 52.58Z" id="Path_2550" fill="#8268A5" transform="translate(-9.99 -10)"/><path d="M50.2 54.08C49.413 54.0767 48.6588 53.7642 48.1 53.21L44.1 49.21C43.0825 47.9024 43.3177 46.0175 44.6253 45 45.7088 44.1568 47.2265 44.1568 48.31 45L52.31 49C53.4591 50.1936 53.423 52.0928 52.2294 53.2419 51.6856 53.7653 50.9646 54.0646 50.21 54.08Z" id="Path_2551" fill="#8268A5" transform="translate(-9.99 -10)"/><circle cx="21.22" cy="22.11" r="13.83" id="Ellipse_141" fill="#A995C1"/><path d="M30 45.34C22.59 45.34 17.62 40.23 17.62 32.62 17.7496 25.3918 23.7143 19.6371 30.9425 19.7667 37.903 19.8915 43.5482 25.4426 43.79 32.4L43.79 32.4C43.78 39.78 37.85 45.34 30 45.34ZM30.71 20.34C24.0496 20.3013 18.6188 25.6692 18.5801 32.3296 18.58 32.3331 18.58 32.3365 18.58 32.34L18.58 32.66C18.58 39.66 23.14 44.41 30 44.41 37.31 44.41 42.82 39.26 42.82 32.41 42.8262 25.8484 37.5609 20.4984 31 20.4Z" id="Path_2552" fill="#8268A5" transform="translate(-9.99 -10)"/><path d="M31.21 19.94C37.9368 19.9566 43.3765 25.4232 43.36 32.15 43.3434 38.8768 37.8768 44.3165 31.15 44.2999 24.4349 44.2834 19 38.8351 19 32.12L19 32.12C19 25.3932 24.4531 19.94 31.18 19.94 31.19 19.94 31.2 19.94 31.21 19.94M31.21 17.94C23.3841 17.9345 17.0355 24.2741 17.03 32.1 17.0245 39.9259 23.3641 46.2745 31.19 46.28 39.0159 46.2855 45.3645 39.9459 45.37 32.12L45.37 32.12C45.348 24.3192 39.0209 18.0055 31.22 18L31.22 18Z" id="Path_2553" fill="#F5F6F6" transform="translate(-9.99 -10)"/><g id="Group_1612"><path d="M31 37.68C30.4753 37.6778 29.9725 37.4695 29.6 37.1L24.35 31.85C23.6873 30.9663 23.8663 29.7127 24.75 29.05 25.4611 28.5167 26.4389 28.5167 27.15 29.05L31 32.87 43.91 19.28C44.7724 18.5898 46.031 18.7294 46.7212 19.5918 47.2793 20.2891 47.3074 21.2719 46.79 22L32.46 37.07C32.0875 37.4554 31.5759 37.6751 31.04 37.68Z" id="Path_2554" fill="#8268A5" transform="translate(-9.99 -10)"/><path d="M31.22 36.77C30.6953 36.7678 30.1925 36.5595 29.82 36.19L24.56 30.93C23.8873 30.0539 24.0522 28.7984 24.9282 28.1256 25.6487 27.5724 26.6515 27.5742 27.37 28.13L31.22 32 48.22 15C48.88 14.1136 50.1336 13.93 51.02 14.59 51.9064 15.25 52.09 16.5036 51.43 17.39 51.3432 17.5083 51.2425 17.6157 51.13 17.71 51.1019 17.7482 51.0682 17.7819 51.03 17.81L32.63 36.21C32.2518 36.5746 31.7453 36.7758 31.22 36.77Z" id="Path_2555" fill="#FFFFFF" transform="translate(-9.99 -10)"/></g></g></g></svg>