<svg viewBox="0 0 142.29 44.99" xmlns="http://www.w3.org/2000/svg" xmlns:xlink="http://www.w3.org/1999/xlink" id="Layer_1" overflow="hidden"><defs></defs><g id="Group_1573"><path d="M136.22 9.22C135.33 10.1075 133.89 10.1075 133 9.22 132.581 8.78887 132.348 8.21098 132.35 7.61 132.334 6.9777 132.598 6.37049 133.07 5.95 133.491 5.55071 134.05 5.32872 134.63 5.33 135.885 5.34086 136.899 6.35532 136.91 7.61 136.92 8.2292 136.67 8.82415 136.22 9.25M133.29 6.25C132.566 6.9888 132.566 8.1712 133.29 8.91 134.011 9.64178 135.189 9.65057 135.92 8.92964 135.927 8.92314 135.934 8.91659 135.94 8.91 136.309 8.56326 136.512 8.07597 136.5 7.57 136.511 7.08483 136.331 6.61472 136 6.26 135.657 5.89181 135.173 5.68798 134.67 5.7 134.164 5.68767 133.677 5.89132 133.33 6.26M133.67 8.85 133.67 6.32 134.89 6.32C135.063 6.32784 135.232 6.36857 135.39 6.44 135.612 6.56001 135.745 6.79788 135.73 7.05 135.751 7.22386 135.684 7.39677 135.55 7.51 135.427 7.60985 135.278 7.67231 135.12 7.69 135.462 7.70839 135.724 8.00048 135.706 8.34241 135.705 8.36168 135.703 8.3809 135.7 8.4L135.7 8.62C135.694 8.64301 135.694 8.66699 135.7 8.69 135.694 8.71636 135.694 8.74364 135.7 8.77L135.7 8.84 135.06 8.84C135.06 8.72 135.06 8.61 135.06 8.49 135.075 8.38718 135.075 8.28281 135.06 8.18 135.027 8.09769 134.962 8.03253 134.88 8 134.805 7.98008 134.725 7.98008 134.65 8L134.37 8 134.37 8.89ZM134.88 6.85C134.756 6.80107 134.623 6.78057 134.49 6.79L134.33 6.79 134.33 7.53 134.59 7.53C134.718 7.53729 134.844 7.50213 134.95 7.43 135.047 7.36233 135.1 7.24787 135.09 7.13 135.092 6.99758 135.006 6.87972 134.88 6.84" id="Path_2349" fill="#004CAC" transform="translate(-21.86 -2.5)"/><path d="M87.69 10.86C87.1092 10.865 86.5337 10.7492 86 10.52 85.4548 10.2932 84.9887 9.91055 84.66 9.42 84.2909 8.8498 84.1091 8.17854 84.14 7.5 84.1291 6.87103 84.2412 6.24599 84.47 5.66 84.6847 5.1542 85.0013 4.69805 85.4 4.32 85.7839 3.96267 86.2364 3.68709 86.73 3.51 87.2349 3.32107 87.771 3.22945 88.31 3.24 88.9279 3.2291 89.5391 3.36987 90.09 3.65 90.6041 3.91344 91.0312 4.31971 91.32 4.82 91.6244 5.37011 91.7763 5.99152 91.76 6.62 91.7679 7.1955 91.6731 7.76779 91.48 8.31 91.2997 8.81256 91.0171 9.27225 90.65 9.66 90.2879 10.0447 89.8482 10.348 89.36 10.55 88.8229 10.7656 88.2488 10.8743 87.67 10.87M88.23 4.75C87.7867 4.75143 87.3555 4.89515 87 5.16 86.6538 5.42111 86.3788 5.76496 86.2 6.16 86.0219 6.54558 85.9298 6.96528 85.93 7.39 85.9205 7.89249 86.0908 8.38184 86.41 8.77 86.7494 9.15019 87.2407 9.35918 87.75 9.34 88.0952 9.34945 88.4378 9.27751 88.75 9.13 89.0337 8.98485 89.2853 8.78422 89.49 8.54 89.6934 8.28676 89.8492 7.99878 89.95 7.69 90.0546 7.36716 90.1052 7.02931 90.1 6.69 90.1017 6.34448 90.0266 6.0029 89.88 5.69 89.6033 5.07765 88.9919 4.68573 88.32 4.69" id="Path_2350" fill="#004CAC" transform="translate(-21.86 -2.5)"/><path d="M102.14 10.79 103.04 4.79 100.58 4.79 100.7 4 100.7 4 100.7 4C100.736 3.63544 101.044 3.35822 101.41 3.36L107.41 3.36 107.29 4.19 107.29 4.19C107.228 4.53431 106.93 4.786 106.58 4.79L104.72 4.79 103.83 10.79Z" id="Path_2351" fill="#004CAC" transform="translate(-21.86 -2.5)"/><path d="M112.54 3.94C111.986 3.4686 111.263 3.24455 110.54 3.32L108.14 3.32 107.05 10.79 108 10.79C108.433 10.7892 108.8 10.4693 108.86 10.04L108.86 10.04 109.15 8.04 110.51 8.04C111.028 8.0572 111.541 7.94006 112 7.7 112.365 7.4889 112.66 7.17617 112.85 6.8 113.037 6.41348 113.133 5.9893 113.13 5.56 113.15 4.96527 112.934 4.38675 112.53 3.95M111.35 5.62C111.337 6.31714 110.82 6.90191 110.13 7L109.31 7 109.69 4.45C109.923 4.42511 110.157 4.42511 110.39 4.45 110.84 4.45 111.47 4.63 111.39 5.68" id="Path_2352" fill="#004CAC" transform="translate(-21.86 -2.5)"/><path d="M98.38 3.31 97.68 8.14 95.55 4.71C95.0667 3.83911 94.146 3.30205 93.15 3.31L93.05 3.31 92 10.79 93.68 10.79 94.35 6 96.48 9.44C96.9681 10.3062 97.8857 10.8415 98.88 10.84L99 10.84 100.1 3.36Z" id="Path_2353" fill="#004CAC" transform="translate(-21.86 -2.5)"/><path d="M117.28 3.32 116.7 3.32C115.944 3.31939 115.247 3.72907 114.88 4.39L114.81 4.49 114.81 4.49 111.61 10.74 113.37 10.74 114.2 9.02 116.64 9.02 116.84 10.74 118.66 10.74ZM114.69 8 116.13 5 116.53 8Z" id="Path_2354" fill="#004CAC" transform="translate(-21.86 -2.5)"/><path d="M126.17 9.19 125.94 9C126.059 8.78784 126.163 8.56725 126.25 8.34 126.438 7.79984 126.532 7.2318 126.53 6.66 126.541 6.03209 126.389 5.412 126.09 4.86 125.801 4.35971 125.374 3.95345 124.86 3.69 124.309 3.40987 123.698 3.2691 123.08 3.28 122.542 3.27946 122.007 3.37077 121.5 3.55 121.008 3.73026 120.556 4.00548 120.17 4.36 119.769 4.73756 119.455 5.19832 119.25 5.71 119.013 6.2903 118.897 6.91316 118.91 7.54 118.879 8.22169 119.061 8.89616 119.43 9.47 119.76 9.95685 120.226 10.3359 120.77 10.56 121.297 10.7865 121.866 10.9023 122.44 10.9 123.018 10.9077 123.592 10.8024 124.13 10.59 124.298 10.5167 124.462 10.4332 124.62 10.34L124.85 10.56C125.026 10.7332 125.263 10.8302 125.51 10.83L126.45 10.83 126.45 9.86 126.45 9.86C126.451 9.61095 126.35 9.37242 126.17 9.2M122.47 9.36C121.961 9.38243 121.47 9.16835 121.14 8.78 120.814 8.39956 120.643 7.91067 120.66 7.41 120.658 6.98507 120.75 6.56496 120.93 6.18 121.103 5.78138 121.379 5.43616 121.73 5.18 122.091 4.89481 122.54 4.74293 123 4.75 123.673 4.74314 124.285 5.13589 124.56 5.75 124.705 6.06353 124.78 6.40469 124.78 6.75 124.785 7.08928 124.734 7.42708 124.63 7.75 124.535 8.05839 124.379 8.34422 124.17 8.59 123.971 8.83967 123.718 9.04132 123.43 9.18 123.12 9.33592 122.776 9.41157 122.43 9.4" id="Path_2355" fill="#004CAC" transform="translate(-21.86 -2.5)"/><path d="M83.52 5C83.52 5 81.08 4.25 79.91 5.39 78.74 6.53 78.71 8.39 80 9.05 81.1727 9.47625 82.4788 9.31252 83.51 8.61 83.6055 9.07951 83.5458 9.56734 83.34 10 83 10.72 80.99 11.14 79.34 10.58 77.8418 10.0952 76.9292 8.58125 77.2 7.03 77.3212 5.2183 78.6474 3.71548 80.43 3.37 81.6938 3.13896 82.9937 3.20054 84.23 3.55Z" id="Path_2356" fill="#004CAC" transform="translate(-21.86 -2.5)"/><path d="M131.2 5.31 129.93 5.31C129.45 5.29933 129.031 5.63086 128.93 6.1L128.23 10.79 128.23 10.79C128.777 10.5287 129.246 10.1288 129.59 9.63 130.159 8.97019 130.593 8.20597 130.87 7.38Z" id="Path_2357" fill="#004CAC" transform="translate(-21.86 -2.5)"/><path d="M130.38 4.63C130.968 4.57294 131.399 4.04986 131.342 3.46168 131.292 2.95242 130.889 2.54941 130.38 2.5 129.789 2.5 129.31 2.97906 129.31 3.57L129.31 3.57C129.31 4.15542 129.785 4.63002 130.37 4.63005 130.373 4.63005 130.377 4.63003 130.38 4.63L130.38 4.63" id="Path_2358" fill="#004CAC" transform="translate(-21.86 -2.5)"/><path d="M129.61 9.62C129.269 10.1241 128.799 10.528 128.25 10.79L129.53 10.79C130.007 10.8017 130.425 10.4752 130.53 10.01L130.91 7.38C130.636 8.20392 130.201 8.96527 129.63 9.62" id="Path_2359" fill="#00B5F1" transform="translate(-21.86 -2.5)"/></g><g id="Group_1574"><path d="M77.09 15.94 84.67 15.94 84.67 17.25 78.49 17.25 78.49 22.14 83.66 22.14 83.66 23.43 78.49 23.43 78.49 29 77.09 29Z" id="Path_2360" fill="#0B938A" transform="translate(-21.86 -2.5)"/><path d="M85.75 22.1C85.75 19.72 86.97 18.37 89.31 18.37 90.4436 18.4119 91.5177 18.8881 92.31 19.7L92.4 18.56 93.58 18.56 93.58 29.05 92.38 29.05 92.29 27.9C91.5071 28.7252 90.4272 29.204 89.29 29.23 86.95 29.23 85.73 27.88 85.73 25.51ZM87.08 25.26C87.08 27.06 87.72 28.03 89.4 28.03 90.5153 27.9609 91.5467 27.4142 92.23 26.53L92.23 21.07C91.5368 20.1977 90.5111 19.654 89.4 19.57 87.72 19.57 87.08 20.57 87.08 22.34Z" id="Path_2361" fill="#0B938A" transform="translate(-21.86 -2.5)"/><path d="M95.88 22.19C95.7486 20.2077 97.2478 18.4936 99.23 18.36 99.4297 18.345 99.6303 18.345 99.83 18.36 102.32 18.36 103.72 19.75 103.72 21.6L103.72 21.9 102.43 21.9 102.43 21.8C102.43 20.49 101.68 19.57 99.83 19.57 98.14 19.57 97.21 20.57 97.21 22.42L97.21 25.19C97.21 27.06 98.14 28.03 99.83 28.03 101.68 28.03 102.43 27.1 102.43 25.79L102.43 25.67 103.72 25.67 103.72 26C103.72 27.8 102.32 29.26 99.82 29.26 97.8354 29.4508 96.0719 27.9966 95.8811 26.012 95.8808 26.008 95.8804 26.004 95.88 26 95.8649 25.8036 95.8649 25.6064 95.88 25.41Z" id="Path_2362" fill="#0B938A" transform="translate(-21.86 -2.5)"/><path d="M106 19.74 104.8 19.74 104.8 18.56 106 18.56 106.15 15.94 107.32 15.94 107.32 18.56 110.64 18.56 110.64 19.74 107.32 19.74 107.32 25.67C107.32 27.36 108.02 28.14 109.55 28.14 110.037 28.1607 110.525 28.1136 111 28L111 29.1C110.519 29.2446 110.022 29.3253 109.52 29.34 107.24 29.34 105.97 28.27 105.97 25.89Z" id="Path_2363" fill="#0B938A" transform="translate(-21.86 -2.5)"/><path d="M112.28 18.56 113.61 18.56 113.61 25.45C113.61 27.25 114 28.03 115.72 28.03 116.829 27.9578 117.853 27.4112 118.53 26.53L118.53 18.53 119.86 18.53 119.86 29 118.68 29 118.58 27.86C117.79 28.6753 116.715 29.1522 115.58 29.19 113.17 29.19 112.29 28.03 112.29 25.65Z" id="Path_2364" fill="#0B938A" transform="translate(-21.86 -2.5)"/><path d="M122.29 18.56 123.45 18.56 123.56 19.87C124.236 18.9568 125.294 18.4041 126.43 18.37L126.54 18.37 126.54 19.61 126.33 19.61C125.212 19.662 124.195 20.2702 123.62 21.23L123.62 29 122.29 29Z" id="Path_2365" fill="#0B938A" transform="translate(-21.86 -2.5)"/><path d="M127.76 22.1C127.76 19.72 128.97 18.37 131.31 18.37 132.444 18.4119 133.518 18.8881 134.31 19.7L134.4 18.56 135.58 18.56 135.58 29.05 134.4 29.05 134.31 27.9C133.527 28.7252 132.447 29.204 131.31 29.23 128.97 29.23 127.76 27.88 127.76 25.51ZM129.09 25.26C129.09 27.06 129.72 28.03 131.41 28.03 132.522 27.958 133.549 27.4117 134.23 26.53L134.23 21.07C133.539 20.2001 132.518 19.6567 131.41 19.57 129.72 19.57 129.09 20.57 129.09 22.34Z" id="Path_2366" fill="#0B938A" transform="translate(-21.86 -2.5)"/><path d="M77.16 40.39C77.5082 38.2085 79.559 36.7223 81.7405 37.0705 83.4482 37.3431 84.7874 38.6822 85.06 40.39L85.06 42.3 78.49 42.3 78.49 43.39C78.49 45.26 79.43 46.23 81.11 46.23 82.97 46.23 83.71 45.15 83.71 43.99L83.71 43.87 85 43.87 85 44.17C85 45.82 83.6 47.43 81.11 47.43 79.1332 47.6277 77.3698 46.1866 77.17 44.21 77.1499 44.0105 77.1499 43.8095 77.17 43.61ZM83.73 41.12 83.73 40.62C83.73 38.75 82.79 37.78 81.11 37.78 79.43 37.78 78.49 38.78 78.49 40.62L78.49 41.12Z" id="Path_2367" fill="#0B938A" transform="translate(-21.86 -2.5)"/><path d="M87.34 33.2 88.67 33.2 88.67 45.28C88.67 45.8 88.75 46.14 89.37 46.14 89.523 46.1549 89.677 46.1549 89.83 46.14L89.83 47.14C89.4744 47.2112 89.1127 47.2481 88.75 47.25 87.81 47.25 87.35 46.82 87.35 45.77Z" id="Path_2368" fill="#0B938A" transform="translate(-21.86 -2.5)"/><path d="M91 40.39C91.3482 38.2085 93.3989 36.7223 95.5805 37.0705 97.2882 37.3431 98.6274 38.6822 98.9 40.39L98.9 42.3 92.33 42.3 92.33 43.39C92.33 45.26 93.26 46.23 94.95 46.23 96.8 46.23 97.55 45.15 97.55 43.99L97.55 43.87 98.84 43.87 98.84 44.17C98.84 45.82 97.44 47.43 94.95 47.43 92.9721 47.6328 91.2044 46.1938 91.0016 44.216 91.0011 44.2106 91.0005 44.2053 91 44.2 90.9799 44.0038 90.9799 43.8062 91 43.61ZM97.57 41.12 97.57 40.62C97.57 38.75 96.64 37.78 94.95 37.78 93.26 37.78 92.33 38.78 92.33 40.62L92.33 41.12Z" id="Path_2369" fill="#0B938A" transform="translate(-21.86 -2.5)"/><path d="M101.06 40.39C100.934 38.4059 102.436 36.6937 104.42 36.56 104.616 36.5449 104.814 36.5449 105.01 36.56 107.5 36.56 108.91 37.95 108.91 39.8L108.91 40.1 107.61 40.1 107.61 40C107.61 38.69 106.86 37.77 105.01 37.77 103.33 37.77 102.39 38.77 102.39 40.62L102.39 43.39C102.39 45.26 103.33 46.23 105.01 46.23 106.87 46.23 107.61 45.29 107.61 43.98L107.61 43.87 108.91 43.87 108.91 44.17C108.91 45.97 107.51 47.43 105.01 47.43 103.032 47.6273 101.268 46.1835 101.071 44.205 101.07 44.2034 101.07 44.2017 101.07 44.2 101.055 44.0036 101.055 43.8064 101.07 43.61Z" id="Path_2370" fill="#0B938A" transform="translate(-21.86 -2.5)"/><path d="M111.19 37.94 110 37.94 110 36.76 111.2 36.76 111.35 34.14 112.53 34.14 112.53 36.76 115.84 36.76 115.84 37.94 112.53 37.94 112.53 43.87C112.53 45.56 113.22 46.34 114.75 46.34 115.25 46.3521 115.749 46.2881 116.23 46.15L116.23 47.25C115.751 47.4034 115.253 47.4876 114.75 47.5 112.47 47.5 111.2 46.43 111.2 44.05Z" id="Path_2371" fill="#0B938A" transform="translate(-21.86 -2.5)"/><path d="M117.5 36.76 118.66 36.76 118.77 38.07C119.442 37.1572 120.497 36.6041 121.63 36.57L121.74 36.57 121.74 37.81 121.54 37.81C120.42 37.8623 119.4 38.4699 118.82 39.43L118.82 47.23 117.5 47.23Z" id="Path_2372" fill="#0B938A" transform="translate(-21.86 -2.5)"/><path d="M122.4 40.39C122.748 38.2085 124.799 36.7223 126.98 37.0705 128.688 37.3431 130.027 38.6822 130.3 40.39L130.3 43.61C129.952 45.7915 127.901 47.2777 125.72 46.9295 124.012 46.6569 122.673 45.3178 122.4 43.61ZM123.73 43.39C123.73 45.27 124.67 46.24 126.35 46.24 128.03 46.24 128.97 45.24 128.97 43.39L128.97 40.61C128.97 38.74 128.04 37.77 126.35 37.77 124.66 37.77 123.73 38.77 123.73 40.61ZM127.14 33.39 128.73 33.39 127 35.71 125.7 35.71Z" id="Path_2373" fill="#0B938A" transform="translate(-21.86 -2.5)"/><path d="M132.62 36.76 133.8 36.76 133.9 37.9C134.649 37.0861 135.694 36.607 136.8 36.57 139.13 36.57 140.28 37.73 140.28 40.11L140.28 47.24 139 47.24 139 40.35C139 38.55 138.44 37.77 136.75 37.77 135.657 37.8409 134.651 38.3896 134 39.27L134 47.27 132.67 47.27Z" id="Path_2374" fill="#0B938A" transform="translate(-21.86 -2.5)"/><path d="M142.67 37.94 141.5 37.83 141.5 36.76 144 36.76 144 47.24 142.67 47.24ZM142.45 34.21C142.45 33.52 142.79 33.21 143.29 33.21 143.79 33.21 144.19 33.53 144.19 34.21 144.266 34.6565 143.965 35.0799 143.519 35.1556 143.509 35.1573 143.5 35.1587 143.49 35.16 143.424 35.17 143.356 35.17 143.29 35.16 142.79 35.16 142.45 34.86 142.45 34.16Z" id="Path_2375" fill="#0B938A" transform="translate(-21.86 -2.5)"/><path d="M146.32 40.39C146.194 38.4059 147.696 36.6937 149.68 36.56 149.876 36.5449 150.074 36.5449 150.27 36.56 152.76 36.56 154.17 37.95 154.17 39.8L154.17 40.1 152.88 40.1 152.88 40C152.88 38.69 152.13 37.77 150.28 37.77 148.59 37.77 147.65 38.77 147.65 40.62L147.65 43.39C147.65 45.26 148.59 46.23 150.28 46.23 152.13 46.23 152.88 45.29 152.88 43.98L152.88 43.87 154.17 43.87 154.17 44.17C154.17 45.97 152.77 47.43 150.27 47.43 148.295 47.622 146.535 46.1838 146.33 44.21 146.315 44.0103 146.315 43.8097 146.33 43.61Z" id="Path_2376" fill="#0B938A" transform="translate(-21.86 -2.5)"/><path d="M156.34 40.3C156.34 37.92 157.56 36.57 159.9 36.57 161.034 36.6099 162.109 37.0864 162.9 37.9L162.99 36.76 164.17 36.76 164.17 47.24 163 47.24 162.91 46.1C162.127 46.9252 161.047 47.404 159.91 47.43 157.57 47.43 156.35 46.08 156.35 43.71ZM157.67 43.46C157.67 45.26 158.3 46.23 159.99 46.23 161.104 46.1558 162.133 45.6102 162.82 44.73L162.82 39.27C162.127 38.3977 161.101 37.854 159.99 37.77 158.3 37.77 157.67 38.77 157.67 40.54Z" id="Path_2377" fill="#0B938A" transform="translate(-21.86 -2.5)"/></g><g id="Group_1577"><path d="M25.53 40.12 37.15 40.12 37.15 6.94 29.2 6.94 29.2 36.44Z" id="Path_2378" fill="#005E5C" transform="translate(-21.86 -2.5)"/><g id="Group_1575"><path d="M36.56 32.75 66 32.75 66 38.81C66 43.5983 62.1183 47.48 57.33 47.48L45.23 47.48C40.4417 47.48 36.56 43.5983 36.56 38.81L36.56 32.75Z" id="Rectangle_1585" fill="#2D80C9" transform="translate(-21.86 -2.5)"/><path d="M36.56 32.75 66 32.75 66 38.81C66 43.5983 62.1183 47.48 57.33 47.48L45.23 47.48C40.4417 47.48 36.56 43.5983 36.56 38.81L36.56 32.75Z" id="Rectangle_1586" fill="#0B938A" transform="translate(-21.86 -2.5)"/><path d="M56.15 3.27 42.83 3.27C42.22 3.27 36.56 11.83 36.56 12.49L36.56 32.75 66 32.75 66 13.16Z" id="Path_2379" fill="#3AB3A5" transform="translate(-21.86 -2.5)"/><path d="M61.55 3.27 36.55 3.27 36.55 18 66 18 66 17.85 66 7.78C66.011 5.29474 64.0053 3.27109 61.52 3.26004 61.5134 3.26001 61.5067 3.26 61.5 3.26Z" id="Path_2380" fill="#3AB3A5" transform="translate(-21.86 -2.5)"/></g><g id="Group_1576"><path d="M29.2 18.09 29.2 18.09 29.2 36.44 21.86 36.44 21.86 25.44C21.86 21.3862 25.1462 18.1 29.2 18.1Z" id="Rectangle_1587" fill="#3AB3A5" transform="translate(-21.86 -2.5)"/><path d="M39.89 7.06 32.71 7.06 32.88 3.27 39.88 3.27Z" id="Path_2381" fill="#3AB3A5" transform="translate(-21.86 -2.5)"/><circle cx="3.67" cy="33.94" r="3.67" id="Ellipse_133" fill="#3AB3A5"/><path d="M42.3 9.47 42.3 9.47C42.7971 9.47 43.2 9.87294 43.2 10.37L43.2 10.37C43.2 10.8671 42.7971 11.27 42.3 11.27L42.3 11.27C41.8029 11.27 41.4 10.8671 41.4 10.37L41.4 10.37C41.4 9.87294 41.8029 9.47 42.3 9.47Z" id="Rectangle_1588" fill="#FFFFFF" transform="translate(-21.86 -2.5)"/><path d="M66 32.75 62.3 32.75 56 40.47 53.82 38.39C53.134 37.8417 52.1343 37.9488 51.58 38.63 50.9238 39.2241 50.8659 40.2349 51.45 40.9L54.78 44.07C55.0913 44.3606 55.52 44.49 55.94 44.42L55.94 44.42C56.3949 44.3314 56.805 44.0875 57.1 43.73L66.1 32.87Z" id="Path_2382" fill="#003C3B" transform="translate(-21.86 -2.5)"/><path d="M55.94 42.74 55.94 42.74C55.4949 42.7393 55.0719 42.546 54.78 42.21L51.45 38.51C50.8618 37.8555 50.9155 36.8482 51.57 36.26 52.2245 35.6718 53.2318 35.7255 53.82 36.38L56 38.81 66.11 28.15C66.7047 27.5039 67.7106 27.4622 68.3567 28.0569 68.3578 28.058 68.3589 28.059 68.36 28.06 69.002 28.6584 69.0422 29.6622 68.45 30.31L68.45 30.31 57.09 42.25C56.7883 42.5616 56.3737 42.7382 55.94 42.74Z" id="Path_2383" fill="#FFFFFF" transform="translate(-21.86 -2.5)"/></g><rect x="22.66" y="6.99" rx="0.88" width="16.99" height="1.76" id="Rectangle_1589" fill="#FFFFFF"/><path d="M42.3 13.67 42.3 13.67C42.7971 13.67 43.2 14.0729 43.2001 14.5699 43.2001 14.5733 43.2 14.5766 43.2 14.58L43.2 14.58C43.2 15.0771 42.7971 15.48 42.3 15.48L42.3 15.48C41.8029 15.48 41.4 15.0771 41.4 14.58L41.4 14.58C41.3945 14.083 41.7929 13.6756 42.2899 13.6701 42.2933 13.67 42.2966 13.67 42.3 13.67Z" id="Rectangle_1590" fill="#FFFFFF" transform="translate(-21.86 -2.5)"/><rect x="22.66" y="11.19" rx="0.88" width="16.99" height="1.76" id="Rectangle_1591" fill="#FFFFFF"/><path d="M42.3 17.88 42.3 17.88C42.7971 17.88 43.2 18.2829 43.2 18.78L43.2 18.78C43.2 19.2771 42.7971 19.68 42.3 19.68L42.3 19.68C41.8029 19.68 41.4 19.2771 41.4 18.78L41.4 18.78C41.4 18.2829 41.8029 17.88 42.3 17.88Z" id="Rectangle_1592" fill="#FFFFFF" transform="translate(-21.86 -2.5)"/><rect x="22.66" y="15.4" rx="0.88" width="16.99" height="1.76" id="Rectangle_1593" fill="#FFFFFF"/><path d="M42.3 22.08 42.3 22.08C42.7971 22.08 43.2 22.4829 43.2 22.98L43.2 22.98C43.2 23.4771 42.7971 23.88 42.3 23.88L42.3 23.88C41.8029 23.88 41.4 23.4771 41.4 22.98L41.4 22.98C41.4 22.4829 41.8029 22.08 42.3 22.08Z" id="Rectangle_1594" fill="#FFFFFF" transform="translate(-21.86 -2.5)"/><rect x="22.66" y="19.6" rx="0.88" width="16.99" height="1.76" id="Rectangle_1595" fill="#FFFFFF"/><path d="M42.3 26.28 42.3 26.28C42.7971 26.28 43.2 26.6829 43.2 27.18L43.2 27.18C43.2 27.6771 42.7971 28.08 42.3 28.08L42.3 28.08C41.8029 28.08 41.4 27.6771 41.4 27.18L41.4 27.18C41.4 26.6829 41.8029 26.28 42.3 26.28Z" id="Rectangle_1596" fill="#FFFFFF" transform="translate(-21.86 -2.5)"/><rect x="22.66" y="23.8" rx="0.88" width="8.53" height="1.76" id="Rectangle_1597" fill="#FFFFFF"/><circle cx="11.02" cy="4.44" r="3.67" id="Ellipse_134" fill="#005E5C"/></g></svg>