<svg viewBox="0 0 144.85 45" xmlns="http://www.w3.org/2000/svg" xmlns:xlink="http://www.w3.org/1999/xlink" id="Layer_1" overflow="hidden"><defs></defs><g id="Group_1561"><g id="Group_1558"><path d="M148.25 11.32C147.346 12.2285 145.878 12.2326 144.969 11.329 144.966 11.326 144.963 11.323 144.96 11.32 144.53 10.8831 144.293 10.2928 144.3 9.68 144.277 9.04472 144.533 8.43116 145 8 145.429 7.58738 146.004 7.36097 146.6 7.37 147.881 7.32564 148.955 8.32775 148.999 9.60829 148.999 9.62219 149 9.63609 149 9.65 149.012 10.2804 148.758 10.8867 148.3 11.32M145.3 8.32C144.941 8.67733 144.739 9.16333 144.74 9.67 144.733 10.1857 144.939 10.6815 145.31 11.04 146.048 11.7856 147.251 11.7914 147.997 11.053 148.001 11.0487 148.006 11.0444 148.01 11.04 148.381 10.6815 148.587 10.1857 148.58 9.67 148.581 9.15348 148.372 8.65884 148 8.3 147.653 7.92499 147.161 7.71736 146.65 7.73 146.133 7.71548 145.634 7.92294 145.28 8.3M145.63 10.94 145.63 8.36 146.87 8.36C147.047 8.36754 147.221 8.41181 147.38 8.49 147.608 8.60962 147.741 8.8538 147.72 9.11 147.742 9.28485 147.679 9.45961 147.55 9.58 147.419 9.67872 147.263 9.74083 147.1 9.76 147.234 9.77172 147.362 9.82017 147.47 9.9 147.63 10.0485 147.711 10.263 147.69 10.48L147.69 10.71C147.69 10.71 147.69 10.71 147.69 10.78 147.69 10.85 147.69 10.84 147.69 10.86L147.69 10.93 147.05 10.93C147.024 10.8149 147.007 10.6979 147 10.58 147.015 10.4739 147.015 10.3661 147 10.26 146.968 10.1719 146.898 10.1024 146.81 10.07 146.734 10.0549 146.656 10.0549 146.58 10.07L146.29 10.07 146.29 10.98ZM146.86 8.88C146.735 8.83577 146.603 8.81541 146.47 8.82L146.3 8.82 146.3 9.57 146.56 9.57C146.691 9.57728 146.821 9.54222 146.93 9.47 147.027 9.40233 147.08 9.28787 147.07 9.17 147.075 9.0365 146.988 8.91675 146.86 8.88" id="Path_2093" fill="#004CAC" transform="translate(-20.57 -2.5)"/><path d="M98.73 13C98.1466 12.9984 97.5691 12.8829 97.03 12.66 96.473 12.4297 95.9964 12.0401 95.66 11.54 95.277 10.9455 95.0882 10.2465 95.12 9.54 95.111 8.89958 95.23 8.26381 95.47 7.67 95.684 7.15258 96.0042 6.68584 96.41 6.3 96.8065 5.93949 97.2681 5.6578 97.77 5.47 98.2866 5.28576 98.8316 5.19436 99.38 5.2 100.009 5.18764 100.631 5.33198 101.19 5.62 101.719 5.88674 102.158 6.30431 102.45 6.82 102.758 7.38009 102.913 8.01113 102.9 8.65 102.909 9.2362 102.81 9.81907 102.61 10.37 102.426 10.8788 102.14 11.3449 101.77 11.74 101.403 12.1377 100.952 12.4485 100.45 12.65 99.9026 12.8793 99.3134 12.9917 98.72 12.98M99.29 6.74C98.8246 6.73854 98.3715 6.88958 98 7.17 97.6471 7.42927 97.3651 7.77316 97.18 8.17 97.0034 8.56706 96.9082 8.9955 96.9 9.43 96.8913 9.94187 97.069 10.4394 97.4 10.83 97.7393 11.2231 98.2414 11.4373 98.76 11.41 99.1054 11.4214 99.4484 11.3493 99.76 11.2 100.051 11.0523 100.309 10.8484 100.52 10.6 100.724 10.3422 100.883 10.0513 100.99 9.74 101.091 9.41642 101.142 9.07908 101.14 8.74 101.15 8.37009 101.071 8.00322 100.91 7.67 100.629 7.04755 100.003 6.65369 99.32 6.67" id="Path_2094" fill="#004CAC" transform="translate(-20.57 -2.5)"/><path d="M113.48 12.92 114.4 6.77 111.89 6.77 112 6 112 6 112 6C112.041 5.62663 112.354 5.34288 112.73 5.34L118.85 5.34 118.73 6.19 118.73 6.19C118.671 6.5475 118.362 6.8099 118 6.81L116.1 6.81 115.2 12.96Z" id="Path_2095" fill="#004CAC" transform="translate(-20.57 -2.5)"/><path d="M124.09 5.93C123.533 5.46244 122.815 5.23258 122.09 5.29L119.64 5.29 118.53 12.92 119.47 12.92C119.914 12.9191 120.29 12.5904 120.35 12.15L120.35 12.15 120.65 10.15 122 10.15C122.529 10.1617 123.052 10.0378 123.52 9.79 123.896 9.57536 124.202 9.25566 124.4 8.87 124.587 8.47288 124.683 8.03893 124.68 7.6 124.7 6.99255 124.477 6.40218 124.06 5.96M122.9 7.65C122.858 8.34385 122.329 8.91019 121.64 9L120.8 9 121.19 6.4C121.426 6.37485 121.664 6.37485 121.9 6.4 122.36 6.4 123 6.58 122.9 7.66" id="Path_2096" fill="#004CAC" transform="translate(-20.57 -2.5)"/><path d="M109.64 5.28 108.92 10.22 106.75 6.72C106.258 5.83432 105.323 5.28643 104.31 5.29L104.21 5.29 103.08 12.92 104.8 12.92 105.53 8 107.7 11.5C108.194 12.3841 109.127 12.9314 110.14 12.93L110.25 12.93 111.37 5.3Z" id="Path_2097" fill="#004CAC" transform="translate(-20.57 -2.5)"/><path d="M128.92 5.29 128.33 5.29C127.559 5.29994 126.85 5.71875 126.47 6.39L126.41 6.49 126.41 6.49 123.15 12.87 124.95 12.87 125.8 11.11 128.29 11.11 128.49 12.87 130.34 12.87ZM126.28 10.09 127.75 7.09 128.16 10.09Z" id="Path_2098" fill="#004CAC" transform="translate(-20.57 -2.5)"/><path d="M138 11.29 137.76 11.05C137.891 10.8389 137.998 10.6143 138.08 10.38 138.281 9.82925 138.379 9.24625 138.37 8.66 138.383 8.02113 138.228 7.39009 137.92 6.83 137.628 6.31431 137.189 5.89674 136.66 5.63 136.099 5.34659 135.478 5.20253 134.85 5.21 134.301 5.20777 133.756 5.30256 133.24 5.49 132.736 5.67267 132.273 5.95493 131.88 6.32 131.47 6.70217 131.149 7.1699 130.94 7.69 130.699 8.28359 130.58 8.91951 130.59 9.56 130.561 10.2662 130.749 10.9644 131.13 11.56 131.47 12.0544 131.946 12.4399 132.5 12.67 133.037 12.9007 133.615 13.0198 134.2 13.02 134.789 13.0293 135.374 12.9205 135.92 12.7 136.092 12.6233 136.259 12.5365 136.42 12.44L136.65 12.66C136.827 12.8448 137.074 12.9465 137.33 12.94L138.33 12.94 138.33 12 138.33 12C138.324 11.7495 138.224 11.5104 138.05 11.33M134.28 11.49C133.762 11.5128 133.262 11.2995 132.92 10.91 132.589 10.5194 132.411 10.0219 132.42 9.51 132.427 9.07537 132.522 8.64671 132.7 8.25 132.885 7.85316 133.167 7.50927 133.52 7.25 133.893 6.9738 134.346 6.82639 134.81 6.83 135.491 6.81897 136.115 7.21115 136.4 7.83 136.561 8.16322 136.64 8.5301 136.63 8.9 136.632 9.23908 136.581 9.57642 136.48 9.9 136.37 10.2118 136.208 10.5026 136 10.76 135.795 11.0103 135.539 11.2148 135.25 11.36 134.938 11.5082 134.595 11.5802 134.25 11.57" id="Path_2099" fill="#004CAC" transform="translate(-20.57 -2.5)"/><path d="M94.48 7C94.48 7 92 6.24 90.8 7.41 89.6 8.58 89.57 10.41 90.89 11.15 92.21 11.89 94.32 10.93 94.47 10.7 94.5732 11.1814 94.517 11.6833 94.31 12.13 93.95 12.87 91.91 13.3 90.25 12.73 88.721 12.2315 87.7916 10.684 88.07 9.1 88.2123 7.25869 89.5598 5.73566 91.37 5.37 92.6599 5.12937 93.988 5.19098 95.25 5.55Z" id="Path_2100" fill="#004CAC" transform="translate(-20.57 -2.5)"/><path d="M143.12 7.32 141.82 7.32C141.334 7.31116 140.912 7.65289 140.82 8.13L140.1 12.92 140.1 12.92C140.656 12.6509 141.132 12.2406 141.48 11.73 142.062 11.0597 142.507 10.2816 142.79 9.44Z" id="Path_2101" fill="#004CAC" transform="translate(-20.57 -2.5)"/><path d="M142.29 6.64C142.892 6.64 143.38 6.15199 143.38 5.55 143.38 4.94801 142.892 4.46 142.29 4.46 141.688 4.46 141.2 4.94801 141.2 5.55 141.194 6.14644 141.673 6.63445 142.27 6.64 142.277 6.64006 142.283 6.64006 142.29 6.64L142.29 6.64" id="Path_2102" fill="#004CAC" transform="translate(-20.57 -2.5)"/><path d="M141.51 11.73C141.158 12.241 140.679 12.6512 140.12 12.92L141.42 12.92C141.903 12.9297 142.324 12.5931 142.42 12.12L142.81 9.44C142.531 10.2834 142.086 11.0621 141.5 11.73" id="Path_2103" fill="#00B5F1" transform="translate(-20.57 -2.5)"/></g><g id="Group_1559"><path d="M88 18.65 90 18.65 96.9 31.28 96.9 18.65 98.49 18.65 98.49 33.51 96.49 33.51 89.6 20.91 89.6 33.51 88.05 33.51Z" id="Path_2104" fill="#00B5F1" transform="translate(-20.57 -2.5)"/><path d="M100.9 25.74C100.9 23.05 102.62 21.41 105.38 21.41 108.14 21.41 109.86 23.05 109.86 25.74L109.86 29.39C109.86 32.08 108.14 33.72 105.38 33.72 102.62 33.72 100.9 32.08 100.9 29.39ZM102.41 29.13C102.41 31.26 103.47 32.36 105.41 32.36 107.35 32.36 108.41 31.26 108.41 29.13L108.41 26C108.41 23.87 107.35 22.77 105.41 22.77 103.47 22.77 102.41 23.87 102.41 26ZM106.27 17.85 108.07 17.85 106.07 20.44 104.6 20.44Z" id="Path_2105" fill="#00B5F1" transform="translate(-20.57 -2.5)"/><path d="M112.49 21.62 113.82 21.62 113.93 22.92C114.694 22.0058 115.809 21.4573 117 21.41 118.348 21.2564 119.647 21.9698 120.24 23.19 121.027 22.1274 122.249 21.4741 123.57 21.41 126.23 21.41 127.27 22.73 127.27 25.41L127.27 33.5 125.75 33.5 125.75 25.7C125.75 23.7 125.37 22.77 123.46 22.77 122.304 22.8525 121.25 23.4607 120.6 24.42 120.651 24.8213 120.678 25.2254 120.68 25.63L120.68 33.5 119.18 33.5 119.18 25.9C119.18 23.9 118.8 22.76 116.89 22.76 115.71 22.8495 114.637 23.4763 113.98 24.46L113.98 33.46 112.47 33.46Z" id="Path_2106" fill="#00B5F1" transform="translate(-20.57 -2.5)"/><path d="M130 23 128.66 22.87 128.66 21.62 131.51 21.62 131.51 33.5 130 33.5ZM129.75 18.78C129.75 17.99 130.13 17.63 130.7 17.63 131.27 17.63 131.7 17.99 131.7 18.78 131.751 19.2923 131.405 19.7596 130.9 19.86L130.68 19.86C130.12 19.82 129.74 19.48 129.74 18.74Z" id="Path_2107" fill="#00B5F1" transform="translate(-20.57 -2.5)"/><path d="M134.26 21.62 135.59 21.62 135.7 22.92C136.553 21.9952 137.742 21.4512 139 21.41 141.65 21.41 142.95 22.73 142.95 25.41L142.95 33.5 141.44 33.5 141.44 25.7C141.44 23.7 140.8 22.77 138.89 22.77 137.654 22.8514 136.516 23.4733 135.78 24.47L135.78 33.47 134.27 33.47Z" id="Path_2108" fill="#00B5F1" transform="translate(-20.57 -2.5)"/><path d="M145.52 25.63C145.52 22.94 146.9 21.41 149.52 21.41 150.798 21.4623 152.008 22.0028 152.9 22.92L153 21.63 154.34 21.63 154.34 33.51 153 33.51 152.9 32.21C152.015 33.1377 150.801 33.6801 149.52 33.72 146.87 33.72 145.52 32.19 145.52 29.5ZM147 29.22C147 31.22 147.72 32.36 149.63 32.36 150.891 32.278 152.056 31.659 152.83 30.66L152.83 24.47C152.046 23.4838 150.886 22.868 149.63 22.77 147.72 22.77 147 23.87 147 25.91Z" id="Path_2109" fill="#00B5F1" transform="translate(-20.57 -2.5)"/><path d="M156.62 29.79 158.13 29.79 158.13 29.92C158.13 31.19 159.06 32.44 161.13 32.44 163.04 32.44 163.89 31.44 163.89 30.3L163.89 30.15C163.89 28.86 162.81 28.45 161.07 28.26 158.95 28.03 156.85 27.37 156.85 25.04L156.85 24.68C156.85 22.79 158.18 21.33 160.94 21.33 163.7 21.33 165.12 23.11 165.12 25L165.12 25.34 163.66 25.34 163.66 25.21C163.66 23.94 163.04 22.68 160.94 22.68 159.1 22.68 158.35 23.55 158.35 24.68L158.35 24.83C158.35 26.25 159.58 26.65 161.28 26.83 163.23 27.05 165.4 27.56 165.4 29.91L165.4 30.33C165.4 32.2 163.89 33.75 161.13 33.75 158.37 33.75 156.59 32.12 156.59 30.08Z" id="Path_2110" fill="#00B5F1" transform="translate(-20.57 -2.5)"/></g><g id="Group_1560"><path d="M31.86 42.42 31.86 24.69C31.9415 21.8082 34.3436 19.5381 37.2254 19.6196 37.2303 19.6197 37.2351 19.6199 37.24 19.62L37.24 19.62C40.1271 19.5303 42.5402 21.7981 42.6299 24.6851 42.6299 24.6867 42.63 24.6884 42.63 24.69L42.63 42.42C42.5375 45.3081 40.1285 47.5785 37.24 47.5L37.24 47.5C34.3553 47.5729 31.9525 45.3041 31.86 42.42Z" id="Path_2111" fill="#004E9E" transform="translate(-20.57 -2.5)"/><path d="M37.24 19.62 37.24 19.62C40.1271 19.5303 42.5402 21.7981 42.6299 24.6851 42.6299 24.6867 42.63 24.6884 42.63 24.69L42.63 32.79 37.23 27.71 37.23 27.71 31.84 32.78 31.84 24.69C31.9268 21.8029 34.3377 19.5327 37.2248 19.6195 37.2299 19.6197 37.2349 19.6198 37.24 19.62Z" id="Path_2112" fill="#003062" transform="translate(-20.57 -2.5)"/><path d="M42.37 30.47 33.43 22.05 33.43 22.05C31.2759 20.07 27.9641 20.07 25.81 22.05L29.69 18.4C33.9608 14.4718 40.5292 14.4718 44.8 18.4L50 23.3Z" id="Path_2113" fill="#00B4EF" transform="translate(-20.57 -2.5)"/><path d="M22.1 32.91C20.0621 30.8787 20.0567 27.5799 22.088 25.542 22.092 25.538 22.096 25.534 22.1 25.53L22.21 25.42 25.81 22.05C27.9641 20.07 31.2759 20.07 33.43 22.05L33.43 22.05 37.24 25.64 29.37 33C27.3207 34.94 24.1006 34.9001 22.1 32.91Z" id="Path_2114" fill="#007BC3" transform="translate(-20.57 -2.5)"/><path d="M25.81 22.05C27.9641 20.07 31.2759 20.07 33.43 22.05L33.43 22.05 37.24 25.64 35.79 27 32 23.42 32 23.42C29.8496 21.4304 26.5304 21.4304 24.38 23.42Z" id="Path_2115" fill="#004E9E" transform="translate(-20.57 -2.5)"/><path d="M31.43 8.31 31.43 8.31C31.4355 5.10351 34.0335 2.50551 37.24 2.5L37.24 2.5C40.4504 2.50552 43.05 5.1096 43.05 8.32L43.05 8.32C43.05 11.5304 40.4504 14.1345 37.24 14.14L37.24 14.14C34.0257 14.1345 31.4245 11.5243 31.43 8.31002Z" id="Path_2116" fill="#00B4EF" transform="translate(-20.57 -2.5)"/><path d="M57.25 42.42 57.25 24.69C57.3315 21.8082 59.7336 19.5381 62.6154 19.6196 62.6203 19.6197 62.6251 19.6199 62.63 19.62L62.63 19.62C65.5113 19.5415 67.9129 21.809 68 24.69L68 42.42C67.9075 45.3081 65.4985 47.5785 62.61 47.5L62.61 47.5C59.7331 47.5618 57.3425 45.2961 57.25 42.42Z" id="Path_2117" fill="#004E9E" transform="translate(-20.57 -2.5)"/><path d="M62.63 19.62 62.63 19.62C65.5113 19.5415 67.9129 21.809 68 24.69L68 32.79 62.6 27.71 62.6 27.71 57.21 32.78 57.21 24.69C57.2964 21.8028 59.707 19.5324 62.5941 19.6188 62.6061 19.6192 62.618 19.6196 62.63 19.62Z" id="Path_2118" fill="#003062" transform="translate(-20.57 -2.5)"/><path d="M56.82 8.31 56.82 8.31C56.8255 5.10351 59.4235 2.50551 62.63 2.5L62.63 2.5C65.8404 2.50552 68.44 5.1096 68.44 8.32L68.44 8.32C68.44 11.5304 65.8404 14.1345 62.63 14.14L62.63 14.14C59.4157 14.14 56.81 11.5343 56.81 8.32Z" id="Path_2119" fill="#00B4EF" transform="translate(-20.57 -2.5)"/><path d="M55 18.47 46.13 26.83 46.13 26.83C43.9759 28.81 40.6641 28.81 38.51 26.83L42.38 30.47C46.6503 34.4091 53.2297 34.4091 57.5 30.47L62.62 25.65Z" id="Path_2120" fill="#007BC3" transform="translate(-20.57 -2.5)"/><path d="M55.07 18.4C59.3478 14.48 65.9122 14.48 70.19 18.4L77.62 25.4C79.7203 27.3805 79.8187 30.6881 77.84 32.79L77.73 32.9 77.73 32.9C75.7348 34.8958 72.5147 34.9445 70.46 33.01L58.81 22.01 58.81 22.01C56.6559 20.03 53.3441 20.03 51.19 22.01Z" id="Path_2121" fill="#00B4EF" transform="translate(-20.57 -2.5)"/><path d="M51.2 22.05C53.3541 20.07 56.6659 20.07 58.82 22.05L58.82 22.05 62.63 25.64 61.18 27 57.37 23.41 57.37 23.41C55.2163 21.419 51.8937 21.419 49.74 23.41Z" id="Path_2122" fill="#004E9E" transform="translate(-20.57 -2.5)"/></g></g></svg>