<svg viewBox="0 0 153.21 45" xmlns="http://www.w3.org/2000/svg" xmlns:xlink="http://www.w3.org/1999/xlink" id="Layer_1" overflow="hidden"><defs></defs><g id="Group_1604"><g id="Group_1599"><path d="M127.6 11.41C126.702 12.3157 125.239 12.3217 124.333 11.4232 124.329 11.4188 124.324 11.4144 124.32 11.41 123.889 10.9781 123.651 10.3902 123.66 9.78 123.642 9.13652 123.909 8.51792 124.39 8.09 124.819 7.66674 125.397 7.4296 126 7.43 127.277 7.42999 128.314 8.46261 128.32 9.74 128.331 10.3701 128.077 10.9759 127.62 11.41M124.62 8.41C124.261 8.76362 124.06 9.24635 124.06 9.75 124.048 10.2647 124.251 10.7611 124.62 11.12 125.368 11.8597 126.572 11.8597 127.32 11.12 128.068 10.3766 128.072 9.16721 127.329 8.41887 127.326 8.4159 127.323 8.41295 127.32 8.41 126.985 8.03489 126.503 7.82336 126 7.83 125.482 7.81152 124.982 8.01964 124.63 8.4M125 11 125 8.46 126.24 8.46C126.416 8.46892 126.589 8.50957 126.75 8.58 126.977 8.70495 127.11 8.95144 127.09 9.21 127.11 9.38171 127.047 9.55272 126.92 9.67 126.791 9.77291 126.634 9.83552 126.47 9.85 126.603 9.86992 126.73 9.92133 126.84 10 126.999 10.1445 127.081 10.3559 127.06 10.57L127.06 10.8C127.055 10.8264 127.055 10.8536 127.06 10.88 127.06 10.88 127.06 10.88 127.06 10.96L127.06 11.02 126.42 11.02C126.393 10.905 126.376 10.7879 126.37 10.67 126.385 10.5672 126.385 10.4628 126.37 10.36 126.34 10.2703 126.27 10.1998 126.18 10.17 126.104 10.1549 126.026 10.1549 125.95 10.17L125.66 10.17 125.66 11ZM126.19 9C126.065 8.95769 125.932 8.94069 125.8 8.95L125.63 8.95 125.63 9.7 125.89 9.7C126.02 9.70228 126.149 9.66761 126.26 9.6 126.354 9.52979 126.407 9.41714 126.4 9.3 126.41 9.16286 126.322 9.03757 126.19 9" id="Path_2471" fill="#004CAC" transform="translate(-13.4 -2.5)"/><path d="M78.2 13.08C77.6199 13.0774 77.0459 12.9619 76.51 12.74 75.9548 12.5112 75.481 12.121 75.15 11.62 74.7619 11.0277 74.5728 10.3271 74.61 9.62 74.6182 8.99349 74.7507 8.37485 75 7.8 75.2089 7.28232 75.526 6.81524 75.93 6.43 76.3231 6.06493 76.7856 5.78267 77.29 5.6 77.806 5.41256 78.351 5.31777 78.9 5.32 79.5251 5.31256 80.1427 5.45667 80.7 5.74 81.2242 6.00566 81.6589 6.41946 81.95 6.93 82.2606 7.48931 82.4192 8.12028 82.41 8.76 82.4097 9.34548 82.3117 9.9268 82.12 10.48 81.9326 10.9896 81.6434 11.4558 81.27 11.85 80.9015 12.2412 80.4553 12.5512 79.96 12.76 79.4138 12.9805 78.8289 13.0893 78.24 13.08M78.81 6.86C78.3466 6.85129 77.8933 6.99537 77.52 7.27 77.1671 7.52927 76.8851 7.87316 76.7 8.27 76.5212 8.66242 76.4291 9.08877 76.43 9.52 76.4079 10.0322 76.5833 10.5334 76.92 10.92 77.2552 11.314 77.7532 11.5317 78.27 11.51 78.6159 11.5152 78.9582 11.4399 79.27 11.29 79.5596 11.1453 79.8152 10.9408 80.02 10.69 80.2321 10.4373 80.3918 10.145 80.49 9.83 80.5932 9.50684 80.6438 9.16921 80.64 8.83 80.6498 8.46009 80.5709 8.09322 80.41 7.76 80.1304 7.14094 79.5091 6.74774 78.83 6.76" id="Path_2472" fill="#004CAC" transform="translate(-13.4 -2.5)"/><path d="M92.92 13 93.83 6.87 91.33 6.87 91.45 6.07 91.45 6.07 91.45 6.07C91.4906 5.69663 91.8044 5.41288 92.18 5.41L98.29 5.41 98.16 6.26 98.16 6.26C98.1012 6.6175 97.7923 6.8799 97.43 6.88L95.54 6.88 94.64 13Z" id="Path_2473" fill="#004CAC" transform="translate(-13.4 -2.5)"/><path d="M103.5 6C102.948 5.52349 102.226 5.2924 101.5 5.36L99.05 5.36 97.94 13 98.88 13C99.3228 12.9948 99.6961 12.6682 99.76 12.23L99.76 12.23 100.06 10.23 101.44 10.23C101.985 10.2532 102.526 10.1215 103 9.85 103.375 9.64176 103.679 9.32443 103.87 8.94 104.061 8.54766 104.156 8.11611 104.15 7.68 104.172 7.05472 103.937 6.44769 103.5 6M102.31 7.71C102.282 8.41539 101.75 8.99805 101.05 9.09L100.21 9.09 100.6 6.49C100.836 6.46515 101.074 6.46515 101.31 6.49 101.77 6.49 102.41 6.67 102.31 7.75" id="Path_2474" fill="#004CAC" transform="translate(-13.4 -2.5)"/><path d="M89.09 5.39 88.37 10.31 86.2 6.81C85.7119 5.92663 84.7792 5.38157 83.77 5.39L83.67 5.39 82.54 13 84.26 13 85 8.08 87.16 11.58C87.656 12.4556 88.5837 12.9977 89.59 13L89.69 13 90.81 5.39Z" id="Path_2475" fill="#004CAC" transform="translate(-13.4 -2.5)"/><path d="M108.32 5.4 107.73 5.4C106.961 5.40108 106.253 5.81815 105.88 6.49L105.81 6.59 102.53 13 104.32 13 105.17 11.25 107.65 11.25 107.86 13 109.71 13ZM105.69 10.19 107.15 7.19 107.56 10.19Z" id="Path_2476" fill="#004CAC" transform="translate(-13.4 -2.5)"/><path d="M117.37 11.39 117.13 11.15C117.257 10.9368 117.364 10.7125 117.45 10.48 117.641 9.93002 117.739 9.35214 117.74 8.77 117.749 8.13028 117.591 7.49931 117.28 6.94 116.982 6.42138 116.537 6.00351 116 5.74 115.442 5.46088 114.824 5.32025 114.2 5.33 113.652 5.32372 113.106 5.41515 112.59 5.6 112.087 5.78531 111.625 6.06727 111.23 6.43 110.82 6.81217 110.499 7.2799 110.29 7.8 110.069 8.39424 109.971 9.02682 110 9.66 109.966 10.3654 110.151 11.064 110.53 11.66 110.87 12.1544 111.346 12.5399 111.9 12.77 112.434 12.9976 113.009 13.1133 113.59 13.11 114.179 13.1193 114.764 13.0105 115.31 12.79 115.482 12.7167 115.648 12.6333 115.81 12.54L116.04 12.76C116.22 12.934 116.459 13.0339 116.71 13.04L117.71 13.04 117.71 12.09 117.71 12.09C117.709 11.8374 117.613 11.5944 117.44 11.41M113.67 11.57C113.151 11.5973 112.649 11.3831 112.31 10.99 111.982 10.5985 111.808 10.1007 111.82 9.59 111.786 9.15532 111.848 8.71852 112 8.31 112.181 7.9136 112.46 7.56956 112.81 7.31 113.182 7.03263 113.636 6.88824 114.1 6.9 114.782 6.88635 115.407 7.27936 115.69 7.9 115.86 8.20887 115.966 8.5491 116 8.9 116 9.23974 115.946 9.57735 115.84 9.9 115.74 10.2141 115.58 10.506 115.37 10.76 115.165 11.0103 114.909 11.2148 114.62 11.36 114.31 11.5154 113.966 11.5878 113.62 11.57" id="Path_2477" fill="#004CAC" transform="translate(-13.4 -2.5)"/><path d="M74 7.12C74 7.12 71.53 6.35 70.33 7.51 69.13 8.67 69.11 10.51 70.42 11.24 71.73 11.97 73.8 11 74 10.79 74.1046 11.2756 74.0448 11.7821 73.83 12.23 73.48 12.96 71.43 13.38 69.83 12.81 68.265 12.3596 67.2878 10.8056 67.56 9.2 67.6989 7.36273 69.0435 5.84237 70.85 5.48 72.1365 5.23911 73.4614 5.30074 74.72 5.66Z" id="Path_2478" fill="#004CAC" transform="translate(-13.4 -2.5)"/><path d="M122.48 7.43 121.19 7.43C120.707 7.42026 120.286 7.75688 120.19 8.23L119.47 13 119.47 13C120.026 12.7309 120.502 12.3206 120.85 11.81 121.429 11.1428 121.871 10.3681 122.15 9.53Z" id="Path_2479" fill="#004CAC" transform="translate(-13.4 -2.5)"/><path d="M121.65 6.74C122.252 6.7455 122.744 6.26197 122.75 5.66 122.755 5.05803 122.272 4.56559 121.67 4.56009 121.068 4.55459 120.575 5.03813 120.57 5.64009 120.57 5.64673 120.57 5.65336 120.57 5.66L120.57 5.66C120.57 6.25647 121.054 6.74 121.65 6.74L121.65 6.74" id="Path_2480" fill="#004CAC" transform="translate(-13.4 -2.5)"/><path d="M120.87 11.82C120.521 12.3269 120.045 12.7337 119.49 13L120.79 13C121.273 13.0097 121.694 12.6731 121.79 12.2L122.18 9.53C121.898 10.367 121.457 11.1413 120.88 11.81" id="Path_2481" fill="#00B5F1" transform="translate(-13.4 -2.5)"/></g><g id="Group_1600"><path d="M67.54 18.7 72.88 18.7C75.2624 18.4923 77.362 20.2551 77.5698 22.6375 77.5699 22.6383 77.5699 22.6392 77.57 22.64 77.585 22.8631 77.585 23.0869 77.57 23.31L77.57 24.31C77.725 26.6849 75.9427 28.7436 73.57 28.93 73.3469 28.945 73.1231 28.945 72.9 28.93L69.13 28.93 69.13 33.5 67.54 33.5ZM72.88 27.48C74.88 27.48 75.99 26.27 75.99 24.05L75.99 23.59C75.99 21.36 74.89 20.18 72.88 20.18L69.13 20.18 69.13 27.48Z" id="Path_2482" fill="#0B938A" transform="translate(-13.4 -2.5)"/><path d="M79.69 21.66 81 21.66 81.13 23.14C81.8915 22.1071 83.0871 21.4834 84.37 21.45L84.5 21.45 84.5 22.85 84.26 22.85C82.9943 22.9146 81.8436 23.6043 81.19 24.69L81.19 33.51 79.69 33.51Z" id="Path_2483" fill="#0B938A" transform="translate(-13.4 -2.5)"/><path d="M85.32 25.77C85.32 23.08 87.04 21.45 89.79 21.45 92.54 21.45 94.25 23.08 94.25 25.77L94.25 29.41C94.25 32.09 92.54 33.72 89.79 33.72 87.04 33.72 85.32 32.09 85.32 29.41ZM86.82 29.15C86.82 31.27 87.88 32.37 89.82 32.37 91.76 32.37 92.82 31.27 92.82 29.15L92.82 26C92.82 23.88 91.76 22.78 89.82 22.78 87.88 22.78 86.82 23.88 86.82 26Z" id="Path_2484" fill="#0B938A" transform="translate(-13.4 -2.5)"/><path d="M105.58 33.51 104.24 33.51 104.14 32.22C103.257 33.1425 102.047 33.6812 100.77 33.72 98.13 33.72 96.77 32.2 96.77 29.51L96.77 25.66C96.77 22.97 98.15 21.45 100.77 21.45 102.012 21.4635 103.198 21.9666 104.07 22.85L104.07 17.64 105.57 17.64ZM98.25 29.24C98.25 31.24 98.97 32.37 100.88 32.37 102.138 32.2866 103.302 31.6722 104.08 30.68L104.08 24.5C103.294 23.5157 102.136 22.9003 100.88 22.8 98.98 22.8 98.25 23.9 98.25 25.94Z" id="Path_2485" fill="#0B938A" transform="translate(-13.4 -2.5)"/><path d="M108.29 21.66 109.79 21.66 109.79 29.45C109.79 31.45 110.23 32.37 112.18 32.37 113.43 32.2884 114.585 31.6727 115.35 30.68L115.35 21.68 116.85 21.68 116.85 33.51 115.53 33.51 115.42 32.22C114.521 33.1382 113.304 33.6754 112.02 33.72 109.29 33.72 108.29 32.41 108.29 29.72Z" id="Path_2486" fill="#0B938A" transform="translate(-13.4 -2.5)"/><path d="M119.48 25.77C119.48 23.08 121.2 21.45 123.95 21.45 126.7 21.45 128.35 23.01 128.35 25.11L128.35 25.45 126.89 25.45 126.89 25.32C126.89 23.84 126.04 22.8 123.95 22.8 122.05 22.8 120.95 23.9 120.95 26.02L120.95 29.15C120.95 31.27 122 32.37 123.95 32.37 126.04 32.37 126.89 31.31 126.89 29.83L126.89 29.7 128.35 29.7 128.35 30C128.35 32 126.76 33.68 123.95 33.68 121.14 33.68 119.48 32.05 119.48 29.36Z" id="Path_2487" fill="#0B938A" transform="translate(-13.4 -2.5)"/><path d="M130.81 25.77C130.81 23.08 132.52 21.45 135.28 21.45 138.04 21.45 139.68 23.01 139.68 25.11L139.68 25.45 138.22 25.45 138.22 25.32C138.22 23.84 137.37 22.8 135.27 22.8 133.37 22.8 132.27 23.9 132.27 26.02L132.27 29.15C132.27 31.27 133.33 32.37 135.27 32.37 137.37 32.37 138.22 31.31 138.22 29.83L138.22 29.7 139.68 29.7 139.68 30C139.68 32 138.09 33.68 135.28 33.68 132.47 33.68 130.81 32.05 130.81 29.36Z" id="Path_2488" fill="#0B938A" transform="translate(-13.4 -2.5)"/><path d="M142.26 23 140.93 22.88 140.93 21.66 143.76 21.66 143.76 33.51 142.26 33.51ZM142 18.78C142 18 142.38 17.64 143 17.64 143.62 17.64 144 18 144 18.78 144.082 19.287 143.738 19.7647 143.231 19.8469 143.224 19.848 143.217 19.849 143.21 19.85 143.137 19.8648 143.063 19.8648 142.99 19.85 142.39 19.86 142 19.52 142 18.78Z" id="Path_2489" fill="#0B938A" transform="translate(-13.4 -2.5)"/><path d="M146.39 25.77C146.39 23.08 148.1 21.45 150.85 21.45 153.6 21.45 155.32 23.08 155.32 25.77L155.32 29.4C155.32 32.09 153.6 33.72 150.85 33.72 148.1 33.72 146.39 32.09 146.39 29.4ZM147.89 29.15C147.89 31.27 148.95 32.37 150.89 32.37 152.83 32.37 153.89 31.27 153.89 29.15L153.89 26C153.89 23.88 152.84 22.78 150.89 22.78 148.94 22.78 147.89 23.88 147.89 26ZM151.74 17.89 153.54 17.89 151.54 20.47 150.08 20.47Z" id="Path_2490" fill="#0B938A" transform="translate(-13.4 -2.5)"/><path d="M158 21.66 159.33 21.66 159.44 22.95C160.288 22.0309 161.47 21.4906 162.72 21.45 165.36 21.45 166.65 22.76 166.65 25.45L166.65 33.51 165.15 33.51 165.15 25.72C165.15 23.72 164.52 22.8 162.62 22.8 161.38 22.8799 160.239 23.5018 159.5 24.5L159.5 33.5 158 33.5Z" id="Path_2491" fill="#0B938A" transform="translate(-13.4 -2.5)"/></g><g id="Group_1602"><path d="M57.3 30.11 55.81 29.17C56.3404 26.4592 56.3098 23.6685 55.72 20.97L57.27 19.97C58.2359 19.3708 58.6254 18.16 58.19 17.11L57.25 14.85C56.8107 13.7947 55.6734 13.2113 54.56 13.47L52.7 13.9C51.1908 11.6733 49.2531 9.76955 47 8.3L47.45 6.3C47.6823 5.18055 47.068 4.05796 46 3.65L43.75 2.72C42.6967 2.27581 41.4768 2.66128 40.87 3.63L39.81 5.38 39.81 5.38C37.2312 4.875 34.5788 4.875 32 5.38L31.92 5.28 30.8 3.59C30.1941 2.6263 28.9805 2.24152 27.93 2.68L25.69 3.6C24.6347 4.02816 24.049 5.16151 24.31 6.27L24.76 8.2C24.7656 8.28657 24.7656 8.37342 24.76 8.46 22.6123 9.8975 20.7675 11.7423 19.33 13.89L19.03 13.84 17.15 13.4C16.0388 13.1379 14.9021 13.7232 14.47 14.78L13.57 17C13.139 18.0502 13.5276 19.2581 14.49 19.86L16.08 20.86C16.1741 20.921 16.2643 20.9878 16.35 21.06 15.855 23.6196 15.855 26.2504 16.35 28.81 16.2733 28.8788 16.1895 28.9391 16.1 28.99L14.57 29.99C13.6076 30.5919 13.219 31.7998 13.65 32.85L14.65 35.12C15.0854 36.1737 16.2193 36.7577 17.33 36.5L19 36.12 19.25 36.12C20.7189 38.3703 22.6188 40.3075 24.84 41.82L24.84 41.97 24.44 43.71C24.1945 44.8167 24.7813 45.9395 25.83 46.37L28.09 47.31C29.1403 47.7529 30.3568 47.3672 30.96 46.4L31.96 44.89 31.96 44.89C34.653 45.4715 37.4362 45.4987 40.14 44.97L41.08 46.47C41.6859 47.4337 42.8995 47.8185 43.95 47.38L46.2 46.46C47.2493 46.0253 47.8322 44.8974 47.58 43.79L47.11 42C49.4372 40.4827 51.4227 38.4972 52.94 36.17L54.61 36.55C55.7186 36.8134 56.8543 36.2328 57.29 35.18L58.22 33C58.6726 31.9418 58.2811 30.7118 57.3 30.11Z" id="Path_2492" fill="#3AB3A5" transform="translate(-13.4 -2.5)"/><path d="M16.31 28.86 16.07 29.04 14.53 30.04C13.5678 30.6423 13.1828 31.8524 13.62 32.9L14.56 35.17C14.9954 36.2237 16.1293 36.8077 17.24 36.55L19 36.12 19.25 36.12C20.7189 38.3703 22.6188 40.3075 24.84 41.82 24.8447 41.8699 24.8447 41.9201 24.84 41.97L24.44 43.71C24.1945 44.8167 24.7813 45.9395 25.83 46.37L28.09 47.32C29.1407 47.7541 30.3514 47.3702 30.96 46.41L31.96 44.89 31.96 44.89C34.653 45.4715 37.4362 45.4987 40.14 44.97L41.08 46.47C41.6859 47.4337 42.8995 47.8185 43.95 47.38L46.2 46.46C47.2477 46.0292 47.8311 44.9047 47.58 43.8L47.19 42.11C49.5154 40.5864 51.5003 38.598 53.02 36.27L54.69 36.66C55.8001 36.9133 56.9314 36.3308 57.37 35.28L58.23 33C58.661 31.9498 58.2724 30.7419 57.31 30.14L55.81 29.2C56.0836 27.8172 56.211 26.4095 56.19 25L16 25C15.9788 26.2936 16.0826 27.5863 16.31 28.86Z" id="Path_2493" fill="#0B938A" transform="translate(-13.4 -2.5)"/><path d="M48.34 24.94C48.4515 18.9456 43.6843 13.9949 37.69 13.88 37.1688 13.8717 36.6476 13.8985 36.13 13.96L36 13.96C29.1617 14.8544 23.9933 20.5956 23.82 27.49 23.7085 33.4899 28.4802 38.4451 34.48 38.56 35.0315 38.5699 35.5829 38.5398 36.13 38.47 39.8622 38.0359 43.2582 36.1051 45.54 33.12 47.3581 30.7818 48.3404 27.9019 48.33 24.94Z" id="Path_2494" fill="#003C3B" transform="translate(-13.4 -2.5)"/><g id="Group_1601"><path d="M36.13 24.94 36.13 24.94 36.13 12.69C29.3645 12.7117 23.8977 18.2138 23.9194 24.9793 23.9411 31.7447 29.4432 37.2116 36.2087 37.1899 39.8086 37.1783 43.2213 35.5838 45.54 32.83Z" id="Path_2495" fill="#005E5C" transform="translate(-13.4 -2.5)"/></g><path d="M36 24.91 45.5 32.83C47.389 30.558 48.3814 27.6733 48.29 24.72Z" id="Path_2496" fill="#3AB3A5" transform="translate(-13.4 -2.5)"/><path d="M36 12.69 36 24.94 48.34 24.94C48.3291 18.1635 42.8267 12.6789 36.0502 12.6898 36.0335 12.6898 36.0167 12.6899 36 12.69Z" id="Path_2497" fill="#FFFFFF" transform="translate(-13.4 -2.5)"/></g><g id="Group_1603"><path d="M147.63 39.85 147.38 39.85 147.38 39.61C147.207 39.7772 146.98 39.8766 146.74 39.89 146.356 39.9304 146.011 39.6514 145.971 39.267 145.97 39.2646 145.97 39.2623 145.97 39.26 145.96 39.2038 145.96 39.1462 145.97 39.09L145.97 38.36C145.922 37.9753 146.187 37.6216 146.57 37.56 146.627 37.5552 146.683 37.5552 146.74 37.56 146.975 37.5616 147.199 37.6591 147.36 37.83L147.36 36.83 147.65 36.83ZM146.24 39C146.24 39.39 146.37 39.6 146.74 39.6 146.977 39.5852 147.196 39.4685 147.34 39.28L147.34 38.14C147.194 37.9526 146.977 37.8334 146.74 37.81 146.37 37.81 146.24 38.02 146.24 38.41Z" id="Path_2498" fill="#67737A" transform="translate(-13.4 -2.5)"/><path d="M148.17 38.38C148.17 37.9106 148.551 37.53 149.02 37.53 149.489 37.53 149.87 37.9106 149.87 38.38L149.87 38.79 148.46 38.79 148.46 39C148.46 39.4 148.66 39.61 149.02 39.61 149.38 39.61 149.58 39.38 149.58 39.13L149.58 39.13 149.86 39.13 149.86 39.19C149.834 39.6034 149.477 39.9172 149.064 39.891 149.059 39.8907 149.055 39.8904 149.05 39.89L149.05 39.89C148.626 39.9309 148.247 39.6236 148.2 39.2L148.2 38.38ZM149.58 38.53 149.58 38.43C149.58 38.03 149.38 37.81 149.02 37.81 148.66 37.81 148.45 38.02 148.45 38.43L148.45 38.53Z" id="Path_2499" fill="#67737A" transform="translate(-13.4 -2.5)"/><path d="M151.27 37 151.59 37 152.42 39.47 153.23 37 153.55 37 152.55 39.82 152.23 39.82Z" id="Path_2500" fill="#67737A" transform="translate(-13.4 -2.5)"/><path d="M154.46 38.91 153.55 37 153.88 37 154.61 38.55 155.33 37 155.66 37 154.76 38.87 154.76 39.87 154.46 39.87Z" id="Path_2501" fill="#67737A" transform="translate(-13.4 -2.5)"/><path d="M155.9 37 156.9 37C157.338 36.9528 157.733 37.2636 157.79 37.7L157.79 38C157.824 38.3774 157.571 38.7207 157.2 38.8L157.9 39.8 157.53 39.8 156.86 38.8 156.18 38.8 156.18 39.8 155.88 39.8ZM156.9 38.56C157.19 38.5969 157.456 38.3913 157.493 38.101 157.499 38.0508 157.498 37.9999 157.49 37.95L157.49 37.89C157.537 37.6067 157.345 37.3389 157.062 37.2919 157.058 37.2912 157.054 37.2906 157.05 37.29L156.18 37.29 156.18 38.57Z" id="Path_2502" fill="#67737A" transform="translate(-13.4 -2.5)"/><path d="M158.17 37.85C158.17 37.2977 158.618 36.85 159.17 36.85 159.722 36.85 160.17 37.2977 160.17 37.85L160.17 39C160.112 39.5454 159.626 39.9424 159.08 39.89 158.607 39.8451 158.23 39.4729 158.18 39ZM158.47 38.97C158.516 39.3538 158.865 39.6276 159.249 39.5815 159.569 39.543 159.822 39.2904 159.86 38.97L159.86 37.91C159.838 37.5272 159.513 37.233 159.13 37.25 158.776 37.2742 158.494 37.556 158.47 37.91Z" id="Path_2503" fill="#67737A" transform="translate(-13.4 -2.5)"/><path d="M160.63 37 161.63 37C162.18 37 162.48 37.23 162.48 37.71L162.48 37.87C162.498 38.0914 162.389 38.304 162.2 38.42 162.423 38.5248 162.561 38.7537 162.55 39L162.55 39.14C162.55 39.53 162.29 39.82 161.74 39.82L160.64 39.82ZM161.73 38.31C162 38.31 162.17 38.16 162.17 37.82L162.17 37.8C162.17 37.44 162 37.31 161.63 37.31L160.93 37.31 160.93 38.31ZM161.73 39.54C162.09 39.54 162.25 39.36 162.25 39.09L162.25 39.09C162.268 38.8539 162.095 38.6462 161.86 38.62L160.94 38.62 160.94 39.62Z" id="Path_2504" fill="#67737A" transform="translate(-13.4 -2.5)"/><path d="M163.72 37 164 37 165 39.82 164.68 39.82 164.38 38.96 163.27 38.96 162.97 39.82 162.65 39.82ZM164.33 38.68 163.86 37.35 163.42 38.68Z" id="Path_2505" fill="#67737A" transform="translate(-13.4 -2.5)"/><path d="M165.18 37.35C165.18 37.03 165.51 36.85 165.88 36.85 166.25 36.85 166.58 37.04 166.58 37.35L166.58 38C166.58 38.32 166.25 38.5 165.88 38.5 165.51 38.5 165.18 38.32 165.18 38ZM165.33 38.02C165.33 38.28 165.6 38.4 165.88 38.4 166.16 38.4 166.43 38.28 166.43 38.02L166.43 37.37C166.43 37.11 166.16 36.98 165.88 36.98 165.6 36.98 165.33 37.11 165.33 37.37ZM165.54 37.21 165.91 37.21C166.11 37.21 166.24 37.31 166.24 37.49L166.24 37.55C166.245 37.6727 166.167 37.7837 166.05 37.82L166.29 38.18 166.12 38.18 165.89 37.83 165.68 37.83 165.68 38.18 165.54 38.18ZM165.91 37.71C166.04 37.71 166.11 37.66 166.11 37.53L166.11 37.53C166.11 37.4 166.04 37.36 165.91 37.36L165.68 37.36 165.68 37.73Z" id="Path_2506" fill="#67737A" transform="translate(-13.4 -2.5)"/></g></g></svg>