<svg viewBox="0 0 180.96 45" xmlns="http://www.w3.org/2000/svg" xmlns:xlink="http://www.w3.org/1999/xlink" id="Layer_1" overflow="hidden"><defs></defs><g id="Group_1571"><g id="Group_1567"><path d="M118.85 11.38C117.944 12.2854 116.476 12.2854 115.57 11.38 115.14 10.9431 114.903 10.3528 114.91 9.74 114.877 9.07928 115.145 8.43919 115.64 8 116.07 7.59619 116.64 7.37408 117.23 7.38 118.507 7.37999 119.544 8.41261 119.55 9.69 119.562 10.3204 119.308 10.9267 118.85 11.36M115.85 8.36C115.104 9.1092 115.104 10.3208 115.85 11.07 116.598 11.8097 117.802 11.8097 118.55 11.07 119.298 10.3266 119.302 9.11721 118.559 8.36887 118.556 8.3659 118.553 8.36295 118.55 8.36 118.206 7.98053 117.712 7.77201 117.2 7.79 116.682 7.77152 116.182 7.97964 115.83 8.36M116.18 10.99 116.18 8.43 117.42 8.43C117.596 8.43892 117.769 8.47958 117.93 8.55 118.157 8.67495 118.29 8.92144 118.27 9.18 118.29 9.35171 118.227 9.52272 118.1 9.64 117.971 9.74291 117.814 9.80552 117.65 9.82 117.783 9.83992 117.91 9.89133 118.02 9.97 118.179 10.1145 118.261 10.3259 118.24 10.54L118.24 10.77C118.235 10.7964 118.235 10.8236 118.24 10.85 118.24 10.85 118.24 10.9 118.24 10.93L118.24 10.99 117.6 10.99C117.573 10.875 117.556 10.7579 117.55 10.64 117.56 10.5369 117.56 10.4331 117.55 10.33 117.514 10.2439 117.446 10.1755 117.36 10.14 117.281 10.1209 117.199 10.1209 117.12 10.14L116.84 10.14 116.84 11ZM117.41 8.93C117.281 8.9044 117.149 8.9044 117.02 8.93L116.86 8.93 116.86 9.68 117.11 9.68C117.24 9.68228 117.369 9.64761 117.48 9.58 117.575 9.51101 117.628 9.3975 117.62 9.28 117.63 9.14286 117.542 9.01757 117.41 8.98" id="Path_2313" fill="#004CAC" transform="translate(-2.52 -2.5)"/><path d="M69.46 13.05C68.8766 13.0484 68.2991 12.9329 67.76 12.71 67.2048 12.4812 66.731 12.091 66.4 11.59 66.0119 10.9977 65.8228 10.2971 65.86 9.59 65.8502 8.95275 65.9692 8.32009 66.21 7.73 66.419 7.2099 66.7399 6.74217 67.15 6.36 67.5401 5.99607 67.9992 5.71386 68.5 5.53 69.016 5.34256 69.561 5.24777 70.11 5.25 70.7346 5.24755 71.351 5.39139 71.91 5.67 72.4356 5.93834 72.8704 6.35576 73.16 6.87 73.4716 7.42531 73.6303 8.05333 73.62 8.69 73.6197 9.27548 73.5217 9.8568 73.33 10.41 72.9635 11.4405 72.1792 12.2684 71.17 12.69 70.6238 12.9105 70.0389 13.0193 69.45 13.01M70 6.83C69.5349 6.82033 69.0802 6.96836 68.71 7.25 68.354 7.50599 68.0713 7.85077 67.89 8.25 67.7098 8.64548 67.6177 9.0754 67.62 9.51 67.6029 10.0215 67.7776 10.5209 68.11 10.91 68.4489 11.2979 68.9454 11.5112 69.46 11.49 69.806 11.4963 70.1486 11.421 70.46 11.27 70.7496 11.1253 71.0052 10.9208 71.21 10.67 71.4201 10.4197 71.5797 10.131 71.68 9.82 71.7814 9.49642 71.832 9.15908 71.83 8.82 71.8309 8.46704 71.7523 8.11841 71.6 7.8 71.3204 7.18094 70.6992 6.78774 70.02 6.8" id="Path_2314" fill="#004CAC" transform="translate(-2.52 -2.5)"/><path d="M84.17 13 85.08 6.87 82.58 6.87 82.7 6.07 82.7 6.07 82.7 6C82.7406 5.62663 83.0544 5.34288 83.43 5.34L89.54 5.34 89.41 6.19 89.41 6.19C89.3512 6.5475 89.0423 6.8099 88.68 6.81L86.79 6.81 85.89 13Z" id="Path_2315" fill="#004CAC" transform="translate(-2.52 -2.5)"/><path d="M94.75 6C94.1981 5.52349 93.476 5.2924 92.75 5.36L90.3 5.36 89.19 13 90.19 13C90.6306 12.9941 91.0006 12.6667 91.06 12.23L91.06 12.23 91.36 10.23 92.74 10.23C93.2701 10.2518 93.796 10.1272 94.26 9.87 94.6361 9.65943 94.9422 9.343 95.14 8.96 95.3227 8.56535 95.4149 8.13487 95.41 7.7 95.4398 7.06558 95.2001 6.44812 94.75 6M93.56 7.72C93.536 8.42706 93.002 9.01197 92.3 9.1L91.47 9.1 91.85 6.5C92.086 6.47515 92.324 6.47515 92.56 6.5 93.02 6.5 93.66 6.68 93.56 7.76" id="Path_2316" fill="#004CAC" transform="translate(-2.52 -2.5)"/><path d="M80.34 5.36 79.62 10.28 77.45 6.78C76.9585 5.89025 76.0163 5.34417 75 5.36L74.9 5.36 73.79 13 75.51 13 76.24 8.08 78.4 11.58C78.8977 12.4587 79.8301 13.0013 80.84 13L80.94 13 82.06 5.39Z" id="Path_2317" fill="#004CAC" transform="translate(-2.52 -2.5)"/><path d="M99.57 5.37 99 5.37C98.2313 5.37108 97.5235 5.78815 97.15 6.46L97.08 6.56C97.0835 6.57648 97.0835 6.59352 97.08 6.61L93.78 13 95.57 13 96.42 11.25 98.9 11.25 99.11 13 101 13ZM96.94 10.16 98.4 7.16 98.81 10.16Z" id="Path_2318" fill="#004CAC" transform="translate(-2.52 -2.5)"/><path d="M108.62 11.35 108.38 11.11C108.505 10.8975 108.609 10.6731 108.69 10.44 108.897 9.89379 109.002 9.31417 109 8.73 109.018 8.0906 108.862 7.45832 108.55 6.9 108.259 6.38946 107.824 5.97566 107.3 5.71 106.742 5.42779 106.125 5.28374 105.5 5.29 104.951 5.28692 104.406 5.38174 103.89 5.57 103.384 5.75013 102.921 6.03269 102.53 6.4 102.12 6.78217 101.799 7.2499 101.59 7.77 101.352 8.36072 101.237 8.99341 101.25 9.63 101.214 10.3356 101.399 11.0349 101.78 11.63 102.119 12.1273 102.595 12.5162 103.15 12.75 104.244 13.19 105.466 13.19 106.56 12.75 106.732 12.6733 106.899 12.5865 107.06 12.49L107.29 12.72C107.48 12.9035 107.736 13.0042 108 13L109 13 109 12 109 12C108.996 11.746 108.896 11.5029 108.72 11.32M104.95 11.48C104.434 11.5088 103.934 11.2941 103.6 10.9 103.269 10.5094 103.091 10.0119 103.1 9.5 103.107 9.06859 103.202 8.64318 103.38 8.25 103.565 7.85316 103.847 7.50927 104.2 7.25 104.567 6.96977 105.019 6.82492 105.48 6.84 106.163 6.82369 106.789 7.21755 107.07 7.84 107.225 8.1716 107.304 8.53389 107.3 8.9 107.305 9.24011 107.251 9.57853 107.14 9.9 107.038 10.2131 106.878 10.5047 106.67 10.76 106.466 11.0076 106.214 11.2117 105.93 11.36 105.618 11.5068 105.275 11.5787 104.93 11.57" id="Path_2319" fill="#004CAC" transform="translate(-2.52 -2.5)"/><path d="M65.21 7.09C65.21 7.09 62.74 6.32 61.54 7.48 60.34 8.64 60.32 10.48 61.63 11.21 62.94 11.94 65.05 10.99 65.2 10.76 65.2953 11.2489 65.2249 11.7556 65 12.2 64.64 12.93 62.6 13.35 60.95 12.78 59.4268 12.2861 58.498 10.748 58.77 9.17 58.9134 7.32063 60.2777 5.79648 62.1 5.45 63.3962 5.20437 64.7319 5.26602 66 5.63Z" id="Path_2320" fill="#004CAC" transform="translate(-2.52 -2.5)"/><path d="M113.73 7.4 112.44 7.4C111.957 7.39026 111.536 7.72688 111.44 8.2L110.72 13 110.72 13C111.276 12.7309 111.752 12.3206 112.1 11.81 112.679 11.1428 113.121 10.3681 113.4 9.53Z" id="Path_2321" fill="#004CAC" transform="translate(-2.52 -2.5)"/><path d="M112.9 6.71C113.502 6.7155 113.994 6.23197 114 5.63 114.005 5.02803 113.522 4.53559 112.92 4.53009 112.318 4.52459 111.825 5.00813 111.82 5.61009 111.82 5.61673 111.82 5.62336 111.82 5.63L111.82 5.63C111.82 6.22647 112.304 6.71 112.9 6.71L112.9 6.71" id="Path_2322" fill="#004CAC" transform="translate(-2.52 -2.5)"/><path d="M112.12 11.79C111.775 12.308 111.299 12.7254 110.74 13L112 13C112.483 13.0097 112.904 12.6731 113 12.2L113.39 9.53C113.108 10.367 112.667 11.1413 112.09 11.81" id="Path_2323" fill="#00B5F1" transform="translate(-2.52 -2.5)"/></g><g id="Group_1568"><path d="M61.46 26.55 57.56 18.7 59.3 18.7 62.77 25.87 63.36 25.87 67.09 18.7 68.8 18.7 64.61 26.53 68.8 33.53 67 33.53 63.32 27.2 62.75 27.2 59.28 33.51 57.53 33.51Z" id="Path_2324" fill="#00B5F1" transform="translate(-2.52 -2.5)"/><path d="M69.86 18.7 71.73 18.7 77 28 82.22 18.69 84.09 18.69 84.09 33.51 82.52 33.51 82.59 21.08 77.8 29.44 76.15 29.44 71.38 21.13 71.45 33.51 69.86 33.51Z" id="Path_2325" fill="#00B5F1" transform="translate(-2.52 -2.5)"/><path d="M86.44 18.7 88 18.7 88 32.05 95.22 32.05 95.22 33.51 86.42 33.51Z" id="Path_2326" fill="#00B5F1" transform="translate(-2.52 -2.5)"/><path d="M102.23 25.77C102.23 23.08 103.94 21.45 106.69 21.45 109.44 21.45 111.16 23.08 111.16 25.77L111.16 27.92 103.73 27.92 103.73 29.15C103.73 31.27 104.79 32.37 106.73 32.37 108.83 32.37 109.67 31.14 109.67 29.83L109.67 29.7 111.13 29.7 111.13 30C111.13 31.86 109.55 33.68 106.73 33.68 103.91 33.68 102.27 32.05 102.27 29.36ZM109.65 26.59 109.65 26C109.65 23.88 108.6 22.78 106.65 22.78 104.7 22.78 103.65 23.88 103.65 26L103.65 26.57Z" id="Path_2327" fill="#00B5F1" transform="translate(-2.52 -2.5)"/><path d="M113.74 21.66 115.08 21.66 115.18 22.95C116.028 22.0309 117.21 21.4906 118.46 21.45 121.11 21.45 122.4 22.76 122.4 25.45L122.4 33.51 120.9 33.51 120.9 25.72C120.9 23.72 120.26 22.8 118.36 22.8 117.124 22.8814 115.986 23.5033 115.25 24.5L115.25 33.5 113.75 33.5Z" id="Path_2328" fill="#00B5F1" transform="translate(-2.52 -2.5)"/><path d="M131 17.64 132.5 17.64 132.5 31.29C132.5 31.88 132.58 32.29 133.28 32.29 133.456 32.3152 133.634 32.3152 133.81 32.29L133.81 33.46C133.404 33.5356 132.993 33.5757 132.58 33.58 131.53 33.58 131 33.1 131 31.91Z" id="Path_2329" fill="#00B5F1" transform="translate(-2.52 -2.5)"/><path d="M135.2 23 133.87 22.88 133.87 21.66 136.71 21.66 136.71 33.51 135.21 33.51ZM136.41 17.9 138.21 17.9 136.21 20.49 134.75 20.49Z" id="Path_2330" fill="#00B5F1" transform="translate(-2.52 -2.5)"/><path d="M139.46 21.66 140.79 21.66 140.9 23C141.748 22.0809 142.93 21.5406 144.18 21.5 146.82 21.5 148.12 22.81 148.12 25.5L148.12 33.56 146.62 33.56 146.62 25.72C146.62 23.72 145.98 22.8 144.08 22.8 142.853 22.886 141.727 23.5079 141 24.5L141 33.5 139.5 33.5Z" id="Path_2331" fill="#00B5F1" transform="translate(-2.52 -2.5)"/><path d="M150.7 25.77C150.7 23.08 152.41 21.45 155.16 21.45 157.91 21.45 159.63 23.08 159.63 25.77L159.63 27.92 152.2 27.92 152.2 29.15C152.2 31.27 153.26 32.37 155.2 32.37 157.3 32.37 158.2 31.14 158.2 29.83L158.2 29.7 159.65 29.7 159.65 30C159.65 31.86 158.06 33.68 155.25 33.68 152.44 33.68 150.78 32.05 150.78 29.36ZM158.13 26.59 158.13 26C158.13 23.88 157.07 22.78 155.13 22.78 153.19 22.78 152.13 23.88 152.13 26L152.13 26.57Z" id="Path_2332" fill="#00B5F1" transform="translate(-2.52 -2.5)"/><path d="M162.09 25.66C162.09 22.97 163.46 21.45 166.09 21.45 167.36 21.5047 168.561 22.0411 169.45 22.95L169.56 21.66 170.89 21.66 170.89 33.51 169.56 33.51 169.45 32.22C168.569 33.1402 167.363 33.6786 166.09 33.72 163.44 33.72 162.09 32.2 162.09 29.51ZM163.59 29.24C163.59 31.24 164.31 32.37 166.21 32.37 167.469 32.2892 168.633 31.6742 169.41 30.68L169.41 24.5C168.627 23.5119 167.467 22.8956 166.21 22.8 164.31 22.8 163.59 23.9 163.59 25.93Z" id="Path_2333" fill="#00B5F1" transform="translate(-2.52 -2.5)"/><path d="M177.64 27.82 173.24 27.82 173.24 26.38 177.64 26.38 177.64 21.6 179.08 21.6 179.08 26.38 183.48 26.38 183.48 27.82 179.08 27.82 179.08 32.61 177.64 32.61Z" id="Path_2334" fill="#00B5F1" transform="translate(-2.52 -2.5)"/></g><g id="Group_1569"><path d="M37.39 2.5 23.84 2.5C23.22 2.5 17.46 11.21 17.46 11.88L17.46 32.5 47.46 32.5 47.46 12.57Z" id="Path_2335" fill="#008AD8" transform="translate(-2.52 -2.5)"/><path d="M22 2.5 42.87 2.5C45.405 2.5 47.46 4.55501 47.46 7.09L47.46 7.09 47.46 17.5 17.46 17.5 17.46 7.09C17.4544 4.57218 19.4823 2.52198 22 2.5" id="Path_2336" fill="#008AD8" transform="translate(-2.52 -2.5)"/><path d="M22 47.5 42.87 47.5C45.405 47.5 47.46 45.445 47.46 42.91L47.46 32.5 17.46 32.5 17.46 42.91C17.4599 45.4256 19.4846 47.4726 22 47.5L22 47.5" id="Path_2337" fill="#00B5F1" transform="translate(-2.52 -2.5)"/><path d="M21.9 13.77 21.9 13.77C21.9 14.2615 22.2985 14.66 22.79 14.66L42.4 14.66C42.8888 14.608 43.2428 14.1696 43.1908 13.6808 43.1464 13.2638 42.817 12.9344 42.4 12.89L22.79 12.89C22.304 12.8845 21.9056 13.274 21.9001 13.7599 21.9 13.7633 21.9 13.7666 21.9 13.77" id="Path_2338" fill="#FFFFFF" transform="translate(-2.52 -2.5)"/><path d="M42.4 18.8 22.78 18.8C22.2885 18.8 21.89 18.4015 21.89 17.91 21.89 17.4185 22.2885 17.02 22.78 17.02L42.4 17.02C42.8915 17.02 43.29 17.4185 43.29 17.91 43.29 18.4015 42.8915 18.8 42.4 18.8" id="Path_2339" fill="#FFFFFF" transform="translate(-2.52 -2.5)"/><path d="M42.4 22.93 22.78 22.93C22.2912 22.878 21.9372 22.4396 21.9892 21.9508 22.0336 21.5338 22.363 21.2044 22.78 21.16L42.4 21.16C42.8888 21.212 43.2428 21.6504 43.1908 22.1392 43.1464 22.5562 42.817 22.8856 42.4 22.93" id="Path_2340" fill="#FFFFFF" transform="translate(-2.52 -2.5)"/><path d="M38.34 27.07 22.78 27.07C22.2924 27.0645 21.9 26.6677 21.9 26.18 21.8944 25.6995 22.2794 25.3056 22.7599 25.3 22.7666 25.2999 22.7733 25.2999 22.78 25.3L38.33 25.3C38.8188 25.352 39.1728 25.7904 39.1208 26.2792 39.0764 26.6962 38.747 27.0256 38.33 27.07L38.33 27.07" id="Path_2341" fill="#FFFFFF" transform="translate(-2.52 -2.5)"/><path d="M17.46 7.09 17.46 9.38 47.46 9.38 47.46 7.09C47.46 4.55501 45.405 2.5 42.87 2.5L22 2.5C19.4705 2.49999 17.42 4.55052 17.42 7.07999 17.42 7.08333 17.42 7.08666 17.42 7.09L17.42 7.09" id="Path_2342" fill="#004CAC" transform="translate(-2.52 -2.5)"/><path d="M44.66 5.94C44.66 6.80156 43.9616 7.5 43.1 7.5 42.2384 7.5 41.54 6.80156 41.54 5.94 41.54 5.07844 42.2384 4.38 43.1 4.38L43.1 4.38C43.9593 4.38546 44.6545 5.08071 44.66 5.94" id="Path_2343" fill="#00B5F1" transform="translate(-2.52 -2.5)"/><path d="M40.14 5.94C40.14 6.80156 39.4415 7.49999 38.58 7.49997 37.7184 7.49995 37.02 6.8015 37.02 5.93994 37.02 5.07837 37.7185 4.37995 38.58 4.37997 38.5834 4.37997 38.5867 4.37998 38.59 4.38L38.59 4.38C39.446 4.37998 40.14 5.07393 40.14 5.92997 40.14 5.93331 40.14 5.93666 40.14 5.94" id="Path_2344" fill="#00B5F1" transform="translate(-2.52 -2.5)"/></g><path d="M29.94 32.58 17.44 32.58 17.44 43C17.4397 43.4614 17.5105 43.9202 17.65 44.36 23.4474 42.7157 28.0516 38.3026 29.94 32.58" id="Path_2345" fill="#003062" transform="translate(-2.52 -2.5)"/><path d="M30.72 27.82C30.72 35.6072 24.4072 41.92 16.62 41.92 8.83278 41.92 2.52 35.6072 2.52 27.82 2.52 20.0367 8.82669 13.7255 16.61 13.72 24.3972 13.7145 30.7145 20.0228 30.72 27.81 30.72 27.8133 30.72 27.8167 30.72 27.82L30.72 27.82" id="Path_2346" fill="#004CAC" transform="translate(-2.52 -2.5)"/><g id="Group_1570"><path d="M15.87 35.3C15.5843 35.3028 15.3085 35.1954 15.1 35L10.31 30.2C9.90347 29.756 9.93384 29.0665 10.3778 28.66 10.7944 28.2785 11.4334 28.2785 11.85 28.66L15.85 32.66 19.85 28.66C20.2733 28.232 20.9634 28.2282 21.3915 28.6515 21.3943 28.6543 21.3972 28.6571 21.4 28.66 21.8253 29.0782 21.8309 29.762 21.4127 30.1873 21.4085 30.1916 21.4043 30.1958 21.4 30.2L16.64 35C16.4386 35.2063 16.1579 35.3157 15.87 35.3Z" id="Path_2347" fill="#FFFFFF" transform="translate(-2.52 -2.5)"/><path d="M15.87 35.31C15.268 35.31 14.78 34.822 14.78 34.22L14.78 34.22 14.78 21.42C14.78 20.818 15.268 20.33 15.87 20.33 16.472 20.33 16.96 20.818 16.96 21.42L16.96 34.22C16.96 34.822 16.472 35.31 15.87 35.31Z" id="Path_2348" fill="#FFFFFF" transform="translate(-2.52 -2.5)"/></g></g></svg>