<?xml version="1.0" encoding="utf-8"?>
<!-- Generator: Adobe Illustrator 24.2.1, SVG Export Plug-In . SVG Version: 6.00 Build 0)  -->
<svg version="1.1" id="Capa_1" xmlns="http://www.w3.org/2000/svg" xmlns:xlink="http://www.w3.org/1999/xlink" x="0px" y="0px"
	 viewBox="0 0 75 75" style="enable-background:new 0 0 75 75;" xml:space="preserve">
<style type="text/css">
	.st0{fill:#00C0F3;}
	.st1{fill:none;}
</style>
<g>
	<path class="st0" d="M14.1,60c-1.2,0-2.2-1-2.2-2.2V28.6h47.7v10c1.6,0.6,3.1,1.4,4.4,2.4V18.9c0-3.7-3-6.6-6.6-6.6h-2.7V10
		c0-1.2-1-2.2-2.2-2.2c-1.2,0-2.2,1-2.2,2.2v2.2H21.2V10c0-1.2-1-2.2-2.2-2.2s-2.2,1-2.2,2.2v2.2h-2.7c-3.7,0-6.6,3-6.6,6.6v38.9
		c0,3.7,3,6.6,6.6,6.6h27.7c-1.1-1.3-2-2.8-2.7-4.4H14.1z M11.9,18.9c0-1.2,1-2.2,2.2-2.2h2.7v2.2c0,1.2,1,2.2,2.2,2.2
		s2.2-1,2.2-2.2v-2.2h29.2v2.2c0,1.2,1,2.2,2.2,2.2c1.2,0,2.2-1,2.2-2.2v-2.2h2.7c1.2,0,2.2,1,2.2,2.2v5.3H11.9V18.9z"/>
	<path class="st0" d="M65.1,46.2l0.8-0.6l-1.8-0.3L62.1,45l-0.5,3.8l0.8-0.6c0.9,1.3,1.4,2.7,1.7,4.2c0.1,0.5,0.1,1,0.1,1.5
		c0,0.5,0,1-0.1,1.5c-0.7,4.8-4.9,8.5-9.9,8.5c-2.2,0-4.2-0.7-6-2L47.4,63c0,0,0,0,0,0l-0.1,0.2l-0.9,1.2l-0.1,0.1
		c2.3,1.7,5.1,2.7,8,2.7c7.3,0,13.3-6,13.3-13.3C67.5,51.1,66.7,48.5,65.1,46.2z"/>
	<rect x="15.9" y="33.2" class="st0" width="4.4" height="4.4"/>
	<rect x="24.7" y="33.2" class="st0" width="4.4" height="4.4"/>
	<rect x="33.6" y="33.2" class="st0" width="4.4" height="4.4"/>
	<rect x="42.4" y="33.2" class="st0" width="4.4" height="4.4"/>
	<polygon class="st0" points="54.2,37.7 55.7,37.7 55.7,33.2 51.3,33.2 51.3,37.7 	"/>
	<rect x="15.9" y="42.1" class="st0" width="4.4" height="4.4"/>
	<rect x="24.7" y="42.1" class="st0" width="4.4" height="4.4"/>
	<rect x="33.6" y="42.1" class="st0" width="4.4" height="4.4"/>
	<rect x="15.9" y="50.9" class="st0" width="4.4" height="4.4"/>
	<rect x="24.7" y="50.9" class="st0" width="4.4" height="4.4"/>
	<polygon class="st0" points="33.6,55.3 38,55.3 38,53.9 38,50.9 33.6,50.9 	"/>
	<path class="st0" d="M46.3,62.7l0.4-2.7l0.1-1L46,59.6c-1.2-1.7-1.8-3.6-1.8-5.7c0-5.5,4.5-10,10-10c2,0,3.8,0.6,5.4,1.6
		c0.2,0.1,0.4,0.2,0.5,0.4l0.9-1.1c0,0,0,0,0,0l0.1-0.2l1-1.3c-0.8-0.6-1.6-1.1-2.5-1.5c-1.7-0.8-3.5-1.2-5.4-1.2
		c-7.3,0-13.3,6-13.3,13.3c0,2.2,0.5,4.2,1.5,6.1c0.3,0.5,0.6,1.1,1,1.6l-0.8,0.6L46.3,62.7z"/>
</g>
<rect class="st1" width="75" height="75"/>
</svg>
